solid 0.63.D00912.06020
  facet normal 0.000000e+00 0.000000e+00 -1.000000e+00
    outer loop
      vertex -2.898300 -0.000000 -6.000000
      vertex -3.938700 -1.961200 -6.000000
      vertex -4.381200 -0.406000 -6.000000
    endloop
  endfacet
  facet normal 0.000000e+00 -0.000000e+00 -1.000000e+00
    outer loop
      vertex -3.511300 2.651600 -6.000000
      vertex -2.898300 -0.000000 -6.000000
      vertex -4.232000 1.204100 -6.000000
    endloop
  endfacet
  facet normal -0.000000e+00 0.000000e+00 -1.000000e+00
    outer loop
      vertex 0.808500 4.325100 -6.000000
      vertex -1.449100 2.510000 -6.000000
      vertex -0.808500 4.325100 -6.000000
    endloop
  endfacet
  facet normal 0.000000e+00 0.000000e+00 -1.000000e+00
    outer loop
      vertex 1.449100 -2.510000 -6.000000
      vertex 3.938700 -1.961200 -6.000000
      vertex 2.964300 -3.251600 -6.000000
    endloop
  endfacet
  facet normal 0.000000e+00 0.000000e+00 -1.000000e+00
    outer loop
      vertex 0.000000 -4.400000 -6.000000
      vertex 1.449100 -2.510000 -6.000000
      vertex 1.589500 -4.102900 -6.000000
    endloop
  endfacet
  facet normal 0.000000e+00 0.000000e+00 -1.000000e+00
    outer loop
      vertex -3.938700 -1.961200 -6.000000
      vertex -1.449100 -2.510000 -6.000000
      vertex -2.964300 -3.251600 -6.000000
    endloop
  endfacet
  facet normal 0.000000e+00 -0.000000e+00 -1.000000e+00
    outer loop
      vertex -4.232000 1.204100 -6.000000
      vertex -2.898300 -0.000000 -6.000000
      vertex -4.381200 -0.406000 -6.000000
    endloop
  endfacet
  facet normal 0.000000e+00 0.000000e+00 -1.000000e+00
    outer loop
      vertex -1.449100 2.510000 -6.000000
      vertex 0.808500 4.325100 -6.000000
      vertex 1.449100 2.510000 -6.000000
    endloop
  endfacet
  facet normal 0.000000e+00 0.000000e+00 -1.000000e+00
    outer loop
      vertex 3.511300 2.651600 -6.000000
      vertex 2.898300 -0.000000 -6.000000
      vertex 1.449100 2.510000 -6.000000
    endloop
  endfacet
  facet normal 0.000000e+00 0.000000e+00 -1.000000e+00
    outer loop
      vertex 3.938700 -1.961200 -6.000000
      vertex 2.898300 -0.000000 -6.000000
      vertex 4.381200 -0.406000 -6.000000
    endloop
  endfacet
  facet normal -0.000000e+00 0.000000e+00 -1.000000e+00
    outer loop
      vertex 1.449100 -2.510000 -6.000000
      vertex 0.000000 -4.400000 -6.000000
      vertex -1.449100 -2.510000 -6.000000
    endloop
  endfacet
  facet normal 0.000000e+00 0.000000e+00 -1.000000e+00
    outer loop
      vertex -1.449100 -2.510000 -6.000000
      vertex -3.938700 -1.961200 -6.000000
      vertex -2.898300 -0.000000 -6.000000
    endloop
  endfacet
  facet normal 0.000000e+00 0.000000e+00 -1.000000e+00
    outer loop
      vertex -2.898300 -0.000000 -6.000000
      vertex -3.511300 2.651600 -6.000000
      vertex -1.449100 2.510000 -6.000000
    endloop
  endfacet
  facet normal 0.000000e+00 0.000000e+00 -1.000000e+00
    outer loop
      vertex -0.808500 4.325100 -6.000000
      vertex -1.449100 2.510000 -6.000000
      vertex -2.316300 3.741000 -6.000000
    endloop
  endfacet
  facet normal -0.000000e+00 0.000000e+00 -1.000000e+00
    outer loop
      vertex 3.511300 2.651600 -6.000000
      vertex 1.449100 2.510000 -6.000000
      vertex 2.316300 3.741000 -6.000000
    endloop
  endfacet
  facet normal 0.000000e+00 -0.000000e+00 -1.000000e+00
    outer loop
      vertex -1.449100 -2.510000 -6.000000
      vertex 0.000000 -4.400000 -6.000000
      vertex -1.589500 -4.102900 -6.000000
    endloop
  endfacet
  facet normal 0.000000e+00 0.000000e+00 -1.000000e+00
    outer loop
      vertex -2.964300 -3.251600 -6.000000
      vertex -1.449100 -2.510000 -6.000000
      vertex -1.589500 -4.102900 -6.000000
    endloop
  endfacet
  facet normal 0.000000e+00 0.000000e+00 -1.000000e+00
    outer loop
      vertex 1.449100 -2.510000 -6.000000
      vertex 2.964300 -3.251600 -6.000000
      vertex 1.589500 -4.102900 -6.000000
    endloop
  endfacet
  facet normal 0.000000e+00 0.000000e+00 -1.000000e+00
    outer loop
      vertex -1.449100 2.510000 -6.000000
      vertex -3.511300 2.651600 -6.000000
      vertex -2.316300 3.741000 -6.000000
    endloop
  endfacet
  facet normal 0.000000e+00 0.000000e+00 -1.000000e+00
    outer loop
      vertex 2.898300 -0.000000 -6.000000
      vertex 4.232000 1.204100 -6.000000
      vertex 4.381200 -0.406000 -6.000000
    endloop
  endfacet
  facet normal -0.000000e+00 0.000000e+00 -1.000000e+00
    outer loop
      vertex 3.938700 -1.961200 -6.000000
      vertex 1.449100 -2.510000 -6.000000
      vertex 2.898300 -0.000000 -6.000000
    endloop
  endfacet
  facet normal 0.000000e+00 0.000000e+00 -1.000000e+00
    outer loop
      vertex 2.898300 -0.000000 -6.000000
      vertex 3.511300 2.651600 -6.000000
      vertex 4.232000 1.204100 -6.000000
    endloop
  endfacet
  facet normal 0.000000e+00 0.000000e+00 -1.000000e+00
    outer loop
      vertex 1.449100 2.510000 -6.000000
      vertex 0.808500 4.325100 -6.000000
      vertex 2.316300 3.741000 -6.000000
    endloop
  endfacet
  facet normal 9.956607e-01 9.230609e-02 -1.180910e-02
    outer loop
      vertex 4.809100 1.368300 -5.400000
      vertex 5.000000 -0.000000 0.000000
      vertex 4.936500 -0.005900 -5.400000
    endloop
  endfacet
  facet normal 8.950911e-01 4.456634e-01 -1.400309e-02
    outer loop
      vertex 3.990100 3.013200 -5.400000
      vertex 4.330100 2.500000 0.000000
      vertex 4.262400 2.466300 -5.400000
    endloop
  endfacet
  facet normal 6.736880e-01 7.389940e-01 5.681687e-03
    outer loop
      vertex 2.500000 4.330100 0.000000
      vertex 3.990100 3.013200 -5.400000
      vertex 2.632200 4.251100 -5.400000
    endloop
  endfacet
  facet normal 7.069250e-01 7.069250e-01 2.267393e-02
    outer loop
      vertex 3.990100 3.013200 -5.400000
      vertex 2.500000 4.330100 0.000000
      vertex 4.330100 2.500000 0.000000
    endloop
  endfacet
  facet normal 2.587214e-01 9.655225e-01 2.880026e-02
    outer loop
      vertex 2.500000 4.330100 0.000000
      vertex 0.918700 4.914900 -5.400000
      vertex 0.000000 5.000000 0.000000
    endloop
  endfacet
  facet normal 3.612595e-01 9.324529e-01 -4.807640e-03
    outer loop
      vertex 0.918700 4.914900 -5.400000
      vertex 2.500000 4.330100 0.000000
      vertex 2.490600 4.305900 -5.400000
    endloop
  endfacet
  facet normal 0.000000e+00 9.998758e-01 -1.575729e-02
    outer loop
      vertex -0.918700 4.914900 -5.400000
      vertex 0.000000 5.000000 0.000000
      vertex 0.000000 4.914900 -5.400000
    endloop
  endfacet
  facet normal -2.587214e-01 9.655225e-01 2.880026e-02
    outer loop
      vertex -0.918700 4.914900 -5.400000
      vertex -2.500000 4.330100 0.000000
      vertex 0.000000 5.000000 0.000000
    endloop
  endfacet
  facet normal -3.609154e-01 9.325862e-01 -4.807638e-03
    outer loop
      vertex -2.632200 4.251100 -5.400000
      vertex -2.500000 4.330100 0.000000
      vertex -2.490600 4.305900 -5.400000
    endloop
  endfacet
  facet normal -7.069250e-01 7.069250e-01 2.267393e-02
    outer loop
      vertex -2.500000 4.330100 0.000000
      vertex -3.990100 3.013200 -5.400000
      vertex -4.330100 2.500000 0.000000
    endloop
  endfacet
  facet normal 9.654463e-01 2.587009e-01 3.142163e-02
    outer loop
      vertex 5.000000 -0.000000 0.000000
      vertex 4.809100 1.368300 -5.400000
      vertex 4.330100 2.500000 0.000000
    endloop
  endfacet
  facet normal -8.950882e-01 4.456692e-01 -1.400309e-02
    outer loop
      vertex -4.809100 1.368300 -5.400000
      vertex -4.330100 2.500000 0.000000
      vertex -4.262400 2.466300 -5.400000
    endloop
  endfacet
  facet normal -9.654463e-01 2.587009e-01 3.142163e-02
    outer loop
      vertex -4.809100 1.368300 -5.400000
      vertex -5.000000 -0.000000 0.000000
      vertex -4.330100 2.500000 0.000000
    endloop
  endfacet
  facet normal -9.956645e-01 9.226423e-02 -1.180910e-02
    outer loop
      vertex -4.978700 -0.461300 -5.400000
      vertex -5.000000 -0.000000 0.000000
      vertex -4.936500 -0.005900 -5.400000
    endloop
  endfacet
  facet normal -9.617496e-01 -2.736583e-01 1.220063e-02
    outer loop
      vertex -4.330100 -2.500000 0.000000
      vertex -4.978700 -0.461300 -5.400000
      vertex -4.475800 -2.228700 -5.400000
    endloop
  endfacet
  facet normal -9.657615e-01 -2.587854e-01 1.829759e-02
    outer loop
      vertex -4.978700 -0.461300 -5.400000
      vertex -4.330100 -2.500000 0.000000
      vertex -5.000000 -0.000000 0.000000
    endloop
  endfacet
  facet normal -7.067768e-01 -7.067768e-01 3.054844e-02
    outer loop
      vertex -4.330100 -2.500000 0.000000
      vertex -3.368500 -3.695000 -5.400000
      vertex -2.500000 -4.330100 0.000000
    endloop
  endfacet
  facet normal -7.980006e-01 -6.025931e-01 -8.751609e-03
    outer loop
      vertex -3.368500 -3.695000 -5.400000
      vertex -4.330100 -2.500000 0.000000
      vertex -4.292400 -2.471500 -5.400000
    endloop
  endfacet
  facet normal -5.263828e-01 -8.501097e-01 -1.531724e-02
    outer loop
      vertex -1.806200 -4.662400 -5.400000
      vertex -2.500000 -4.330100 0.000000
      vertex -2.456400 -4.259800 -5.400000
    endloop
  endfacet
  facet normal -2.587401e-01 -9.655922e-01 2.617634e-02
    outer loop
      vertex -1.806200 -4.662400 -5.400000
      vertex 0.000000 -5.000000 0.000000
      vertex -2.500000 -4.330100 0.000000
    endloop
  endfacet
  facet normal -1.837300e-01 -9.829768e-01 -0.000000e+00
    outer loop
      vertex 0.000000 -5.000000 0.000000
      vertex -1.806200 -4.662400 -5.400000
      vertex 0.000000 -5.000000 -5.400000
    endloop
  endfacet
  facet normal 9.617496e-01 -2.736583e-01 1.220063e-02
    outer loop
      vertex 4.978700 -0.461300 -5.400000
      vertex 4.330100 -2.500000 0.000000
      vertex 4.475800 -2.228700 -5.400000
    endloop
  endfacet
  facet normal 9.657615e-01 -2.587854e-01 1.829759e-02
    outer loop
      vertex 4.330100 -2.500000 0.000000
      vertex 4.978700 -0.461300 -5.400000
      vertex 5.000000 -0.000000 0.000000
    endloop
  endfacet
  facet normal 7.979137e-01 -6.027082e-01 -8.751610e-03
    outer loop
      vertex 4.475800 -2.228700 -5.400000
      vertex 4.330100 -2.500000 0.000000
      vertex 4.292400 -2.471500 -5.400000
    endloop
  endfacet
  facet normal 7.067768e-01 -7.067768e-01 3.054844e-02
    outer loop
      vertex 3.368500 -3.695000 -5.400000
      vertex 4.330100 -2.500000 0.000000
      vertex 2.500000 -4.330100 0.000000
    endloop
  endfacet
  facet normal 5.264051e-01 -8.500959e-01 -1.531724e-02
    outer loop
      vertex 3.368500 -3.695000 -5.400000
      vertex 2.500000 -4.330100 0.000000
      vertex 2.456400 -4.259800 -5.400000
    endloop
  endfacet
  facet normal 1.837300e-01 -9.829768e-01 0.000000e+00
    outer loop
      vertex 1.806200 -4.662400 -5.400000
      vertex 0.000000 -5.000000 0.000000
      vertex 0.000000 -5.000000 -5.400000
    endloop
  endfacet
  facet normal 2.587401e-01 -9.655922e-01 2.617634e-02
    outer loop
      vertex 0.000000 -5.000000 0.000000
      vertex 1.806200 -4.662400 -5.400000
      vertex 2.500000 -4.330100 0.000000
    endloop
  endfacet
  facet normal 5.263828e-01 -8.501097e-01 -1.531724e-02
    outer loop
      vertex 2.500000 -4.330100 0.000000
      vertex 1.806200 -4.662400 -5.400000
      vertex 2.456400 -4.259800 -5.400000
    endloop
  endfacet
  facet normal 7.980006e-01 -6.025931e-01 -8.751609e-03
    outer loop
      vertex 4.330100 -2.500000 0.000000
      vertex 3.368500 -3.695000 -5.400000
      vertex 4.292400 -2.471500 -5.400000
    endloop
  endfacet
  facet normal 9.956645e-01 9.226423e-02 -1.180910e-02
    outer loop
      vertex 5.000000 -0.000000 0.000000
      vertex 4.978700 -0.461300 -5.400000
      vertex 4.936500 -0.005900 -5.400000
    endloop
  endfacet
  facet normal 8.950882e-01 4.456692e-01 -1.400309e-02
    outer loop
      vertex 4.330100 2.500000 0.000000
      vertex 4.809100 1.368300 -5.400000
      vertex 4.262400 2.466300 -5.400000
    endloop
  endfacet
  facet normal 3.609154e-01 9.325862e-01 -4.807638e-03
    outer loop
      vertex 2.500000 4.330100 0.000000
      vertex 2.632200 4.251100 -5.400000
      vertex 2.490600 4.305900 -5.400000
    endloop
  endfacet
  facet normal 0.000000e+00 9.998758e-01 -1.575729e-02
    outer loop
      vertex 0.000000 5.000000 0.000000
      vertex 0.918700 4.914900 -5.400000
      vertex 0.000000 4.914900 -5.400000
    endloop
  endfacet
  facet normal -3.612595e-01 9.324529e-01 -4.807640e-03
    outer loop
      vertex -2.500000 4.330100 0.000000
      vertex -0.918700 4.914900 -5.400000
      vertex -2.490600 4.305900 -5.400000
    endloop
  endfacet
  facet normal -8.950911e-01 4.456634e-01 -1.400309e-02
    outer loop
      vertex -4.330100 2.500000 0.000000
      vertex -3.990100 3.013200 -5.400000
      vertex -4.262400 2.466300 -5.400000
    endloop
  endfacet
  facet normal -9.956607e-01 9.230609e-02 -1.180910e-02
    outer loop
      vertex -5.000000 -0.000000 0.000000
      vertex -4.809100 1.368300 -5.400000
      vertex -4.936500 -0.005900 -5.400000
    endloop
  endfacet
  facet normal -7.979137e-01 -6.027082e-01 -8.751610e-03
    outer loop
      vertex -4.330100 -2.500000 0.000000
      vertex -4.475800 -2.228700 -5.400000
      vertex -4.292400 -2.471500 -5.400000
    endloop
  endfacet
  facet normal -5.264051e-01 -8.500959e-01 -1.531724e-02
    outer loop
      vertex -2.500000 -4.330100 0.000000
      vertex -3.368500 -3.695000 -5.400000
      vertex -2.456400 -4.259800 -5.400000
    endloop
  endfacet
  facet normal -6.736880e-01 7.389940e-01 5.681687e-03
    outer loop
      vertex -3.990100 3.013200 -5.400000
      vertex -2.500000 4.330100 0.000000
      vertex -2.632200 4.251100 -5.400000
    endloop
  endfacet
  facet normal 0.000000e+00 0.000000e+00 1.000000e+00
    outer loop
      vertex -2.954400 -0.520900 0.000000
      vertex -4.330100 -2.500000 0.000000
      vertex -1.928400 -2.298100 0.000000
    endloop
  endfacet
  facet normal 0.000000e+00 0.000000e+00 1.000000e+00
    outer loop
      vertex 1.026100 2.819100 0.000000
      vertex 0.000000 5.000000 0.000000
      vertex -1.026100 2.819100 0.000000
    endloop
  endfacet
  facet normal 0.000000e+00 -0.000000e+00 1.000000e+00
    outer loop
      vertex -4.330100 -2.500000 0.000000
      vertex -2.954400 -0.520900 0.000000
      vertex -5.000000 -0.000000 0.000000
    endloop
  endfacet
  facet normal 0.000000e+00 0.000000e+00 1.000000e+00
    outer loop
      vertex 0.000000 -3.000000 0.000000
      vertex -2.500000 -4.330100 0.000000
      vertex 0.000000 -5.000000 0.000000
    endloop
  endfacet
  facet normal -0.000000e+00 0.000000e+00 1.000000e+00
    outer loop
      vertex 1.928400 -2.298100 0.000000
      vertex 4.330100 -2.500000 0.000000
      vertex 2.954400 -0.520900 0.000000
    endloop
  endfacet
  facet normal 0.000000e+00 0.000000e+00 1.000000e+00
    outer loop
      vertex 2.598100 1.500000 0.000000
      vertex 2.500000 4.330100 0.000000
      vertex 1.026100 2.819100 0.000000
    endloop
  endfacet
  facet normal 0.000000e+00 0.000000e+00 1.000000e+00
    outer loop
      vertex 0.000000 5.000000 0.000000
      vertex 1.026100 2.819100 0.000000
      vertex 2.500000 4.330100 0.000000
    endloop
  endfacet
  facet normal 0.000000e+00 0.000000e+00 1.000000e+00
    outer loop
      vertex -2.500000 -4.330100 0.000000
      vertex 0.000000 -3.000000 0.000000
      vertex -1.928400 -2.298100 0.000000
    endloop
  endfacet
  facet normal -0.000000e+00 0.000000e+00 1.000000e+00
    outer loop
      vertex 0.000000 -3.000000 0.000000
      vertex 2.500000 -4.330100 0.000000
      vertex 1.928400 -2.298100 0.000000
    endloop
  endfacet
  facet normal 0.000000e+00 0.000000e+00 1.000000e+00
    outer loop
      vertex 4.330100 -2.500000 0.000000
      vertex 1.928400 -2.298100 0.000000
      vertex 2.500000 -4.330100 0.000000
    endloop
  endfacet
  facet normal -0.000000e+00 0.000000e+00 1.000000e+00
    outer loop
      vertex 2.598100 1.500000 0.000000
      vertex 5.000000 -0.000000 0.000000
      vertex 4.330100 2.500000 0.000000
    endloop
  endfacet
  facet normal 0.000000e+00 -0.000000e+00 1.000000e+00
    outer loop
      vertex -1.026100 2.819100 0.000000
      vertex 0.000000 5.000000 0.000000
      vertex -2.500000 4.330100 0.000000
    endloop
  endfacet
  facet normal 0.000000e+00 -0.000000e+00 1.000000e+00
    outer loop
      vertex -2.598100 1.500000 0.000000
      vertex -2.500000 4.330100 0.000000
      vertex -4.330100 2.500000 0.000000
    endloop
  endfacet
  facet normal 0.000000e+00 0.000000e+00 1.000000e+00
    outer loop
      vertex 2.500000 -4.330100 0.000000
      vertex 0.000000 -3.000000 0.000000
      vertex 0.000000 -5.000000 0.000000
    endloop
  endfacet
  facet normal 0.000000e+00 0.000000e+00 1.000000e+00
    outer loop
      vertex 5.000000 -0.000000 0.000000
      vertex 2.598100 1.500000 0.000000
      vertex 2.954400 -0.520900 0.000000
    endloop
  endfacet
  facet normal 0.000000e+00 0.000000e+00 1.000000e+00
    outer loop
      vertex -2.500000 4.330100 0.000000
      vertex -2.598100 1.500000 0.000000
      vertex -1.026100 2.819100 0.000000
    endloop
  endfacet
  facet normal 0.000000e+00 0.000000e+00 1.000000e+00
    outer loop
      vertex -2.598100 1.500000 0.000000
      vertex -5.000000 -0.000000 0.000000
      vertex -2.954400 -0.520900 0.000000
    endloop
  endfacet
  facet normal -0.000000e+00 0.000000e+00 1.000000e+00
    outer loop
      vertex 2.954400 -0.520900 0.000000
      vertex 4.330100 -2.500000 0.000000
      vertex 5.000000 -0.000000 0.000000
    endloop
  endfacet
  facet normal 0.000000e+00 0.000000e+00 1.000000e+00
    outer loop
      vertex -5.000000 -0.000000 0.000000
      vertex -2.598100 1.500000 0.000000
      vertex -4.330100 2.500000 0.000000
    endloop
  endfacet
  facet normal 0.000000e+00 0.000000e+00 1.000000e+00
    outer loop
      vertex 2.500000 4.330100 0.000000
      vertex 2.598100 1.500000 0.000000
      vertex 4.330100 2.500000 0.000000
    endloop
  endfacet
  facet normal 0.000000e+00 0.000000e+00 1.000000e+00
    outer loop
      vertex -1.928400 -2.298100 0.000000
      vertex -4.330100 -2.500000 0.000000
      vertex -2.500000 -4.330100 0.000000
    endloop
  endfacet
  facet normal -3.420287e-01 -9.396895e-01 0.000000e+00
    outer loop
      vertex 0.000000 -3.000000 0.000000
      vertex -1.928400 -2.298100 19.445500
      vertex -1.928400 -2.298100 0.000000
    endloop
  endfacet
  facet normal -8.660395e-01 -4.999755e-01 -0.000000e+00
    outer loop
      vertex -1.928400 -2.298100 19.445500
      vertex -2.954400 -0.520900 0.000000
      vertex -1.928400 -2.298100 0.000000
    endloop
  endfacet
  facet normal -9.848110e-01 1.736296e-01 0.000000e+00
    outer loop
      vertex -2.954400 -0.520900 0.000000
      vertex -2.598100 1.500000 19.445500
      vertex -2.598100 1.500000 0.000000
    endloop
  endfacet
  facet normal -6.427977e-01 7.660360e-01 0.000000e+00
    outer loop
      vertex -2.598100 1.500000 19.445500
      vertex -1.026100 2.819100 0.000000
      vertex -2.598100 1.500000 0.000000
    endloop
  endfacet
  facet normal 0.000000e+00 1.000000e+00 0.000000e+00
    outer loop
      vertex -1.026100 2.819100 0.000000
      vertex 1.026100 2.819100 19.445500
      vertex 1.026100 2.819100 0.000000
    endloop
  endfacet
  facet normal 6.427977e-01 7.660360e-01 0.000000e+00
    outer loop
      vertex 1.026100 2.819100 19.445500
      vertex 2.598100 1.500000 0.000000
      vertex 1.026100 2.819100 0.000000
    endloop
  endfacet
  facet normal 9.848110e-01 1.736296e-01 0.000000e+00
    outer loop
      vertex 2.598100 1.500000 0.000000
      vertex 2.954400 -0.520900 19.445500
      vertex 2.954400 -0.520900 0.000000
    endloop
  endfacet
  facet normal 8.660395e-01 -4.999755e-01 0.000000e+00
    outer loop
      vertex 2.954400 -0.520900 19.445500
      vertex 1.928400 -2.298100 0.000000
      vertex 2.954400 -0.520900 0.000000
    endloop
  endfacet
  facet normal 3.420287e-01 -9.396895e-01 0.000000e+00
    outer loop
      vertex 1.928400 -2.298100 0.000000
      vertex 0.000000 -3.000000 19.445500
      vertex 0.000000 -3.000000 0.000000
    endloop
  endfacet
  facet normal 3.420287e-01 -9.396895e-01 0.000000e+00
    outer loop
      vertex 0.000000 -3.000000 19.445500
      vertex 1.928400 -2.298100 0.000000
      vertex 1.928400 -2.298100 19.445500
    endloop
  endfacet
  facet normal 8.660395e-01 -4.999755e-01 0.000000e+00
    outer loop
      vertex 1.928400 -2.298100 0.000000
      vertex 2.954400 -0.520900 19.445500
      vertex 1.928400 -2.298100 19.445500
    endloop
  endfacet
  facet normal 9.848110e-01 1.736296e-01 0.000000e+00
    outer loop
      vertex 2.954400 -0.520900 19.445500
      vertex 2.598100 1.500000 0.000000
      vertex 2.598100 1.500000 19.445500
    endloop
  endfacet
  facet normal 6.427977e-01 7.660360e-01 -0.000000e+00
    outer loop
      vertex 2.598100 1.500000 0.000000
      vertex 1.026100 2.819100 19.445500
      vertex 2.598100 1.500000 19.445500
    endloop
  endfacet
  facet normal 0.000000e+00 1.000000e+00 0.000000e+00
    outer loop
      vertex 1.026100 2.819100 19.445500
      vertex -1.026100 2.819100 0.000000
      vertex -1.026100 2.819100 19.445500
    endloop
  endfacet
  facet normal -3.420287e-01 -9.396895e-01 0.000000e+00
    outer loop
      vertex -1.928400 -2.298100 19.445500
      vertex 0.000000 -3.000000 0.000000
      vertex 0.000000 -3.000000 19.445500
    endloop
  endfacet
  facet normal -8.660395e-01 -4.999755e-01 0.000000e+00
    outer loop
      vertex -2.954400 -0.520900 0.000000
      vertex -1.928400 -2.298100 19.445500
      vertex -2.954400 -0.520900 19.445500
    endloop
  endfacet
  facet normal -6.427977e-01 7.660360e-01 0.000000e+00
    outer loop
      vertex -1.026100 2.819100 0.000000
      vertex -2.598100 1.500000 19.445500
      vertex -1.026100 2.819100 19.445500
    endloop
  endfacet
  facet normal -9.848110e-01 1.736296e-01 0.000000e+00
    outer loop
      vertex -2.598100 1.500000 19.445500
      vertex -2.954400 -0.520900 0.000000
      vertex -2.954400 -0.520900 19.445500
    endloop
  endfacet
  facet normal -4.684204e-01 5.582968e-01 6.847532e-01
    outer loop
      vertex -0.836400 2.298000 20.000000
      vertex -2.598100 1.500000 19.445500
      vertex -2.117900 1.222800 20.000000
    endloop
  endfacet
  facet normal -7.176432e-01 1.264969e-01 6.848261e-01
    outer loop
      vertex -2.117900 1.222800 20.000000
      vertex -2.954400 -0.520900 19.445500
      vertex -2.408300 -0.424700 20.000000
    endloop
  endfacet
  facet normal -6.311038e-01 -3.643442e-01 6.848075e-01
    outer loop
      vertex -1.571900 -1.873400 20.000000
      vertex -2.954400 -0.520900 19.445500
      vertex -1.928400 -2.298100 19.445500
    endloop
  endfacet
  facet normal -6.311208e-01 -3.643746e-01 6.847756e-01
    outer loop
      vertex -2.954400 -0.520900 19.445500
      vertex -1.571900 -1.873400 20.000000
      vertex -2.408300 -0.424700 20.000000
    endloop
  endfacet
  facet normal 0.000000e+00 7.287127e-01 6.848196e-01
    outer loop
      vertex -0.836400 2.298000 20.000000
      vertex 1.026100 2.819100 19.445500
      vertex -1.026100 2.819100 19.445500
    endloop
  endfacet
  facet normal 4.683670e-01 5.582331e-01 6.848417e-01
    outer loop
      vertex 2.117900 1.222800 20.000000
      vertex 1.026100 2.819100 19.445500
      vertex 0.836400 2.298000 20.000000
    endloop
  endfacet
  facet normal 7.176951e-01 1.265061e-01 6.847700e-01
    outer loop
      vertex 2.408300 -0.424700 20.000000
      vertex 2.598100 1.500000 19.445500
      vertex 2.117900 1.222800 20.000000
    endloop
  endfacet
  facet normal 6.311271e-01 -3.643576e-01 6.847789e-01
    outer loop
      vertex 2.408300 -0.424700 20.000000
      vertex 1.928400 -2.298100 19.445500
      vertex 2.954400 -0.520900 19.445500
    endloop
  endfacet
  facet normal 2.492440e-01 -6.848218e-01 6.847602e-01
    outer loop
      vertex 0.000000 -2.445500 20.000000
      vertex 1.928400 -2.298100 19.445500
      vertex 1.571900 -1.873400 20.000000
    endloop
  endfacet
  facet normal 2.492501e-01 -6.847896e-01 6.847902e-01
    outer loop
      vertex 1.928400 -2.298100 19.445500
      vertex 0.000000 -2.445500 20.000000
      vertex 0.000000 -3.000000 19.445500
    endloop
  endfacet
  facet normal 6.310923e-01 -3.643581e-01 6.848107e-01
    outer loop
      vertex 1.928400 -2.298100 19.445500
      vertex 2.408300 -0.424700 20.000000
      vertex 1.571900 -1.873400 20.000000
    endloop
  endfacet
  facet normal 7.176430e-01 1.265259e-01 6.848209e-01
    outer loop
      vertex 2.598100 1.500000 19.445500
      vertex 2.408300 -0.424700 20.000000
      vertex 2.954400 -0.520900 19.445500
    endloop
  endfacet
  facet normal 4.684500e-01 5.582620e-01 6.847614e-01
    outer loop
      vertex 1.026100 2.819100 19.445500
      vertex 2.117900 1.222800 20.000000
      vertex 2.598100 1.500000 19.445500
    endloop
  endfacet
  facet normal 0.000000e+00 7.287127e-01 6.848196e-01
    outer loop
      vertex 1.026100 2.819100 19.445500
      vertex -0.836400 2.298000 20.000000
      vertex 0.836400 2.298000 20.000000
    endloop
  endfacet
  facet normal -4.684064e-01 5.582100e-01 6.848335e-01
    outer loop
      vertex -2.598100 1.500000 19.445500
      vertex -0.836400 2.298000 20.000000
      vertex -1.026100 2.819100 19.445500
    endloop
  endfacet
  facet normal -7.176853e-01 1.265333e-01 6.847752e-01
    outer loop
      vertex -2.954400 -0.520900 19.445500
      vertex -2.117900 1.222800 20.000000
      vertex -2.598100 1.500000 19.445500
    endloop
  endfacet
  facet normal -2.492588e-01 -6.848134e-01 6.847632e-01
    outer loop
      vertex 0.000000 -3.000000 19.445500
      vertex -1.571900 -1.873400 20.000000
      vertex -1.928400 -2.298100 19.445500
    endloop
  endfacet
  facet normal -2.492333e-01 -6.847927e-01 6.847932e-01
    outer loop
      vertex -1.571900 -1.873400 20.000000
      vertex 0.000000 -3.000000 19.445500
      vertex 0.000000 -2.445500 20.000000
    endloop
  endfacet
  facet normal 0.000000e+00 0.000000e+00 1.000000e+00
    outer loop
      vertex 2.117900 1.222800 20.000000
      vertex 1.571900 -1.873400 20.000000
      vertex 2.408300 -0.424700 20.000000
    endloop
  endfacet
  facet normal 0.000000e+00 -0.000000e+00 1.000000e+00
    outer loop
      vertex 0.000000 -2.445500 20.000000
      vertex 2.117900 1.222800 20.000000
      vertex -1.571900 -1.873400 20.000000
    endloop
  endfacet
  facet normal 0.000000e+00 0.000000e+00 1.000000e+00
    outer loop
      vertex -1.571900 -1.873400 20.000000
      vertex 0.836400 2.298000 20.000000
      vertex -0.836400 2.298000 20.000000
    endloop
  endfacet
  facet normal 0.000000e+00 -0.000000e+00 1.000000e+00
    outer loop
      vertex 1.571900 -1.873400 20.000000
      vertex 2.117900 1.222800 20.000000
      vertex 0.000000 -2.445500 20.000000
    endloop
  endfacet
  facet normal 0.000000e+00 0.000000e+00 1.000000e+00
    outer loop
      vertex 0.836400 2.298000 20.000000
      vertex -1.571900 -1.873400 20.000000
      vertex 2.117900 1.222800 20.000000
    endloop
  endfacet
  facet normal 0.000000e+00 0.000000e+00 1.000000e+00
    outer loop
      vertex -1.571900 -1.873400 20.000000
      vertex -2.117900 1.222800 20.000000
      vertex -2.408300 -0.424700 20.000000
    endloop
  endfacet
  facet normal -0.000000e+00 0.000000e+00 1.000000e+00
    outer loop
      vertex -2.117900 1.222800 20.000000
      vertex -1.571900 -1.873400 20.000000
      vertex -0.836400 2.298000 20.000000
    endloop
  endfacet
  facet normal 6.239496e-01 6.844341e-01 -3.771429e-01
    outer loop
      vertex 3.849800 2.907300 -5.824300
      vertex 2.632200 4.251100 -5.400000
      vertex 3.990100 3.013200 -5.400000
    endloop
  endfacet
  facet normal 3.345785e-01 8.636659e-01 -3.770125e-01
    outer loop
      vertex 0.886500 4.742100 -5.824300
      vertex 2.490600 4.305900 -5.400000
      vertex 2.539600 4.101700 -5.824300
    endloop
  endfacet
  facet normal 3.345912e-01 8.636189e-01 -3.771090e-01
    outer loop
      vertex 2.490600 4.305900 -5.400000
      vertex 0.886500 4.742100 -5.824300
      vertex 0.918700 4.914900 -5.400000
    endloop
  endfacet
  facet normal -1.701630e-01 -9.103919e-01 -3.771355e-01
    outer loop
      vertex -1.742700 -4.498500 -5.824300
      vertex 0.000000 -5.000000 -5.400000
      vertex -1.806200 -4.662400 -5.400000
    endloop
  endfacet
  facet normal -4.875529e-01 -7.874609e-01 -3.770909e-01
    outer loop
      vertex -2.456400 -4.259800 -5.400000
      vertex -3.250100 -3.565200 -5.824300
      vertex -1.742700 -4.498500 -5.824300
    endloop
  endfacet
  facet normal -4.875702e-01 -7.874272e-01 -3.771389e-01
    outer loop
      vertex -2.456400 -4.259800 -5.400000
      vertex -1.742700 -4.498500 -5.824300
      vertex -1.806200 -4.662400 -5.400000
    endloop
  endfacet
  facet normal -7.391457e-01 -5.581502e-01 -3.770040e-01
    outer loop
      vertex -4.292400 -2.471500 -5.400000
      vertex -3.250100 -3.565200 -5.824300
      vertex -3.368500 -3.695000 -5.400000
    endloop
  endfacet
  facet normal -7.391527e-01 -5.581783e-01 -3.769486e-01
    outer loop
      vertex -3.250100 -3.565200 -5.824300
      vertex -4.292400 -2.471500 -5.400000
      vertex -4.318500 -2.150400 -5.824300
    endloop
  endfacet
  facet normal -8.908163e-01 -2.534748e-01 -3.770901e-01
    outer loop
      vertex -4.803700 -0.445100 -5.824300
      vertex -4.475800 -2.228700 -5.400000
      vertex -4.978700 -0.461300 -5.400000
    endloop
  endfacet
  facet normal -9.222169e-01 8.546680e-02 -3.771094e-01
    outer loop
      vertex -4.936500 -0.005900 -5.400000
      vertex -4.640100 1.320200 -5.824300
      vertex -4.803700 -0.445100 -5.824300
    endloop
  endfacet
  facet normal -8.291107e-01 4.128187e-01 -3.770361e-01
    outer loop
      vertex -4.262400 2.466300 -5.400000
      vertex -4.640100 1.320200 -5.824300
      vertex -4.809100 1.368300 -5.400000
    endloop
  endfacet
  facet normal -8.290645e-01 4.128346e-01 -3.771201e-01
    outer loop
      vertex -4.640100 1.320200 -5.824300
      vertex -4.262400 2.466300 -5.400000
      vertex -3.849800 2.907300 -5.824300
    endloop
  endfacet
  facet normal -6.239392e-01 6.844316e-01 -3.771649e-01
    outer loop
      vertex -3.849800 2.907300 -5.824300
      vertex -2.632200 4.251100 -5.400000
      vertex -2.539600 4.101700 -5.824300
    endloop
  endfacet
  facet normal -3.345785e-01 8.636659e-01 -3.770125e-01
    outer loop
      vertex -2.490600 4.305900 -5.400000
      vertex -0.886500 4.742100 -5.824300
      vertex -2.539600 4.101700 -5.824300
    endloop
  endfacet
  facet normal -3.342755e-01 8.637502e-01 -3.770880e-01
    outer loop
      vertex -2.490600 4.305900 -5.400000
      vertex -2.539600 4.101700 -5.824300
      vertex -2.632200 4.251100 -5.400000
    endloop
  endfacet
  facet normal 0.000000e+00 9.261402e-01 -3.771794e-01
    outer loop
      vertex 0.000000 4.914900 -5.400000
      vertex 0.886500 4.742100 -5.824300
      vertex -0.886500 4.742100 -5.824300
    endloop
  endfacet
  facet normal -9.222207e-01 8.545848e-02 -3.771020e-01
    outer loop
      vertex -4.936500 -0.005900 -5.400000
      vertex -4.803700 -0.445100 -5.824300
      vertex -4.978700 -0.461300 -5.400000
    endloop
  endfacet
  facet normal -1.702075e-01 -9.104371e-01 -3.770063e-01
    outer loop
      vertex 0.000000 -5.000000 -5.400000
      vertex -1.742700 -4.498500 -5.824300
      vertex 0.000000 -4.824300 -5.824300
    endloop
  endfacet
  facet normal -4.876267e-01 -7.874723e-01 -3.769715e-01
    outer loop
      vertex -3.250100 -3.565200 -5.824300
      vertex -2.456400 -4.259800 -5.400000
      vertex -3.368500 -3.695000 -5.400000
    endloop
  endfacet
  facet normal -7.390626e-01 -5.582548e-01 -3.770120e-01
    outer loop
      vertex -4.318500 -2.150400 -5.824300
      vertex -4.292400 -2.471500 -5.400000
      vertex -4.475800 -2.228700 -5.400000
    endloop
  endfacet
  facet normal -8.908418e-01 -2.534665e-01 -3.770354e-01
    outer loop
      vertex -4.475800 -2.228700 -5.400000
      vertex -4.803700 -0.445100 -5.824300
      vertex -4.318500 -2.150400 -5.824300
    endloop
  endfacet
  facet normal -9.222475e-01 8.550008e-02 -3.770268e-01
    outer loop
      vertex -4.640100 1.320200 -5.824300
      vertex -4.936500 -0.005900 -5.400000
      vertex -4.809100 1.368300 -5.400000
    endloop
  endfacet
  facet normal -8.290653e-01 4.127893e-01 -3.771679e-01
    outer loop
      vertex -3.849800 2.907300 -5.824300
      vertex -4.262400 2.466300 -5.400000
      vertex -3.990100 3.013200 -5.400000
    endloop
  endfacet
  facet normal -6.239496e-01 6.844341e-01 -3.771429e-01
    outer loop
      vertex -2.632200 4.251100 -5.400000
      vertex -3.849800 2.907300 -5.824300
      vertex -3.990100 3.013200 -5.400000
    endloop
  endfacet
  facet normal -3.345912e-01 8.636189e-01 -3.771090e-01
    outer loop
      vertex -0.886500 4.742100 -5.824300
      vertex -2.490600 4.305900 -5.400000
      vertex -0.918700 4.914900 -5.400000
    endloop
  endfacet
  facet normal 0.000000e+00 9.261402e-01 -3.771794e-01
    outer loop
      vertex 0.886500 4.742100 -5.824300
      vertex 0.000000 4.914900 -5.400000
      vertex 0.918700 4.914900 -5.400000
    endloop
  endfacet
  facet normal 3.342755e-01 8.637502e-01 -3.770880e-01
    outer loop
      vertex 2.539600 4.101700 -5.824300
      vertex 2.490600 4.305900 -5.400000
      vertex 2.632200 4.251100 -5.400000
    endloop
  endfacet
  facet normal 6.239392e-01 6.844316e-01 -3.771649e-01
    outer loop
      vertex 2.632200 4.251100 -5.400000
      vertex 3.849800 2.907300 -5.824300
      vertex 2.539600 4.101700 -5.824300
    endloop
  endfacet
  facet normal 8.291107e-01 4.128187e-01 -3.770361e-01
    outer loop
      vertex 4.640100 1.320200 -5.824300
      vertex 4.262400 2.466300 -5.400000
      vertex 4.809100 1.368300 -5.400000
    endloop
  endfacet
  facet normal 9.222207e-01 8.545848e-02 -3.771020e-01
    outer loop
      vertex 4.803700 -0.445100 -5.824300
      vertex 4.936500 -0.005900 -5.400000
      vertex 4.978700 -0.461300 -5.400000
    endloop
  endfacet
  facet normal 8.908200e-01 -2.534603e-01 -3.770911e-01
    outer loop
      vertex 4.978700 -0.461300 -5.400000
      vertex 4.318500 -2.150400 -5.824300
      vertex 4.803700 -0.445100 -5.824300
    endloop
  endfacet
  facet normal 7.391457e-01 -5.581502e-01 -3.770040e-01
    outer loop
      vertex 3.250100 -3.565200 -5.824300
      vertex 4.292400 -2.471500 -5.400000
      vertex 3.368500 -3.695000 -5.400000
    endloop
  endfacet
  facet normal 4.875702e-01 -7.874272e-01 -3.771389e-01
    outer loop
      vertex 1.742700 -4.498500 -5.824300
      vertex 2.456400 -4.259800 -5.400000
      vertex 1.806200 -4.662400 -5.400000
    endloop
  endfacet
  facet normal 1.701976e-01 -9.103844e-01 -3.771378e-01
    outer loop
      vertex 1.806200 -4.662400 -5.400000
      vertex 0.000000 -4.824300 -5.824300
      vertex 1.742700 -4.498500 -5.824300
    endloop
  endfacet
  facet normal -7.132917e-02 -3.816147e-01 -9.215652e-01
    outer loop
      vertex 0.000000 -4.824300 -5.824300
      vertex -1.589500 -4.102900 -6.000000
      vertex 0.000000 -4.400000 -6.000000
    endloop
  endfacet
  facet normal -2.044189e-01 -3.301246e-01 -9.215371e-01
    outer loop
      vertex -1.742700 -4.498500 -5.824300
      vertex -2.964300 -3.251600 -6.000000
      vertex -1.589500 -4.102900 -6.000000
    endloop
  endfacet
  facet normal -3.098292e-01 -2.339566e-01 -9.215586e-01
    outer loop
      vertex -3.250100 -3.565200 -5.824300
      vertex -3.938700 -1.961200 -6.000000
      vertex -2.964300 -3.251600 -6.000000
    endloop
  endfacet
  facet normal -3.734025e-01 -1.062422e-01 -9.215656e-01
    outer loop
      vertex -4.803700 -0.445100 -5.824300
      vertex -3.938700 -1.961200 -6.000000
      vertex -4.318500 -2.150400 -5.824300
    endloop
  endfacet
  facet normal -3.865576e-01 3.582037e-02 -9.215694e-01
    outer loop
      vertex -4.803700 -0.445100 -5.824300
      vertex -4.232000 1.204100 -6.000000
      vertex -4.381200 -0.406000 -6.000000
    endloop
  endfacet
  facet normal -3.475357e-01 1.730356e-01 -9.215626e-01
    outer loop
      vertex -4.640100 1.320200 -5.824300
      vertex -3.511300 2.651600 -6.000000
      vertex -4.232000 1.204100 -6.000000
    endloop
  endfacet
  facet normal -2.615795e-01 2.869403e-01 -9.215430e-01
    outer loop
      vertex -2.539600 4.101700 -5.824300
      vertex -3.511300 2.651600 -6.000000
      vertex -3.849800 2.907300 -5.824300
    endloop
  endfacet
  facet normal -1.402597e-01 3.620602e-01 -9.215420e-01
    outer loop
      vertex -0.886500 4.742100 -5.824300
      vertex -2.316300 3.741000 -6.000000
      vertex -2.539600 4.101700 -5.824300
    endloop
  endfacet
  facet normal 0.000000e+00 3.882845e-01 -9.215395e-01
    outer loop
      vertex 0.886500 4.742100 -5.824300
      vertex -0.808500 4.325100 -6.000000
      vertex -0.886500 4.742100 -5.824300
    endloop
  endfacet
  facet normal 1.402566e-01 3.620521e-01 -9.215457e-01
    outer loop
      vertex 2.539600 4.101700 -5.824300
      vertex 0.808500 4.325100 -6.000000
      vertex 0.886500 4.742100 -5.824300
    endloop
  endfacet
  facet normal 2.615867e-01 2.869481e-01 -9.215385e-01
    outer loop
      vertex 3.849800 2.907300 -5.824300
      vertex 2.316300 3.741000 -6.000000
      vertex 2.539600 4.101700 -5.824300
    endloop
  endfacet
  facet normal 3.475845e-01 1.730805e-01 -9.215357e-01
    outer loop
      vertex 4.640100 1.320200 -5.824300
      vertex 3.511300 2.651600 -6.000000
      vertex 3.849800 2.907300 -5.824300
    endloop
  endfacet
  facet normal 3.865719e-01 3.582170e-02 -9.215633e-01
    outer loop
      vertex 4.640100 1.320200 -5.824300
      vertex 4.381200 -0.406000 -6.000000
      vertex 4.232000 1.204100 -6.000000
    endloop
  endfacet
  facet normal 3.734078e-01 -1.062437e-01 -9.215633e-01
    outer loop
      vertex 4.318500 -2.150400 -5.824300
      vertex 4.381200 -0.406000 -6.000000
      vertex 4.803700 -0.445100 -5.824300
    endloop
  endfacet
  facet normal 3.097972e-01 -2.339324e-01 -9.215754e-01
    outer loop
      vertex 4.318500 -2.150400 -5.824300
      vertex 2.964300 -3.251600 -6.000000
      vertex 3.938700 -1.961200 -6.000000
    endloop
  endfacet
  facet normal 2.043651e-01 -3.300760e-01 -9.215665e-01
    outer loop
      vertex 1.742700 -4.498500 -5.824300
      vertex 2.964300 -3.251600 -6.000000
      vertex 3.250100 -3.565200 -5.824300
    endloop
  endfacet
  facet normal 7.133845e-02 -3.816644e-01 -9.215439e-01
    outer loop
      vertex 1.742700 -4.498500 -5.824300
      vertex 0.000000 -4.400000 -6.000000
      vertex 1.589500 -4.102900 -6.000000
    endloop
  endfacet
  facet normal 7.134333e-02 -3.816143e-01 -9.215642e-01
    outer loop
      vertex 0.000000 -4.400000 -6.000000
      vertex 1.742700 -4.498500 -5.824300
      vertex 0.000000 -4.824300 -5.824300
    endloop
  endfacet
  facet normal 2.044189e-01 -3.301246e-01 -9.215371e-01
    outer loop
      vertex 2.964300 -3.251600 -6.000000
      vertex 1.742700 -4.498500 -5.824300
      vertex 1.589500 -4.102900 -6.000000
    endloop
  endfacet
  facet normal 3.098211e-01 -2.339644e-01 -9.215593e-01
    outer loop
      vertex 2.964300 -3.251600 -6.000000
      vertex 4.318500 -2.150400 -5.824300
      vertex 3.250100 -3.565200 -5.824300
    endloop
  endfacet
  facet normal 3.734017e-01 -1.062438e-01 -9.215657e-01
    outer loop
      vertex 4.381200 -0.406000 -6.000000
      vertex 4.318500 -2.150400 -5.824300
      vertex 3.938700 -1.961200 -6.000000
    endloop
  endfacet
  facet normal 3.865578e-01 3.582440e-02 -9.215691e-01
    outer loop
      vertex 4.381200 -0.406000 -6.000000
      vertex 4.640100 1.320200 -5.824300
      vertex 4.803700 -0.445100 -5.824300
    endloop
  endfacet
  facet normal 3.475357e-01 1.730356e-01 -9.215626e-01
    outer loop
      vertex 3.511300 2.651600 -6.000000
      vertex 4.640100 1.320200 -5.824300
      vertex 4.232000 1.204100 -6.000000
    endloop
  endfacet
  facet normal 2.615816e-01 2.869377e-01 -9.215432e-01
    outer loop
      vertex 2.316300 3.741000 -6.000000
      vertex 3.849800 2.907300 -5.824300
      vertex 3.511300 2.651600 -6.000000
    endloop
  endfacet
  facet normal 1.402574e-01 3.620616e-01 -9.215418e-01
    outer loop
      vertex 0.808500 4.325100 -6.000000
      vertex 2.539600 4.101700 -5.824300
      vertex 2.316300 3.741000 -6.000000
    endloop
  endfacet
  facet normal 0.000000e+00 3.882845e-01 -9.215395e-01
    outer loop
      vertex -0.808500 4.325100 -6.000000
      vertex 0.886500 4.742100 -5.824300
      vertex 0.808500 4.325100 -6.000000
    endloop
  endfacet
  facet normal -1.402539e-01 3.620526e-01 -9.215458e-01
    outer loop
      vertex -2.316300 3.741000 -6.000000
      vertex -0.886500 4.742100 -5.824300
      vertex -0.808500 4.325100 -6.000000
    endloop
  endfacet
  facet normal -2.615894e-01 2.869463e-01 -9.215383e-01
    outer loop
      vertex -3.511300 2.651600 -6.000000
      vertex -2.539600 4.101700 -5.824300
      vertex -2.316300 3.741000 -6.000000
    endloop
  endfacet
  facet normal -3.475845e-01 1.730805e-01 -9.215357e-01
    outer loop
      vertex -3.511300 2.651600 -6.000000
      vertex -4.640100 1.320200 -5.824300
      vertex -3.849800 2.907300 -5.824300
    endloop
  endfacet
  facet normal -3.865709e-01 3.582561e-02 -9.215636e-01
    outer loop
      vertex -4.232000 1.204100 -6.000000
      vertex -4.803700 -0.445100 -5.824300
      vertex -4.640100 1.320200 -5.824300
    endloop
  endfacet
  facet normal -3.734076e-01 -1.062454e-01 -9.215632e-01
    outer loop
      vertex -3.938700 -1.961200 -6.000000
      vertex -4.803700 -0.445100 -5.824300
      vertex -4.381200 -0.406000 -6.000000
    endloop
  endfacet
  facet normal -3.097919e-01 -2.339424e-01 -9.215747e-01
    outer loop
      vertex -3.938700 -1.961200 -6.000000
      vertex -3.250100 -3.565200 -5.824300
      vertex -4.318500 -2.150400 -5.824300
    endloop
  endfacet
  facet normal -2.043651e-01 -3.300760e-01 -9.215665e-01
    outer loop
      vertex -2.964300 -3.251600 -6.000000
      vertex -1.742700 -4.498500 -5.824300
      vertex -3.250100 -3.565200 -5.824300
    endloop
  endfacet
  facet normal -7.135179e-02 -3.816596e-01 -9.215448e-01
    outer loop
      vertex -1.589500 -4.102900 -6.000000
      vertex 0.000000 -4.824300 -5.824300
      vertex -1.742700 -4.498500 -5.824300
    endloop
  endfacet
  facet normal 1.701725e-01 -9.104427e-01 -3.770086e-01
    outer loop
      vertex 0.000000 -4.824300 -5.824300
      vertex 1.806200 -4.662400 -5.400000
      vertex 0.000000 -5.000000 -5.400000
    endloop
  endfacet
  facet normal 4.875529e-01 -7.874609e-01 -3.770909e-01
    outer loop
      vertex 3.250100 -3.565200 -5.824300
      vertex 2.456400 -4.259800 -5.400000
      vertex 1.742700 -4.498500 -5.824300
    endloop
  endfacet
  facet normal 4.876267e-01 -7.874723e-01 -3.769715e-01
    outer loop
      vertex 2.456400 -4.259800 -5.400000
      vertex 3.250100 -3.565200 -5.824300
      vertex 3.368500 -3.695000 -5.400000
    endloop
  endfacet
  facet normal 7.390626e-01 -5.582548e-01 -3.770120e-01
    outer loop
      vertex 4.292400 -2.471500 -5.400000
      vertex 4.318500 -2.150400 -5.824300
      vertex 4.475800 -2.228700 -5.400000
    endloop
  endfacet
  facet normal 7.391527e-01 -5.581783e-01 -3.769486e-01
    outer loop
      vertex 4.292400 -2.471500 -5.400000
      vertex 3.250100 -3.565200 -5.824300
      vertex 4.318500 -2.150400 -5.824300
    endloop
  endfacet
  facet normal 8.908373e-01 -2.534808e-01 -3.770364e-01
    outer loop
      vertex 4.318500 -2.150400 -5.824300
      vertex 4.978700 -0.461300 -5.400000
      vertex 4.475800 -2.228700 -5.400000
    endloop
  endfacet
  facet normal 9.222169e-01 8.546680e-02 -3.771094e-01
    outer loop
      vertex 4.640100 1.320200 -5.824300
      vertex 4.936500 -0.005900 -5.400000
      vertex 4.803700 -0.445100 -5.824300
    endloop
  endfacet
  facet normal 9.222475e-01 8.550008e-02 -3.770268e-01
    outer loop
      vertex 4.936500 -0.005900 -5.400000
      vertex 4.640100 1.320200 -5.824300
      vertex 4.809100 1.368300 -5.400000
    endloop
  endfacet
  facet normal 8.290653e-01 4.127893e-01 -3.771679e-01
    outer loop
      vertex 4.262400 2.466300 -5.400000
      vertex 3.849800 2.907300 -5.824300
      vertex 3.990100 3.013200 -5.400000
    endloop
  endfacet
  facet normal 8.290645e-01 4.128346e-01 -3.771201e-01
    outer loop
      vertex 4.262400 2.466300 -5.400000
      vertex 4.640100 1.320200 -5.824300
      vertex 3.849800 2.907300 -5.824300
    endloop
  endfacet
  facet normal 0.000000e+00 9.261402e-01 -3.771794e-01
    outer loop
      vertex 0.000000 4.914900 -5.400000
      vertex -0.886500 4.742100 -5.824300
      vertex -0.918700 4.914900 -5.400000
    endloop
  endfacet
  facet normal 8.660178e-01 5.000132e-01 -0.000000e+00
    outer loop
      vertex -1.449100 -2.510000 -6.000000
      vertex -2.898300 -0.000000 -3.000000
      vertex -1.449100 -2.510000 -3.000000
    endloop
  endfacet
  facet normal 8.660178e-01 5.000132e-01 0.000000e+00
    outer loop
      vertex -2.898300 -0.000000 -3.000000
      vertex -1.449100 -2.510000 -6.000000
      vertex -2.898300 -0.000000 -6.000000
    endloop
  endfacet
  facet normal 0.000000e+00 1.000000e+00 0.000000e+00
    outer loop
      vertex -1.449100 -2.510000 -6.000000
      vertex 1.449100 -2.510000 -3.000000
      vertex 1.449100 -2.510000 -6.000000
    endloop
  endfacet
  facet normal 0.000000e+00 1.000000e+00 0.000000e+00
    outer loop
      vertex 1.449100 -2.510000 -3.000000
      vertex -1.449100 -2.510000 -6.000000
      vertex -1.449100 -2.510000 -3.000000
    endloop
  endfacet
  facet normal -8.660178e-01 5.000132e-01 0.000000e+00
    outer loop
      vertex 1.449100 -2.510000 -6.000000
      vertex 2.898300 -0.000000 -3.000000
      vertex 2.898300 -0.000000 -6.000000
    endloop
  endfacet
  facet normal -8.660178e-01 5.000132e-01 0.000000e+00
    outer loop
      vertex 2.898300 -0.000000 -3.000000
      vertex 1.449100 -2.510000 -6.000000
      vertex 1.449100 -2.510000 -3.000000
    endloop
  endfacet
  facet normal -8.660178e-01 -5.000132e-01 -0.000000e+00
    outer loop
      vertex 2.898300 -0.000000 -3.000000
      vertex 1.449100 2.510000 -6.000000
      vertex 2.898300 -0.000000 -6.000000
    endloop
  endfacet
  facet normal -8.660178e-01 -5.000132e-01 0.000000e+00
    outer loop
      vertex 1.449100 2.510000 -6.000000
      vertex 2.898300 -0.000000 -3.000000
      vertex 1.449100 2.510000 -3.000000
    endloop
  endfacet
  facet normal 0.000000e+00 -1.000000e+00 -0.000000e+00
    outer loop
      vertex 1.449100 2.510000 -3.000000
      vertex -1.449100 2.510000 -6.000000
      vertex 1.449100 2.510000 -6.000000
    endloop
  endfacet
  facet normal 0.000000e+00 -1.000000e+00 0.000000e+00
    outer loop
      vertex -1.449100 2.510000 -6.000000
      vertex 1.449100 2.510000 -3.000000
      vertex -1.449100 2.510000 -3.000000
    endloop
  endfacet
  facet normal 8.660178e-01 -5.000132e-01 0.000000e+00
    outer loop
      vertex -1.449100 2.510000 -6.000000
      vertex -2.898300 -0.000000 -3.000000
      vertex -2.898300 -0.000000 -6.000000
    endloop
  endfacet
  facet normal 8.660178e-01 -5.000132e-01 0.000000e+00
    outer loop
      vertex -2.898300 -0.000000 -3.000000
      vertex -1.449100 2.510000 -6.000000
      vertex -1.449100 2.510000 -3.000000
    endloop
  endfacet
  facet normal 0.000000e+00 -0.000000e+00 -1.000000e+00
    outer loop
      vertex -1.449100 2.510000 -3.000000
      vertex -1.449100 -2.510000 -3.000000
      vertex -2.898300 -0.000000 -3.000000
    endloop
  endfacet
  facet normal 0.000000e+00 0.000000e+00 -1.000000e+00
    outer loop
      vertex -1.449100 -2.510000 -3.000000
      vertex -1.449100 2.510000 -3.000000
      vertex 1.449100 -2.510000 -3.000000
    endloop
  endfacet
  facet normal -0.000000e+00 -0.000000e+00 -1.000000e+00
    outer loop
      vertex 1.449100 2.510000 -3.000000
      vertex 1.449100 -2.510000 -3.000000
      vertex -1.449100 2.510000 -3.000000
    endloop
  endfacet
  facet normal 0.000000e+00 0.000000e+00 -1.000000e+00
    outer loop
      vertex 1.449100 -2.510000 -3.000000
      vertex 1.449100 2.510000 -3.000000
      vertex 2.898300 -0.000000 -3.000000
    endloop
  endfacet
endsolid 0.63.D00912.06020
