solid 0.63.D06912.06050
  facet normal -0.000000e+00 0.000000e+00 -1.000000e+00
    outer loop
      vertex 3.325300 2.881400 -4.000000
      vertex 1.443400 2.500000 -4.000000
      vertex 1.239600 4.221800 -4.000000
    endloop
  endfacet
  facet normal 0.000000e+00 -0.000000e+00 -1.000000e+00
    outer loop
      vertex -3.325300 2.881400 -4.000000
      vertex -2.886800 -0.000000 -4.000000
      vertex -4.355200 0.626200 -4.000000
    endloop
  endfacet
  facet normal 0.000000e+00 0.000000e+00 -1.000000e+00
    outer loop
      vertex 1.443400 -2.500000 -4.000000
      vertex 4.002400 -1.827800 -4.000000
      vertex 2.378800 -3.701500 -4.000000
    endloop
  endfacet
  facet normal 0.000000e+00 -0.000000e+00 -1.000000e+00
    outer loop
      vertex -1.443400 -2.500000 -4.000000
      vertex 0.000000 -4.400000 -4.000000
      vertex -2.378800 -3.701500 -4.000000
    endloop
  endfacet
  facet normal 0.000000e+00 0.000000e+00 -1.000000e+00
    outer loop
      vertex -4.002400 -1.827800 -4.000000
      vertex -1.443400 -2.500000 -4.000000
      vertex -2.378800 -3.701500 -4.000000
    endloop
  endfacet
  facet normal 0.000000e+00 0.000000e+00 -1.000000e+00
    outer loop
      vertex -1.443400 2.500000 -4.000000
      vertex -3.325300 2.881400 -4.000000
      vertex -1.239600 4.221800 -4.000000
    endloop
  endfacet
  facet normal 0.000000e+00 0.000000e+00 -1.000000e+00
    outer loop
      vertex 4.002400 -1.827800 -4.000000
      vertex 2.886800 -0.000000 -4.000000
      vertex 4.355200 0.626200 -4.000000
    endloop
  endfacet
  facet normal 0.000000e+00 0.000000e+00 -1.000000e+00
    outer loop
      vertex 0.000000 -4.400000 -4.000000
      vertex 1.443400 -2.500000 -4.000000
      vertex 2.378800 -3.701500 -4.000000
    endloop
  endfacet
  facet normal 0.000000e+00 0.000000e+00 -1.000000e+00
    outer loop
      vertex -2.886800 -0.000000 -4.000000
      vertex -3.325300 2.881400 -4.000000
      vertex -1.443400 2.500000 -4.000000
    endloop
  endfacet
  facet normal 0.000000e+00 -0.000000e+00 -1.000000e+00
    outer loop
      vertex -1.239600 4.221800 -4.000000
      vertex 1.443400 2.500000 -4.000000
      vertex -1.443400 2.500000 -4.000000
    endloop
  endfacet
  facet normal 0.000000e+00 0.000000e+00 -1.000000e+00
    outer loop
      vertex 0.000000 -4.400000 -4.000000
      vertex -1.443400 -2.500000 -4.000000
      vertex 1.443400 -2.500000 -4.000000
    endloop
  endfacet
  facet normal 0.000000e+00 0.000000e+00 -1.000000e+00
    outer loop
      vertex 1.443400 2.500000 -4.000000
      vertex -1.239600 4.221800 -4.000000
      vertex 1.239600 4.221800 -4.000000
    endloop
  endfacet
  facet normal 0.000000e+00 0.000000e+00 -1.000000e+00
    outer loop
      vertex 3.325300 2.881400 -4.000000
      vertex 2.886800 -0.000000 -4.000000
      vertex 1.443400 2.500000 -4.000000
    endloop
  endfacet
  facet normal -0.000000e+00 0.000000e+00 -1.000000e+00
    outer loop
      vertex -2.886800 -0.000000 -4.000000
      vertex -4.002400 -1.827800 -4.000000
      vertex -4.355200 0.626200 -4.000000
    endloop
  endfacet
  facet normal -0.000000e+00 0.000000e+00 -1.000000e+00
    outer loop
      vertex 4.002400 -1.827800 -4.000000
      vertex 1.443400 -2.500000 -4.000000
      vertex 2.886800 -0.000000 -4.000000
    endloop
  endfacet
  facet normal 0.000000e+00 0.000000e+00 -1.000000e+00
    outer loop
      vertex -1.443400 -2.500000 -4.000000
      vertex -4.002400 -1.827800 -4.000000
      vertex -2.886800 -0.000000 -4.000000
    endloop
  endfacet
  facet normal 0.000000e+00 0.000000e+00 -1.000000e+00
    outer loop
      vertex 2.886800 -0.000000 -4.000000
      vertex 3.325300 2.881400 -4.000000
      vertex 4.355200 0.626200 -4.000000
    endloop
  endfacet
  facet normal 9.218534e-01 3.818567e-01 6.611969e-02
    outer loop
      vertex 4.949100 0.711600 -3.400000
      vertex 3.535500 3.535500 0.000000
      vertex 5.000000 -0.000000 0.000000
    endloop
  endfacet
  facet normal 3.806594e-01 9.189629e-01 1.029838e-01
    outer loop
      vertex 3.535500 3.535500 0.000000
      vertex 1.408700 4.797500 -3.400000
      vertex 0.000000 5.000000 0.000000
    endloop
  endfacet
  facet normal 5.404714e-01 8.409626e-01 -2.593517e-02
    outer loop
      vertex 1.408700 4.797500 -3.400000
      vertex 3.535500 3.535500 0.000000
      vertex 3.487800 3.461300 -3.400000
    endloop
  endfacet
  facet normal 0.000000e+00 9.982311e-01 -5.945345e-02
    outer loop
      vertex -1.408700 4.797500 -3.400000
      vertex 0.000000 5.000000 0.000000
      vertex 0.000000 4.797500 -3.400000
    endloop
  endfacet
  facet normal -3.806594e-01 9.189629e-01 1.029838e-01
    outer loop
      vertex -1.408700 4.797500 -3.400000
      vertex -3.535500 3.535500 0.000000
      vertex 0.000000 5.000000 0.000000
    endloop
  endfacet
  facet normal -5.405613e-01 8.409048e-01 -2.593517e-02
    outer loop
      vertex -3.778700 3.274300 -3.400000
      vertex -3.535500 3.535500 0.000000
      vertex -3.487800 3.461300 -3.400000
    endloop
  endfacet
  facet normal 9.091253e-01 4.152028e-01 3.313190e-02
    outer loop
      vertex 3.535500 3.535500 0.000000
      vertex 4.949100 0.711600 -3.400000
      vertex 3.778700 3.274300 -3.400000
    endloop
  endfacet
  facet normal -9.091253e-01 4.152028e-01 3.313190e-02
    outer loop
      vertex -4.949100 0.711600 -3.400000
      vertex -3.535500 3.535500 0.000000
      vertex -3.778700 3.274300 -3.400000
    endloop
  endfacet
  facet normal -9.182330e-01 -3.803571e-01 1.103477e-01
    outer loop
      vertex -5.000000 -0.000000 0.000000
      vertex -4.548200 -2.077100 -3.400000
      vertex -3.535500 -3.535500 0.000000
    endloop
  endfacet
  facet normal -9.888415e-01 -1.421515e-01 -4.455752e-02
    outer loop
      vertex -4.548200 -2.077100 -3.400000
      vertex -5.000000 -0.000000 0.000000
      vertex -4.849900 0.021600 -3.400000
    endloop
  endfacet
  facet normal -7.546024e-01 -6.538116e-01 -5.572897e-02
    outer loop
      vertex -2.703200 -4.206300 -3.400000
      vertex -3.535500 -3.535500 0.000000
      vertex -3.392100 -3.411200 -3.400000
    endloop
  endfacet
  facet normal -3.812011e-01 -9.202706e-01 8.824826e-02
    outer loop
      vertex -2.703200 -4.206300 -3.400000
      vertex 0.000000 -5.000000 0.000000
      vertex -3.535500 -3.535500 0.000000
    endloop
  endfacet
  facet normal 9.888398e-01 -1.421636e-01 -4.455752e-02
    outer loop
      vertex 4.949100 0.711600 -3.400000
      vertex 5.000000 -0.000000 0.000000
      vertex 4.849900 0.021600 -3.400000
    endloop
  endfacet
  facet normal -2.817224e-01 -9.594960e-01 -0.000000e+00
    outer loop
      vertex 0.000000 -5.000000 0.000000
      vertex -2.703200 -4.206300 -3.400000
      vertex 0.000000 -5.000000 -3.400000
    endloop
  endfacet
  facet normal 9.182330e-01 -3.803571e-01 1.103477e-01
    outer loop
      vertex 4.548200 -2.077100 -3.400000
      vertex 5.000000 -0.000000 0.000000
      vertex 3.535500 -3.535500 0.000000
    endloop
  endfacet
  facet normal 7.545483e-01 -6.538740e-01 -5.572898e-02
    outer loop
      vertex 4.548200 -2.077100 -3.400000
      vertex 3.535500 -3.535500 0.000000
      vertex 3.392100 -3.411200 -3.400000
    endloop
  endfacet
  facet normal 2.817224e-01 -9.594960e-01 0.000000e+00
    outer loop
      vertex 2.703200 -4.206300 -3.400000
      vertex 0.000000 -5.000000 0.000000
      vertex 0.000000 -5.000000 -3.400000
    endloop
  endfacet
  facet normal 3.812011e-01 -9.202706e-01 8.824826e-02
    outer loop
      vertex 0.000000 -5.000000 0.000000
      vertex 2.703200 -4.206300 -3.400000
      vertex 3.535500 -3.535500 0.000000
    endloop
  endfacet
  facet normal 7.546024e-01 -6.538116e-01 -5.572897e-02
    outer loop
      vertex 3.535500 -3.535500 0.000000
      vertex 2.703200 -4.206300 -3.400000
      vertex 3.392100 -3.411200 -3.400000
    endloop
  endfacet
  facet normal 9.888415e-01 -1.421515e-01 -4.455752e-02
    outer loop
      vertex 5.000000 -0.000000 0.000000
      vertex 4.548200 -2.077100 -3.400000
      vertex 4.849900 0.021600 -3.400000
    endloop
  endfacet
  facet normal 5.405613e-01 8.409048e-01 -2.593517e-02
    outer loop
      vertex 3.535500 3.535500 0.000000
      vertex 3.778700 3.274300 -3.400000
      vertex 3.487800 3.461300 -3.400000
    endloop
  endfacet
  facet normal 0.000000e+00 9.982311e-01 -5.945345e-02
    outer loop
      vertex 0.000000 5.000000 0.000000
      vertex 1.408700 4.797500 -3.400000
      vertex 0.000000 4.797500 -3.400000
    endloop
  endfacet
  facet normal -5.404714e-01 8.409626e-01 -2.593517e-02
    outer loop
      vertex -3.535500 3.535500 0.000000
      vertex -1.408700 4.797500 -3.400000
      vertex -3.487800 3.461300 -3.400000
    endloop
  endfacet
  facet normal -9.888398e-01 -1.421636e-01 -4.455752e-02
    outer loop
      vertex -5.000000 -0.000000 0.000000
      vertex -4.949100 0.711600 -3.400000
      vertex -4.849900 0.021600 -3.400000
    endloop
  endfacet
  facet normal -7.545483e-01 -6.538740e-01 -5.572898e-02
    outer loop
      vertex -3.535500 -3.535500 0.000000
      vertex -4.548200 -2.077100 -3.400000
      vertex -3.392100 -3.411200 -3.400000
    endloop
  endfacet
  facet normal -9.218534e-01 3.818567e-01 6.611969e-02
    outer loop
      vertex -3.535500 3.535500 0.000000
      vertex -4.949100 0.711600 -3.400000
      vertex -5.000000 -0.000000 0.000000
    endloop
  endfacet
  facet normal -0.000000e+00 0.000000e+00 1.000000e+00
    outer loop
      vertex 2.598100 1.500000 0.000000
      vertex 5.000000 -0.000000 0.000000
      vertex 3.535500 3.535500 0.000000
    endloop
  endfacet
  facet normal 0.000000e+00 0.000000e+00 1.000000e+00
    outer loop
      vertex 5.000000 -0.000000 0.000000
      vertex 2.598100 1.500000 0.000000
      vertex 2.598100 -1.500000 0.000000
    endloop
  endfacet
  facet normal 0.000000e+00 0.000000e+00 1.000000e+00
    outer loop
      vertex 0.000000 3.000000 0.000000
      vertex 3.535500 3.535500 0.000000
      vertex 0.000000 5.000000 0.000000
    endloop
  endfacet
  facet normal 0.000000e+00 0.000000e+00 1.000000e+00
    outer loop
      vertex 0.000000 -3.000000 0.000000
      vertex -3.535500 -3.535500 0.000000
      vertex 0.000000 -5.000000 0.000000
    endloop
  endfacet
  facet normal -0.000000e+00 0.000000e+00 1.000000e+00
    outer loop
      vertex 0.000000 -3.000000 0.000000
      vertex 3.535500 -3.535500 0.000000
      vertex 2.598100 -1.500000 0.000000
    endloop
  endfacet
  facet normal 0.000000e+00 0.000000e+00 1.000000e+00
    outer loop
      vertex 3.535500 3.535500 0.000000
      vertex 0.000000 3.000000 0.000000
      vertex 2.598100 1.500000 0.000000
    endloop
  endfacet
  facet normal 0.000000e+00 0.000000e+00 1.000000e+00
    outer loop
      vertex 0.000000 3.000000 0.000000
      vertex -3.535500 3.535500 0.000000
      vertex -2.598100 1.500000 0.000000
    endloop
  endfacet
  facet normal 0.000000e+00 0.000000e+00 1.000000e+00
    outer loop
      vertex -2.598100 1.500000 0.000000
      vertex -5.000000 -0.000000 0.000000
      vertex -2.598100 -1.500000 0.000000
    endloop
  endfacet
  facet normal 0.000000e+00 0.000000e+00 1.000000e+00
    outer loop
      vertex 3.535500 -3.535500 0.000000
      vertex 0.000000 -3.000000 0.000000
      vertex 0.000000 -5.000000 0.000000
    endloop
  endfacet
  facet normal -0.000000e+00 0.000000e+00 1.000000e+00
    outer loop
      vertex -3.535500 3.535500 0.000000
      vertex 0.000000 3.000000 0.000000
      vertex 0.000000 5.000000 0.000000
    endloop
  endfacet
  facet normal 0.000000e+00 0.000000e+00 1.000000e+00
    outer loop
      vertex -2.598100 -1.500000 0.000000
      vertex -5.000000 -0.000000 0.000000
      vertex -3.535500 -3.535500 0.000000
    endloop
  endfacet
  facet normal 0.000000e+00 0.000000e+00 1.000000e+00
    outer loop
      vertex 5.000000 -0.000000 0.000000
      vertex 2.598100 -1.500000 0.000000
      vertex 3.535500 -3.535500 0.000000
    endloop
  endfacet
  facet normal 0.000000e+00 0.000000e+00 1.000000e+00
    outer loop
      vertex -5.000000 -0.000000 0.000000
      vertex -2.598100 1.500000 0.000000
      vertex -3.535500 3.535500 0.000000
    endloop
  endfacet
  facet normal 0.000000e+00 0.000000e+00 1.000000e+00
    outer loop
      vertex -3.535500 -3.535500 0.000000
      vertex 0.000000 -3.000000 0.000000
      vertex -2.598100 -1.500000 0.000000
    endloop
  endfacet
  facet normal -4.999966e-01 -8.660274e-01 -0.000000e+00
    outer loop
      vertex 0.000000 -3.000000 49.445500
      vertex -2.598100 -1.500000 0.000000
      vertex 0.000000 -3.000000 0.000000
    endloop
  endfacet
  facet normal -1.000000e+00 0.000000e+00 0.000000e+00
    outer loop
      vertex -2.598100 -1.500000 0.000000
      vertex -2.598100 1.500000 49.445500
      vertex -2.598100 1.500000 0.000000
    endloop
  endfacet
  facet normal -4.999966e-01 8.660274e-01 0.000000e+00
    outer loop
      vertex -2.598100 1.500000 0.000000
      vertex 0.000000 3.000000 49.445500
      vertex 0.000000 3.000000 0.000000
    endloop
  endfacet
  facet normal 4.999966e-01 8.660274e-01 0.000000e+00
    outer loop
      vertex 0.000000 3.000000 0.000000
      vertex 2.598100 1.500000 49.445500
      vertex 2.598100 1.500000 0.000000
    endloop
  endfacet
  facet normal 1.000000e+00 0.000000e+00 0.000000e+00
    outer loop
      vertex 2.598100 1.500000 0.000000
      vertex 2.598100 -1.500000 49.445500
      vertex 2.598100 -1.500000 0.000000
    endloop
  endfacet
  facet normal 4.999966e-01 -8.660274e-01 0.000000e+00
    outer loop
      vertex 2.598100 -1.500000 49.445500
      vertex 0.000000 -3.000000 0.000000
      vertex 2.598100 -1.500000 0.000000
    endloop
  endfacet
  facet normal 4.999966e-01 -8.660274e-01 0.000000e+00
    outer loop
      vertex 0.000000 -3.000000 0.000000
      vertex 2.598100 -1.500000 49.445500
      vertex 0.000000 -3.000000 49.445500
    endloop
  endfacet
  facet normal 1.000000e+00 -0.000000e+00 0.000000e+00
    outer loop
      vertex 2.598100 -1.500000 49.445500
      vertex 2.598100 1.500000 0.000000
      vertex 2.598100 1.500000 49.445500
    endloop
  endfacet
  facet normal -1.000000e+00 -0.000000e+00 0.000000e+00
    outer loop
      vertex -2.598100 1.500000 49.445500
      vertex -2.598100 -1.500000 0.000000
      vertex -2.598100 -1.500000 49.445500
    endloop
  endfacet
  facet normal -4.999966e-01 8.660274e-01 0.000000e+00
    outer loop
      vertex 0.000000 3.000000 49.445500
      vertex -2.598100 1.500000 0.000000
      vertex -2.598100 1.500000 49.445500
    endloop
  endfacet
  facet normal 4.999966e-01 8.660274e-01 0.000000e+00
    outer loop
      vertex 2.598100 1.500000 49.445500
      vertex 0.000000 3.000000 0.000000
      vertex 0.000000 3.000000 49.445500
    endloop
  endfacet
  facet normal -4.999966e-01 -8.660274e-01 0.000000e+00
    outer loop
      vertex -2.598100 -1.500000 0.000000
      vertex 0.000000 -3.000000 49.445500
      vertex -2.598100 -1.500000 49.445500
    endloop
  endfacet
  facet normal 3.779614e-01 6.546543e-01 6.546548e-01
    outer loop
      vertex 0.000000 2.445500 50.000000
      vertex 2.598100 1.500000 49.445500
      vertex 0.000000 3.000000 49.445500
    endloop
  endfacet
  facet normal -3.779786e-01 6.546841e-01 6.546151e-01
    outer loop
      vertex -2.117900 1.222800 50.000000
      vertex 0.000000 3.000000 49.445500
      vertex -2.598100 1.500000 49.445500
    endloop
  endfacet
  facet normal -7.559362e-01 0.000000e+00 6.546453e-01
    outer loop
      vertex -2.117900 -1.222800 50.000000
      vertex -2.598100 1.500000 49.445500
      vertex -2.598100 -1.500000 49.445500
    endloop
  endfacet
  facet normal -7.559362e-01 0.000000e+00 6.546453e-01
    outer loop
      vertex -2.598100 1.500000 49.445500
      vertex -2.117900 -1.222800 50.000000
      vertex -2.117900 1.222800 50.000000
    endloop
  endfacet
  facet normal 7.559362e-01 -0.000000e+00 6.546453e-01
    outer loop
      vertex 2.117900 -1.222800 50.000000
      vertex 2.598100 1.500000 49.445500
      vertex 2.117900 1.222800 50.000000
    endloop
  endfacet
  facet normal 3.779669e-01 -6.546954e-01 6.546106e-01
    outer loop
      vertex 0.000000 -2.445500 50.000000
      vertex 2.598100 -1.500000 49.445500
      vertex 2.117900 -1.222800 50.000000
    endloop
  endfacet
  facet normal 3.779614e-01 -6.546543e-01 6.546548e-01
    outer loop
      vertex 2.598100 -1.500000 49.445500
      vertex 0.000000 -2.445500 50.000000
      vertex 0.000000 -3.000000 49.445500
    endloop
  endfacet
  facet normal 7.559362e-01 0.000000e+00 6.546453e-01
    outer loop
      vertex 2.598100 1.500000 49.445500
      vertex 2.117900 -1.222800 50.000000
      vertex 2.598100 -1.500000 49.445500
    endloop
  endfacet
  facet normal 3.779669e-01 6.546954e-01 6.546106e-01
    outer loop
      vertex 2.598100 1.500000 49.445500
      vertex 0.000000 2.445500 50.000000
      vertex 2.117900 1.222800 50.000000
    endloop
  endfacet
  facet normal -3.779458e-01 6.546588e-01 6.546593e-01
    outer loop
      vertex 0.000000 3.000000 49.445500
      vertex -2.117900 1.222800 50.000000
      vertex 0.000000 2.445500 50.000000
    endloop
  endfacet
  facet normal -3.779786e-01 -6.546841e-01 6.546151e-01
    outer loop
      vertex 0.000000 -3.000000 49.445500
      vertex -2.117900 -1.222800 50.000000
      vertex -2.598100 -1.500000 49.445500
    endloop
  endfacet
  facet normal -3.779458e-01 -6.546588e-01 6.546593e-01
    outer loop
      vertex -2.117900 -1.222800 50.000000
      vertex 0.000000 -3.000000 49.445500
      vertex 0.000000 -2.445500 50.000000
    endloop
  endfacet
  facet normal 0.000000e+00 0.000000e+00 1.000000e+00
    outer loop
      vertex 2.117900 1.222800 50.000000
      vertex 0.000000 -2.445500 50.000000
      vertex 2.117900 -1.222800 50.000000
    endloop
  endfacet
  facet normal 0.000000e+00 -0.000000e+00 1.000000e+00
    outer loop
      vertex 0.000000 -2.445500 50.000000
      vertex 2.117900 1.222800 50.000000
      vertex -2.117900 -1.222800 50.000000
    endloop
  endfacet
  facet normal 0.000000e+00 0.000000e+00 1.000000e+00
    outer loop
      vertex 0.000000 2.445500 50.000000
      vertex -2.117900 -1.222800 50.000000
      vertex 2.117900 1.222800 50.000000
    endloop
  endfacet
  facet normal 0.000000e+00 0.000000e+00 1.000000e+00
    outer loop
      vertex -2.117900 -1.222800 50.000000
      vertex 0.000000 2.445500 50.000000
      vertex -2.117900 1.222800 50.000000
    endloop
  endfacet
  facet normal 9.198826e-01 -1.322498e-01 -3.692235e-01
    outer loop
      vertex 4.849900 0.021600 -3.400000
      vertex 4.775200 0.686600 -3.824300
      vertex 4.949100 0.711600 -3.400000
    endloop
  endfacet
  facet normal -2.618239e-01 -8.916164e-01 -3.694164e-01
    outer loop
      vertex 0.000000 -4.824300 -3.824300
      vertex -2.703200 -4.206300 -3.400000
      vertex -2.608200 -4.058400 -3.824300
    endloop
  endfacet
  facet normal -7.023293e-01 -6.085850e-01 -3.692665e-01
    outer loop
      vertex -3.392100 -3.411200 -3.400000
      vertex -4.388300 -2.004100 -3.824300
      vertex -2.608200 -4.058400 -3.824300
    endloop
  endfacet
  facet normal -7.023314e-01 -6.085223e-01 -3.693659e-01
    outer loop
      vertex -3.392100 -3.411200 -3.400000
      vertex -2.608200 -4.058400 -3.824300
      vertex -2.703200 -4.206300 -3.400000
    endloop
  endfacet
  facet normal -9.198189e-01 -1.322291e-01 -3.693896e-01
    outer loop
      vertex -4.849900 0.021600 -3.400000
      vertex -4.388300 -2.004100 -3.824300
      vertex -4.548200 -2.077100 -3.400000
    endloop
  endfacet
  facet normal -9.198685e-01 -1.322694e-01 -3.692516e-01
    outer loop
      vertex -4.388300 -2.004100 -3.824300
      vertex -4.849900 0.021600 -3.400000
      vertex -4.775200 0.686600 -3.824300
    endloop
  endfacet
  facet normal -8.453227e-01 3.860638e-01 -3.693023e-01
    outer loop
      vertex -3.645900 3.159200 -3.824300
      vertex -4.949100 0.711600 -3.400000
      vertex -3.778700 3.274300 -3.400000
    endloop
  endfacet
  facet normal -5.024085e-01 7.817484e-01 -3.693983e-01
    outer loop
      vertex -3.487800 3.461300 -3.400000
      vertex -1.359200 4.628800 -3.824300
      vertex -3.645900 3.159200 -3.824300
    endloop
  endfacet
  facet normal -5.025107e-01 7.817127e-01 -3.693348e-01
    outer loop
      vertex -3.487800 3.461300 -3.400000
      vertex -3.645900 3.159200 -3.824300
      vertex -3.778700 3.274300 -3.400000
    endloop
  endfacet
  facet normal 0.000000e+00 9.292448e-01 -3.694647e-01
    outer loop
      vertex -1.359200 4.628800 -3.824300
      vertex 0.000000 4.797500 -3.400000
      vertex 1.359200 4.628800 -3.824300
    endloop
  endfacet
  facet normal 5.024072e-01 7.817354e-01 -3.694277e-01
    outer loop
      vertex 3.487800 3.461300 -3.400000
      vertex 1.359200 4.628800 -3.824300
      vertex 1.408700 4.797500 -3.400000
    endloop
  endfacet
  facet normal 5.024085e-01 7.817484e-01 -3.693983e-01
    outer loop
      vertex 1.359200 4.628800 -3.824300
      vertex 3.487800 3.461300 -3.400000
      vertex 3.645900 3.159200 -3.824300
    endloop
  endfacet
  facet normal 8.453475e-01 3.860920e-01 -3.692162e-01
    outer loop
      vertex 3.645900 3.159200 -3.824300
      vertex 4.949100 0.711600 -3.400000
      vertex 4.775200 0.686600 -3.824300
    endloop
  endfacet
  facet normal 0.000000e+00 9.292448e-01 -3.694647e-01
    outer loop
      vertex 0.000000 4.797500 -3.400000
      vertex -1.359200 4.628800 -3.824300
      vertex -1.408700 4.797500 -3.400000
    endloop
  endfacet
  facet normal -2.618138e-01 -8.916909e-01 -3.692436e-01
    outer loop
      vertex -2.703200 -4.206300 -3.400000
      vertex 0.000000 -4.824300 -3.824300
      vertex 0.000000 -5.000000 -3.400000
    endloop
  endfacet
  facet normal -7.022815e-01 -6.085807e-01 -3.693646e-01
    outer loop
      vertex -4.388300 -2.004100 -3.824300
      vertex -3.392100 -3.411200 -3.400000
      vertex -4.548200 -2.077100 -3.400000
    endloop
  endfacet
  facet normal -9.198826e-01 -1.322498e-01 -3.692235e-01
    outer loop
      vertex -4.775200 0.686600 -3.824300
      vertex -4.849900 0.021600 -3.400000
      vertex -4.949100 0.711600 -3.400000
    endloop
  endfacet
  facet normal -8.453475e-01 3.860920e-01 -3.692162e-01
    outer loop
      vertex -4.949100 0.711600 -3.400000
      vertex -3.645900 3.159200 -3.824300
      vertex -4.775200 0.686600 -3.824300
    endloop
  endfacet
  facet normal -5.024072e-01 7.817354e-01 -3.694277e-01
    outer loop
      vertex -1.359200 4.628800 -3.824300
      vertex -3.487800 3.461300 -3.400000
      vertex -1.408700 4.797500 -3.400000
    endloop
  endfacet
  facet normal 0.000000e+00 9.292448e-01 -3.694647e-01
    outer loop
      vertex 1.359200 4.628800 -3.824300
      vertex 0.000000 4.797500 -3.400000
      vertex 1.408700 4.797500 -3.400000
    endloop
  endfacet
  facet normal 5.025107e-01 7.817127e-01 -3.693348e-01
    outer loop
      vertex 3.645900 3.159200 -3.824300
      vertex 3.487800 3.461300 -3.400000
      vertex 3.778700 3.274300 -3.400000
    endloop
  endfacet
  facet normal 8.453227e-01 3.860638e-01 -3.693023e-01
    outer loop
      vertex 4.949100 0.711600 -3.400000
      vertex 3.645900 3.159200 -3.824300
      vertex 3.778700 3.274300 -3.400000
    endloop
  endfacet
  facet normal 9.198189e-01 -1.322291e-01 -3.693896e-01
    outer loop
      vertex 4.388300 -2.004100 -3.824300
      vertex 4.849900 0.021600 -3.400000
      vertex 4.548200 -2.077100 -3.400000
    endloop
  endfacet
  facet normal 7.023314e-01 -6.085223e-01 -3.693659e-01
    outer loop
      vertex 2.608200 -4.058400 -3.824300
      vertex 3.392100 -3.411200 -3.400000
      vertex 2.703200 -4.206300 -3.400000
    endloop
  endfacet
  facet normal 2.617948e-01 -8.916262e-01 -3.694133e-01
    outer loop
      vertex 0.000000 -5.000000 -3.400000
      vertex 2.608200 -4.058400 -3.824300
      vertex 2.703200 -4.206300 -3.400000
    endloop
  endfacet
  facet normal -1.116395e-01 -3.801976e-01 -9.181429e-01
    outer loop
      vertex 0.000000 -4.824300 -3.824300
      vertex -2.378800 -3.701500 -4.000000
      vertex 0.000000 -4.400000 -4.000000
    endloop
  endfacet
  facet normal -2.994767e-01 -2.595028e-01 -9.181351e-01
    outer loop
      vertex -2.608200 -4.058400 -3.824300
      vertex -4.002400 -1.827800 -4.000000
      vertex -2.378800 -3.701500 -4.000000
    endloop
  endfacet
  facet normal -3.922547e-01 -5.640293e-02 -9.181258e-01
    outer loop
      vertex -4.775200 0.686600 -3.824300
      vertex -4.002400 -1.827800 -4.000000
      vertex -4.388300 -2.004100 -3.824300
    endloop
  endfacet
  facet normal -3.604203e-01 1.646132e-01 -9.181501e-01
    outer loop
      vertex -3.645900 3.159200 -3.824300
      vertex -4.355200 0.626200 -4.000000
      vertex -4.775200 0.686600 -3.824300
    endloop
  endfacet
  facet normal -2.142675e-01 3.334006e-01 -9.181141e-01
    outer loop
      vertex -1.359200 4.628800 -3.824300
      vertex -3.325300 2.881400 -4.000000
      vertex -3.645900 3.159200 -3.824300
    endloop
  endfacet
  facet normal 0.000000e+00 3.963414e-01 -9.181032e-01
    outer loop
      vertex -1.359200 4.628800 -3.824300
      vertex 1.239600 4.221800 -4.000000
      vertex -1.239600 4.221800 -4.000000
    endloop
  endfacet
  facet normal 2.142590e-01 3.333874e-01 -9.181209e-01
    outer loop
      vertex 3.645900 3.159200 -3.824300
      vertex 1.239600 4.221800 -4.000000
      vertex 1.359200 4.628800 -3.824300
    endloop
  endfacet
  facet normal 3.604935e-01 1.646467e-01 -9.181154e-01
    outer loop
      vertex 4.775200 0.686600 -3.824300
      vertex 3.325300 2.881400 -4.000000
      vertex 3.645900 3.159200 -3.824300
    endloop
  endfacet
  facet normal 3.922028e-01 -5.639546e-02 -9.181484e-01
    outer loop
      vertex 4.388300 -2.004100 -3.824300
      vertex 4.355200 0.626200 -4.000000
      vertex 4.775200 0.686600 -3.824300
    endloop
  endfacet
  facet normal 2.994738e-01 -2.595003e-01 -9.181367e-01
    outer loop
      vertex 4.388300 -2.004100 -3.824300
      vertex 2.378800 -3.701500 -4.000000
      vertex 4.002400 -1.827800 -4.000000
    endloop
  endfacet
  facet normal 1.116484e-01 -3.802279e-01 -9.181293e-01
    outer loop
      vertex 2.608200 -4.058400 -3.824300
      vertex 0.000000 -4.400000 -4.000000
      vertex 2.378800 -3.701500 -4.000000
    endloop
  endfacet
  facet normal 1.116452e-01 -3.801973e-01 -9.181423e-01
    outer loop
      vertex 0.000000 -4.400000 -4.000000
      vertex 2.608200 -4.058400 -3.824300
      vertex 0.000000 -4.824300 -3.824300
    endloop
  endfacet
  facet normal 2.994761e-01 -2.595032e-01 -9.181351e-01
    outer loop
      vertex 2.378800 -3.701500 -4.000000
      vertex 4.388300 -2.004100 -3.824300
      vertex 2.608200 -4.058400 -3.824300
    endloop
  endfacet
  facet normal 3.922587e-01 -5.639316e-02 -9.181247e-01
    outer loop
      vertex 4.355200 0.626200 -4.000000
      vertex 4.388300 -2.004100 -3.824300
      vertex 4.002400 -1.827800 -4.000000
    endloop
  endfacet
  facet normal 3.604233e-01 1.645974e-01 -9.181518e-01
    outer loop
      vertex 3.325300 2.881400 -4.000000
      vertex 4.775200 0.686600 -3.824300
      vertex 4.355200 0.626200 -4.000000
    endloop
  endfacet
  facet normal 2.142653e-01 3.334029e-01 -9.181138e-01
    outer loop
      vertex 1.239600 4.221800 -4.000000
      vertex 3.645900 3.159200 -3.824300
      vertex 3.325300 2.881400 -4.000000
    endloop
  endfacet
  facet normal 0.000000e+00 3.963414e-01 -9.181032e-01
    outer loop
      vertex 1.239600 4.221800 -4.000000
      vertex -1.359200 4.628800 -3.824300
      vertex 1.359200 4.628800 -3.824300
    endloop
  endfacet
  facet normal -2.142560e-01 3.333884e-01 -9.181212e-01
    outer loop
      vertex -3.325300 2.881400 -4.000000
      vertex -1.359200 4.628800 -3.824300
      vertex -1.239600 4.221800 -4.000000
    endloop
  endfacet
  facet normal -3.605036e-01 1.646340e-01 -9.181137e-01
    outer loop
      vertex -4.355200 0.626200 -4.000000
      vertex -3.645900 3.159200 -3.824300
      vertex -3.325300 2.881400 -4.000000
    endloop
  endfacet
  facet normal -3.922017e-01 -5.638497e-02 -9.181495e-01
    outer loop
      vertex -4.002400 -1.827800 -4.000000
      vertex -4.775200 0.686600 -3.824300
      vertex -4.355200 0.626200 -4.000000
    endloop
  endfacet
  facet normal -2.994735e-01 -2.595009e-01 -9.181366e-01
    outer loop
      vertex -4.002400 -1.827800 -4.000000
      vertex -2.608200 -4.058400 -3.824300
      vertex -4.388300 -2.004100 -3.824300
    endloop
  endfacet
  facet normal -1.116534e-01 -3.802249e-01 -9.181299e-01
    outer loop
      vertex -2.378800 -3.701500 -4.000000
      vertex 0.000000 -4.824300 -3.824300
      vertex -2.608200 -4.058400 -3.824300
    endloop
  endfacet
  facet normal 2.618436e-01 -8.916835e-01 -3.692405e-01
    outer loop
      vertex 2.608200 -4.058400 -3.824300
      vertex 0.000000 -5.000000 -3.400000
      vertex 0.000000 -4.824300 -3.824300
    endloop
  endfacet
  facet normal 7.023293e-01 -6.085850e-01 -3.692665e-01
    outer loop
      vertex 4.388300 -2.004100 -3.824300
      vertex 3.392100 -3.411200 -3.400000
      vertex 2.608200 -4.058400 -3.824300
    endloop
  endfacet
  facet normal 7.022815e-01 -6.085807e-01 -3.693646e-01
    outer loop
      vertex 3.392100 -3.411200 -3.400000
      vertex 4.388300 -2.004100 -3.824300
      vertex 4.548200 -2.077100 -3.400000
    endloop
  endfacet
  facet normal 9.198685e-01 -1.322694e-01 -3.692516e-01
    outer loop
      vertex 4.849900 0.021600 -3.400000
      vertex 4.388300 -2.004100 -3.824300
      vertex 4.775200 0.686600 -3.824300
    endloop
  endfacet
  facet normal 8.660218e-01 5.000063e-01 0.000000e+00
    outer loop
      vertex -2.886800 -0.000000 -1.500000
      vertex -1.443400 -2.500000 -4.000000
      vertex -2.886800 -0.000000 -4.000000
    endloop
  endfacet
  facet normal 8.660218e-01 5.000063e-01 -0.000000e+00
    outer loop
      vertex -1.443400 -2.500000 -4.000000
      vertex -2.886800 -0.000000 -1.500000
      vertex -1.443400 -2.500000 -1.500000
    endloop
  endfacet
  facet normal 0.000000e+00 1.000000e+00 0.000000e+00
    outer loop
      vertex 1.443400 -2.500000 -1.500000
      vertex -1.443400 -2.500000 -4.000000
      vertex -1.443400 -2.500000 -1.500000
    endloop
  endfacet
  facet normal 0.000000e+00 1.000000e+00 0.000000e+00
    outer loop
      vertex -1.443400 -2.500000 -4.000000
      vertex 1.443400 -2.500000 -1.500000
      vertex 1.443400 -2.500000 -4.000000
    endloop
  endfacet
  facet normal -8.660218e-01 5.000063e-01 0.000000e+00
    outer loop
      vertex 2.886800 -0.000000 -1.500000
      vertex 1.443400 -2.500000 -4.000000
      vertex 1.443400 -2.500000 -1.500000
    endloop
  endfacet
  facet normal -8.660218e-01 5.000063e-01 0.000000e+00
    outer loop
      vertex 1.443400 -2.500000 -4.000000
      vertex 2.886800 -0.000000 -1.500000
      vertex 2.886800 -0.000000 -4.000000
    endloop
  endfacet
  facet normal -8.660218e-01 -5.000063e-01 0.000000e+00
    outer loop
      vertex 1.443400 2.500000 -4.000000
      vertex 2.886800 -0.000000 -1.500000
      vertex 1.443400 2.500000 -1.500000
    endloop
  endfacet
  facet normal -8.660218e-01 -5.000063e-01 -0.000000e+00
    outer loop
      vertex 2.886800 -0.000000 -1.500000
      vertex 1.443400 2.500000 -4.000000
      vertex 2.886800 -0.000000 -4.000000
    endloop
  endfacet
  facet normal 0.000000e+00 -1.000000e+00 -0.000000e+00
    outer loop
      vertex 1.443400 2.500000 -1.500000
      vertex -1.443400 2.500000 -4.000000
      vertex 1.443400 2.500000 -4.000000
    endloop
  endfacet
  facet normal 0.000000e+00 -1.000000e+00 0.000000e+00
    outer loop
      vertex -1.443400 2.500000 -4.000000
      vertex 1.443400 2.500000 -1.500000
      vertex -1.443400 2.500000 -1.500000
    endloop
  endfacet
  facet normal 8.660218e-01 -5.000063e-01 0.000000e+00
    outer loop
      vertex -1.443400 2.500000 -4.000000
      vertex -2.886800 -0.000000 -1.500000
      vertex -2.886800 -0.000000 -4.000000
    endloop
  endfacet
  facet normal 8.660218e-01 -5.000063e-01 0.000000e+00
    outer loop
      vertex -2.886800 -0.000000 -1.500000
      vertex -1.443400 2.500000 -4.000000
      vertex -1.443400 2.500000 -1.500000
    endloop
  endfacet
  facet normal 0.000000e+00 0.000000e+00 -1.000000e+00
    outer loop
      vertex 1.443400 -2.500000 -1.500000
      vertex -2.886800 -0.000000 -1.500000
      vertex 2.886800 -0.000000 -1.500000
    endloop
  endfacet
  facet normal 0.000000e+00 0.000000e+00 -1.000000e+00
    outer loop
      vertex -2.886800 -0.000000 -1.500000
      vertex 1.443400 -2.500000 -1.500000
      vertex -1.443400 -2.500000 -1.500000
    endloop
  endfacet
  facet normal 0.000000e+00 0.000000e+00 -1.000000e+00
    outer loop
      vertex 2.886800 -0.000000 -1.500000
      vertex -1.443400 2.500000 -1.500000
      vertex 1.443400 2.500000 -1.500000
    endloop
  endfacet
  facet normal 0.000000e+00 -0.000000e+00 -1.000000e+00
    outer loop
      vertex -1.443400 2.500000 -1.500000
      vertex 2.886800 -0.000000 -1.500000
      vertex -2.886800 -0.000000 -1.500000
    endloop
  endfacet
endsolid 0.63.D06912.06050
