solid 0.63.D07991.06016
  facet normal 0.000000e+00 0.000000e+00 -1.000000e+00
    outer loop
      vertex 1.160500 2.010000 0.000000
      vertex 1.202800 5.658600 0.000000
      vertex 3.400300 4.680200 0.000000
    endloop
  endfacet
  facet normal 0.000000e+00 -0.000000e+00 -1.000000e+00
    outer loop
      vertex 2.320900 -0.000000 0.000000
      vertex 4.299100 -3.870900 0.000000
      vertex 1.160500 -2.010000 0.000000
    endloop
  endfacet
  facet normal -0.000000e+00 0.000000e+00 -1.000000e+00
    outer loop
      vertex 1.160500 -2.010000 0.000000
      vertex 0.000000 -5.785000 0.000000
      vertex -1.160500 -2.010000 0.000000
    endloop
  endfacet
  facet normal 0.000000e+00 0.000000e+00 -1.000000e+00
    outer loop
      vertex -1.160500 -2.010000 0.000000
      vertex -5.501900 -1.787700 0.000000
      vertex -2.320900 -0.000000 0.000000
    endloop
  endfacet
  facet normal 0.000000e+00 0.000000e+00 -1.000000e+00
    outer loop
      vertex -2.320900 -0.000000 0.000000
      vertex -5.010000 2.892500 0.000000
      vertex -1.160500 2.010000 0.000000
    endloop
  endfacet
  facet normal -0.000000e+00 0.000000e+00 -1.000000e+00
    outer loop
      vertex 1.202800 5.658600 0.000000
      vertex -1.160500 2.010000 0.000000
      vertex -1.202800 5.658600 0.000000
    endloop
  endfacet
  facet normal 0.000000e+00 0.000000e+00 -1.000000e+00
    outer loop
      vertex 4.299100 -3.870900 0.000000
      vertex 2.320900 -0.000000 0.000000
      vertex 5.501900 -1.787700 0.000000
    endloop
  endfacet
  facet normal 0.000000e+00 0.000000e+00 -1.000000e+00
    outer loop
      vertex 0.000000 -5.785000 0.000000
      vertex 1.160500 -2.010000 0.000000
      vertex 2.353000 -5.284900 0.000000
    endloop
  endfacet
  facet normal 0.000000e+00 0.000000e+00 -1.000000e+00
    outer loop
      vertex -5.501900 -1.787700 0.000000
      vertex -1.160500 -2.010000 0.000000
      vertex -4.299100 -3.870900 0.000000
    endloop
  endfacet
  facet normal 0.000000e+00 0.000000e+00 -1.000000e+00
    outer loop
      vertex 5.501900 -1.787700 0.000000
      vertex 2.320900 -0.000000 0.000000
      vertex 5.753300 0.604700 0.000000
    endloop
  endfacet
  facet normal 0.000000e+00 0.000000e+00 -1.000000e+00
    outer loop
      vertex 1.160500 -2.010000 0.000000
      vertex 4.299100 -3.870900 0.000000
      vertex 2.353000 -5.284900 0.000000
    endloop
  endfacet
  facet normal 0.000000e+00 0.000000e+00 -1.000000e+00
    outer loop
      vertex -1.160500 2.010000 0.000000
      vertex -5.010000 2.892500 0.000000
      vertex -3.400300 4.680200 0.000000
    endloop
  endfacet
  facet normal 0.000000e+00 0.000000e+00 -1.000000e+00
    outer loop
      vertex 5.010000 2.892500 0.000000
      vertex 2.320900 -0.000000 0.000000
      vertex 1.160500 2.010000 0.000000
    endloop
  endfacet
  facet normal -0.000000e+00 0.000000e+00 -1.000000e+00
    outer loop
      vertex -2.320900 -0.000000 0.000000
      vertex -5.501900 -1.787700 0.000000
      vertex -5.753300 0.604700 0.000000
    endloop
  endfacet
  facet normal -0.000000e+00 0.000000e+00 -1.000000e+00
    outer loop
      vertex 5.010000 2.892500 0.000000
      vertex 1.160500 2.010000 0.000000
      vertex 3.400300 4.680200 0.000000
    endloop
  endfacet
  facet normal 0.000000e+00 0.000000e+00 -1.000000e+00
    outer loop
      vertex -1.160500 2.010000 0.000000
      vertex 1.202800 5.658600 0.000000
      vertex 1.160500 2.010000 0.000000
    endloop
  endfacet
  facet normal 0.000000e+00 0.000000e+00 -1.000000e+00
    outer loop
      vertex -4.299100 -3.870900 0.000000
      vertex -1.160500 -2.010000 0.000000
      vertex -2.353000 -5.284900 0.000000
    endloop
  endfacet
  facet normal 0.000000e+00 -0.000000e+00 -1.000000e+00
    outer loop
      vertex -1.160500 -2.010000 0.000000
      vertex 0.000000 -5.785000 0.000000
      vertex -2.353000 -5.284900 0.000000
    endloop
  endfacet
  facet normal 0.000000e+00 0.000000e+00 -1.000000e+00
    outer loop
      vertex 2.320900 -0.000000 0.000000
      vertex 5.010000 2.892500 0.000000
      vertex 5.753300 0.604700 0.000000
    endloop
  endfacet
  facet normal 0.000000e+00 -0.000000e+00 -1.000000e+00
    outer loop
      vertex -1.202800 5.658600 0.000000
      vertex -1.160500 2.010000 0.000000
      vertex -3.400300 4.680200 0.000000
    endloop
  endfacet
  facet normal 0.000000e+00 -0.000000e+00 -1.000000e+00
    outer loop
      vertex -5.010000 2.892500 0.000000
      vertex -2.320900 -0.000000 0.000000
      vertex -5.753300 0.604700 0.000000
    endloop
  endfacet
  facet normal -2.078934e-01 -9.781515e-01 0.000000e+00
    outer loop
      vertex 0.000000 -5.785000 0.000000
      vertex -2.353000 -5.284900 0.515000
      vertex -2.353000 -5.284900 0.000000
    endloop
  endfacet
  facet normal -2.078934e-01 -9.781515e-01 0.000000e+00
    outer loop
      vertex -2.353000 -5.284900 0.515000
      vertex 0.000000 -5.785000 0.000000
      vertex 0.000000 -5.785000 0.515000
    endloop
  endfacet
  facet normal -5.878058e-01 -8.090020e-01 0.000000e+00
    outer loop
      vertex -4.299100 -3.870900 0.515000
      vertex -2.353000 -5.284900 0.000000
      vertex -2.353000 -5.284900 0.515000
    endloop
  endfacet
  facet normal -8.660139e-01 -5.000198e-01 0.000000e+00
    outer loop
      vertex -5.501900 -1.787700 0.515000
      vertex -4.299100 -3.870900 0.000000
      vertex -4.299100 -3.870900 0.515000
    endloop
  endfacet
  facet normal -9.945241e-01 -1.045075e-01 0.000000e+00
    outer loop
      vertex -5.753300 0.604700 0.515000
      vertex -5.501900 -1.787700 0.000000
      vertex -5.501900 -1.787700 0.515000
    endloop
  endfacet
  facet normal -9.510627e-01 3.089978e-01 0.000000e+00
    outer loop
      vertex -5.010000 2.892500 0.515000
      vertex -5.753300 0.604700 0.000000
      vertex -5.753300 0.604700 0.515000
    endloop
  endfacet
  facet normal -7.431350e-01 6.691415e-01 0.000000e+00
    outer loop
      vertex -3.400300 4.680200 0.515000
      vertex -5.010000 2.892500 0.000000
      vertex -5.010000 2.892500 0.515000
    endloop
  endfacet
  facet normal -4.067400e-01 9.135440e-01 0.000000e+00
    outer loop
      vertex -1.202800 5.658600 0.000000
      vertex -3.400300 4.680200 0.515000
      vertex -1.202800 5.658600 0.515000
    endloop
  endfacet
  facet normal 0.000000e+00 1.000000e+00 -0.000000e+00
    outer loop
      vertex 1.202800 5.658600 0.000000
      vertex -1.202800 5.658600 0.515000
      vertex 1.202800 5.658600 0.515000
    endloop
  endfacet
  facet normal 4.067400e-01 9.135440e-01 -0.000000e+00
    outer loop
      vertex 3.400300 4.680200 0.000000
      vertex 1.202800 5.658600 0.515000
      vertex 3.400300 4.680200 0.515000
    endloop
  endfacet
  facet normal 7.431350e-01 6.691415e-01 0.000000e+00
    outer loop
      vertex 5.010000 2.892500 0.515000
      vertex 3.400300 4.680200 0.000000
      vertex 3.400300 4.680200 0.515000
    endloop
  endfacet
  facet normal 9.510627e-01 3.089978e-01 0.000000e+00
    outer loop
      vertex 5.753300 0.604700 0.515000
      vertex 5.010000 2.892500 0.000000
      vertex 5.010000 2.892500 0.515000
    endloop
  endfacet
  facet normal 9.945241e-01 -1.045075e-01 0.000000e+00
    outer loop
      vertex 5.501900 -1.787700 0.515000
      vertex 5.753300 0.604700 0.000000
      vertex 5.753300 0.604700 0.515000
    endloop
  endfacet
  facet normal 8.660139e-01 -5.000198e-01 0.000000e+00
    outer loop
      vertex 4.299100 -3.870900 0.515000
      vertex 5.501900 -1.787700 0.000000
      vertex 5.501900 -1.787700 0.515000
    endloop
  endfacet
  facet normal 5.878058e-01 -8.090020e-01 0.000000e+00
    outer loop
      vertex 2.353000 -5.284900 0.515000
      vertex 4.299100 -3.870900 0.000000
      vertex 4.299100 -3.870900 0.515000
    endloop
  endfacet
  facet normal 2.078934e-01 -9.781515e-01 0.000000e+00
    outer loop
      vertex 0.000000 -5.785000 0.515000
      vertex 2.353000 -5.284900 0.000000
      vertex 2.353000 -5.284900 0.515000
    endloop
  endfacet
  facet normal 2.078934e-01 -9.781515e-01 0.000000e+00
    outer loop
      vertex 2.353000 -5.284900 0.000000
      vertex 0.000000 -5.785000 0.515000
      vertex 0.000000 -5.785000 0.000000
    endloop
  endfacet
  facet normal 5.878058e-01 -8.090020e-01 0.000000e+00
    outer loop
      vertex 4.299100 -3.870900 0.000000
      vertex 2.353000 -5.284900 0.515000
      vertex 2.353000 -5.284900 0.000000
    endloop
  endfacet
  facet normal 8.660139e-01 -5.000198e-01 0.000000e+00
    outer loop
      vertex 5.501900 -1.787700 0.000000
      vertex 4.299100 -3.870900 0.515000
      vertex 4.299100 -3.870900 0.000000
    endloop
  endfacet
  facet normal 9.945241e-01 -1.045075e-01 0.000000e+00
    outer loop
      vertex 5.753300 0.604700 0.000000
      vertex 5.501900 -1.787700 0.515000
      vertex 5.501900 -1.787700 0.000000
    endloop
  endfacet
  facet normal 9.510627e-01 3.089978e-01 0.000000e+00
    outer loop
      vertex 5.010000 2.892500 0.000000
      vertex 5.753300 0.604700 0.515000
      vertex 5.753300 0.604700 0.000000
    endloop
  endfacet
  facet normal 7.431350e-01 6.691415e-01 0.000000e+00
    outer loop
      vertex 3.400300 4.680200 0.000000
      vertex 5.010000 2.892500 0.515000
      vertex 5.010000 2.892500 0.000000
    endloop
  endfacet
  facet normal 4.067400e-01 9.135440e-01 0.000000e+00
    outer loop
      vertex 1.202800 5.658600 0.515000
      vertex 3.400300 4.680200 0.000000
      vertex 1.202800 5.658600 0.000000
    endloop
  endfacet
  facet normal 0.000000e+00 1.000000e+00 0.000000e+00
    outer loop
      vertex -1.202800 5.658600 0.515000
      vertex 1.202800 5.658600 0.000000
      vertex -1.202800 5.658600 0.000000
    endloop
  endfacet
  facet normal -4.067400e-01 9.135440e-01 0.000000e+00
    outer loop
      vertex -3.400300 4.680200 0.515000
      vertex -1.202800 5.658600 0.000000
      vertex -3.400300 4.680200 0.000000
    endloop
  endfacet
  facet normal -7.431350e-01 6.691415e-01 0.000000e+00
    outer loop
      vertex -5.010000 2.892500 0.000000
      vertex -3.400300 4.680200 0.515000
      vertex -3.400300 4.680200 0.000000
    endloop
  endfacet
  facet normal -9.510627e-01 3.089978e-01 0.000000e+00
    outer loop
      vertex -5.753300 0.604700 0.000000
      vertex -5.010000 2.892500 0.515000
      vertex -5.010000 2.892500 0.000000
    endloop
  endfacet
  facet normal -9.945241e-01 -1.045075e-01 0.000000e+00
    outer loop
      vertex -5.501900 -1.787700 0.000000
      vertex -5.753300 0.604700 0.515000
      vertex -5.753300 0.604700 0.000000
    endloop
  endfacet
  facet normal -8.660139e-01 -5.000198e-01 0.000000e+00
    outer loop
      vertex -4.299100 -3.870900 0.000000
      vertex -5.501900 -1.787700 0.515000
      vertex -5.501900 -1.787700 0.000000
    endloop
  endfacet
  facet normal -5.878058e-01 -8.090020e-01 0.000000e+00
    outer loop
      vertex -2.353000 -5.284900 0.000000
      vertex -4.299100 -3.870900 0.515000
      vertex -4.299100 -3.870900 0.000000
    endloop
  endfacet
  facet normal -2.905306e-01 6.531362e-01 6.992889e-01
    outer loop
      vertex -1.202800 5.658600 0.515000
      vertex -0.829400 2.842900 3.300000
      vertex -0.623700 2.934400 3.300000
    endloop
  endfacet
  facet normal -1.486492e-01 -6.992358e-01 6.992658e-01
    outer loop
      vertex -2.353000 -5.284900 0.515000
      vertex 0.000000 -3.000000 3.300000
      vertex -1.220200 -2.740600 3.300000
    endloop
  endfacet
  facet normal -4.202256e-01 -5.783159e-01 6.992576e-01
    outer loop
      vertex -4.299100 -3.870900 0.515000
      vertex -1.586300 -2.474700 3.300000
      vertex -2.229400 -2.007400 3.300000
    endloop
  endfacet
  facet normal -6.190837e-01 -3.574726e-01 6.992487e-01
    outer loop
      vertex -5.501900 -1.787700 0.515000
      vertex -2.683900 -1.220300 3.300000
      vertex -2.853200 -0.927100 3.300000
    endloop
  endfacet
  facet normal -7.109637e-01 -7.471017e-02 6.992489e-01
    outer loop
      vertex -5.501900 -1.787700 0.515000
      vertex -2.983600 0.313600 3.300000
      vertex -5.753300 0.604700 0.515000
    endloop
  endfacet
  facet normal -6.798878e-01 2.208989e-01 6.992541e-01
    outer loop
      vertex -5.010000 2.892500 0.515000
      vertex -2.948900 0.420300 3.300000
      vertex -2.598100 1.500000 3.300000
    endloop
  endfacet
  facet normal -5.313226e-01 4.782955e-01 6.992351e-01
    outer loop
      vertex -3.400300 4.680200 0.515000
      vertex -2.218900 1.921100 3.300000
      vertex -1.763400 2.427100 3.300000
    endloop
  endfacet
  facet normal -0.000000e+00 7.148670e-01 6.992604e-01
    outer loop
      vertex -1.202800 5.658600 0.515000
      vertex 0.623700 2.934400 3.300000
      vertex 1.202800 5.658600 0.515000
    endloop
  endfacet
  facet normal -1.486174e-01 -6.992543e-01 6.992541e-01
    outer loop
      vertex 0.000000 -3.000000 3.300000
      vertex -2.353000 -5.284900 0.515000
      vertex 0.000000 -5.785000 0.515000
    endloop
  endfacet
  facet normal -4.202084e-01 -5.783363e-01 6.992511e-01
    outer loop
      vertex -1.586300 -2.474700 3.300000
      vertex -4.299100 -3.870900 0.515000
      vertex -2.353000 -5.284900 0.515000
    endloop
  endfacet
  facet normal -4.200894e-01 -5.783930e-01 6.992756e-01
    outer loop
      vertex -1.586300 -2.474700 3.300000
      vertex -2.353000 -5.284900 0.515000
      vertex -1.220200 -2.740600 3.300000
    endloop
  endfacet
  facet normal -6.190699e-01 -3.574734e-01 6.992605e-01
    outer loop
      vertex -2.683900 -1.220300 3.300000
      vertex -4.299100 -3.870900 0.515000
      vertex -2.229400 -2.007400 3.300000
    endloop
  endfacet
  facet normal -6.190916e-01 -3.574516e-01 6.992524e-01
    outer loop
      vertex -4.299100 -3.870900 0.515000
      vertex -2.683900 -1.220300 3.300000
      vertex -5.501900 -1.787700 0.515000
    endloop
  endfacet
  facet normal -7.109580e-01 -7.472294e-02 6.992533e-01
    outer loop
      vertex -2.983600 0.313600 3.300000
      vertex -5.501900 -1.787700 0.515000
      vertex -2.853200 -0.927100 3.300000
    endloop
  endfacet
  facet normal -6.798907e-01 2.208947e-01 6.992526e-01
    outer loop
      vertex -2.948900 0.420300 3.300000
      vertex -5.010000 2.892500 0.515000
      vertex -5.753300 0.604700 0.515000
    endloop
  endfacet
  facet normal -6.798519e-01 2.210955e-01 6.992269e-01
    outer loop
      vertex -2.948900 0.420300 3.300000
      vertex -5.753300 0.604700 0.515000
      vertex -2.983600 0.313600 3.300000
    endloop
  endfacet
  facet normal -5.312457e-01 4.783499e-01 6.992563e-01
    outer loop
      vertex -2.218900 1.921100 3.300000
      vertex -3.400300 4.680200 0.515000
      vertex -5.010000 2.892500 0.515000
    endloop
  endfacet
  facet normal -5.312318e-01 4.783736e-01 6.992506e-01
    outer loop
      vertex -2.218900 1.921100 3.300000
      vertex -5.010000 2.892500 0.515000
      vertex -2.598100 1.500000 3.300000
    endloop
  endfacet
  facet normal -2.907437e-01 6.530896e-01 6.992440e-01
    outer loop
      vertex -0.829400 2.842900 3.300000
      vertex -3.400300 4.680200 0.515000
      vertex -1.763400 2.427100 3.300000
    endloop
  endfacet
  facet normal -2.907680e-01 6.530691e-01 6.992529e-01
    outer loop
      vertex -3.400300 4.680200 0.515000
      vertex -0.829400 2.842900 3.300000
      vertex -1.202800 5.658600 0.515000
    endloop
  endfacet
  facet normal 0.000000e+00 7.148670e-01 6.992604e-01
    outer loop
      vertex 0.623700 2.934400 3.300000
      vertex -1.202800 5.658600 0.515000
      vertex -0.623700 2.934400 3.300000
    endloop
  endfacet
  facet normal 2.907680e-01 6.530691e-01 6.992529e-01
    outer loop
      vertex 0.829400 2.842900 3.300000
      vertex 3.400300 4.680200 0.515000
      vertex 1.202800 5.658600 0.515000
    endloop
  endfacet
  facet normal 2.905306e-01 6.531362e-01 6.992889e-01
    outer loop
      vertex 0.829400 2.842900 3.300000
      vertex 1.202800 5.658600 0.515000
      vertex 0.623700 2.934400 3.300000
    endloop
  endfacet
  facet normal 5.313226e-01 4.782955e-01 6.992351e-01
    outer loop
      vertex 2.218900 1.921100 3.300000
      vertex 3.400300 4.680200 0.515000
      vertex 1.763400 2.427100 3.300000
    endloop
  endfacet
  facet normal 5.312457e-01 4.783499e-01 6.992563e-01
    outer loop
      vertex 3.400300 4.680200 0.515000
      vertex 2.218900 1.921100 3.300000
      vertex 5.010000 2.892500 0.515000
    endloop
  endfacet
  facet normal 6.798878e-01 2.208989e-01 6.992541e-01
    outer loop
      vertex 2.948900 0.420300 3.300000
      vertex 5.010000 2.892500 0.515000
      vertex 2.598100 1.500000 3.300000
    endloop
  endfacet
  facet normal 6.798907e-01 2.208947e-01 6.992526e-01
    outer loop
      vertex 5.010000 2.892500 0.515000
      vertex 2.948900 0.420300 3.300000
      vertex 5.753300 0.604700 0.515000
    endloop
  endfacet
  facet normal 7.109637e-01 -7.471017e-02 6.992489e-01
    outer loop
      vertex 2.983600 0.313600 3.300000
      vertex 5.501900 -1.787700 0.515000
      vertex 5.753300 0.604700 0.515000
    endloop
  endfacet
  facet normal 6.190916e-01 -3.574516e-01 6.992524e-01
    outer loop
      vertex 2.683900 -1.220300 3.300000
      vertex 4.299100 -3.870900 0.515000
      vertex 5.501900 -1.787700 0.515000
    endloop
  endfacet
  facet normal 6.190837e-01 -3.574726e-01 6.992487e-01
    outer loop
      vertex 2.683900 -1.220300 3.300000
      vertex 5.501900 -1.787700 0.515000
      vertex 2.853200 -0.927100 3.300000
    endloop
  endfacet
  facet normal 4.202256e-01 -5.783159e-01 6.992576e-01
    outer loop
      vertex 1.586300 -2.474700 3.300000
      vertex 4.299100 -3.870900 0.515000
      vertex 2.229400 -2.007400 3.300000
    endloop
  endfacet
  facet normal 4.202084e-01 -5.783363e-01 6.992511e-01
    outer loop
      vertex 4.299100 -3.870900 0.515000
      vertex 1.586300 -2.474700 3.300000
      vertex 2.353000 -5.284900 0.515000
    endloop
  endfacet
  facet normal 1.486492e-01 -6.992358e-01 6.992658e-01
    outer loop
      vertex 0.000000 -3.000000 3.300000
      vertex 2.353000 -5.284900 0.515000
      vertex 1.220200 -2.740600 3.300000
    endloop
  endfacet
  facet normal 1.486174e-01 -6.992543e-01 6.992541e-01
    outer loop
      vertex 2.353000 -5.284900 0.515000
      vertex 0.000000 -3.000000 3.300000
      vertex 0.000000 -5.785000 0.515000
    endloop
  endfacet
  facet normal 4.200894e-01 -5.783930e-01 6.992756e-01
    outer loop
      vertex 2.353000 -5.284900 0.515000
      vertex 1.586300 -2.474700 3.300000
      vertex 1.220200 -2.740600 3.300000
    endloop
  endfacet
  facet normal 6.190699e-01 -3.574734e-01 6.992605e-01
    outer loop
      vertex 4.299100 -3.870900 0.515000
      vertex 2.683900 -1.220300 3.300000
      vertex 2.229400 -2.007400 3.300000
    endloop
  endfacet
  facet normal 7.109580e-01 -7.472294e-02 6.992533e-01
    outer loop
      vertex 5.501900 -1.787700 0.515000
      vertex 2.983600 0.313600 3.300000
      vertex 2.853200 -0.927100 3.300000
    endloop
  endfacet
  facet normal 6.798519e-01 2.210955e-01 6.992269e-01
    outer loop
      vertex 5.753300 0.604700 0.515000
      vertex 2.948900 0.420300 3.300000
      vertex 2.983600 0.313600 3.300000
    endloop
  endfacet
  facet normal 5.312318e-01 4.783736e-01 6.992506e-01
    outer loop
      vertex 5.010000 2.892500 0.515000
      vertex 2.218900 1.921100 3.300000
      vertex 2.598100 1.500000 3.300000
    endloop
  endfacet
  facet normal 2.907437e-01 6.530896e-01 6.992440e-01
    outer loop
      vertex 3.400300 4.680200 0.515000
      vertex 0.829400 2.842900 3.300000
      vertex 1.763400 2.427100 3.300000
    endloop
  endfacet
  facet normal -2.079412e-01 -9.781413e-01 -0.000000e+00
    outer loop
      vertex 0.000000 -3.000000 15.445499
      vertex -1.220200 -2.740600 3.300000
      vertex 0.000000 -3.000000 3.300000
    endloop
  endfacet
  facet normal -5.876518e-01 -8.090985e-01 -4.993392e-03
    outer loop
      vertex -1.220200 -2.740600 3.300000
      vertex -1.621900 -2.523800 15.445499
      vertex -1.586300 -2.474700 3.300000
    endloop
  endfacet
  facet normal -5.878278e-01 -8.089706e-01 -4.993391e-03
    outer loop
      vertex -1.621900 -2.523800 15.445499
      vertex -2.229400 -2.007400 3.300000
      vertex -1.586300 -2.474700 3.300000
    endloop
  endfacet
  facet normal -8.659905e-01 -5.000421e-01 -4.274891e-03
    outer loop
      vertex -2.728900 -1.246200 15.445499
      vertex -2.853200 -0.927100 3.300000
      vertex -2.683900 -1.220300 3.300000
    endloop
  endfacet
  facet normal -9.510591e-01 3.090038e-01 -1.781030e-03
    outer loop
      vertex -2.969500 0.426900 15.445499
      vertex -2.598100 1.500000 3.300000
      vertex -2.948900 0.420300 3.300000
    endloop
  endfacet
  facet normal -7.432104e-01 6.690364e-01 -5.351786e-03
    outer loop
      vertex -2.267200 1.964600 15.445499
      vertex -1.763400 2.427100 3.300000
      vertex -2.218900 1.921100 3.300000
    endloop
  endfacet
  facet normal -4.064259e-01 9.136781e-01 -3.206828e-03
    outer loop
      vertex -0.845200 2.878500 15.445499
      vertex -0.623700 2.934400 3.300000
      vertex -0.829400 2.842900 3.300000
    endloop
  endfacet
  facet normal 4.066989e-01 9.135566e-01 -3.206827e-03
    outer loop
      vertex 0.845200 2.878500 15.445499
      vertex 1.763400 2.427100 3.300000
      vertex 0.829400 2.842900 3.300000
    endloop
  endfacet
  facet normal 7.430992e-01 6.691599e-01 -5.351786e-03
    outer loop
      vertex 2.267200 1.964600 15.445499
      vertex 2.598100 1.500000 3.300000
      vertex 2.218900 1.921100 3.300000
    endloop
  endfacet
  facet normal 9.509735e-01 3.092673e-01 -1.781028e-03
    outer loop
      vertex 2.969500 0.426900 15.445499
      vertex 2.983600 0.313600 3.300000
      vertex 2.948900 0.420300 3.300000
    endloop
  endfacet
  facet normal 8.659853e-01 -5.000512e-01 -4.274891e-03
    outer loop
      vertex 2.728900 -1.246200 15.445499
      vertex 2.229400 -2.007400 3.300000
      vertex 2.683900 -1.220300 3.300000
    endloop
  endfacet
  facet normal 5.876518e-01 -8.090985e-01 -4.993392e-03
    outer loop
      vertex 1.621900 -2.523800 15.445499
      vertex 1.220200 -2.740600 3.300000
      vertex 1.586300 -2.474700 3.300000
    endloop
  endfacet
  facet normal 2.817061e-01 -9.594690e-01 7.809600e-03
    outer loop
      vertex 0.000000 -3.000000 15.445499
      vertex 1.220200 -2.740600 3.300000
      vertex 1.621900 -2.523800 15.445499
    endloop
  endfacet
  facet normal 2.079412e-01 -9.781413e-01 0.000000e+00
    outer loop
      vertex 1.220200 -2.740600 3.300000
      vertex 0.000000 -3.000000 15.445499
      vertex 0.000000 -3.000000 3.300000
    endloop
  endfacet
  facet normal 5.878278e-01 -8.089706e-01 -4.993391e-03
    outer loop
      vertex 2.229400 -2.007400 3.300000
      vertex 1.621900 -2.523800 15.445499
      vertex 1.586300 -2.474700 3.300000
    endloop
  endfacet
  facet normal 7.557258e-01 -6.548124e-01 9.959090e-03
    outer loop
      vertex 2.229400 -2.007400 3.300000
      vertex 2.728900 -1.246200 15.445499
      vertex 1.621900 -2.523800 15.445499
    endloop
  endfacet
  facet normal 8.659905e-01 -5.000421e-01 -4.274891e-03
    outer loop
      vertex 2.853200 -0.927100 3.300000
      vertex 2.728900 -1.246200 15.445499
      vertex 2.683900 -1.220300 3.300000
    endloop
  endfacet
  facet normal 9.945199e-01 -1.045258e-01 2.129619e-03
    outer loop
      vertex 2.969500 0.426900 15.445499
      vertex 2.853200 -0.927100 3.300000
      vertex 2.983600 0.313600 3.300000
    endloop
  endfacet
  facet normal 9.897975e-01 -1.423378e-01 6.390183e-03
    outer loop
      vertex 2.853200 -0.927100 3.300000
      vertex 2.969500 0.426900 15.445499
      vertex 2.728900 -1.246200 15.445499
    endloop
  endfacet
  facet normal 9.095835e-01 4.154260e-01 8.890064e-03
    outer loop
      vertex 2.969500 0.426900 15.445499
      vertex 2.598100 1.500000 3.300000
      vertex 2.267200 1.964600 15.445499
    endloop
  endfacet
  facet normal 9.510591e-01 3.090038e-01 -1.781030e-03
    outer loop
      vertex 2.598100 1.500000 3.300000
      vertex 2.969500 0.426900 15.445499
      vertex 2.948900 0.420300 3.300000
    endloop
  endfacet
  facet normal 7.432104e-01 6.690364e-01 -5.351786e-03
    outer loop
      vertex 1.763400 2.427100 3.300000
      vertex 2.267200 1.964600 15.445499
      vertex 2.218900 1.921100 3.300000
    endloop
  endfacet
  facet normal 5.406309e-01 8.412050e-01 9.607462e-03
    outer loop
      vertex 1.763400 2.427100 3.300000
      vertex 0.845200 2.878500 15.445499
      vertex 2.267200 1.964600 15.445499
    endloop
  endfacet
  facet normal 0.000000e+00 9.999894e-01 4.602497e-03
    outer loop
      vertex 0.845200 2.878500 15.445499
      vertex -0.623700 2.934400 3.300000
      vertex -0.845200 2.878500 15.445499
    endloop
  endfacet
  facet normal 4.064259e-01 9.136781e-01 -3.206828e-03
    outer loop
      vertex 0.623700 2.934400 3.300000
      vertex 0.845200 2.878500 15.445499
      vertex 0.829400 2.842900 3.300000
    endloop
  endfacet
  facet normal -0.000000e+00 9.999894e-01 4.602497e-03
    outer loop
      vertex -0.623700 2.934400 3.300000
      vertex 0.845200 2.878500 15.445499
      vertex 0.623700 2.934400 3.300000
    endloop
  endfacet
  facet normal -5.406309e-01 8.412050e-01 9.607462e-03
    outer loop
      vertex -0.845200 2.878500 15.445499
      vertex -1.763400 2.427100 3.300000
      vertex -2.267200 1.964600 15.445499
    endloop
  endfacet
  facet normal -4.066989e-01 9.135566e-01 -3.206827e-03
    outer loop
      vertex -1.763400 2.427100 3.300000
      vertex -0.845200 2.878500 15.445499
      vertex -0.829400 2.842900 3.300000
    endloop
  endfacet
  facet normal -7.430992e-01 6.691599e-01 -5.351786e-03
    outer loop
      vertex -2.598100 1.500000 3.300000
      vertex -2.267200 1.964600 15.445499
      vertex -2.218900 1.921100 3.300000
    endloop
  endfacet
  facet normal -9.095835e-01 4.154260e-01 8.890064e-03
    outer loop
      vertex -2.598100 1.500000 3.300000
      vertex -2.969500 0.426900 15.445499
      vertex -2.267200 1.964600 15.445499
    endloop
  endfacet
  facet normal -9.509735e-01 3.092673e-01 -1.781028e-03
    outer loop
      vertex -2.983600 0.313600 3.300000
      vertex -2.969500 0.426900 15.445499
      vertex -2.948900 0.420300 3.300000
    endloop
  endfacet
  facet normal -9.897975e-01 -1.423378e-01 6.390183e-03
    outer loop
      vertex -2.969500 0.426900 15.445499
      vertex -2.853200 -0.927100 3.300000
      vertex -2.728900 -1.246200 15.445499
    endloop
  endfacet
  facet normal -9.945199e-01 -1.045258e-01 2.129619e-03
    outer loop
      vertex -2.853200 -0.927100 3.300000
      vertex -2.969500 0.426900 15.445499
      vertex -2.983600 0.313600 3.300000
    endloop
  endfacet
  facet normal -7.557258e-01 -6.548124e-01 9.959090e-03
    outer loop
      vertex -2.728900 -1.246200 15.445499
      vertex -2.229400 -2.007400 3.300000
      vertex -1.621900 -2.523800 15.445499
    endloop
  endfacet
  facet normal -8.659853e-01 -5.000512e-01 -4.274891e-03
    outer loop
      vertex -2.229400 -2.007400 3.300000
      vertex -2.728900 -1.246200 15.445499
      vertex -2.683900 -1.220300 3.300000
    endloop
  endfacet
  facet normal -2.817061e-01 -9.594690e-01 7.809600e-03
    outer loop
      vertex -1.220200 -2.740600 3.300000
      vertex 0.000000 -3.000000 15.445499
      vertex -1.621900 -2.523800 15.445499
    endloop
  endfacet
  facet normal -2.032765e-01 -6.923438e-01 6.923429e-01
    outer loop
      vertex 0.000000 -2.445500 16.000000
      vertex -1.621900 -2.523800 15.445499
      vertex 0.000000 -3.000000 15.445499
    endloop
  endfacet
  facet normal -2.032831e-01 -6.923251e-01 6.923597e-01
    outer loop
      vertex -1.621900 -2.523800 15.445499
      vertex 0.000000 -2.445500 16.000000
      vertex -1.322100 -2.057300 16.000000
    endloop
  endfacet
  facet normal -5.453469e-01 -4.725258e-01 6.923266e-01
    outer loop
      vertex -1.621900 -2.523800 15.445499
      vertex -2.224500 -1.015900 16.000000
      vertex -2.728900 -1.246200 15.445499
    endloop
  endfacet
  facet normal -7.141967e-01 -1.026864e-01 6.923717e-01
    outer loop
      vertex -2.969500 0.426900 15.445499
      vertex -2.224500 -1.015900 16.000000
      vertex -2.420600 0.348000 16.000000
    endloop
  endfacet
  facet normal -6.563908e-01 2.997876e-01 6.922995e-01
    outer loop
      vertex -2.969500 0.426900 15.445499
      vertex -1.848200 1.601500 16.000000
      vertex -2.267200 1.964600 15.445499
    endloop
  endfacet
  facet normal -3.901083e-01 6.069964e-01 6.923662e-01
    outer loop
      vertex -2.267200 1.964600 15.445499
      vertex -0.689000 2.346400 16.000000
      vertex -0.845200 2.878500 15.445499
    endloop
  endfacet
  facet normal 0.000000e+00 7.215309e-01 6.923822e-01
    outer loop
      vertex 0.845200 2.878500 15.445499
      vertex -0.689000 2.346400 16.000000
      vertex 0.689000 2.346400 16.000000
    endloop
  endfacet
  facet normal 3.901384e-01 6.070433e-01 6.923081e-01
    outer loop
      vertex 0.845200 2.878500 15.445499
      vertex 1.848200 1.601500 16.000000
      vertex 2.267200 1.964600 15.445499
    endloop
  endfacet
  facet normal 6.563371e-01 2.997630e-01 6.923610e-01
    outer loop
      vertex 2.267200 1.964600 15.445499
      vertex 2.420600 0.348000 16.000000
      vertex 2.969500 0.426900 15.445499
    endloop
  endfacet
  facet normal 7.142245e-01 -1.026904e-01 6.923424e-01
    outer loop
      vertex 2.728900 -1.246200 15.445499
      vertex 2.420600 0.348000 16.000000
      vertex 2.224500 -1.015900 16.000000
    endloop
  endfacet
  facet normal 5.453247e-01 -4.725065e-01 6.923573e-01
    outer loop
      vertex 2.728900 -1.246200 15.445499
      vertex 1.322100 -2.057300 16.000000
      vertex 1.621900 -2.523800 15.445499
    endloop
  endfacet
  facet normal 2.032881e-01 -6.923421e-01 6.923412e-01
    outer loop
      vertex 0.000000 -3.000000 15.445499
      vertex 1.322100 -2.057300 16.000000
      vertex 0.000000 -2.445500 16.000000
    endloop
  endfacet
  facet normal 2.032724e-01 -6.923300e-01 6.923580e-01
    outer loop
      vertex 1.322100 -2.057300 16.000000
      vertex 0.000000 -3.000000 15.445499
      vertex 1.621900 -2.523800 15.445499
    endloop
  endfacet
  facet normal 5.453339e-01 -4.725459e-01 6.923231e-01
    outer loop
      vertex 1.322100 -2.057300 16.000000
      vertex 2.728900 -1.246200 15.445499
      vertex 2.224500 -1.015900 16.000000
    endloop
  endfacet
  facet normal 7.141967e-01 -1.027050e-01 6.923690e-01
    outer loop
      vertex 2.420600 0.348000 16.000000
      vertex 2.728900 -1.246200 15.445499
      vertex 2.969500 0.426900 15.445499
    endloop
  endfacet
  facet normal 6.564166e-01 2.997471e-01 6.922925e-01
    outer loop
      vertex 2.420600 0.348000 16.000000
      vertex 2.267200 1.964600 15.445499
      vertex 1.848200 1.601500 16.000000
    endloop
  endfacet
  facet normal 3.900670e-01 6.070153e-01 6.923728e-01
    outer loop
      vertex 1.848200 1.601500 16.000000
      vertex 0.845200 2.878500 15.445499
      vertex 0.689000 2.346400 16.000000
    endloop
  endfacet
  facet normal 0.000000e+00 7.215309e-01 6.923822e-01
    outer loop
      vertex -0.689000 2.346400 16.000000
      vertex 0.845200 2.878500 15.445499
      vertex -0.845200 2.878500 15.445499
    endloop
  endfacet
  facet normal -3.901040e-01 6.070729e-01 6.923015e-01
    outer loop
      vertex -0.689000 2.346400 16.000000
      vertex -2.267200 1.964600 15.445499
      vertex -1.848200 1.601500 16.000000
    endloop
  endfacet
  facet normal -6.563507e-01 2.997170e-01 6.923680e-01
    outer loop
      vertex -1.848200 1.601500 16.000000
      vertex -2.969500 0.426900 15.445499
      vertex -2.420600 0.348000 16.000000
    endloop
  endfacet
  facet normal -7.142193e-01 -1.027083e-01 6.923451e-01
    outer loop
      vertex -2.224500 -1.015900 16.000000
      vertex -2.969500 0.426900 15.445499
      vertex -2.728900 -1.246200 15.445499
    endloop
  endfacet
  facet normal -5.453066e-01 -4.725222e-01 6.923608e-01
    outer loop
      vertex -2.224500 -1.015900 16.000000
      vertex -1.621900 -2.523800 15.445499
      vertex -1.322100 -2.057300 16.000000
    endloop
  endfacet
  facet normal 0.000000e+00 0.000000e+00 1.000000e+00
    outer loop
      vertex 2.420600 0.348000 16.000000
      vertex -1.848200 1.601500 16.000000
      vertex -2.420600 0.348000 16.000000
    endloop
  endfacet
  facet normal 0.000000e+00 0.000000e+00 1.000000e+00
    outer loop
      vertex 2.224500 -1.015900 16.000000
      vertex 0.000000 -2.445500 16.000000
      vertex 1.322100 -2.057300 16.000000
    endloop
  endfacet
  facet normal -0.000000e+00 0.000000e+00 1.000000e+00
    outer loop
      vertex -1.848200 1.601500 16.000000
      vertex 2.420600 0.348000 16.000000
      vertex -0.689000 2.346400 16.000000
    endloop
  endfacet
  facet normal 0.000000e+00 0.000000e+00 1.000000e+00
    outer loop
      vertex -1.322100 -2.057300 16.000000
      vertex 2.224500 -1.015900 16.000000
      vertex 2.420600 0.348000 16.000000
    endloop
  endfacet
  facet normal 0.000000e+00 -0.000000e+00 1.000000e+00
    outer loop
      vertex -2.224500 -1.015900 16.000000
      vertex 2.420600 0.348000 16.000000
      vertex -2.420600 0.348000 16.000000
    endloop
  endfacet
  facet normal 0.000000e+00 0.000000e+00 1.000000e+00
    outer loop
      vertex 2.420600 0.348000 16.000000
      vertex 0.689000 2.346400 16.000000
      vertex -0.689000 2.346400 16.000000
    endloop
  endfacet
  facet normal 0.000000e+00 -0.000000e+00 1.000000e+00
    outer loop
      vertex -1.322100 -2.057300 16.000000
      vertex 2.420600 0.348000 16.000000
      vertex -2.224500 -1.015900 16.000000
    endloop
  endfacet
  facet normal 0.000000e+00 0.000000e+00 1.000000e+00
    outer loop
      vertex 0.689000 2.346400 16.000000
      vertex 2.420600 0.348000 16.000000
      vertex 1.848200 1.601500 16.000000
    endloop
  endfacet
  facet normal 0.000000e+00 -0.000000e+00 1.000000e+00
    outer loop
      vertex 0.000000 -2.445500 16.000000
      vertex 2.224500 -1.015900 16.000000
      vertex -1.322100 -2.057300 16.000000
    endloop
  endfacet
  facet normal -8.660392e-01 -4.999761e-01 1.290499e-08
    outer loop
      vertex 1.740700 1.005000 2.500000
      vertex 1.160500 2.010000 0.000000
      vertex 2.320900 -0.000000 0.000000
    endloop
  endfacet
  facet normal -8.660392e-01 -4.999761e-01 0.000000e+00
    outer loop
      vertex 1.160500 2.010000 0.000000
      vertex 1.740700 1.005000 2.500000
      vertex 1.160500 2.010000 2.500000
    endloop
  endfacet
  facet normal -8.660392e-01 -4.999760e-01 0.000000e+00
    outer loop
      vertex 1.740700 1.005000 2.500000
      vertex 2.320900 -0.000000 0.000000
      vertex 2.320900 -0.000000 2.500000
    endloop
  endfacet
  facet normal 0.000000e+00 -1.000000e+00 0.000000e+00
    outer loop
      vertex 1.160500 2.010000 0.000000
      vertex 0.000000 2.010000 2.500000
      vertex -1.160500 2.010000 0.000000
    endloop
  endfacet
  facet normal 0.000000e+00 -1.000000e+00 0.000000e+00
    outer loop
      vertex -1.160500 2.010000 0.000000
      vertex 0.000000 2.010000 2.500000
      vertex -1.160500 2.010000 2.500000
    endloop
  endfacet
  facet normal 0.000000e+00 -1.000000e+00 0.000000e+00
    outer loop
      vertex 0.000000 2.010000 2.500000
      vertex 1.160500 2.010000 0.000000
      vertex 1.160500 2.010000 2.500000
    endloop
  endfacet
  facet normal 8.660392e-01 -4.999761e-01 1.290499e-08
    outer loop
      vertex -1.160500 2.010000 0.000000
      vertex -1.740700 1.005000 2.500000
      vertex -2.320900 -0.000000 0.000000
    endloop
  endfacet
  facet normal 8.660392e-01 -4.999761e-01 0.000000e+00
    outer loop
      vertex -1.740700 1.005000 2.500000
      vertex -1.160500 2.010000 0.000000
      vertex -1.160500 2.010000 2.500000
    endloop
  endfacet
  facet normal 8.660392e-01 -4.999760e-01 0.000000e+00
    outer loop
      vertex -2.320900 -0.000000 0.000000
      vertex -1.740700 1.005000 2.500000
      vertex -2.320900 -0.000000 2.500000
    endloop
  endfacet
  facet normal 8.660392e-01 4.999760e-01 0.000000e+00
    outer loop
      vertex -1.740700 -1.005000 2.500000
      vertex -2.320900 -0.000000 0.000000
      vertex -2.320900 -0.000000 2.500000
    endloop
  endfacet
  facet normal 8.660392e-01 4.999761e-01 -0.000000e+00
    outer loop
      vertex -1.160500 -2.010000 0.000000
      vertex -1.740700 -1.005000 2.500000
      vertex -1.160500 -2.010000 2.500000
    endloop
  endfacet
  facet normal 8.660392e-01 4.999761e-01 1.290499e-08
    outer loop
      vertex -1.740700 -1.005000 2.500000
      vertex -1.160500 -2.010000 0.000000
      vertex -2.320900 -0.000000 0.000000
    endloop
  endfacet
  facet normal 0.000000e+00 1.000000e+00 0.000000e+00
    outer loop
      vertex 0.000000 -2.010000 2.500000
      vertex 1.160500 -2.010000 0.000000
      vertex -1.160500 -2.010000 0.000000
    endloop
  endfacet
  facet normal 0.000000e+00 1.000000e+00 0.000000e+00
    outer loop
      vertex 0.000000 -2.010000 2.500000
      vertex -1.160500 -2.010000 0.000000
      vertex -1.160500 -2.010000 2.500000
    endloop
  endfacet
  facet normal 0.000000e+00 1.000000e+00 -0.000000e+00
    outer loop
      vertex 1.160500 -2.010000 0.000000
      vertex 0.000000 -2.010000 2.500000
      vertex 1.160500 -2.010000 2.500000
    endloop
  endfacet
  facet normal -8.660392e-01 4.999760e-01 0.000000e+00
    outer loop
      vertex 2.320900 -0.000000 0.000000
      vertex 1.740700 -1.005000 2.500000
      vertex 2.320900 -0.000000 2.500000
    endloop
  endfacet
  facet normal -8.660392e-01 4.999761e-01 1.290499e-08
    outer loop
      vertex 1.160500 -2.010000 0.000000
      vertex 1.740700 -1.005000 2.500000
      vertex 2.320900 -0.000000 0.000000
    endloop
  endfacet
  facet normal -8.660392e-01 4.999761e-01 0.000000e+00
    outer loop
      vertex 1.740700 -1.005000 2.500000
      vertex 1.160500 -2.010000 0.000000
      vertex 1.160500 -2.010000 2.500000
    endloop
  endfacet
  facet normal 0.000000e+00 0.000000e+00 -1.000000e+00
    outer loop
      vertex 1.292000 -1.539700 2.500000
      vertex 1.160500 -2.010000 2.500000
      vertex 0.000000 -2.010000 2.500000
    endloop
  endfacet
  facet normal 0.000000e+00 0.000000e+00 -1.000000e+00
    outer loop
      vertex 1.160500 -2.010000 2.500000
      vertex 1.292000 -1.539700 2.500000
      vertex 1.740700 -1.005000 2.500000
    endloop
  endfacet
  facet normal 0.000000e+00 -0.000000e+00 -1.000000e+00
    outer loop
      vertex 1.979500 -0.349000 2.500000
      vertex 2.320900 -0.000000 2.500000
      vertex 1.740700 -1.005000 2.500000
    endloop
  endfacet
  facet normal -0.000000e+00 0.000000e+00 -1.000000e+00
    outer loop
      vertex 2.320900 -0.000000 2.500000
      vertex 1.979500 -0.349000 2.500000
      vertex 1.740700 1.005000 2.500000
    endloop
  endfacet
  facet normal 0.000000e+00 0.000000e+00 -1.000000e+00
    outer loop
      vertex 0.687500 1.888800 2.500000
      vertex 1.160500 2.010000 2.500000
      vertex 1.740700 1.005000 2.500000
    endloop
  endfacet
  facet normal -0.000000e+00 0.000000e+00 -1.000000e+00
    outer loop
      vertex 1.160500 2.010000 2.500000
      vertex 0.687500 1.888800 2.500000
      vertex 0.000000 2.010000 2.500000
    endloop
  endfacet
  facet normal 0.000000e+00 -0.000000e+00 -1.000000e+00
    outer loop
      vertex -1.160500 2.010000 2.500000
      vertex -0.687500 1.888800 2.500000
      vertex -1.740700 1.005000 2.500000
    endloop
  endfacet
  facet normal 0.000000e+00 0.000000e+00 -1.000000e+00
    outer loop
      vertex -0.687500 1.888800 2.500000
      vertex -1.160500 2.010000 2.500000
      vertex 0.000000 2.010000 2.500000
    endloop
  endfacet
  facet normal 0.000000e+00 0.000000e+00 -1.000000e+00
    outer loop
      vertex -2.320900 -0.000000 2.500000
      vertex -1.979500 -0.349000 2.500000
      vertex -1.740700 -1.005000 2.500000
    endloop
  endfacet
  facet normal 0.000000e+00 0.000000e+00 -1.000000e+00
    outer loop
      vertex -1.979500 -0.349000 2.500000
      vertex -2.320900 -0.000000 2.500000
      vertex -1.740700 1.005000 2.500000
    endloop
  endfacet
  facet normal 0.000000e+00 0.000000e+00 -1.000000e+00
    outer loop
      vertex -1.160500 -2.010000 2.500000
      vertex -1.292000 -1.539700 2.500000
      vertex 0.000000 -2.010000 2.500000
    endloop
  endfacet
  facet normal -0.000000e+00 -0.000000e+00 -1.000000e+00
    outer loop
      vertex -1.292000 -1.539700 2.500000
      vertex -1.160500 -2.010000 2.500000
      vertex -1.740700 -1.005000 2.500000
    endloop
  endfacet
  facet normal 1.790659e-01 4.919268e-01 -8.520231e-01
    outer loop
      vertex -1.292000 -1.539700 2.500000
      vertex 0.000000 -0.000000 3.660500
      vertex 0.000000 -2.010000 2.500000
    endloop
  endfacet
  facet normal 4.752495e-01 1.730024e-01 -8.626749e-01
    outer loop
      vertex 0.000000 -0.000000 3.660500
      vertex -1.740700 -1.005000 2.500000
      vertex -1.979500 -0.349000 2.500000
    endloop
  endfacet
  facet normal 8.780653e-02 -4.980771e-01 -8.626756e-01
    outer loop
      vertex 0.000000 2.010000 2.500000
      vertex 0.000000 -0.000000 3.660500
      vertex -0.687500 1.888800 2.500000
    endloop
  endfacet
  facet normal 3.874258e-01 3.251131e-01 -8.626719e-01
    outer loop
      vertex -1.740700 -1.005000 2.500000
      vertex 0.000000 -0.000000 3.660500
      vertex -1.292000 -1.539700 2.500000
    endloop
  endfacet
  facet normal 5.155397e-01 -9.092386e-02 -8.520280e-01
    outer loop
      vertex -1.740700 1.005000 2.500000
      vertex 0.000000 -0.000000 3.660500
      vertex -1.979500 -0.349000 2.500000
    endloop
  endfacet
  facet normal 3.365103e-01 -4.010100e-01 -8.520280e-01
    outer loop
      vertex -0.687500 1.888800 2.500000
      vertex 0.000000 -0.000000 3.660500
      vertex -1.740700 1.005000 2.500000
    endloop
  endfacet
  facet normal -8.780653e-02 -4.980771e-01 -8.626756e-01
    outer loop
      vertex 0.000000 -0.000000 3.660500
      vertex 0.000000 2.010000 2.500000
      vertex 0.687500 1.888800 2.500000
    endloop
  endfacet
  facet normal -3.365103e-01 -4.010100e-01 -8.520280e-01
    outer loop
      vertex 1.740700 1.005000 2.500000
      vertex 0.000000 -0.000000 3.660500
      vertex 0.687500 1.888800 2.500000
    endloop
  endfacet
  facet normal -5.155397e-01 -9.092386e-02 -8.520280e-01
    outer loop
      vertex 1.979500 -0.349000 2.500000
      vertex 0.000000 -0.000000 3.660500
      vertex 1.740700 1.005000 2.500000
    endloop
  endfacet
  facet normal -3.874258e-01 3.251131e-01 -8.626719e-01
    outer loop
      vertex 0.000000 -0.000000 3.660500
      vertex 1.740700 -1.005000 2.500000
      vertex 1.292000 -1.539700 2.500000
    endloop
  endfacet
  facet normal -1.790659e-01 4.919268e-01 -8.520231e-01
    outer loop
      vertex 0.000000 -2.010000 2.500000
      vertex 0.000000 -0.000000 3.660500
      vertex 1.292000 -1.539700 2.500000
    endloop
  endfacet
  facet normal -4.752495e-01 1.730024e-01 -8.626749e-01
    outer loop
      vertex 1.740700 -1.005000 2.500000
      vertex 0.000000 -0.000000 3.660500
      vertex 1.979500 -0.349000 2.500000
    endloop
  endfacet
endsolid 0.63.D07991.06016
