solid 0.63.D06912.06055
  facet normal 0.000000e+00 0.000000e+00 -1.000000e+00
    outer loop
      vertex 4.184600 1.359700 -4.000000
      vertex 1.443400 2.500000 -4.000000
      vertex 2.586300 3.559700 -4.000000
    endloop
  endfacet
  facet normal 0.000000e+00 -0.000000e+00 -1.000000e+00
    outer loop
      vertex -1.443400 -2.500000 -4.000000
      vertex 0.000000 -4.400000 -4.000000
      vertex -2.586300 -3.559700 -4.000000
    endloop
  endfacet
  facet normal -0.000000e+00 0.000000e+00 -1.000000e+00
    outer loop
      vertex -2.886800 -0.000000 -4.000000
      vertex -4.184600 -1.359700 -4.000000
      vertex -4.184600 1.359700 -4.000000
    endloop
  endfacet
  facet normal -0.000000e+00 0.000000e+00 -1.000000e+00
    outer loop
      vertex -1.443400 2.500000 -4.000000
      vertex -4.184600 1.359700 -4.000000
      vertex -2.586300 3.559700 -4.000000
    endloop
  endfacet
  facet normal 0.000000e+00 0.000000e+00 -1.000000e+00
    outer loop
      vertex -1.443400 2.500000 -4.000000
      vertex 0.000000 4.400000 -4.000000
      vertex 1.443400 2.500000 -4.000000
    endloop
  endfacet
  facet normal 0.000000e+00 0.000000e+00 -1.000000e+00
    outer loop
      vertex 1.443400 -2.500000 -4.000000
      vertex 4.184600 -1.359700 -4.000000
      vertex 2.586300 -3.559700 -4.000000
    endloop
  endfacet
  facet normal 0.000000e+00 0.000000e+00 -1.000000e+00
    outer loop
      vertex 0.000000 -4.400000 -4.000000
      vertex 1.443400 -2.500000 -4.000000
      vertex 2.586300 -3.559700 -4.000000
    endloop
  endfacet
  facet normal 0.000000e+00 0.000000e+00 -1.000000e+00
    outer loop
      vertex -4.184600 1.359700 -4.000000
      vertex -1.443400 2.500000 -4.000000
      vertex -2.886800 -0.000000 -4.000000
    endloop
  endfacet
  facet normal 0.000000e+00 0.000000e+00 -1.000000e+00
    outer loop
      vertex 0.000000 4.400000 -4.000000
      vertex -1.443400 2.500000 -4.000000
      vertex -2.586300 3.559700 -4.000000
    endloop
  endfacet
  facet normal 0.000000e+00 0.000000e+00 -1.000000e+00
    outer loop
      vertex 0.000000 -4.400000 -4.000000
      vertex -1.443400 -2.500000 -4.000000
      vertex 1.443400 -2.500000 -4.000000
    endloop
  endfacet
  facet normal 0.000000e+00 0.000000e+00 -1.000000e+00
    outer loop
      vertex 1.443400 2.500000 -4.000000
      vertex 0.000000 4.400000 -4.000000
      vertex 2.586300 3.559700 -4.000000
    endloop
  endfacet
  facet normal 0.000000e+00 0.000000e+00 -1.000000e+00
    outer loop
      vertex 1.443400 2.500000 -4.000000
      vertex 4.184600 1.359700 -4.000000
      vertex 2.886800 -0.000000 -4.000000
    endloop
  endfacet
  facet normal 0.000000e+00 0.000000e+00 -1.000000e+00
    outer loop
      vertex -4.184600 -1.359700 -4.000000
      vertex -1.443400 -2.500000 -4.000000
      vertex -2.586300 -3.559700 -4.000000
    endloop
  endfacet
  facet normal 0.000000e+00 0.000000e+00 -1.000000e+00
    outer loop
      vertex 2.886800 -0.000000 -4.000000
      vertex 4.184600 1.359700 -4.000000
      vertex 4.184600 -1.359700 -4.000000
    endloop
  endfacet
  facet normal -0.000000e+00 0.000000e+00 -1.000000e+00
    outer loop
      vertex 4.184600 -1.359700 -4.000000
      vertex 1.443400 -2.500000 -4.000000
      vertex 2.886800 -0.000000 -4.000000
    endloop
  endfacet
  facet normal 0.000000e+00 0.000000e+00 -1.000000e+00
    outer loop
      vertex -1.443400 -2.500000 -4.000000
      vertex -4.184600 -1.359700 -4.000000
      vertex -2.886800 -0.000000 -4.000000
    endloop
  endfacet
  facet normal 0.000000e+00 9.895593e-01 1.441264e-01
    outer loop
      vertex 2.169400 4.504800 0.000000
      vertex 0.000000 5.000000 -3.400000
      vertex -2.169400 4.504800 0.000000
    endloop
  endfacet
  facet normal 3.085006e-01 9.494198e-01 -5.856138e-02
    outer loop
      vertex 0.000000 5.000000 -3.400000
      vertex 2.169400 4.504800 0.000000
      vertex 2.107800 4.315100 -3.400000
    endloop
  endfacet
  facet normal -8.081414e-01 5.871632e-01 4.633440e-02
    outer loop
      vertex -4.874600 1.112600 0.000000
      vertex -2.938900 4.045100 -3.400000
      vertex -4.755300 1.545100 -3.400000
    endloop
  endfacet
  facet normal -3.084446e-01 9.494380e-01 -5.856139e-02
    outer loop
      vertex -2.938900 4.045100 -3.400000
      vertex -2.169400 4.504800 0.000000
      vertex -2.107800 4.315100 -3.400000
    endloop
  endfacet
  facet normal 8.081414e-01 5.871632e-01 4.633440e-02
    outer loop
      vertex 2.938900 4.045100 -3.400000
      vertex 4.874600 1.112600 0.000000
      vertex 4.755300 1.545100 -3.400000
    endloop
  endfacet
  facet normal -9.655525e-01 -2.203650e-01 1.383747e-01
    outer loop
      vertex -4.874600 1.112600 0.000000
      vertex -4.755300 -1.545100 -3.400000
      vertex -3.909200 -3.117400 0.000000
    endloop
  endfacet
  facet normal -9.993850e-01 0.000000e+00 -3.506662e-02
    outer loop
      vertex -4.755300 -1.545100 -3.400000
      vertex -4.874600 1.112600 0.000000
      vertex -4.755300 1.112600 -3.400000
    endloop
  endfacet
  facet normal -8.070176e-01 -5.863246e-01 -7.032824e-02
    outer loop
      vertex -2.938900 -4.045100 -3.400000
      vertex -3.909200 -3.117400 0.000000
      vertex -3.715200 -2.976600 -3.400000
    endloop
  endfacet
  facet normal -4.306953e-01 -8.943345e-01 1.211089e-01
    outer loop
      vertex -2.938900 -4.045100 -3.400000
      vertex 0.000000 -5.000000 0.000000
      vertex -3.909200 -3.117400 0.000000
    endloop
  endfacet
  facet normal 9.993850e-01 0.000000e+00 -3.506662e-02
    outer loop
      vertex 4.755300 1.545100 -3.400000
      vertex 4.874600 1.112600 0.000000
      vertex 4.755300 1.112600 -3.400000
    endloop
  endfacet
  facet normal 7.784964e-01 6.208325e-01 9.225179e-02
    outer loop
      vertex 4.874600 1.112600 0.000000
      vertex 2.938900 4.045100 -3.400000
      vertex 2.169400 4.504800 0.000000
    endloop
  endfacet
  facet normal -3.090151e-01 -9.510571e-01 -0.000000e+00
    outer loop
      vertex 0.000000 -5.000000 0.000000
      vertex -2.938900 -4.045100 -3.400000
      vertex 0.000000 -5.000000 -3.400000
    endloop
  endfacet
  facet normal 9.655525e-01 -2.203650e-01 1.383747e-01
    outer loop
      vertex 4.755300 -1.545100 -3.400000
      vertex 4.874600 1.112600 0.000000
      vertex 3.909200 -3.117400 0.000000
    endloop
  endfacet
  facet normal 8.069992e-01 -5.863499e-01 -7.032824e-02
    outer loop
      vertex 4.755300 -1.545100 -3.400000
      vertex 3.909200 -3.117400 0.000000
      vertex 3.715200 -2.976600 -3.400000
    endloop
  endfacet
  facet normal 3.090151e-01 -9.510571e-01 0.000000e+00
    outer loop
      vertex 2.938900 -4.045100 -3.400000
      vertex 0.000000 -5.000000 0.000000
      vertex 0.000000 -5.000000 -3.400000
    endloop
  endfacet
  facet normal 4.306953e-01 -8.943345e-01 1.211089e-01
    outer loop
      vertex 0.000000 -5.000000 0.000000
      vertex 2.938900 -4.045100 -3.400000
      vertex 3.909200 -3.117400 0.000000
    endloop
  endfacet
  facet normal 8.070176e-01 -5.863246e-01 -7.032824e-02
    outer loop
      vertex 3.909200 -3.117400 0.000000
      vertex 2.938900 -4.045100 -3.400000
      vertex 3.715200 -2.976600 -3.400000
    endloop
  endfacet
  facet normal 9.993850e-01 0.000000e+00 -3.506662e-02
    outer loop
      vertex 4.874600 1.112600 0.000000
      vertex 4.755300 -1.545100 -3.400000
      vertex 4.755300 1.112600 -3.400000
    endloop
  endfacet
  facet normal 3.084446e-01 9.494380e-01 -5.856139e-02
    outer loop
      vertex 2.169400 4.504800 0.000000
      vertex 2.938900 4.045100 -3.400000
      vertex 2.107800 4.315100 -3.400000
    endloop
  endfacet
  facet normal -3.085006e-01 9.494198e-01 -5.856138e-02
    outer loop
      vertex -2.169400 4.504800 0.000000
      vertex 0.000000 5.000000 -3.400000
      vertex -2.107800 4.315100 -3.400000
    endloop
  endfacet
  facet normal -9.993850e-01 0.000000e+00 -3.506662e-02
    outer loop
      vertex -4.874600 1.112600 0.000000
      vertex -4.755300 1.545100 -3.400000
      vertex -4.755300 1.112600 -3.400000
    endloop
  endfacet
  facet normal -8.069992e-01 -5.863499e-01 -7.032824e-02
    outer loop
      vertex -3.909200 -3.117400 0.000000
      vertex -4.755300 -1.545100 -3.400000
      vertex -3.715200 -2.976600 -3.400000
    endloop
  endfacet
  facet normal -7.784964e-01 6.208325e-01 9.225179e-02
    outer loop
      vertex -2.938900 4.045100 -3.400000
      vertex -4.874600 1.112600 0.000000
      vertex -2.169400 4.504800 0.000000
    endloop
  endfacet
  facet normal 0.000000e+00 0.000000e+00 1.000000e+00
    outer loop
      vertex 2.598100 1.500000 0.000000
      vertex 2.169400 4.504800 0.000000
      vertex 0.000000 3.000000 0.000000
    endloop
  endfacet
  facet normal 0.000000e+00 -0.000000e+00 1.000000e+00
    outer loop
      vertex 0.000000 3.000000 0.000000
      vertex 2.169400 4.504800 0.000000
      vertex -2.169400 4.504800 0.000000
    endloop
  endfacet
  facet normal 0.000000e+00 -0.000000e+00 1.000000e+00
    outer loop
      vertex -2.598100 1.500000 0.000000
      vertex -2.169400 4.504800 0.000000
      vertex -4.874600 1.112600 0.000000
    endloop
  endfacet
  facet normal 0.000000e+00 0.000000e+00 1.000000e+00
    outer loop
      vertex 0.000000 -3.000000 0.000000
      vertex -3.909200 -3.117400 0.000000
      vertex 0.000000 -5.000000 0.000000
    endloop
  endfacet
  facet normal -0.000000e+00 0.000000e+00 1.000000e+00
    outer loop
      vertex 0.000000 -3.000000 0.000000
      vertex 3.909200 -3.117400 0.000000
      vertex 2.598100 -1.500000 0.000000
    endloop
  endfacet
  facet normal 0.000000e+00 0.000000e+00 1.000000e+00
    outer loop
      vertex 2.598100 -1.500000 0.000000
      vertex 4.874600 1.112600 0.000000
      vertex 2.598100 1.500000 0.000000
    endloop
  endfacet
  facet normal 0.000000e+00 0.000000e+00 1.000000e+00
    outer loop
      vertex -2.169400 4.504800 0.000000
      vertex -2.598100 1.500000 0.000000
      vertex 0.000000 3.000000 0.000000
    endloop
  endfacet
  facet normal 0.000000e+00 0.000000e+00 1.000000e+00
    outer loop
      vertex 3.909200 -3.117400 0.000000
      vertex 0.000000 -3.000000 0.000000
      vertex 0.000000 -5.000000 0.000000
    endloop
  endfacet
  facet normal 0.000000e+00 0.000000e+00 1.000000e+00
    outer loop
      vertex 2.169400 4.504800 0.000000
      vertex 2.598100 1.500000 0.000000
      vertex 4.874600 1.112600 0.000000
    endloop
  endfacet
  facet normal 0.000000e+00 0.000000e+00 1.000000e+00
    outer loop
      vertex -2.598100 -1.500000 0.000000
      vertex -4.874600 1.112600 0.000000
      vertex -3.909200 -3.117400 0.000000
    endloop
  endfacet
  facet normal 0.000000e+00 0.000000e+00 1.000000e+00
    outer loop
      vertex -3.909200 -3.117400 0.000000
      vertex 0.000000 -3.000000 0.000000
      vertex -2.598100 -1.500000 0.000000
    endloop
  endfacet
  facet normal -0.000000e+00 0.000000e+00 1.000000e+00
    outer loop
      vertex -4.874600 1.112600 0.000000
      vertex -2.598100 -1.500000 0.000000
      vertex -2.598100 1.500000 0.000000
    endloop
  endfacet
  facet normal 0.000000e+00 0.000000e+00 1.000000e+00
    outer loop
      vertex 4.874600 1.112600 0.000000
      vertex 2.598100 -1.500000 0.000000
      vertex 3.909200 -3.117400 0.000000
    endloop
  endfacet
  facet normal -4.999966e-01 -8.660274e-01 -0.000000e+00
    outer loop
      vertex 0.000000 -3.000000 54.445500
      vertex -2.598100 -1.500000 0.000000
      vertex 0.000000 -3.000000 0.000000
    endloop
  endfacet
  facet normal -1.000000e+00 0.000000e+00 0.000000e+00
    outer loop
      vertex -2.598100 -1.500000 0.000000
      vertex -2.598100 1.500000 54.445500
      vertex -2.598100 1.500000 0.000000
    endloop
  endfacet
  facet normal -4.999966e-01 8.660274e-01 0.000000e+00
    outer loop
      vertex -2.598100 1.500000 0.000000
      vertex 0.000000 3.000000 54.445500
      vertex 0.000000 3.000000 0.000000
    endloop
  endfacet
  facet normal 4.999966e-01 8.660274e-01 0.000000e+00
    outer loop
      vertex 0.000000 3.000000 0.000000
      vertex 2.598100 1.500000 54.445500
      vertex 2.598100 1.500000 0.000000
    endloop
  endfacet
  facet normal 1.000000e+00 0.000000e+00 0.000000e+00
    outer loop
      vertex 2.598100 1.500000 0.000000
      vertex 2.598100 -1.500000 54.445500
      vertex 2.598100 -1.500000 0.000000
    endloop
  endfacet
  facet normal 4.999966e-01 -8.660274e-01 0.000000e+00
    outer loop
      vertex 2.598100 -1.500000 54.445500
      vertex 0.000000 -3.000000 0.000000
      vertex 2.598100 -1.500000 0.000000
    endloop
  endfacet
  facet normal 4.999966e-01 -8.660274e-01 0.000000e+00
    outer loop
      vertex 0.000000 -3.000000 0.000000
      vertex 2.598100 -1.500000 54.445500
      vertex 0.000000 -3.000000 54.445500
    endloop
  endfacet
  facet normal 1.000000e+00 -0.000000e+00 0.000000e+00
    outer loop
      vertex 2.598100 -1.500000 54.445500
      vertex 2.598100 1.500000 0.000000
      vertex 2.598100 1.500000 54.445500
    endloop
  endfacet
  facet normal -1.000000e+00 -0.000000e+00 0.000000e+00
    outer loop
      vertex -2.598100 1.500000 54.445500
      vertex -2.598100 -1.500000 0.000000
      vertex -2.598100 -1.500000 54.445500
    endloop
  endfacet
  facet normal -4.999966e-01 8.660274e-01 0.000000e+00
    outer loop
      vertex 0.000000 3.000000 54.445500
      vertex -2.598100 1.500000 0.000000
      vertex -2.598100 1.500000 54.445500
    endloop
  endfacet
  facet normal 4.999966e-01 8.660274e-01 0.000000e+00
    outer loop
      vertex 2.598100 1.500000 54.445500
      vertex 0.000000 3.000000 0.000000
      vertex 0.000000 3.000000 54.445500
    endloop
  endfacet
  facet normal -4.999966e-01 -8.660274e-01 0.000000e+00
    outer loop
      vertex -2.598100 -1.500000 0.000000
      vertex 0.000000 -3.000000 54.445500
      vertex -2.598100 -1.500000 54.445500
    endloop
  endfacet
  facet normal 3.779614e-01 6.546543e-01 6.546548e-01
    outer loop
      vertex 0.000000 2.445500 55.000000
      vertex 2.598100 1.500000 54.445500
      vertex 0.000000 3.000000 54.445500
    endloop
  endfacet
  facet normal -3.779786e-01 6.546841e-01 6.546151e-01
    outer loop
      vertex -2.117900 1.222800 55.000000
      vertex 0.000000 3.000000 54.445500
      vertex -2.598100 1.500000 54.445500
    endloop
  endfacet
  facet normal -7.559362e-01 0.000000e+00 6.546453e-01
    outer loop
      vertex -2.117900 -1.222800 55.000000
      vertex -2.598100 1.500000 54.445500
      vertex -2.598100 -1.500000 54.445500
    endloop
  endfacet
  facet normal -7.559362e-01 0.000000e+00 6.546453e-01
    outer loop
      vertex -2.598100 1.500000 54.445500
      vertex -2.117900 -1.222800 55.000000
      vertex -2.117900 1.222800 55.000000
    endloop
  endfacet
  facet normal 7.559362e-01 -0.000000e+00 6.546453e-01
    outer loop
      vertex 2.117900 -1.222800 55.000000
      vertex 2.598100 1.500000 54.445500
      vertex 2.117900 1.222800 55.000000
    endloop
  endfacet
  facet normal 3.779669e-01 -6.546954e-01 6.546106e-01
    outer loop
      vertex 0.000000 -2.445500 55.000000
      vertex 2.598100 -1.500000 54.445500
      vertex 2.117900 -1.222800 55.000000
    endloop
  endfacet
  facet normal 3.779614e-01 -6.546543e-01 6.546548e-01
    outer loop
      vertex 2.598100 -1.500000 54.445500
      vertex 0.000000 -2.445500 55.000000
      vertex 0.000000 -3.000000 54.445500
    endloop
  endfacet
  facet normal 7.559362e-01 0.000000e+00 6.546453e-01
    outer loop
      vertex 2.598100 1.500000 54.445500
      vertex 2.117900 -1.222800 55.000000
      vertex 2.598100 -1.500000 54.445500
    endloop
  endfacet
  facet normal 3.779669e-01 6.546954e-01 6.546106e-01
    outer loop
      vertex 2.598100 1.500000 54.445500
      vertex 0.000000 2.445500 55.000000
      vertex 2.117900 1.222800 55.000000
    endloop
  endfacet
  facet normal -3.779458e-01 6.546588e-01 6.546593e-01
    outer loop
      vertex 0.000000 3.000000 54.445500
      vertex -2.117900 1.222800 55.000000
      vertex 0.000000 2.445500 55.000000
    endloop
  endfacet
  facet normal -3.779786e-01 -6.546841e-01 6.546151e-01
    outer loop
      vertex 0.000000 -3.000000 54.445500
      vertex -2.117900 -1.222800 55.000000
      vertex -2.598100 -1.500000 54.445500
    endloop
  endfacet
  facet normal -3.779458e-01 -6.546588e-01 6.546593e-01
    outer loop
      vertex -2.117900 -1.222800 55.000000
      vertex 0.000000 -3.000000 54.445500
      vertex 0.000000 -2.445500 55.000000
    endloop
  endfacet
  facet normal 0.000000e+00 0.000000e+00 1.000000e+00
    outer loop
      vertex 2.117900 1.222800 55.000000
      vertex 0.000000 -2.445500 55.000000
      vertex 2.117900 -1.222800 55.000000
    endloop
  endfacet
  facet normal 0.000000e+00 -0.000000e+00 1.000000e+00
    outer loop
      vertex 0.000000 -2.445500 55.000000
      vertex 2.117900 1.222800 55.000000
      vertex -2.117900 -1.222800 55.000000
    endloop
  endfacet
  facet normal 0.000000e+00 0.000000e+00 1.000000e+00
    outer loop
      vertex -2.117900 -1.222800 55.000000
      vertex 0.000000 2.445500 55.000000
      vertex -2.117900 1.222800 55.000000
    endloop
  endfacet
  facet normal 0.000000e+00 0.000000e+00 1.000000e+00
    outer loop
      vertex 0.000000 2.445500 55.000000
      vertex -2.117900 -1.222800 55.000000
      vertex 2.117900 1.222800 55.000000
    endloop
  endfacet
  facet normal 7.527181e-01 -5.468838e-01 -3.665154e-01
    outer loop
      vertex 4.588100 -1.490800 -3.824300
      vertex 3.715200 -2.976600 -3.400000
      vertex 2.835600 -3.902900 -3.824300
    endloop
  endfacet
  facet normal 7.526816e-01 -5.468838e-01 -3.665903e-01
    outer loop
      vertex 3.715200 -2.976600 -3.400000
      vertex 4.588100 -1.490800 -3.824300
      vertex 4.755300 -1.545100 -3.400000
    endloop
  endfacet
  facet normal 9.303698e-01 0.000000e+00 -3.666224e-01
    outer loop
      vertex 4.755300 1.112600 -3.400000
      vertex 4.588100 1.490800 -3.824300
      vertex 4.755300 1.545100 -3.400000
    endloop
  endfacet
  facet normal -2.875072e-01 -8.848622e-01 -3.665494e-01
    outer loop
      vertex -2.835600 -3.902900 -3.824300
      vertex 0.000000 -5.000000 -3.400000
      vertex -2.938900 -4.045100 -3.400000
    endloop
  endfacet
  facet normal -7.527181e-01 -5.468838e-01 -3.665154e-01
    outer loop
      vertex -3.715200 -2.976600 -3.400000
      vertex -4.588100 -1.490800 -3.824300
      vertex -2.835600 -3.902900 -3.824300
    endloop
  endfacet
  facet normal -7.527163e-01 -5.468730e-01 -3.665353e-01
    outer loop
      vertex -3.715200 -2.976600 -3.400000
      vertex -2.835600 -3.902900 -3.824300
      vertex -2.938900 -4.045100 -3.400000
    endloop
  endfacet
  facet normal -9.303698e-01 -0.000000e+00 -3.666224e-01
    outer loop
      vertex -4.755300 1.112600 -3.400000
      vertex -4.588100 -1.490800 -3.824300
      vertex -4.755300 -1.545100 -3.400000
    endloop
  endfacet
  facet normal -9.303698e-01 0.000000e+00 -3.666224e-01
    outer loop
      vertex -4.588100 -1.490800 -3.824300
      vertex -4.755300 1.112600 -3.400000
      vertex -4.588100 1.490800 -3.824300
    endloop
  endfacet
  facet normal -7.527115e-01 5.468790e-01 -3.665361e-01
    outer loop
      vertex -4.588100 1.490800 -3.824300
      vertex -2.938900 4.045100 -3.400000
      vertex -2.835600 3.902900 -3.824300
    endloop
  endfacet
  facet normal -2.875377e-01 8.848945e-01 -3.664475e-01
    outer loop
      vertex -2.107800 4.315100 -3.400000
      vertex 0.000000 4.824300 -3.824300
      vertex -2.835600 3.902900 -3.824300
    endloop
  endfacet
  facet normal 2.875363e-01 8.849014e-01 -3.664321e-01
    outer loop
      vertex 2.107800 4.315100 -3.400000
      vertex 0.000000 4.824300 -3.824300
      vertex 0.000000 5.000000 -3.400000
    endloop
  endfacet
  facet normal 2.875377e-01 8.848945e-01 -3.664475e-01
    outer loop
      vertex 0.000000 4.824300 -3.824300
      vertex 2.107800 4.315100 -3.400000
      vertex 2.835600 3.902900 -3.824300
    endloop
  endfacet
  facet normal 7.526885e-01 5.468734e-01 -3.665917e-01
    outer loop
      vertex 4.588100 1.490800 -3.824300
      vertex 2.938900 4.045100 -3.400000
      vertex 4.755300 1.545100 -3.400000
    endloop
  endfacet
  facet normal -2.874703e-01 8.848760e-01 -3.665451e-01
    outer loop
      vertex -2.107800 4.315100 -3.400000
      vertex -2.835600 3.902900 -3.824300
      vertex -2.938900 4.045100 -3.400000
    endloop
  endfacet
  facet normal -2.875396e-01 -8.849004e-01 -3.664317e-01
    outer loop
      vertex 0.000000 -5.000000 -3.400000
      vertex -2.835600 -3.902900 -3.824300
      vertex 0.000000 -4.824300 -3.824300
    endloop
  endfacet
  facet normal -7.526816e-01 -5.468838e-01 -3.665903e-01
    outer loop
      vertex -4.588100 -1.490800 -3.824300
      vertex -3.715200 -2.976600 -3.400000
      vertex -4.755300 -1.545100 -3.400000
    endloop
  endfacet
  facet normal -9.303698e-01 0.000000e+00 -3.666224e-01
    outer loop
      vertex -4.588100 1.490800 -3.824300
      vertex -4.755300 1.112600 -3.400000
      vertex -4.755300 1.545100 -3.400000
    endloop
  endfacet
  facet normal -7.526885e-01 5.468734e-01 -3.665917e-01
    outer loop
      vertex -2.938900 4.045100 -3.400000
      vertex -4.588100 1.490800 -3.824300
      vertex -4.755300 1.545100 -3.400000
    endloop
  endfacet
  facet normal -2.875363e-01 8.849014e-01 -3.664321e-01
    outer loop
      vertex 0.000000 4.824300 -3.824300
      vertex -2.107800 4.315100 -3.400000
      vertex 0.000000 5.000000 -3.400000
    endloop
  endfacet
  facet normal 2.874703e-01 8.848760e-01 -3.665451e-01
    outer loop
      vertex 2.835600 3.902900 -3.824300
      vertex 2.107800 4.315100 -3.400000
      vertex 2.938900 4.045100 -3.400000
    endloop
  endfacet
  facet normal 7.527115e-01 5.468790e-01 -3.665361e-01
    outer loop
      vertex 2.938900 4.045100 -3.400000
      vertex 4.588100 1.490800 -3.824300
      vertex 2.835600 3.902900 -3.824300
    endloop
  endfacet
  facet normal 9.303698e-01 0.000000e+00 -3.666224e-01
    outer loop
      vertex 4.588100 -1.490800 -3.824300
      vertex 4.755300 1.112600 -3.400000
      vertex 4.755300 -1.545100 -3.400000
    endloop
  endfacet
  facet normal 7.527163e-01 -5.468730e-01 -3.665353e-01
    outer loop
      vertex 2.835600 -3.902900 -3.824300
      vertex 3.715200 -2.976600 -3.400000
      vertex 2.938900 -4.045100 -3.400000
    endloop
  endfacet
  facet normal 2.875072e-01 -8.848622e-01 -3.665494e-01
    outer loop
      vertex 0.000000 -5.000000 -3.400000
      vertex 2.835600 -3.902900 -3.824300
      vertex 2.938900 -4.045100 -3.400000
    endloop
  endfacet
  facet normal -1.233555e-01 -3.796672e-01 -9.168622e-01
    outer loop
      vertex 0.000000 -4.824300 -3.824300
      vertex -2.586300 -3.559700 -4.000000
      vertex 0.000000 -4.400000 -4.000000
    endloop
  endfacet
  facet normal -3.230521e-01 -2.346974e-01 -9.168176e-01
    outer loop
      vertex -2.835600 -3.902900 -3.824300
      vertex -4.184600 -1.359700 -4.000000
      vertex -2.586300 -3.559700 -4.000000
    endloop
  endfacet
  facet normal -3.992333e-01 -0.000000e+00 -9.168494e-01
    outer loop
      vertex -4.588100 1.490800 -3.824300
      vertex -4.184600 -1.359700 -4.000000
      vertex -4.588100 -1.490800 -3.824300
    endloop
  endfacet
  facet normal -3.229883e-01 2.346656e-01 -9.168482e-01
    outer loop
      vertex -2.835600 3.902900 -3.824300
      vertex -4.184600 1.359700 -4.000000
      vertex -4.588100 1.490800 -3.824300
    endloop
  endfacet
  facet normal -1.233915e-01 3.797362e-01 -9.168287e-01
    outer loop
      vertex 0.000000 4.824300 -3.824300
      vertex -2.586300 3.559700 -4.000000
      vertex -2.835600 3.902900 -3.824300
    endloop
  endfacet
  facet normal 1.233689e-01 3.796666e-01 -9.168606e-01
    outer loop
      vertex 2.835600 3.902900 -3.824300
      vertex 0.000000 4.400000 -4.000000
      vertex 0.000000 4.824300 -3.824300
    endloop
  endfacet
  facet normal 3.230521e-01 2.346974e-01 -9.168176e-01
    outer loop
      vertex 2.835600 3.902900 -3.824300
      vertex 4.184600 1.359700 -4.000000
      vertex 2.586300 3.559700 -4.000000
    endloop
  endfacet
  facet normal 3.992333e-01 0.000000e+00 -9.168494e-01
    outer loop
      vertex 4.588100 -1.490800 -3.824300
      vertex 4.184600 1.359700 -4.000000
      vertex 4.588100 1.490800 -3.824300
    endloop
  endfacet
  facet normal 3.229883e-01 -2.346656e-01 -9.168482e-01
    outer loop
      vertex 2.835600 -3.902900 -3.824300
      vertex 4.184600 -1.359700 -4.000000
      vertex 4.588100 -1.490800 -3.824300
    endloop
  endfacet
  facet normal 1.233803e-01 -3.797436e-01 -9.168272e-01
    outer loop
      vertex 2.835600 -3.902900 -3.824300
      vertex 0.000000 -4.400000 -4.000000
      vertex 2.586300 -3.559700 -4.000000
    endloop
  endfacet
  facet normal 1.233689e-01 -3.796666e-01 -9.168606e-01
    outer loop
      vertex 0.000000 -4.400000 -4.000000
      vertex 2.835600 -3.902900 -3.824300
      vertex 0.000000 -4.824300 -3.824300
    endloop
  endfacet
  facet normal 3.230521e-01 -2.346974e-01 -9.168176e-01
    outer loop
      vertex 4.184600 -1.359700 -4.000000
      vertex 2.835600 -3.902900 -3.824300
      vertex 2.586300 -3.559700 -4.000000
    endloop
  endfacet
  facet normal 3.992333e-01 0.000000e+00 -9.168494e-01
    outer loop
      vertex 4.184600 1.359700 -4.000000
      vertex 4.588100 -1.490800 -3.824300
      vertex 4.184600 -1.359700 -4.000000
    endloop
  endfacet
  facet normal 3.229883e-01 2.346656e-01 -9.168482e-01
    outer loop
      vertex 4.184600 1.359700 -4.000000
      vertex 2.835600 3.902900 -3.824300
      vertex 4.588100 1.490800 -3.824300
    endloop
  endfacet
  facet normal 1.233803e-01 3.797436e-01 -9.168272e-01
    outer loop
      vertex 0.000000 4.400000 -4.000000
      vertex 2.835600 3.902900 -3.824300
      vertex 2.586300 3.559700 -4.000000
    endloop
  endfacet
  facet normal -1.233555e-01 3.796672e-01 -9.168622e-01
    outer loop
      vertex -2.586300 3.559700 -4.000000
      vertex 0.000000 4.824300 -3.824300
      vertex 0.000000 4.400000 -4.000000
    endloop
  endfacet
  facet normal -3.230521e-01 2.346974e-01 -9.168176e-01
    outer loop
      vertex -4.184600 1.359700 -4.000000
      vertex -2.835600 3.902900 -3.824300
      vertex -2.586300 3.559700 -4.000000
    endloop
  endfacet
  facet normal -3.992333e-01 0.000000e+00 -9.168494e-01
    outer loop
      vertex -4.184600 -1.359700 -4.000000
      vertex -4.588100 1.490800 -3.824300
      vertex -4.184600 1.359700 -4.000000
    endloop
  endfacet
  facet normal -3.229883e-01 -2.346656e-01 -9.168482e-01
    outer loop
      vertex -4.184600 -1.359700 -4.000000
      vertex -2.835600 -3.902900 -3.824300
      vertex -4.588100 -1.490800 -3.824300
    endloop
  endfacet
  facet normal -1.233915e-01 -3.797362e-01 -9.168287e-01
    outer loop
      vertex -2.586300 -3.559700 -4.000000
      vertex 0.000000 -4.824300 -3.824300
      vertex -2.835600 -3.902900 -3.824300
    endloop
  endfacet
  facet normal 2.875396e-01 -8.849004e-01 -3.664317e-01
    outer loop
      vertex 2.835600 -3.902900 -3.824300
      vertex 0.000000 -5.000000 -3.400000
      vertex 0.000000 -4.824300 -3.824300
    endloop
  endfacet
  facet normal 9.303698e-01 0.000000e+00 -3.666224e-01
    outer loop
      vertex 4.755300 1.112600 -3.400000
      vertex 4.588100 -1.490800 -3.824300
      vertex 4.588100 1.490800 -3.824300
    endloop
  endfacet
  facet normal 8.660218e-01 5.000063e-01 0.000000e+00
    outer loop
      vertex -2.886800 -0.000000 -1.500000
      vertex -1.443400 -2.500000 -4.000000
      vertex -2.886800 -0.000000 -4.000000
    endloop
  endfacet
  facet normal 8.660218e-01 5.000063e-01 -0.000000e+00
    outer loop
      vertex -1.443400 -2.500000 -4.000000
      vertex -2.886800 -0.000000 -1.500000
      vertex -1.443400 -2.500000 -1.500000
    endloop
  endfacet
  facet normal 0.000000e+00 1.000000e+00 0.000000e+00
    outer loop
      vertex 1.443400 -2.500000 -1.500000
      vertex -1.443400 -2.500000 -4.000000
      vertex -1.443400 -2.500000 -1.500000
    endloop
  endfacet
  facet normal 0.000000e+00 1.000000e+00 0.000000e+00
    outer loop
      vertex -1.443400 -2.500000 -4.000000
      vertex 1.443400 -2.500000 -1.500000
      vertex 1.443400 -2.500000 -4.000000
    endloop
  endfacet
  facet normal -8.660218e-01 5.000063e-01 0.000000e+00
    outer loop
      vertex 2.886800 -0.000000 -1.500000
      vertex 1.443400 -2.500000 -4.000000
      vertex 1.443400 -2.500000 -1.500000
    endloop
  endfacet
  facet normal -8.660218e-01 5.000063e-01 0.000000e+00
    outer loop
      vertex 1.443400 -2.500000 -4.000000
      vertex 2.886800 -0.000000 -1.500000
      vertex 2.886800 -0.000000 -4.000000
    endloop
  endfacet
  facet normal -8.660218e-01 -5.000063e-01 0.000000e+00
    outer loop
      vertex 1.443400 2.500000 -4.000000
      vertex 2.886800 -0.000000 -1.500000
      vertex 1.443400 2.500000 -1.500000
    endloop
  endfacet
  facet normal -8.660218e-01 -5.000063e-01 -0.000000e+00
    outer loop
      vertex 2.886800 -0.000000 -1.500000
      vertex 1.443400 2.500000 -4.000000
      vertex 2.886800 -0.000000 -4.000000
    endloop
  endfacet
  facet normal 0.000000e+00 -1.000000e+00 0.000000e+00
    outer loop
      vertex -1.443400 2.500000 -4.000000
      vertex 1.443400 2.500000 -1.500000
      vertex -1.443400 2.500000 -1.500000
    endloop
  endfacet
  facet normal 0.000000e+00 -1.000000e+00 -0.000000e+00
    outer loop
      vertex 1.443400 2.500000 -1.500000
      vertex -1.443400 2.500000 -4.000000
      vertex 1.443400 2.500000 -4.000000
    endloop
  endfacet
  facet normal 8.660218e-01 -5.000063e-01 0.000000e+00
    outer loop
      vertex -1.443400 2.500000 -4.000000
      vertex -2.886800 -0.000000 -1.500000
      vertex -2.886800 -0.000000 -4.000000
    endloop
  endfacet
  facet normal 8.660218e-01 -5.000063e-01 0.000000e+00
    outer loop
      vertex -2.886800 -0.000000 -1.500000
      vertex -1.443400 2.500000 -4.000000
      vertex -1.443400 2.500000 -1.500000
    endloop
  endfacet
  facet normal 0.000000e+00 0.000000e+00 -1.000000e+00
    outer loop
      vertex 1.443400 -2.500000 -1.500000
      vertex -2.886800 -0.000000 -1.500000
      vertex 2.886800 -0.000000 -1.500000
    endloop
  endfacet
  facet normal 0.000000e+00 -0.000000e+00 -1.000000e+00
    outer loop
      vertex -1.443400 2.500000 -1.500000
      vertex 2.886800 -0.000000 -1.500000
      vertex -2.886800 -0.000000 -1.500000
    endloop
  endfacet
  facet normal 0.000000e+00 0.000000e+00 -1.000000e+00
    outer loop
      vertex -2.886800 -0.000000 -1.500000
      vertex 1.443400 -2.500000 -1.500000
      vertex -1.443400 -2.500000 -1.500000
    endloop
  endfacet
  facet normal 0.000000e+00 0.000000e+00 -1.000000e+00
    outer loop
      vertex 2.886800 -0.000000 -1.500000
      vertex -1.443400 2.500000 -1.500000
      vertex 1.443400 2.500000 -1.500000
    endloop
  endfacet
endsolid 0.63.D06912.06055
