solid 0.63.D06912.06025
  facet normal 0.000000e+00 0.000000e+00 -1.000000e+00
    outer loop
      vertex 1.443400 2.500000 -4.000000
      vertex 4.065100 1.683800 -4.000000
      vertex 2.886800 -0.000000 -4.000000
    endloop
  endfacet
  facet normal 0.000000e+00 0.000000e+00 -1.000000e+00
    outer loop
      vertex -4.065100 1.683800 -4.000000
      vertex -1.443400 2.500000 -4.000000
      vertex -2.886800 -0.000000 -4.000000
    endloop
  endfacet
  facet normal -0.000000e+00 0.000000e+00 -1.000000e+00
    outer loop
      vertex 4.065100 -1.683800 -4.000000
      vertex 1.443400 -2.500000 -4.000000
      vertex 2.886800 -0.000000 -4.000000
    endloop
  endfacet
  facet normal 0.000000e+00 0.000000e+00 -1.000000e+00
    outer loop
      vertex -1.443400 -2.500000 -4.000000
      vertex -4.065100 -1.683800 -4.000000
      vertex -2.886800 -0.000000 -4.000000
    endloop
  endfacet
  facet normal 0.000000e+00 -0.000000e+00 -1.000000e+00
    outer loop
      vertex -4.065100 1.683800 -4.000000
      vertex -2.886800 -0.000000 -4.000000
      vertex -4.400000 -0.000000 -4.000000
    endloop
  endfacet
  facet normal 0.000000e+00 0.000000e+00 -1.000000e+00
    outer loop
      vertex 1.443400 -2.500000 -4.000000
      vertex 4.065100 -1.683800 -4.000000
      vertex 3.111300 -3.111300 -4.000000
    endloop
  endfacet
  facet normal 0.000000e+00 0.000000e+00 -1.000000e+00
    outer loop
      vertex 0.000000 -4.400000 -4.000000
      vertex -1.443400 -2.500000 -4.000000
      vertex 1.443400 -2.500000 -4.000000
    endloop
  endfacet
  facet normal 0.000000e+00 0.000000e+00 -1.000000e+00
    outer loop
      vertex -3.111300 -3.111300 -4.000000
      vertex -1.443400 -2.500000 -4.000000
      vertex -1.683800 -4.065100 -4.000000
    endloop
  endfacet
  facet normal -0.000000e+00 0.000000e+00 -1.000000e+00
    outer loop
      vertex -1.443400 2.500000 -4.000000
      vertex -4.065100 1.683800 -4.000000
      vertex -3.111300 3.111300 -4.000000
    endloop
  endfacet
  facet normal 0.000000e+00 0.000000e+00 -1.000000e+00
    outer loop
      vertex 0.000000 4.400000 -4.000000
      vertex -1.443400 2.500000 -4.000000
      vertex -1.683800 4.065100 -4.000000
    endloop
  endfacet
  facet normal 0.000000e+00 0.000000e+00 -1.000000e+00
    outer loop
      vertex 4.065100 -1.683800 -4.000000
      vertex 2.886800 -0.000000 -4.000000
      vertex 4.400000 -0.000000 -4.000000
    endloop
  endfacet
  facet normal 0.000000e+00 0.000000e+00 -1.000000e+00
    outer loop
      vertex 0.000000 -4.400000 -4.000000
      vertex 1.443400 -2.500000 -4.000000
      vertex 1.683800 -4.065100 -4.000000
    endloop
  endfacet
  facet normal 0.000000e+00 0.000000e+00 -1.000000e+00
    outer loop
      vertex -1.443400 2.500000 -4.000000
      vertex -3.111300 3.111300 -4.000000
      vertex -1.683800 4.065100 -4.000000
    endloop
  endfacet
  facet normal 0.000000e+00 0.000000e+00 -1.000000e+00
    outer loop
      vertex -1.443400 2.500000 -4.000000
      vertex 0.000000 4.400000 -4.000000
      vertex 1.443400 2.500000 -4.000000
    endloop
  endfacet
  facet normal 0.000000e+00 0.000000e+00 -1.000000e+00
    outer loop
      vertex 4.065100 1.683800 -4.000000
      vertex 1.443400 2.500000 -4.000000
      vertex 3.111300 3.111300 -4.000000
    endloop
  endfacet
  facet normal 0.000000e+00 -0.000000e+00 -1.000000e+00
    outer loop
      vertex -1.443400 -2.500000 -4.000000
      vertex 0.000000 -4.400000 -4.000000
      vertex -1.683800 -4.065100 -4.000000
    endloop
  endfacet
  facet normal 0.000000e+00 0.000000e+00 -1.000000e+00
    outer loop
      vertex 1.443400 2.500000 -4.000000
      vertex 0.000000 4.400000 -4.000000
      vertex 1.683800 4.065100 -4.000000
    endloop
  endfacet
  facet normal 0.000000e+00 0.000000e+00 -1.000000e+00
    outer loop
      vertex 1.443400 -2.500000 -4.000000
      vertex 3.111300 -3.111300 -4.000000
      vertex 1.683800 -4.065100 -4.000000
    endloop
  endfacet
  facet normal 0.000000e+00 0.000000e+00 -1.000000e+00
    outer loop
      vertex 2.886800 -0.000000 -4.000000
      vertex 4.065100 1.683800 -4.000000
      vertex 4.400000 -0.000000 -4.000000
    endloop
  endfacet
  facet normal 0.000000e+00 0.000000e+00 -1.000000e+00
    outer loop
      vertex -4.065100 -1.683800 -4.000000
      vertex -1.443400 -2.500000 -4.000000
      vertex -3.111300 -3.111300 -4.000000
    endloop
  endfacet
  facet normal -0.000000e+00 0.000000e+00 -1.000000e+00
    outer loop
      vertex -2.886800 -0.000000 -4.000000
      vertex -4.065100 -1.683800 -4.000000
      vertex -4.400000 -0.000000 -4.000000
    endloop
  endfacet
  facet normal -0.000000e+00 0.000000e+00 -1.000000e+00
    outer loop
      vertex 3.111300 3.111300 -4.000000
      vertex 1.443400 2.500000 -4.000000
      vertex 1.683800 4.065100 -4.000000
    endloop
  endfacet
  facet normal 8.311972e-01 5.554109e-01 -2.510047e-02
    outer loop
      vertex 3.535500 3.535500 -3.400000
      vertex 4.330100 2.500000 0.000000
      vertex 4.259100 2.452600 -3.400000
    endloop
  endfacet
  facet normal 7.062210e-01 7.062210e-01 5.003776e-02
    outer loop
      vertex 3.535500 3.535500 -3.400000
      vertex 2.500000 4.330100 0.000000
      vertex 4.330100 2.500000 0.000000
    endloop
  endfacet
  facet normal 5.554144e-01 8.311948e-01 -2.510047e-02
    outer loop
      vertex 1.913400 4.619400 -3.400000
      vertex 2.500000 4.330100 0.000000
      vertex 2.452600 4.259100 -3.400000
    endloop
  endfacet
  facet normal 2.586466e-01 9.652436e-01 3.750666e-02
    outer loop
      vertex 1.913400 4.619400 -3.400000
      vertex 0.000000 5.000000 0.000000
      vertex 2.500000 4.330100 0.000000
    endloop
  endfacet
  facet normal -2.586466e-01 9.652436e-01 3.750666e-02
    outer loop
      vertex 0.000000 5.000000 0.000000
      vertex -1.913400 4.619400 -3.400000
      vertex -2.500000 4.330100 0.000000
    endloop
  endfacet
  facet normal -1.950909e-01 9.807852e-01 0.000000e+00
    outer loop
      vertex -1.913400 4.619400 -3.400000
      vertex 0.000000 5.000000 0.000000
      vertex 0.000000 5.000000 -3.400000
    endloop
  endfacet
  facet normal -7.062210e-01 7.062210e-01 5.003776e-02
    outer loop
      vertex -2.500000 4.330100 0.000000
      vertex -3.535500 3.535500 -3.400000
      vertex -4.330100 2.500000 0.000000
    endloop
  endfacet
  facet normal -5.554109e-01 8.311972e-01 -2.510047e-02
    outer loop
      vertex -3.535500 3.535500 -3.400000
      vertex -2.500000 4.330100 0.000000
      vertex -2.452600 4.259100 -3.400000
    endloop
  endfacet
  facet normal 9.807852e-01 1.950909e-01 0.000000e+00
    outer loop
      vertex 4.619400 1.913400 -3.400000
      vertex 5.000000 -0.000000 0.000000
      vertex 5.000000 -0.000000 -3.400000
    endloop
  endfacet
  facet normal -9.652436e-01 2.586466e-01 3.750666e-02
    outer loop
      vertex -4.619400 1.913400 -3.400000
      vertex -5.000000 -0.000000 0.000000
      vertex -4.330100 2.500000 0.000000
    endloop
  endfacet
  facet normal -9.652436e-01 -2.586466e-01 3.750666e-02
    outer loop
      vertex -5.000000 -0.000000 0.000000
      vertex -4.619400 -1.913400 -3.400000
      vertex -4.330100 -2.500000 0.000000
    endloop
  endfacet
  facet normal -9.807852e-01 -1.950909e-01 0.000000e+00
    outer loop
      vertex -4.619400 -1.913400 -3.400000
      vertex -5.000000 -0.000000 0.000000
      vertex -5.000000 -0.000000 -3.400000
    endloop
  endfacet
  facet normal -8.311972e-01 -5.554109e-01 -2.510047e-02
    outer loop
      vertex -3.535500 -3.535500 -3.400000
      vertex -4.330100 -2.500000 0.000000
      vertex -4.259100 -2.452600 -3.400000
    endloop
  endfacet
  facet normal -7.062210e-01 -7.062210e-01 5.003776e-02
    outer loop
      vertex -3.535500 -3.535500 -3.400000
      vertex -2.500000 -4.330100 0.000000
      vertex -4.330100 -2.500000 0.000000
    endloop
  endfacet
  facet normal -5.554144e-01 -8.311948e-01 -2.510047e-02
    outer loop
      vertex -1.913400 -4.619400 -3.400000
      vertex -2.500000 -4.330100 0.000000
      vertex -2.452600 -4.259100 -3.400000
    endloop
  endfacet
  facet normal -2.586466e-01 -9.652436e-01 3.750666e-02
    outer loop
      vertex -1.913400 -4.619400 -3.400000
      vertex 0.000000 -5.000000 0.000000
      vertex -2.500000 -4.330100 0.000000
    endloop
  endfacet
  facet normal 9.652436e-01 2.586466e-01 3.750666e-02
    outer loop
      vertex 5.000000 -0.000000 0.000000
      vertex 4.619400 1.913400 -3.400000
      vertex 4.330100 2.500000 0.000000
    endloop
  endfacet
  facet normal 9.652436e-01 -2.586466e-01 3.750666e-02
    outer loop
      vertex 4.619400 -1.913400 -3.400000
      vertex 5.000000 -0.000000 0.000000
      vertex 4.330100 -2.500000 0.000000
    endloop
  endfacet
  facet normal -1.950909e-01 -9.807852e-01 -0.000000e+00
    outer loop
      vertex 0.000000 -5.000000 0.000000
      vertex -1.913400 -4.619400 -3.400000
      vertex 0.000000 -5.000000 -3.400000
    endloop
  endfacet
  facet normal 8.311948e-01 -5.554144e-01 -2.510047e-02
    outer loop
      vertex 4.619400 -1.913400 -3.400000
      vertex 4.330100 -2.500000 0.000000
      vertex 4.259100 -2.452600 -3.400000
    endloop
  endfacet
  facet normal 7.062210e-01 -7.062210e-01 5.003776e-02
    outer loop
      vertex 3.535500 -3.535500 -3.400000
      vertex 4.330100 -2.500000 0.000000
      vertex 2.500000 -4.330100 0.000000
    endloop
  endfacet
  facet normal 5.554109e-01 -8.311972e-01 -2.510047e-02
    outer loop
      vertex 3.535500 -3.535500 -3.400000
      vertex 2.500000 -4.330100 0.000000
      vertex 2.452600 -4.259100 -3.400000
    endloop
  endfacet
  facet normal 1.950909e-01 -9.807852e-01 0.000000e+00
    outer loop
      vertex 1.913400 -4.619400 -3.400000
      vertex 0.000000 -5.000000 0.000000
      vertex 0.000000 -5.000000 -3.400000
    endloop
  endfacet
  facet normal 2.586466e-01 -9.652436e-01 3.750666e-02
    outer loop
      vertex 0.000000 -5.000000 0.000000
      vertex 1.913400 -4.619400 -3.400000
      vertex 2.500000 -4.330100 0.000000
    endloop
  endfacet
  facet normal 5.554144e-01 -8.311948e-01 -2.510047e-02
    outer loop
      vertex 2.500000 -4.330100 0.000000
      vertex 1.913400 -4.619400 -3.400000
      vertex 2.452600 -4.259100 -3.400000
    endloop
  endfacet
  facet normal 8.311972e-01 -5.554109e-01 -2.510047e-02
    outer loop
      vertex 4.330100 -2.500000 0.000000
      vertex 3.535500 -3.535500 -3.400000
      vertex 4.259100 -2.452600 -3.400000
    endloop
  endfacet
  facet normal 9.807852e-01 -1.950909e-01 0.000000e+00
    outer loop
      vertex 5.000000 -0.000000 0.000000
      vertex 4.619400 -1.913400 -3.400000
      vertex 5.000000 -0.000000 -3.400000
    endloop
  endfacet
  facet normal 8.311948e-01 5.554144e-01 -2.510047e-02
    outer loop
      vertex 4.330100 2.500000 0.000000
      vertex 4.619400 1.913400 -3.400000
      vertex 4.259100 2.452600 -3.400000
    endloop
  endfacet
  facet normal 5.554109e-01 8.311972e-01 -2.510047e-02
    outer loop
      vertex 2.500000 4.330100 0.000000
      vertex 3.535500 3.535500 -3.400000
      vertex 2.452600 4.259100 -3.400000
    endloop
  endfacet
  facet normal 1.950909e-01 9.807852e-01 0.000000e+00
    outer loop
      vertex 0.000000 5.000000 0.000000
      vertex 1.913400 4.619400 -3.400000
      vertex 0.000000 5.000000 -3.400000
    endloop
  endfacet
  facet normal -5.554144e-01 8.311948e-01 -2.510047e-02
    outer loop
      vertex -2.500000 4.330100 0.000000
      vertex -1.913400 4.619400 -3.400000
      vertex -2.452600 4.259100 -3.400000
    endloop
  endfacet
  facet normal -8.311972e-01 5.554109e-01 -2.510047e-02
    outer loop
      vertex -4.330100 2.500000 0.000000
      vertex -3.535500 3.535500 -3.400000
      vertex -4.259100 2.452600 -3.400000
    endloop
  endfacet
  facet normal -9.807852e-01 1.950909e-01 0.000000e+00
    outer loop
      vertex -5.000000 -0.000000 0.000000
      vertex -4.619400 1.913400 -3.400000
      vertex -5.000000 -0.000000 -3.400000
    endloop
  endfacet
  facet normal -8.311948e-01 -5.554144e-01 -2.510047e-02
    outer loop
      vertex -4.330100 -2.500000 0.000000
      vertex -4.619400 -1.913400 -3.400000
      vertex -4.259100 -2.452600 -3.400000
    endloop
  endfacet
  facet normal -5.554109e-01 -8.311972e-01 -2.510047e-02
    outer loop
      vertex -2.500000 -4.330100 0.000000
      vertex -3.535500 -3.535500 -3.400000
      vertex -2.452600 -4.259100 -3.400000
    endloop
  endfacet
  facet normal -8.311948e-01 5.554144e-01 -2.510047e-02
    outer loop
      vertex -4.619400 1.913400 -3.400000
      vertex -4.330100 2.500000 0.000000
      vertex -4.259100 2.452600 -3.400000
    endloop
  endfacet
  facet normal 0.000000e+00 0.000000e+00 1.000000e+00
    outer loop
      vertex 1.026100 2.819100 0.000000
      vertex 0.000000 5.000000 0.000000
      vertex -1.026100 2.819100 0.000000
    endloop
  endfacet
  facet normal 0.000000e+00 0.000000e+00 1.000000e+00
    outer loop
      vertex -2.954400 -0.520900 0.000000
      vertex -4.330100 -2.500000 0.000000
      vertex -1.928400 -2.298100 0.000000
    endloop
  endfacet
  facet normal -0.000000e+00 0.000000e+00 1.000000e+00
    outer loop
      vertex 1.928400 -2.298100 0.000000
      vertex 4.330100 -2.500000 0.000000
      vertex 2.954400 -0.520900 0.000000
    endloop
  endfacet
  facet normal 0.000000e+00 0.000000e+00 1.000000e+00
    outer loop
      vertex 0.000000 5.000000 0.000000
      vertex 1.026100 2.819100 0.000000
      vertex 2.500000 4.330100 0.000000
    endloop
  endfacet
  facet normal 0.000000e+00 -0.000000e+00 1.000000e+00
    outer loop
      vertex -2.598100 1.500000 0.000000
      vertex -2.500000 4.330100 0.000000
      vertex -4.330100 2.500000 0.000000
    endloop
  endfacet
  facet normal 0.000000e+00 -0.000000e+00 1.000000e+00
    outer loop
      vertex -4.330100 -2.500000 0.000000
      vertex -2.954400 -0.520900 0.000000
      vertex -5.000000 -0.000000 0.000000
    endloop
  endfacet
  facet normal 0.000000e+00 0.000000e+00 1.000000e+00
    outer loop
      vertex 0.000000 -3.000000 0.000000
      vertex -2.500000 -4.330100 0.000000
      vertex 0.000000 -5.000000 0.000000
    endloop
  endfacet
  facet normal -0.000000e+00 0.000000e+00 1.000000e+00
    outer loop
      vertex 0.000000 -3.000000 0.000000
      vertex 2.500000 -4.330100 0.000000
      vertex 1.928400 -2.298100 0.000000
    endloop
  endfacet
  facet normal 0.000000e+00 0.000000e+00 1.000000e+00
    outer loop
      vertex 4.330100 -2.500000 0.000000
      vertex 1.928400 -2.298100 0.000000
      vertex 2.500000 -4.330100 0.000000
    endloop
  endfacet
  facet normal -0.000000e+00 0.000000e+00 1.000000e+00
    outer loop
      vertex 2.598100 1.500000 0.000000
      vertex 5.000000 -0.000000 0.000000
      vertex 4.330100 2.500000 0.000000
    endloop
  endfacet
  facet normal 0.000000e+00 0.000000e+00 1.000000e+00
    outer loop
      vertex 2.598100 1.500000 0.000000
      vertex 2.500000 4.330100 0.000000
      vertex 1.026100 2.819100 0.000000
    endloop
  endfacet
  facet normal 0.000000e+00 0.000000e+00 1.000000e+00
    outer loop
      vertex -2.500000 4.330100 0.000000
      vertex -2.598100 1.500000 0.000000
      vertex -1.026100 2.819100 0.000000
    endloop
  endfacet
  facet normal 0.000000e+00 0.000000e+00 1.000000e+00
    outer loop
      vertex -2.598100 1.500000 0.000000
      vertex -5.000000 -0.000000 0.000000
      vertex -2.954400 -0.520900 0.000000
    endloop
  endfacet
  facet normal 0.000000e+00 0.000000e+00 1.000000e+00
    outer loop
      vertex -2.500000 -4.330100 0.000000
      vertex 0.000000 -3.000000 0.000000
      vertex -1.928400 -2.298100 0.000000
    endloop
  endfacet
  facet normal -0.000000e+00 0.000000e+00 1.000000e+00
    outer loop
      vertex 2.954400 -0.520900 0.000000
      vertex 4.330100 -2.500000 0.000000
      vertex 5.000000 -0.000000 0.000000
    endloop
  endfacet
  facet normal 0.000000e+00 0.000000e+00 1.000000e+00
    outer loop
      vertex 2.500000 4.330100 0.000000
      vertex 2.598100 1.500000 0.000000
      vertex 4.330100 2.500000 0.000000
    endloop
  endfacet
  facet normal 0.000000e+00 0.000000e+00 1.000000e+00
    outer loop
      vertex -5.000000 -0.000000 0.000000
      vertex -2.598100 1.500000 0.000000
      vertex -4.330100 2.500000 0.000000
    endloop
  endfacet
  facet normal 0.000000e+00 0.000000e+00 1.000000e+00
    outer loop
      vertex 2.500000 -4.330100 0.000000
      vertex 0.000000 -3.000000 0.000000
      vertex 0.000000 -5.000000 0.000000
    endloop
  endfacet
  facet normal 0.000000e+00 0.000000e+00 1.000000e+00
    outer loop
      vertex 5.000000 -0.000000 0.000000
      vertex 2.598100 1.500000 0.000000
      vertex 2.954400 -0.520900 0.000000
    endloop
  endfacet
  facet normal 0.000000e+00 0.000000e+00 1.000000e+00
    outer loop
      vertex -1.928400 -2.298100 0.000000
      vertex -4.330100 -2.500000 0.000000
      vertex -2.500000 -4.330100 0.000000
    endloop
  endfacet
  facet normal 0.000000e+00 -0.000000e+00 1.000000e+00
    outer loop
      vertex -1.026100 2.819100 0.000000
      vertex 0.000000 5.000000 0.000000
      vertex -2.500000 4.330100 0.000000
    endloop
  endfacet
  facet normal -3.420287e-01 -9.396895e-01 0.000000e+00
    outer loop
      vertex 0.000000 -3.000000 0.000000
      vertex -1.928400 -2.298100 24.445500
      vertex -1.928400 -2.298100 0.000000
    endloop
  endfacet
  facet normal -8.660395e-01 -4.999755e-01 -0.000000e+00
    outer loop
      vertex -1.928400 -2.298100 24.445500
      vertex -2.954400 -0.520900 0.000000
      vertex -1.928400 -2.298100 0.000000
    endloop
  endfacet
  facet normal -9.848110e-01 1.736296e-01 0.000000e+00
    outer loop
      vertex -2.954400 -0.520900 0.000000
      vertex -2.598100 1.500000 24.445500
      vertex -2.598100 1.500000 0.000000
    endloop
  endfacet
  facet normal -6.427977e-01 7.660360e-01 0.000000e+00
    outer loop
      vertex -2.598100 1.500000 24.445500
      vertex -1.026100 2.819100 0.000000
      vertex -2.598100 1.500000 0.000000
    endloop
  endfacet
  facet normal 0.000000e+00 1.000000e+00 0.000000e+00
    outer loop
      vertex -1.026100 2.819100 0.000000
      vertex 1.026100 2.819100 24.445500
      vertex 1.026100 2.819100 0.000000
    endloop
  endfacet
  facet normal 6.427977e-01 7.660360e-01 0.000000e+00
    outer loop
      vertex 1.026100 2.819100 24.445500
      vertex 2.598100 1.500000 0.000000
      vertex 1.026100 2.819100 0.000000
    endloop
  endfacet
  facet normal 9.848110e-01 1.736296e-01 0.000000e+00
    outer loop
      vertex 2.598100 1.500000 0.000000
      vertex 2.954400 -0.520900 24.445500
      vertex 2.954400 -0.520900 0.000000
    endloop
  endfacet
  facet normal 8.660395e-01 -4.999755e-01 0.000000e+00
    outer loop
      vertex 2.954400 -0.520900 24.445500
      vertex 1.928400 -2.298100 0.000000
      vertex 2.954400 -0.520900 0.000000
    endloop
  endfacet
  facet normal 3.420287e-01 -9.396895e-01 0.000000e+00
    outer loop
      vertex 1.928400 -2.298100 0.000000
      vertex 0.000000 -3.000000 24.445500
      vertex 0.000000 -3.000000 0.000000
    endloop
  endfacet
  facet normal 3.420287e-01 -9.396895e-01 0.000000e+00
    outer loop
      vertex 0.000000 -3.000000 24.445500
      vertex 1.928400 -2.298100 0.000000
      vertex 1.928400 -2.298100 24.445500
    endloop
  endfacet
  facet normal 8.660395e-01 -4.999755e-01 0.000000e+00
    outer loop
      vertex 1.928400 -2.298100 0.000000
      vertex 2.954400 -0.520900 24.445500
      vertex 1.928400 -2.298100 24.445500
    endloop
  endfacet
  facet normal 9.848110e-01 1.736296e-01 0.000000e+00
    outer loop
      vertex 2.954400 -0.520900 24.445500
      vertex 2.598100 1.500000 0.000000
      vertex 2.598100 1.500000 24.445500
    endloop
  endfacet
  facet normal 6.427977e-01 7.660360e-01 -0.000000e+00
    outer loop
      vertex 2.598100 1.500000 0.000000
      vertex 1.026100 2.819100 24.445500
      vertex 2.598100 1.500000 24.445500
    endloop
  endfacet
  facet normal 0.000000e+00 1.000000e+00 0.000000e+00
    outer loop
      vertex 1.026100 2.819100 24.445500
      vertex -1.026100 2.819100 0.000000
      vertex -1.026100 2.819100 24.445500
    endloop
  endfacet
  facet normal -3.420287e-01 -9.396895e-01 0.000000e+00
    outer loop
      vertex -1.928400 -2.298100 24.445500
      vertex 0.000000 -3.000000 0.000000
      vertex 0.000000 -3.000000 24.445500
    endloop
  endfacet
  facet normal -8.660395e-01 -4.999755e-01 0.000000e+00
    outer loop
      vertex -2.954400 -0.520900 0.000000
      vertex -1.928400 -2.298100 24.445500
      vertex -2.954400 -0.520900 24.445500
    endloop
  endfacet
  facet normal -6.427977e-01 7.660360e-01 0.000000e+00
    outer loop
      vertex -1.026100 2.819100 0.000000
      vertex -2.598100 1.500000 24.445500
      vertex -1.026100 2.819100 24.445500
    endloop
  endfacet
  facet normal -9.848110e-01 1.736296e-01 0.000000e+00
    outer loop
      vertex -2.598100 1.500000 24.445500
      vertex -2.954400 -0.520900 0.000000
      vertex -2.954400 -0.520900 24.445500
    endloop
  endfacet
  facet normal -4.684204e-01 5.582968e-01 6.847532e-01
    outer loop
      vertex -0.836400 2.298000 25.000000
      vertex -2.598100 1.500000 24.445500
      vertex -2.117900 1.222800 25.000000
    endloop
  endfacet
  facet normal -7.176432e-01 1.264969e-01 6.848261e-01
    outer loop
      vertex -2.117900 1.222800 25.000000
      vertex -2.954400 -0.520900 24.445500
      vertex -2.408300 -0.424700 25.000000
    endloop
  endfacet
  facet normal -6.311038e-01 -3.643442e-01 6.848075e-01
    outer loop
      vertex -1.571900 -1.873400 25.000000
      vertex -2.954400 -0.520900 24.445500
      vertex -1.928400 -2.298100 24.445500
    endloop
  endfacet
  facet normal -6.311208e-01 -3.643746e-01 6.847756e-01
    outer loop
      vertex -2.954400 -0.520900 24.445500
      vertex -1.571900 -1.873400 25.000000
      vertex -2.408300 -0.424700 25.000000
    endloop
  endfacet
  facet normal 0.000000e+00 7.287127e-01 6.848196e-01
    outer loop
      vertex -0.836400 2.298000 25.000000
      vertex 1.026100 2.819100 24.445500
      vertex -1.026100 2.819100 24.445500
    endloop
  endfacet
  facet normal 4.683670e-01 5.582331e-01 6.848417e-01
    outer loop
      vertex 2.117900 1.222800 25.000000
      vertex 1.026100 2.819100 24.445500
      vertex 0.836400 2.298000 25.000000
    endloop
  endfacet
  facet normal 7.176951e-01 1.265061e-01 6.847700e-01
    outer loop
      vertex 2.408300 -0.424700 25.000000
      vertex 2.598100 1.500000 24.445500
      vertex 2.117900 1.222800 25.000000
    endloop
  endfacet
  facet normal 6.311271e-01 -3.643576e-01 6.847789e-01
    outer loop
      vertex 2.408300 -0.424700 25.000000
      vertex 1.928400 -2.298100 24.445500
      vertex 2.954400 -0.520900 24.445500
    endloop
  endfacet
  facet normal 2.492440e-01 -6.848218e-01 6.847602e-01
    outer loop
      vertex 0.000000 -2.445500 25.000000
      vertex 1.928400 -2.298100 24.445500
      vertex 1.571900 -1.873400 25.000000
    endloop
  endfacet
  facet normal 2.492501e-01 -6.847896e-01 6.847902e-01
    outer loop
      vertex 1.928400 -2.298100 24.445500
      vertex 0.000000 -2.445500 25.000000
      vertex 0.000000 -3.000000 24.445500
    endloop
  endfacet
  facet normal 6.310923e-01 -3.643581e-01 6.848107e-01
    outer loop
      vertex 1.928400 -2.298100 24.445500
      vertex 2.408300 -0.424700 25.000000
      vertex 1.571900 -1.873400 25.000000
    endloop
  endfacet
  facet normal 7.176430e-01 1.265259e-01 6.848209e-01
    outer loop
      vertex 2.598100 1.500000 24.445500
      vertex 2.408300 -0.424700 25.000000
      vertex 2.954400 -0.520900 24.445500
    endloop
  endfacet
  facet normal 4.684500e-01 5.582620e-01 6.847614e-01
    outer loop
      vertex 1.026100 2.819100 24.445500
      vertex 2.117900 1.222800 25.000000
      vertex 2.598100 1.500000 24.445500
    endloop
  endfacet
  facet normal 0.000000e+00 7.287127e-01 6.848196e-01
    outer loop
      vertex 1.026100 2.819100 24.445500
      vertex -0.836400 2.298000 25.000000
      vertex 0.836400 2.298000 25.000000
    endloop
  endfacet
  facet normal -4.684064e-01 5.582100e-01 6.848335e-01
    outer loop
      vertex -2.598100 1.500000 24.445500
      vertex -0.836400 2.298000 25.000000
      vertex -1.026100 2.819100 24.445500
    endloop
  endfacet
  facet normal -7.176853e-01 1.265333e-01 6.847752e-01
    outer loop
      vertex -2.954400 -0.520900 24.445500
      vertex -2.117900 1.222800 25.000000
      vertex -2.598100 1.500000 24.445500
    endloop
  endfacet
  facet normal -2.492588e-01 -6.848134e-01 6.847632e-01
    outer loop
      vertex 0.000000 -3.000000 24.445500
      vertex -1.571900 -1.873400 25.000000
      vertex -1.928400 -2.298100 24.445500
    endloop
  endfacet
  facet normal -2.492333e-01 -6.847927e-01 6.847932e-01
    outer loop
      vertex -1.571900 -1.873400 25.000000
      vertex 0.000000 -3.000000 24.445500
      vertex 0.000000 -2.445500 25.000000
    endloop
  endfacet
  facet normal -0.000000e+00 0.000000e+00 1.000000e+00
    outer loop
      vertex -2.117900 1.222800 25.000000
      vertex -1.571900 -1.873400 25.000000
      vertex -0.836400 2.298000 25.000000
    endloop
  endfacet
  facet normal 0.000000e+00 -0.000000e+00 1.000000e+00
    outer loop
      vertex 0.000000 -2.445500 25.000000
      vertex 2.117900 1.222800 25.000000
      vertex -1.571900 -1.873400 25.000000
    endloop
  endfacet
  facet normal 0.000000e+00 0.000000e+00 1.000000e+00
    outer loop
      vertex -1.571900 -1.873400 25.000000
      vertex 0.836400 2.298000 25.000000
      vertex -0.836400 2.298000 25.000000
    endloop
  endfacet
  facet normal 0.000000e+00 -0.000000e+00 1.000000e+00
    outer loop
      vertex 1.571900 -1.873400 25.000000
      vertex 2.117900 1.222800 25.000000
      vertex 0.000000 -2.445500 25.000000
    endloop
  endfacet
  facet normal 0.000000e+00 0.000000e+00 1.000000e+00
    outer loop
      vertex 0.836400 2.298000 25.000000
      vertex -1.571900 -1.873400 25.000000
      vertex 2.117900 1.222800 25.000000
    endloop
  endfacet
  facet normal 0.000000e+00 0.000000e+00 1.000000e+00
    outer loop
      vertex 2.117900 1.222800 25.000000
      vertex 1.571900 -1.873400 25.000000
      vertex 2.408300 -0.424700 25.000000
    endloop
  endfacet
  facet normal 0.000000e+00 0.000000e+00 1.000000e+00
    outer loop
      vertex -1.571900 -1.873400 25.000000
      vertex -2.117900 1.222800 25.000000
      vertex -2.408300 -0.424700 25.000000
    endloop
  endfacet
  facet normal 9.086951e-01 1.807843e-01 -3.762849e-01
    outer loop
      vertex 4.457000 1.846200 -3.824300
      vertex 5.000000 -0.000000 -3.400000
      vertex 4.824300 -0.000000 -3.824300
    endloop
  endfacet
  facet normal 7.703691e-01 5.147115e-01 -3.763025e-01
    outer loop
      vertex 3.411300 3.411300 -3.824300
      vertex 4.259100 2.452600 -3.400000
      vertex 4.457000 1.846200 -3.824300
    endloop
  endfacet
  facet normal 7.703829e-01 5.147744e-01 -3.761880e-01
    outer loop
      vertex 4.259100 2.452600 -3.400000
      vertex 3.411300 3.411300 -3.824300
      vertex 3.535500 3.535500 -3.400000
    endloop
  endfacet
  facet normal 5.147383e-01 7.703217e-01 -3.763628e-01
    outer loop
      vertex 2.452600 4.259100 -3.400000
      vertex 1.846200 4.457000 -3.824300
      vertex 1.913400 4.619400 -3.400000
    endloop
  endfacet
  facet normal 5.147115e-01 7.703691e-01 -3.763025e-01
    outer loop
      vertex 2.452600 4.259100 -3.400000
      vertex 3.411300 3.411300 -3.824300
      vertex 1.846200 4.457000 -3.824300
    endloop
  endfacet
  facet normal 1.807425e-01 9.086514e-01 -3.764105e-01
    outer loop
      vertex 1.846200 4.457000 -3.824300
      vertex 0.000000 5.000000 -3.400000
      vertex 1.913400 4.619400 -3.400000
    endloop
  endfacet
  facet normal -1.807843e-01 9.086951e-01 -3.762849e-01
    outer loop
      vertex -1.846200 4.457000 -3.824300
      vertex 0.000000 5.000000 -3.400000
      vertex 0.000000 4.824300 -3.824300
    endloop
  endfacet
  facet normal -1.807425e-01 -9.086514e-01 -3.764105e-01
    outer loop
      vertex -1.846200 -4.457000 -3.824300
      vertex 0.000000 -5.000000 -3.400000
      vertex -1.913400 -4.619400 -3.400000
    endloop
  endfacet
  facet normal -5.147115e-01 -7.703691e-01 -3.763025e-01
    outer loop
      vertex -2.452600 -4.259100 -3.400000
      vertex -3.411300 -3.411300 -3.824300
      vertex -1.846200 -4.457000 -3.824300
    endloop
  endfacet
  facet normal -5.147383e-01 -7.703217e-01 -3.763628e-01
    outer loop
      vertex -2.452600 -4.259100 -3.400000
      vertex -1.846200 -4.457000 -3.824300
      vertex -1.913400 -4.619400 -3.400000
    endloop
  endfacet
  facet normal -7.703829e-01 -5.147744e-01 -3.761880e-01
    outer loop
      vertex -4.259100 -2.452600 -3.400000
      vertex -3.411300 -3.411300 -3.824300
      vertex -3.535500 -3.535500 -3.400000
    endloop
  endfacet
  facet normal -7.703691e-01 -5.147115e-01 -3.763025e-01
    outer loop
      vertex -3.411300 -3.411300 -3.824300
      vertex -4.259100 -2.452600 -3.400000
      vertex -4.457000 -1.846200 -3.824300
    endloop
  endfacet
  facet normal -9.086441e-01 1.807741e-01 -3.764127e-01
    outer loop
      vertex -4.824300 -0.000000 -3.824300
      vertex -4.619400 1.913400 -3.400000
      vertex -4.457000 1.846200 -3.824300
    endloop
  endfacet
  facet normal -7.703691e-01 5.147115e-01 -3.763025e-01
    outer loop
      vertex -4.259100 2.452600 -3.400000
      vertex -3.411300 3.411300 -3.824300
      vertex -4.457000 1.846200 -3.824300
    endloop
  endfacet
  facet normal -7.703217e-01 5.147383e-01 -3.763628e-01
    outer loop
      vertex -4.259100 2.452600 -3.400000
      vertex -4.457000 1.846200 -3.824300
      vertex -4.619400 1.913400 -3.400000
    endloop
  endfacet
  facet normal -5.147744e-01 7.703829e-01 -3.761880e-01
    outer loop
      vertex -2.452600 4.259100 -3.400000
      vertex -3.411300 3.411300 -3.824300
      vertex -3.535500 3.535500 -3.400000
    endloop
  endfacet
  facet normal -9.087005e-01 -1.807523e-01 -3.762871e-01
    outer loop
      vertex -4.824300 -0.000000 -3.824300
      vertex -4.619400 -1.913400 -3.400000
      vertex -5.000000 -0.000000 -3.400000
    endloop
  endfacet
  facet normal -1.807843e-01 -9.086951e-01 -3.762849e-01
    outer loop
      vertex 0.000000 -5.000000 -3.400000
      vertex -1.846200 -4.457000 -3.824300
      vertex 0.000000 -4.824300 -3.824300
    endloop
  endfacet
  facet normal -5.147744e-01 -7.703829e-01 -3.761880e-01
    outer loop
      vertex -3.411300 -3.411300 -3.824300
      vertex -2.452600 -4.259100 -3.400000
      vertex -3.535500 -3.535500 -3.400000
    endloop
  endfacet
  facet normal -7.703217e-01 -5.147383e-01 -3.763628e-01
    outer loop
      vertex -4.457000 -1.846200 -3.824300
      vertex -4.259100 -2.452600 -3.400000
      vertex -4.619400 -1.913400 -3.400000
    endloop
  endfacet
  facet normal -9.086441e-01 -1.807741e-01 -3.764127e-01
    outer loop
      vertex -4.619400 -1.913400 -3.400000
      vertex -4.824300 -0.000000 -3.824300
      vertex -4.457000 -1.846200 -3.824300
    endloop
  endfacet
  facet normal -9.087005e-01 1.807523e-01 -3.762871e-01
    outer loop
      vertex -4.619400 1.913400 -3.400000
      vertex -4.824300 -0.000000 -3.824300
      vertex -5.000000 -0.000000 -3.400000
    endloop
  endfacet
  facet normal -7.703829e-01 5.147744e-01 -3.761880e-01
    outer loop
      vertex -3.411300 3.411300 -3.824300
      vertex -4.259100 2.452600 -3.400000
      vertex -3.535500 3.535500 -3.400000
    endloop
  endfacet
  facet normal -5.147383e-01 7.703217e-01 -3.763628e-01
    outer loop
      vertex -1.846200 4.457000 -3.824300
      vertex -2.452600 4.259100 -3.400000
      vertex -1.913400 4.619400 -3.400000
    endloop
  endfacet
  facet normal -1.807425e-01 9.086514e-01 -3.764105e-01
    outer loop
      vertex 0.000000 5.000000 -3.400000
      vertex -1.846200 4.457000 -3.824300
      vertex -1.913400 4.619400 -3.400000
    endloop
  endfacet
  facet normal 1.807843e-01 9.086951e-01 -3.762849e-01
    outer loop
      vertex 0.000000 5.000000 -3.400000
      vertex 1.846200 4.457000 -3.824300
      vertex 0.000000 4.824300 -3.824300
    endloop
  endfacet
  facet normal 5.147744e-01 7.703829e-01 -3.761880e-01
    outer loop
      vertex 3.411300 3.411300 -3.824300
      vertex 2.452600 4.259100 -3.400000
      vertex 3.535500 3.535500 -3.400000
    endloop
  endfacet
  facet normal 7.703217e-01 5.147383e-01 -3.763628e-01
    outer loop
      vertex 4.457000 1.846200 -3.824300
      vertex 4.259100 2.452600 -3.400000
      vertex 4.619400 1.913400 -3.400000
    endloop
  endfacet
  facet normal 9.086514e-01 1.807425e-01 -3.764105e-01
    outer loop
      vertex 5.000000 -0.000000 -3.400000
      vertex 4.457000 1.846200 -3.824300
      vertex 4.619400 1.913400 -3.400000
    endloop
  endfacet
  facet normal 9.086951e-01 -1.807843e-01 -3.762849e-01
    outer loop
      vertex 5.000000 -0.000000 -3.400000
      vertex 4.457000 -1.846200 -3.824300
      vertex 4.824300 -0.000000 -3.824300
    endloop
  endfacet
  facet normal 7.703829e-01 -5.147744e-01 -3.761880e-01
    outer loop
      vertex 3.411300 -3.411300 -3.824300
      vertex 4.259100 -2.452600 -3.400000
      vertex 3.535500 -3.535500 -3.400000
    endloop
  endfacet
  facet normal 5.147383e-01 -7.703217e-01 -3.763628e-01
    outer loop
      vertex 1.846200 -4.457000 -3.824300
      vertex 2.452600 -4.259100 -3.400000
      vertex 1.913400 -4.619400 -3.400000
    endloop
  endfacet
  facet normal 1.807741e-01 -9.086441e-01 -3.764127e-01
    outer loop
      vertex 1.913400 -4.619400 -3.400000
      vertex 0.000000 -4.824300 -3.824300
      vertex 1.846200 -4.457000 -3.824300
    endloop
  endfacet
  facet normal -7.587586e-02 -3.814863e-01 -9.212551e-01
    outer loop
      vertex 0.000000 -4.824300 -3.824300
      vertex -1.683800 -4.065100 -4.000000
      vertex 0.000000 -4.400000 -4.000000
    endloop
  endfacet
  facet normal -2.161210e-01 -3.234564e-01 -9.212316e-01
    outer loop
      vertex -1.846200 -4.457000 -3.824300
      vertex -3.111300 -3.111300 -4.000000
      vertex -1.683800 -4.065100 -4.000000
    endloop
  endfacet
  facet normal -3.234349e-01 -2.161067e-01 -9.212425e-01
    outer loop
      vertex -3.411300 -3.411300 -3.824300
      vertex -4.065100 -1.683800 -4.000000
      vertex -3.111300 -3.111300 -4.000000
    endloop
  endfacet
  facet normal -3.815551e-01 -7.591012e-02 -9.212238e-01
    outer loop
      vertex -4.824300 -0.000000 -3.824300
      vertex -4.065100 -1.683800 -4.000000
      vertex -4.457000 -1.846200 -3.824300
    endloop
  endfacet
  facet normal -3.814863e-01 7.587586e-02 -9.212551e-01
    outer loop
      vertex -4.824300 -0.000000 -3.824300
      vertex -4.065100 1.683800 -4.000000
      vertex -4.400000 -0.000000 -4.000000
    endloop
  endfacet
  facet normal -3.234592e-01 2.161148e-01 -9.212321e-01
    outer loop
      vertex -3.411300 3.411300 -3.824300
      vertex -4.065100 1.683800 -4.000000
      vertex -4.457000 1.846200 -3.824300
    endloop
  endfacet
  facet normal -2.161017e-01 3.234396e-01 -9.212420e-01
    outer loop
      vertex -1.846200 4.457000 -3.824300
      vertex -3.111300 3.111300 -4.000000
      vertex -3.411300 3.411300 -3.824300
    endloop
  endfacet
  facet normal -7.591012e-02 3.815551e-01 -9.212238e-01
    outer loop
      vertex 0.000000 4.824300 -3.824300
      vertex -1.683800 4.065100 -4.000000
      vertex -1.846200 4.457000 -3.824300
    endloop
  endfacet
  facet normal 7.589633e-02 3.814857e-01 -9.212537e-01
    outer loop
      vertex 1.846200 4.457000 -3.824300
      vertex 0.000000 4.400000 -4.000000
      vertex 0.000000 4.824300 -3.824300
    endloop
  endfacet
  facet normal 2.161148e-01 3.234592e-01 -9.212321e-01
    outer loop
      vertex 3.411300 3.411300 -3.824300
      vertex 1.683800 4.065100 -4.000000
      vertex 1.846200 4.457000 -3.824300
    endloop
  endfacet
  facet normal 3.234349e-01 2.161067e-01 -9.212425e-01
    outer loop
      vertex 3.411300 3.411300 -3.824300
      vertex 4.065100 1.683800 -4.000000
      vertex 3.111300 3.111300 -4.000000
    endloop
  endfacet
  facet normal 3.815624e-01 7.589098e-02 -9.212224e-01
    outer loop
      vertex 4.457000 1.846200 -3.824300
      vertex 4.400000 -0.000000 -4.000000
      vertex 4.065100 1.683800 -4.000000
    endloop
  endfacet
  facet normal 3.814857e-01 -7.589633e-02 -9.212537e-01
    outer loop
      vertex 4.457000 -1.846200 -3.824300
      vertex 4.400000 -0.000000 -4.000000
      vertex 4.824300 -0.000000 -3.824300
    endloop
  endfacet
  facet normal 3.234564e-01 -2.161210e-01 -9.212316e-01
    outer loop
      vertex 4.457000 -1.846200 -3.824300
      vertex 3.111300 -3.111300 -4.000000
      vertex 4.065100 -1.683800 -4.000000
    endloop
  endfacet
  facet normal 2.161067e-01 -3.234349e-01 -9.212425e-01
    outer loop
      vertex 3.411300 -3.411300 -3.824300
      vertex 1.683800 -4.065100 -4.000000
      vertex 3.111300 -3.111300 -4.000000
    endloop
  endfacet
  facet normal 7.589098e-02 -3.815624e-01 -9.212224e-01
    outer loop
      vertex 1.846200 -4.457000 -3.824300
      vertex 0.000000 -4.400000 -4.000000
      vertex 1.683800 -4.065100 -4.000000
    endloop
  endfacet
  facet normal 7.589633e-02 -3.814857e-01 -9.212537e-01
    outer loop
      vertex 0.000000 -4.400000 -4.000000
      vertex 1.846200 -4.457000 -3.824300
      vertex 0.000000 -4.824300 -3.824300
    endloop
  endfacet
  facet normal 2.161148e-01 -3.234592e-01 -9.212321e-01
    outer loop
      vertex 1.683800 -4.065100 -4.000000
      vertex 3.411300 -3.411300 -3.824300
      vertex 1.846200 -4.457000 -3.824300
    endloop
  endfacet
  facet normal 3.234396e-01 -2.161017e-01 -9.212420e-01
    outer loop
      vertex 3.111300 -3.111300 -4.000000
      vertex 4.457000 -1.846200 -3.824300
      vertex 3.411300 -3.411300 -3.824300
    endloop
  endfacet
  facet normal 3.815624e-01 -7.589098e-02 -9.212224e-01
    outer loop
      vertex 4.400000 -0.000000 -4.000000
      vertex 4.457000 -1.846200 -3.824300
      vertex 4.065100 -1.683800 -4.000000
    endloop
  endfacet
  facet normal 3.814857e-01 7.589633e-02 -9.212537e-01
    outer loop
      vertex 4.400000 -0.000000 -4.000000
      vertex 4.457000 1.846200 -3.824300
      vertex 4.824300 -0.000000 -3.824300
    endloop
  endfacet
  facet normal 3.234592e-01 2.161148e-01 -9.212321e-01
    outer loop
      vertex 4.065100 1.683800 -4.000000
      vertex 3.411300 3.411300 -3.824300
      vertex 4.457000 1.846200 -3.824300
    endloop
  endfacet
  facet normal 2.161067e-01 3.234349e-01 -9.212425e-01
    outer loop
      vertex 1.683800 4.065100 -4.000000
      vertex 3.411300 3.411300 -3.824300
      vertex 3.111300 3.111300 -4.000000
    endloop
  endfacet
  facet normal 7.589098e-02 3.815624e-01 -9.212224e-01
    outer loop
      vertex 0.000000 4.400000 -4.000000
      vertex 1.846200 4.457000 -3.824300
      vertex 1.683800 4.065100 -4.000000
    endloop
  endfacet
  facet normal -7.587586e-02 3.814863e-01 -9.212551e-01
    outer loop
      vertex -1.683800 4.065100 -4.000000
      vertex 0.000000 4.824300 -3.824300
      vertex 0.000000 4.400000 -4.000000
    endloop
  endfacet
  facet normal -2.161210e-01 3.234564e-01 -9.212316e-01
    outer loop
      vertex -3.111300 3.111300 -4.000000
      vertex -1.846200 4.457000 -3.824300
      vertex -1.683800 4.065100 -4.000000
    endloop
  endfacet
  facet normal -3.234349e-01 2.161067e-01 -9.212425e-01
    outer loop
      vertex -4.065100 1.683800 -4.000000
      vertex -3.411300 3.411300 -3.824300
      vertex -3.111300 3.111300 -4.000000
    endloop
  endfacet
  facet normal -3.815551e-01 7.591012e-02 -9.212238e-01
    outer loop
      vertex -4.065100 1.683800 -4.000000
      vertex -4.824300 -0.000000 -3.824300
      vertex -4.457000 1.846200 -3.824300
    endloop
  endfacet
  facet normal -3.814863e-01 -7.587586e-02 -9.212551e-01
    outer loop
      vertex -4.065100 -1.683800 -4.000000
      vertex -4.824300 -0.000000 -3.824300
      vertex -4.400000 -0.000000 -4.000000
    endloop
  endfacet
  facet normal -3.234592e-01 -2.161148e-01 -9.212321e-01
    outer loop
      vertex -4.065100 -1.683800 -4.000000
      vertex -3.411300 -3.411300 -3.824300
      vertex -4.457000 -1.846200 -3.824300
    endloop
  endfacet
  facet normal -2.161017e-01 -3.234396e-01 -9.212420e-01
    outer loop
      vertex -3.111300 -3.111300 -4.000000
      vertex -1.846200 -4.457000 -3.824300
      vertex -3.411300 -3.411300 -3.824300
    endloop
  endfacet
  facet normal -7.591012e-02 -3.815551e-01 -9.212238e-01
    outer loop
      vertex -1.683800 -4.065100 -4.000000
      vertex 0.000000 -4.824300 -3.824300
      vertex -1.846200 -4.457000 -3.824300
    endloop
  endfacet
  facet normal 1.807523e-01 -9.087005e-01 -3.762871e-01
    outer loop
      vertex 0.000000 -4.824300 -3.824300
      vertex 1.913400 -4.619400 -3.400000
      vertex 0.000000 -5.000000 -3.400000
    endloop
  endfacet
  facet normal 5.147115e-01 -7.703691e-01 -3.763025e-01
    outer loop
      vertex 3.411300 -3.411300 -3.824300
      vertex 2.452600 -4.259100 -3.400000
      vertex 1.846200 -4.457000 -3.824300
    endloop
  endfacet
  facet normal 5.147744e-01 -7.703829e-01 -3.761880e-01
    outer loop
      vertex 2.452600 -4.259100 -3.400000
      vertex 3.411300 -3.411300 -3.824300
      vertex 3.535500 -3.535500 -3.400000
    endloop
  endfacet
  facet normal 7.703217e-01 -5.147383e-01 -3.763628e-01
    outer loop
      vertex 4.259100 -2.452600 -3.400000
      vertex 4.457000 -1.846200 -3.824300
      vertex 4.619400 -1.913400 -3.400000
    endloop
  endfacet
  facet normal 7.703691e-01 -5.147115e-01 -3.763025e-01
    outer loop
      vertex 4.259100 -2.452600 -3.400000
      vertex 3.411300 -3.411300 -3.824300
      vertex 4.457000 -1.846200 -3.824300
    endloop
  endfacet
  facet normal 9.086514e-01 -1.807425e-01 -3.764105e-01
    outer loop
      vertex 4.457000 -1.846200 -3.824300
      vertex 5.000000 -0.000000 -3.400000
      vertex 4.619400 -1.913400 -3.400000
    endloop
  endfacet
  facet normal -5.147115e-01 7.703691e-01 -3.763025e-01
    outer loop
      vertex -3.411300 3.411300 -3.824300
      vertex -2.452600 4.259100 -3.400000
      vertex -1.846200 4.457000 -3.824300
    endloop
  endfacet
  facet normal 8.660218e-01 5.000063e-01 -0.000000e+00
    outer loop
      vertex -1.443400 -2.500000 -4.000000
      vertex -2.886800 -0.000000 -1.500000
      vertex -1.443400 -2.500000 -1.500000
    endloop
  endfacet
  facet normal 8.660218e-01 5.000063e-01 0.000000e+00
    outer loop
      vertex -2.886800 -0.000000 -1.500000
      vertex -1.443400 -2.500000 -4.000000
      vertex -2.886800 -0.000000 -4.000000
    endloop
  endfacet
  facet normal 0.000000e+00 1.000000e+00 0.000000e+00
    outer loop
      vertex 1.443400 -2.500000 -1.500000
      vertex -1.443400 -2.500000 -4.000000
      vertex -1.443400 -2.500000 -1.500000
    endloop
  endfacet
  facet normal 0.000000e+00 1.000000e+00 0.000000e+00
    outer loop
      vertex -1.443400 -2.500000 -4.000000
      vertex 1.443400 -2.500000 -1.500000
      vertex 1.443400 -2.500000 -4.000000
    endloop
  endfacet
  facet normal -8.660218e-01 5.000063e-01 0.000000e+00
    outer loop
      vertex 2.886800 -0.000000 -4.000000
      vertex 1.443400 -2.500000 -1.500000
      vertex 2.886800 -0.000000 -1.500000
    endloop
  endfacet
  facet normal -8.660218e-01 5.000063e-01 0.000000e+00
    outer loop
      vertex 1.443400 -2.500000 -1.500000
      vertex 2.886800 -0.000000 -4.000000
      vertex 1.443400 -2.500000 -4.000000
    endloop
  endfacet
  facet normal -8.660218e-01 -5.000063e-01 0.000000e+00
    outer loop
      vertex 1.443400 2.500000 -1.500000
      vertex 2.886800 -0.000000 -4.000000
      vertex 2.886800 -0.000000 -1.500000
    endloop
  endfacet
  facet normal -8.660218e-01 -5.000063e-01 0.000000e+00
    outer loop
      vertex 2.886800 -0.000000 -4.000000
      vertex 1.443400 2.500000 -1.500000
      vertex 1.443400 2.500000 -4.000000
    endloop
  endfacet
  facet normal 0.000000e+00 -1.000000e+00 0.000000e+00
    outer loop
      vertex -1.443400 2.500000 -4.000000
      vertex 1.443400 2.500000 -1.500000
      vertex -1.443400 2.500000 -1.500000
    endloop
  endfacet
  facet normal 0.000000e+00 -1.000000e+00 -0.000000e+00
    outer loop
      vertex 1.443400 2.500000 -1.500000
      vertex -1.443400 2.500000 -4.000000
      vertex 1.443400 2.500000 -4.000000
    endloop
  endfacet
  facet normal 8.660218e-01 -5.000063e-01 0.000000e+00
    outer loop
      vertex -1.443400 2.500000 -4.000000
      vertex -2.886800 -0.000000 -1.500000
      vertex -2.886800 -0.000000 -4.000000
    endloop
  endfacet
  facet normal 8.660218e-01 -5.000063e-01 0.000000e+00
    outer loop
      vertex -2.886800 -0.000000 -1.500000
      vertex -1.443400 2.500000 -4.000000
      vertex -1.443400 2.500000 -1.500000
    endloop
  endfacet
  facet normal 0.000000e+00 0.000000e+00 -1.000000e+00
    outer loop
      vertex -2.886800 -0.000000 -1.500000
      vertex 1.443400 -2.500000 -1.500000
      vertex -1.443400 -2.500000 -1.500000
    endloop
  endfacet
  facet normal 0.000000e+00 0.000000e+00 -1.000000e+00
    outer loop
      vertex 1.443400 -2.500000 -1.500000
      vertex -2.886800 -0.000000 -1.500000
      vertex 2.886800 -0.000000 -1.500000
    endloop
  endfacet
  facet normal 0.000000e+00 -0.000000e+00 -1.000000e+00
    outer loop
      vertex -1.443400 2.500000 -1.500000
      vertex 2.886800 -0.000000 -1.500000
      vertex -2.886800 -0.000000 -1.500000
    endloop
  endfacet
  facet normal 0.000000e+00 0.000000e+00 -1.000000e+00
    outer loop
      vertex 2.886800 -0.000000 -1.500000
      vertex -1.443400 2.500000 -1.500000
      vertex 1.443400 2.500000 -1.500000
    endloop
  endfacet
endsolid 0.63.D06912.06025
