solid 0.63.D00912.06012
  facet normal 0.000000e+00 0.000000e+00 -1.000000e+00
    outer loop
      vertex 2.898300 -0.000000 -6.000000
      vertex 4.029400 1.767500 -6.000000
      vertex 4.385000 0.363300 -6.000000
    endloop
  endfacet
  facet normal 0.000000e+00 0.000000e+00 -1.000000e+00
    outer loop
      vertex 0.000000 -4.400000 -6.000000
      vertex 1.449100 -2.510000 -6.000000
      vertex 1.428700 -4.161600 -6.000000
    endloop
  endfacet
  facet normal 0.000000e+00 0.000000e+00 -1.000000e+00
    outer loop
      vertex -4.029400 1.767500 -6.000000
      vertex -1.449100 2.510000 -6.000000
      vertex -2.898300 -0.000000 -6.000000
    endloop
  endfacet
  facet normal -0.000000e+00 0.000000e+00 -1.000000e+00
    outer loop
      vertex 0.724200 4.340000 -6.000000
      vertex -1.449100 2.510000 -6.000000
      vertex -0.724200 4.340000 -6.000000
    endloop
  endfacet
  facet normal 0.000000e+00 -0.000000e+00 -1.000000e+00
    outer loop
      vertex 2.898300 -0.000000 -6.000000
      vertex 3.683500 -2.406600 -6.000000
      vertex 1.449100 -2.510000 -6.000000
    endloop
  endfacet
  facet normal 0.000000e+00 0.000000e+00 -1.000000e+00
    outer loop
      vertex -1.428700 -4.161600 -6.000000
      vertex -1.449100 -2.510000 -6.000000
      vertex 0.000000 -4.400000 -6.000000
    endloop
  endfacet
  facet normal 0.000000e+00 0.000000e+00 -1.000000e+00
    outer loop
      vertex 1.428700 -4.161600 -6.000000
      vertex 1.449100 -2.510000 -6.000000
      vertex 2.702500 -3.472200 -6.000000
    endloop
  endfacet
  facet normal 0.000000e+00 0.000000e+00 -1.000000e+00
    outer loop
      vertex -3.683500 -2.406600 -6.000000
      vertex -2.898300 -0.000000 -6.000000
      vertex -1.449100 -2.510000 -6.000000
    endloop
  endfacet
  facet normal 0.000000e+00 -0.000000e+00 -1.000000e+00
    outer loop
      vertex -4.029400 1.767500 -6.000000
      vertex -2.898300 -0.000000 -6.000000
      vertex -4.385000 0.363300 -6.000000
    endloop
  endfacet
  facet normal 0.000000e+00 0.000000e+00 -1.000000e+00
    outer loop
      vertex -1.449100 2.510000 -6.000000
      vertex 0.724200 4.340000 -6.000000
      vertex 1.449100 2.510000 -6.000000
    endloop
  endfacet
  facet normal 0.000000e+00 0.000000e+00 -1.000000e+00
    outer loop
      vertex 4.029400 1.767500 -6.000000
      vertex 1.449100 2.510000 -6.000000
      vertex 3.237200 2.980000 -6.000000
    endloop
  endfacet
  facet normal 0.000000e+00 0.000000e+00 -1.000000e+00
    outer loop
      vertex 4.265400 -1.080100 -6.000000
      vertex 2.898300 -0.000000 -6.000000
      vertex 4.385000 0.363300 -6.000000
    endloop
  endfacet
  facet normal -0.000000e+00 0.000000e+00 -1.000000e+00
    outer loop
      vertex 1.449100 -2.510000 -6.000000
      vertex 0.000000 -4.400000 -6.000000
      vertex -1.449100 -2.510000 -6.000000
    endloop
  endfacet
  facet normal 0.000000e+00 0.000000e+00 -1.000000e+00
    outer loop
      vertex -2.898300 -0.000000 -6.000000
      vertex -3.683500 -2.406600 -6.000000
      vertex -4.265400 -1.080100 -6.000000
    endloop
  endfacet
  facet normal -0.000000e+00 0.000000e+00 -1.000000e+00
    outer loop
      vertex -1.449100 2.510000 -6.000000
      vertex -4.029400 1.767500 -6.000000
      vertex -3.237200 2.980000 -6.000000
    endloop
  endfacet
  facet normal 0.000000e+00 0.000000e+00 -1.000000e+00
    outer loop
      vertex -0.724200 4.340000 -6.000000
      vertex -1.449100 2.510000 -6.000000
      vertex -2.094200 3.869700 -6.000000
    endloop
  endfacet
  facet normal 0.000000e+00 0.000000e+00 -1.000000e+00
    outer loop
      vertex 1.449100 2.510000 -6.000000
      vertex 4.029400 1.767500 -6.000000
      vertex 2.898300 -0.000000 -6.000000
    endloop
  endfacet
  facet normal 0.000000e+00 -0.000000e+00 -1.000000e+00
    outer loop
      vertex -1.449100 -2.510000 -6.000000
      vertex -1.428700 -4.161600 -6.000000
      vertex -2.702500 -3.472200 -6.000000
    endloop
  endfacet
  facet normal 0.000000e+00 0.000000e+00 -1.000000e+00
    outer loop
      vertex -3.683500 -2.406600 -6.000000
      vertex -1.449100 -2.510000 -6.000000
      vertex -2.702500 -3.472200 -6.000000
    endloop
  endfacet
  facet normal 0.000000e+00 0.000000e+00 -1.000000e+00
    outer loop
      vertex 1.449100 2.510000 -6.000000
      vertex 0.724200 4.340000 -6.000000
      vertex 2.094200 3.869700 -6.000000
    endloop
  endfacet
  facet normal -0.000000e+00 0.000000e+00 -1.000000e+00
    outer loop
      vertex 3.237200 2.980000 -6.000000
      vertex 1.449100 2.510000 -6.000000
      vertex 2.094200 3.869700 -6.000000
    endloop
  endfacet
  facet normal 0.000000e+00 0.000000e+00 -1.000000e+00
    outer loop
      vertex 1.449100 -2.510000 -6.000000
      vertex 3.683500 -2.406600 -6.000000
      vertex 2.702500 -3.472200 -6.000000
    endloop
  endfacet
  facet normal 0.000000e+00 0.000000e+00 -1.000000e+00
    outer loop
      vertex -1.449100 2.510000 -6.000000
      vertex -3.237200 2.980000 -6.000000
      vertex -2.094200 3.869700 -6.000000
    endloop
  endfacet
  facet normal 0.000000e+00 0.000000e+00 -1.000000e+00
    outer loop
      vertex 3.683500 -2.406600 -6.000000
      vertex 2.898300 -0.000000 -6.000000
      vertex 4.265400 -1.080100 -6.000000
    endloop
  endfacet
  facet normal -0.000000e+00 0.000000e+00 -1.000000e+00
    outer loop
      vertex -2.898300 -0.000000 -6.000000
      vertex -4.265400 -1.080100 -6.000000
      vertex -4.385000 0.363300 -6.000000
    endloop
  endfacet
  facet normal 0.000000e+00 0.000000e+00 1.000000e+00
    outer loop
      vertex 2.420600 0.348000 12.000000
      vertex -1.848200 1.601500 12.000000
      vertex -2.420600 0.348000 12.000000
    endloop
  endfacet
  facet normal 0.000000e+00 0.000000e+00 1.000000e+00
    outer loop
      vertex -1.322100 -2.057300 12.000000
      vertex 2.224500 -1.015900 12.000000
      vertex 2.420600 0.348000 12.000000
    endloop
  endfacet
  facet normal 0.000000e+00 -0.000000e+00 1.000000e+00
    outer loop
      vertex -2.224500 -1.015900 12.000000
      vertex 2.420600 0.348000 12.000000
      vertex -2.420600 0.348000 12.000000
    endloop
  endfacet
  facet normal 0.000000e+00 0.000000e+00 1.000000e+00
    outer loop
      vertex 2.420600 0.348000 12.000000
      vertex 0.689000 2.346400 12.000000
      vertex -0.689000 2.346400 12.000000
    endloop
  endfacet
  facet normal 0.000000e+00 -0.000000e+00 1.000000e+00
    outer loop
      vertex -1.322100 -2.057300 12.000000
      vertex 2.420600 0.348000 12.000000
      vertex -2.224500 -1.015900 12.000000
    endloop
  endfacet
  facet normal 0.000000e+00 0.000000e+00 1.000000e+00
    outer loop
      vertex 0.689000 2.346400 12.000000
      vertex 2.420600 0.348000 12.000000
      vertex 1.848200 1.601500 12.000000
    endloop
  endfacet
  facet normal -0.000000e+00 0.000000e+00 1.000000e+00
    outer loop
      vertex -1.848200 1.601500 12.000000
      vertex 2.420600 0.348000 12.000000
      vertex -0.689000 2.346400 12.000000
    endloop
  endfacet
  facet normal 0.000000e+00 0.000000e+00 1.000000e+00
    outer loop
      vertex 2.224500 -1.015900 12.000000
      vertex 0.000000 -2.445500 12.000000
      vertex 1.322100 -2.057300 12.000000
    endloop
  endfacet
  facet normal 0.000000e+00 -0.000000e+00 1.000000e+00
    outer loop
      vertex 0.000000 -2.445500 12.000000
      vertex 2.224500 -1.015900 12.000000
      vertex -1.322100 -2.057300 12.000000
    endloop
  endfacet
  facet normal -7.141967e-01 -1.027050e-01 6.923690e-01
    outer loop
      vertex -2.728900 -1.246200 11.445500
      vertex -2.420600 0.348000 12.000000
      vertex -2.969500 0.426900 11.445500
    endloop
  endfacet
  facet normal -6.563507e-01 2.997170e-01 6.923680e-01
    outer loop
      vertex -1.848200 1.601500 12.000000
      vertex -2.969500 0.426900 11.445500
      vertex -2.420600 0.348000 12.000000
    endloop
  endfacet
  facet normal -5.453247e-01 -4.725065e-01 6.923573e-01
    outer loop
      vertex -1.322100 -2.057300 12.000000
      vertex -2.728900 -1.246200 11.445500
      vertex -1.621900 -2.523800 11.445500
    endloop
  endfacet
  facet normal -2.032881e-01 -6.923421e-01 6.923412e-01
    outer loop
      vertex -1.322100 -2.057300 12.000000
      vertex 0.000000 -3.000000 11.445500
      vertex 0.000000 -2.445500 12.000000
    endloop
  endfacet
  facet normal -3.901384e-01 6.070433e-01 6.923081e-01
    outer loop
      vertex -1.848200 1.601500 12.000000
      vertex -0.845200 2.878500 11.445500
      vertex -2.267200 1.964600 11.445500
    endloop
  endfacet
  facet normal 0.000000e+00 7.215309e-01 6.923822e-01
    outer loop
      vertex 0.689000 2.346400 12.000000
      vertex -0.845200 2.878500 11.445500
      vertex -0.689000 2.346400 12.000000
    endloop
  endfacet
  facet normal 3.901083e-01 6.069964e-01 6.923662e-01
    outer loop
      vertex 0.689000 2.346400 12.000000
      vertex 2.267200 1.964600 11.445500
      vertex 0.845200 2.878500 11.445500
    endloop
  endfacet
  facet normal 6.563908e-01 2.997876e-01 6.922995e-01
    outer loop
      vertex 1.848200 1.601500 12.000000
      vertex 2.969500 0.426900 11.445500
      vertex 2.267200 1.964600 11.445500
    endloop
  endfacet
  facet normal 7.141967e-01 -1.026864e-01 6.923717e-01
    outer loop
      vertex 2.224500 -1.015900 12.000000
      vertex 2.969500 0.426900 11.445500
      vertex 2.420600 0.348000 12.000000
    endloop
  endfacet
  facet normal 5.453469e-01 -4.725258e-01 6.923266e-01
    outer loop
      vertex 2.224500 -1.015900 12.000000
      vertex 1.621900 -2.523800 11.445500
      vertex 2.728900 -1.246200 11.445500
    endloop
  endfacet
  facet normal 2.032831e-01 -6.923251e-01 6.923597e-01
    outer loop
      vertex 0.000000 -2.445500 12.000000
      vertex 1.621900 -2.523800 11.445500
      vertex 1.322100 -2.057300 12.000000
    endloop
  endfacet
  facet normal 2.032765e-01 -6.923438e-01 6.923429e-01
    outer loop
      vertex 1.621900 -2.523800 11.445500
      vertex 0.000000 -2.445500 12.000000
      vertex 0.000000 -3.000000 11.445500
    endloop
  endfacet
  facet normal 5.453066e-01 -4.725222e-01 6.923608e-01
    outer loop
      vertex 1.621900 -2.523800 11.445500
      vertex 2.224500 -1.015900 12.000000
      vertex 1.322100 -2.057300 12.000000
    endloop
  endfacet
  facet normal 7.142193e-01 -1.027083e-01 6.923451e-01
    outer loop
      vertex 2.969500 0.426900 11.445500
      vertex 2.224500 -1.015900 12.000000
      vertex 2.728900 -1.246200 11.445500
    endloop
  endfacet
  facet normal 6.563507e-01 2.997170e-01 6.923680e-01
    outer loop
      vertex 2.969500 0.426900 11.445500
      vertex 1.848200 1.601500 12.000000
      vertex 2.420600 0.348000 12.000000
    endloop
  endfacet
  facet normal 3.901040e-01 6.070729e-01 6.923015e-01
    outer loop
      vertex 2.267200 1.964600 11.445500
      vertex 0.689000 2.346400 12.000000
      vertex 1.848200 1.601500 12.000000
    endloop
  endfacet
  facet normal -0.000000e+00 7.215309e-01 6.923822e-01
    outer loop
      vertex -0.845200 2.878500 11.445500
      vertex 0.689000 2.346400 12.000000
      vertex 0.845200 2.878500 11.445500
    endloop
  endfacet
  facet normal -3.900670e-01 6.070153e-01 6.923728e-01
    outer loop
      vertex -0.845200 2.878500 11.445500
      vertex -1.848200 1.601500 12.000000
      vertex -0.689000 2.346400 12.000000
    endloop
  endfacet
  facet normal -6.563908e-01 2.997876e-01 6.922995e-01
    outer loop
      vertex -2.969500 0.426900 11.445500
      vertex -1.848200 1.601500 12.000000
      vertex -2.267200 1.964600 11.445500
    endloop
  endfacet
  facet normal -5.453339e-01 -4.725459e-01 6.923231e-01
    outer loop
      vertex -2.728900 -1.246200 11.445500
      vertex -1.322100 -2.057300 12.000000
      vertex -2.224500 -1.015900 12.000000
    endloop
  endfacet
  facet normal -2.032724e-01 -6.923300e-01 6.923580e-01
    outer loop
      vertex 0.000000 -3.000000 11.445500
      vertex -1.322100 -2.057300 12.000000
      vertex -1.621900 -2.523800 11.445500
    endloop
  endfacet
  facet normal -7.142245e-01 -1.026904e-01 6.923424e-01
    outer loop
      vertex -2.420600 0.348000 12.000000
      vertex -2.728900 -1.246200 11.445500
      vertex -2.224500 -1.015900 12.000000
    endloop
  endfacet
  facet normal -7.557633e-01 -6.548449e-01 -0.000000e+00
    outer loop
      vertex -1.621900 -2.523800 11.445500
      vertex -2.728900 -1.246200 0.000000
      vertex -1.621900 -2.523800 0.000000
    endloop
  endfacet
  facet normal -9.898177e-01 -1.423407e-01 0.000000e+00
    outer loop
      vertex -2.728900 -1.246200 0.000000
      vertex -2.969500 0.426900 11.445500
      vertex -2.969500 0.426900 0.000000
    endloop
  endfacet
  facet normal -2.817147e-01 -9.594982e-01 0.000000e+00
    outer loop
      vertex -1.621900 -2.523800 0.000000
      vertex 0.000000 -3.000000 11.445500
      vertex -1.621900 -2.523800 11.445500
    endloop
  endfacet
  facet normal -9.096195e-01 4.154424e-01 0.000000e+00
    outer loop
      vertex -2.969500 0.426900 0.000000
      vertex -2.267200 1.964600 11.445500
      vertex -2.267200 1.964600 0.000000
    endloop
  endfacet
  facet normal -5.406559e-01 8.412438e-01 0.000000e+00
    outer loop
      vertex -2.267200 1.964600 11.445500
      vertex -0.845200 2.878500 0.000000
      vertex -2.267200 1.964600 0.000000
    endloop
  endfacet
  facet normal 0.000000e+00 1.000000e+00 0.000000e+00
    outer loop
      vertex -0.845200 2.878500 11.445500
      vertex 0.845200 2.878500 0.000000
      vertex -0.845200 2.878500 0.000000
    endloop
  endfacet
  facet normal 5.406559e-01 8.412438e-01 0.000000e+00
    outer loop
      vertex 0.845200 2.878500 11.445500
      vertex 2.267200 1.964600 0.000000
      vertex 0.845200 2.878500 0.000000
    endloop
  endfacet
  facet normal 9.096195e-01 4.154424e-01 0.000000e+00
    outer loop
      vertex 2.267200 1.964600 0.000000
      vertex 2.969500 0.426900 11.445500
      vertex 2.969500 0.426900 0.000000
    endloop
  endfacet
  facet normal 9.898177e-01 -1.423407e-01 0.000000e+00
    outer loop
      vertex 2.969500 0.426900 0.000000
      vertex 2.728900 -1.246200 11.445500
      vertex 2.728900 -1.246200 0.000000
    endloop
  endfacet
  facet normal 7.557633e-01 -6.548449e-01 0.000000e+00
    outer loop
      vertex 2.728900 -1.246200 11.445500
      vertex 1.621900 -2.523800 0.000000
      vertex 2.728900 -1.246200 0.000000
    endloop
  endfacet
  facet normal 2.817147e-01 -9.594982e-01 0.000000e+00
    outer loop
      vertex 1.621900 -2.523800 11.445500
      vertex 0.000000 -3.000000 0.000000
      vertex 1.621900 -2.523800 0.000000
    endloop
  endfacet
  facet normal 2.817147e-01 -9.594982e-01 0.000000e+00
    outer loop
      vertex 0.000000 -3.000000 0.000000
      vertex 1.621900 -2.523800 11.445500
      vertex 0.000000 -3.000000 11.445500
    endloop
  endfacet
  facet normal 7.557633e-01 -6.548449e-01 0.000000e+00
    outer loop
      vertex 1.621900 -2.523800 0.000000
      vertex 2.728900 -1.246200 11.445500
      vertex 1.621900 -2.523800 11.445500
    endloop
  endfacet
  facet normal 9.898177e-01 -1.423407e-01 0.000000e+00
    outer loop
      vertex 2.728900 -1.246200 11.445500
      vertex 2.969500 0.426900 0.000000
      vertex 2.969500 0.426900 11.445500
    endloop
  endfacet
  facet normal 9.096195e-01 4.154424e-01 0.000000e+00
    outer loop
      vertex 2.969500 0.426900 11.445500
      vertex 2.267200 1.964600 0.000000
      vertex 2.267200 1.964600 11.445500
    endloop
  endfacet
  facet normal 5.406559e-01 8.412438e-01 -0.000000e+00
    outer loop
      vertex 2.267200 1.964600 0.000000
      vertex 0.845200 2.878500 11.445500
      vertex 2.267200 1.964600 11.445500
    endloop
  endfacet
  facet normal 0.000000e+00 1.000000e+00 -0.000000e+00
    outer loop
      vertex 0.845200 2.878500 0.000000
      vertex -0.845200 2.878500 11.445500
      vertex 0.845200 2.878500 11.445500
    endloop
  endfacet
  facet normal -5.406559e-01 8.412438e-01 0.000000e+00
    outer loop
      vertex -0.845200 2.878500 0.000000
      vertex -2.267200 1.964600 11.445500
      vertex -0.845200 2.878500 11.445500
    endloop
  endfacet
  facet normal -9.096195e-01 4.154424e-01 0.000000e+00
    outer loop
      vertex -2.267200 1.964600 11.445500
      vertex -2.969500 0.426900 0.000000
      vertex -2.969500 0.426900 11.445500
    endloop
  endfacet
  facet normal -9.898177e-01 -1.423407e-01 0.000000e+00
    outer loop
      vertex -2.969500 0.426900 11.445500
      vertex -2.728900 -1.246200 0.000000
      vertex -2.728900 -1.246200 11.445500
    endloop
  endfacet
  facet normal -7.557633e-01 -6.548449e-01 0.000000e+00
    outer loop
      vertex -2.728900 -1.246200 0.000000
      vertex -1.621900 -2.523800 11.445500
      vertex -2.728900 -1.246200 11.445500
    endloop
  endfacet
  facet normal -2.817147e-01 -9.594982e-01 -0.000000e+00
    outer loop
      vertex 0.000000 -3.000000 11.445500
      vertex -1.621900 -2.523800 0.000000
      vertex 0.000000 -3.000000 0.000000
    endloop
  endfacet
  facet normal -0.000000e+00 0.000000e+00 1.000000e+00
    outer loop
      vertex 0.000000 -3.000000 0.000000
      vertex 2.169400 -4.504800 0.000000
      vertex 1.621900 -2.523800 0.000000
    endloop
  endfacet
  facet normal 0.000000e+00 0.000000e+00 1.000000e+00
    outer loop
      vertex -2.169400 -4.504800 0.000000
      vertex 0.000000 -3.000000 0.000000
      vertex -1.621900 -2.523800 0.000000
    endloop
  endfacet
  facet normal 0.000000e+00 0.000000e+00 1.000000e+00
    outer loop
      vertex 0.000000 5.000000 0.000000
      vertex 0.845200 2.878500 0.000000
      vertex 2.169400 4.504800 0.000000
    endloop
  endfacet
  facet normal 0.000000e+00 0.000000e+00 1.000000e+00
    outer loop
      vertex 2.169400 4.504800 0.000000
      vertex 2.267200 1.964600 0.000000
      vertex 3.909200 3.117400 0.000000
    endloop
  endfacet
  facet normal -0.000000e+00 0.000000e+00 1.000000e+00
    outer loop
      vertex 1.621900 -2.523800 0.000000
      vertex 3.909200 -3.117400 0.000000
      vertex 2.728900 -1.246200 0.000000
    endloop
  endfacet
  facet normal 0.000000e+00 0.000000e+00 1.000000e+00
    outer loop
      vertex 0.000000 -3.000000 0.000000
      vertex -2.169400 -4.504800 0.000000
      vertex 0.000000 -5.000000 0.000000
    endloop
  endfacet
  facet normal 0.000000e+00 0.000000e+00 1.000000e+00
    outer loop
      vertex -3.909200 -3.117400 0.000000
      vertex -1.621900 -2.523800 0.000000
      vertex -2.728900 -1.246200 0.000000
    endloop
  endfacet
  facet normal 0.000000e+00 0.000000e+00 1.000000e+00
    outer loop
      vertex 0.845200 2.878500 0.000000
      vertex 0.000000 5.000000 0.000000
      vertex -0.845200 2.878500 0.000000
    endloop
  endfacet
  facet normal 0.000000e+00 0.000000e+00 1.000000e+00
    outer loop
      vertex 2.267200 1.964600 0.000000
      vertex 2.169400 4.504800 0.000000
      vertex 0.845200 2.878500 0.000000
    endloop
  endfacet
  facet normal 0.000000e+00 0.000000e+00 1.000000e+00
    outer loop
      vertex 3.909200 -3.117400 0.000000
      vertex 1.621900 -2.523800 0.000000
      vertex 2.169400 -4.504800 0.000000
    endloop
  endfacet
  facet normal 0.000000e+00 -0.000000e+00 1.000000e+00
    outer loop
      vertex -3.909200 -3.117400 0.000000
      vertex -2.728900 -1.246200 0.000000
      vertex -4.874600 -1.112600 0.000000
    endloop
  endfacet
  facet normal 0.000000e+00 0.000000e+00 1.000000e+00
    outer loop
      vertex -2.969500 0.426900 0.000000
      vertex -4.874600 -1.112600 0.000000
      vertex -2.728900 -1.246200 0.000000
    endloop
  endfacet
  facet normal 0.000000e+00 0.000000e+00 1.000000e+00
    outer loop
      vertex -1.621900 -2.523800 0.000000
      vertex -3.909200 -3.117400 0.000000
      vertex -2.169400 -4.504800 0.000000
    endloop
  endfacet
  facet normal 0.000000e+00 -0.000000e+00 1.000000e+00
    outer loop
      vertex -0.845200 2.878500 0.000000
      vertex 0.000000 5.000000 0.000000
      vertex -2.169400 4.504800 0.000000
    endloop
  endfacet
  facet normal 0.000000e+00 -0.000000e+00 1.000000e+00
    outer loop
      vertex -2.267200 1.964600 0.000000
      vertex -2.169400 4.504800 0.000000
      vertex -3.909200 3.117400 0.000000
    endloop
  endfacet
  facet normal 0.000000e+00 0.000000e+00 1.000000e+00
    outer loop
      vertex 2.169400 -4.504800 0.000000
      vertex 0.000000 -3.000000 0.000000
      vertex 0.000000 -5.000000 0.000000
    endloop
  endfacet
  facet normal 0.000000e+00 0.000000e+00 1.000000e+00
    outer loop
      vertex 4.874600 -1.112600 0.000000
      vertex 2.969500 0.426900 0.000000
      vertex 2.728900 -1.246200 0.000000
    endloop
  endfacet
  facet normal 0.000000e+00 0.000000e+00 1.000000e+00
    outer loop
      vertex -2.169400 4.504800 0.000000
      vertex -2.267200 1.964600 0.000000
      vertex -0.845200 2.878500 0.000000
    endloop
  endfacet
  facet normal 0.000000e+00 0.000000e+00 1.000000e+00
    outer loop
      vertex -2.267200 1.964600 0.000000
      vertex -4.874600 1.112600 0.000000
      vertex -2.969500 0.426900 0.000000
    endloop
  endfacet
  facet normal -0.000000e+00 0.000000e+00 1.000000e+00
    outer loop
      vertex 2.267200 1.964600 0.000000
      vertex 4.874600 1.112600 0.000000
      vertex 3.909200 3.117400 0.000000
    endloop
  endfacet
  facet normal -0.000000e+00 0.000000e+00 1.000000e+00
    outer loop
      vertex 2.969500 0.426900 0.000000
      vertex 4.874600 -1.112600 0.000000
      vertex 4.874600 1.112600 0.000000
    endloop
  endfacet
  facet normal -0.000000e+00 0.000000e+00 1.000000e+00
    outer loop
      vertex 2.728900 -1.246200 0.000000
      vertex 3.909200 -3.117400 0.000000
      vertex 4.874600 -1.112600 0.000000
    endloop
  endfacet
  facet normal 0.000000e+00 0.000000e+00 1.000000e+00
    outer loop
      vertex -4.874600 1.112600 0.000000
      vertex -2.267200 1.964600 0.000000
      vertex -3.909200 3.117400 0.000000
    endloop
  endfacet
  facet normal 0.000000e+00 0.000000e+00 1.000000e+00
    outer loop
      vertex 4.874600 1.112600 0.000000
      vertex 2.267200 1.964600 0.000000
      vertex 2.969500 0.426900 0.000000
    endloop
  endfacet
  facet normal 0.000000e+00 0.000000e+00 1.000000e+00
    outer loop
      vertex -4.874600 -1.112600 0.000000
      vertex -2.969500 0.426900 0.000000
      vertex -4.874600 1.112600 0.000000
    endloop
  endfacet
  facet normal 9.693380e-01 2.454201e-01 -1.235945e-02
    outer loop
      vertex 4.874600 1.112600 0.000000
      vertex 4.982900 0.412900 -5.400000
      vertex 4.809900 1.096200 -5.400000
    endloop
  endfacet
  facet normal 9.966049e-01 -8.226425e-02 -3.344868e-03
    outer loop
      vertex 4.874600 -1.112600 0.000000
      vertex 4.847000 -1.227400 -5.400000
      vertex 4.856600 -1.111100 -5.400000
    endloop
  endfacet
  facet normal 7.356922e-01 -6.772377e-01 -1.030144e-02
    outer loop
      vertex 3.909200 -3.117400 0.000000
      vertex 3.071100 -3.945700 -5.400000
      vertex 3.868200 -3.079800 -5.400000
    endloop
  endfacet
  facet normal -1.645863e-01 -9.863627e-01 -0.000000e+00
    outer loop
      vertex 0.000000 -5.000000 0.000000
      vertex -1.623500 -4.729100 -5.400000
      vertex 0.000000 -5.000000 -5.400000
    endloop
  endfacet
  facet normal 4.759161e-01 -8.794144e-01 -1.158337e-02
    outer loop
      vertex 2.169400 -4.504800 0.000000
      vertex 1.623500 -4.729100 -5.400000
      vertex 2.139600 -4.449800 -5.400000
    endloop
  endfacet
  facet normal 2.225056e-01 -9.747653e-01 1.799514e-02
    outer loop
      vertex 0.000000 -5.000000 0.000000
      vertex 1.623500 -4.729100 -5.400000
      vertex 2.169400 -4.504800 0.000000
    endloop
  endfacet
  facet normal 1.645863e-01 -9.863627e-01 0.000000e+00
    outer loop
      vertex 1.623500 -4.729100 -5.400000
      vertex 0.000000 -5.000000 0.000000
      vertex 0.000000 -5.000000 -5.400000
    endloop
  endfacet
  facet normal 4.759136e-01 -8.794158e-01 -1.158337e-02
    outer loop
      vertex 3.071100 -3.945700 -5.400000
      vertex 2.169400 -4.504800 0.000000
      vertex 2.139600 -4.449800 -5.400000
    endloop
  endfacet
  facet normal 6.233105e-01 -7.816316e-01 2.315347e-02
    outer loop
      vertex 3.071100 -3.945700 -5.400000
      vertex 3.909200 -3.117400 0.000000
      vertex 2.169400 -4.504800 0.000000
    endloop
  endfacet
  facet normal 9.157583e-01 -4.017112e-01 3.859555e-03
    outer loop
      vertex 4.874600 -1.112600 0.000000
      vertex 4.185800 -2.734700 -5.400000
      vertex 4.847000 -1.227400 -5.400000
    endloop
  endfacet
  facet normal 7.357770e-01 -6.771455e-01 -1.030144e-02
    outer loop
      vertex 4.185800 -2.734700 -5.400000
      vertex 3.909200 -3.117400 0.000000
      vertex 3.868200 -3.079800 -5.400000
    endloop
  endfacet
  facet normal 9.997989e-01 -0.000000e+00 2.005155e-02
    outer loop
      vertex 4.874600 -1.112600 0.000000
      vertex 4.982900 0.412900 -5.400000
      vertex 4.874600 1.112600 0.000000
    endloop
  endfacet
  facet normal 9.965780e-01 -8.259052e-02 -3.344869e-03
    outer loop
      vertex 4.982900 0.412900 -5.400000
      vertex 4.874600 -1.112600 0.000000
      vertex 4.856600 -1.111100 -5.400000
    endloop
  endfacet
  facet normal 9.693328e-01 2.454409e-01 -1.235945e-02
    outer loop
      vertex 4.578900 2.008500 -5.400000
      vertex 4.874600 1.112600 0.000000
      vertex 4.809900 1.096200 -5.400000
    endloop
  endfacet
  facet normal 9.007487e-01 4.337503e-01 2.263807e-02
    outer loop
      vertex 4.578900 2.008500 -5.400000
      vertex 3.909200 3.117400 0.000000
      vertex 4.874600 1.112600 0.000000
    endloop
  endfacet
  facet normal 6.142016e-01 7.891063e-01 8.225268e-03
    outer loop
      vertex 2.169400 4.504800 0.000000
      vertex 3.678600 3.386400 -5.400000
      vertex 2.379700 4.397400 -5.400000
    endloop
  endfacet
  facet normal 8.371949e-01 5.468385e-01 -8.510707e-03
    outer loop
      vertex 3.678600 3.386400 -5.400000
      vertex 3.909200 3.117400 0.000000
      vertex 3.870700 3.092300 -5.400000
    endloop
  endfacet
  facet normal -4.759136e-01 -8.794158e-01 -1.158337e-02
    outer loop
      vertex -2.169400 -4.504800 0.000000
      vertex -3.071100 -3.945700 -5.400000
      vertex -2.139600 -4.449800 -5.400000
    endloop
  endfacet
  facet normal 2.224897e-01 9.746958e-01 2.159905e-02
    outer loop
      vertex 2.169400 4.504800 0.000000
      vertex 0.823000 4.931800 -5.400000
      vertex 0.000000 5.000000 0.000000
    endloop
  endfacet
  facet normal 3.246857e-01 9.458019e-01 -6.166581e-03
    outer loop
      vertex 0.823000 4.931800 -5.400000
      vertex 2.169400 4.504800 0.000000
      vertex 2.158600 4.473300 -5.400000
    endloop
  endfacet
  facet normal 0.000000e+00 9.999203e-01 -1.262861e-02
    outer loop
      vertex -0.823000 4.931800 -5.400000
      vertex 0.000000 5.000000 0.000000
      vertex 0.000000 4.931800 -5.400000
    endloop
  endfacet
  facet normal -2.224897e-01 9.746958e-01 2.159905e-02
    outer loop
      vertex -0.823000 4.931800 -5.400000
      vertex -2.169400 4.504800 0.000000
      vertex 0.000000 5.000000 0.000000
    endloop
  endfacet
  facet normal -6.234303e-01 7.817818e-01 1.232150e-02
    outer loop
      vertex -2.169400 4.504800 0.000000
      vertex -3.678600 3.386400 -5.400000
      vertex -3.909200 3.117400 0.000000
    endloop
  endfacet
  facet normal -3.246789e-01 9.458042e-01 -6.166581e-03
    outer loop
      vertex -2.379700 4.397400 -5.400000
      vertex -2.169400 4.504800 0.000000
      vertex -2.158600 4.473300 -5.400000
    endloop
  endfacet
  facet normal -6.142016e-01 7.891063e-01 8.225268e-03
    outer loop
      vertex -3.678600 3.386400 -5.400000
      vertex -2.169400 4.504800 0.000000
      vertex -2.379700 4.397400 -5.400000
    endloop
  endfacet
  facet normal -9.007487e-01 4.337503e-01 2.263807e-02
    outer loop
      vertex -3.909200 3.117400 0.000000
      vertex -4.578900 2.008500 -5.400000
      vertex -4.874600 1.112600 0.000000
    endloop
  endfacet
  facet normal -8.370944e-01 5.469923e-01 -8.510705e-03
    outer loop
      vertex -4.578900 2.008500 -5.400000
      vertex -3.909200 3.117400 0.000000
      vertex -3.870700 3.092300 -5.400000
    endloop
  endfacet
  facet normal -9.693380e-01 2.454201e-01 -1.235945e-02
    outer loop
      vertex -4.982900 0.412900 -5.400000
      vertex -4.874600 1.112600 0.000000
      vertex -4.809900 1.096200 -5.400000
    endloop
  endfacet
  facet normal -9.997989e-01 0.000000e+00 2.005155e-02
    outer loop
      vertex -4.982900 0.412900 -5.400000
      vertex -4.874600 -1.112600 0.000000
      vertex -4.874600 1.112600 0.000000
    endloop
  endfacet
  facet normal -9.008728e-01 -4.338100e-01 1.540040e-02
    outer loop
      vertex -4.874600 -1.112600 0.000000
      vertex -4.185800 -2.734700 -5.400000
      vertex -3.909200 -3.117400 0.000000
    endloop
  endfacet
  facet normal -9.966049e-01 -8.226425e-02 -3.344868e-03
    outer loop
      vertex -4.847000 -1.227400 -5.400000
      vertex -4.874600 -1.112600 0.000000
      vertex -4.856600 -1.111100 -5.400000
    endloop
  endfacet
  facet normal -9.157583e-01 -4.017112e-01 3.859555e-03
    outer loop
      vertex -4.185800 -2.734700 -5.400000
      vertex -4.874600 -1.112600 0.000000
      vertex -4.847000 -1.227400 -5.400000
    endloop
  endfacet
  facet normal -6.233105e-01 -7.816316e-01 2.315347e-02
    outer loop
      vertex -3.909200 -3.117400 0.000000
      vertex -3.071100 -3.945700 -5.400000
      vertex -2.169400 -4.504800 0.000000
    endloop
  endfacet
  facet normal -7.356922e-01 -6.772377e-01 -1.030144e-02
    outer loop
      vertex -3.071100 -3.945700 -5.400000
      vertex -3.909200 -3.117400 0.000000
      vertex -3.868200 -3.079800 -5.400000
    endloop
  endfacet
  facet normal -4.759161e-01 -8.794144e-01 -1.158337e-02
    outer loop
      vertex -1.623500 -4.729100 -5.400000
      vertex -2.169400 -4.504800 0.000000
      vertex -2.139600 -4.449800 -5.400000
    endloop
  endfacet
  facet normal -2.225056e-01 -9.747653e-01 1.799514e-02
    outer loop
      vertex -1.623500 -4.729100 -5.400000
      vertex 0.000000 -5.000000 0.000000
      vertex -2.169400 -4.504800 0.000000
    endloop
  endfacet
  facet normal 9.008728e-01 -4.338100e-01 1.540040e-02
    outer loop
      vertex 4.185800 -2.734700 -5.400000
      vertex 4.874600 -1.112600 0.000000
      vertex 3.909200 -3.117400 0.000000
    endloop
  endfacet
  facet normal -7.357770e-01 -6.771455e-01 -1.030144e-02
    outer loop
      vertex -3.909200 -3.117400 0.000000
      vertex -4.185800 -2.734700 -5.400000
      vertex -3.868200 -3.079800 -5.400000
    endloop
  endfacet
  facet normal -9.965780e-01 -8.259052e-02 -3.344869e-03
    outer loop
      vertex -4.874600 -1.112600 0.000000
      vertex -4.982900 0.412900 -5.400000
      vertex -4.856600 -1.111100 -5.400000
    endloop
  endfacet
  facet normal -9.693328e-01 2.454409e-01 -1.235945e-02
    outer loop
      vertex -4.874600 1.112600 0.000000
      vertex -4.578900 2.008500 -5.400000
      vertex -4.809900 1.096200 -5.400000
    endloop
  endfacet
  facet normal -8.371949e-01 5.468385e-01 -8.510707e-03
    outer loop
      vertex -3.909200 3.117400 0.000000
      vertex -3.678600 3.386400 -5.400000
      vertex -3.870700 3.092300 -5.400000
    endloop
  endfacet
  facet normal -3.246857e-01 9.458019e-01 -6.166581e-03
    outer loop
      vertex -2.169400 4.504800 0.000000
      vertex -0.823000 4.931800 -5.400000
      vertex -2.158600 4.473300 -5.400000
    endloop
  endfacet
  facet normal 0.000000e+00 9.999203e-01 -1.262861e-02
    outer loop
      vertex 0.000000 5.000000 0.000000
      vertex 0.823000 4.931800 -5.400000
      vertex 0.000000 4.931800 -5.400000
    endloop
  endfacet
  facet normal 3.246789e-01 9.458042e-01 -6.166581e-03
    outer loop
      vertex 2.169400 4.504800 0.000000
      vertex 2.379700 4.397400 -5.400000
      vertex 2.158600 4.473300 -5.400000
    endloop
  endfacet
  facet normal 6.234303e-01 7.817818e-01 1.232150e-02
    outer loop
      vertex 3.678600 3.386400 -5.400000
      vertex 2.169400 4.504800 0.000000
      vertex 3.909200 3.117400 0.000000
    endloop
  endfacet
  facet normal 8.370944e-01 5.469923e-01 -8.510705e-03
    outer loop
      vertex 3.909200 3.117400 0.000000
      vertex 4.578900 2.008500 -5.400000
      vertex 3.870700 3.092300 -5.400000
    endloop
  endfacet
  facet normal -1.257127e-01 3.661684e-01 -9.220179e-01
    outer loop
      vertex -0.794000 4.758500 -5.824300
      vertex -2.094200 3.869700 -6.000000
      vertex -2.296100 4.242800 -5.824300
    endloop
  endfacet
  facet normal -2.377647e-01 3.054816e-01 -9.220352e-01
    outer loop
      vertex -2.296100 4.242800 -5.824300
      vertex -3.237200 2.980000 -6.000000
      vertex -3.549300 3.267400 -5.824300
    endloop
  endfacet
  facet normal -3.241091e-01 2.117497e-01 -9.220170e-01
    outer loop
      vertex -3.549300 3.267400 -5.824300
      vertex -4.029400 1.767500 -6.000000
      vertex -4.417900 1.937900 -5.824300
    endloop
  endfacet
  facet normal -3.752722e-01 9.503398e-02 -9.220300e-01
    outer loop
      vertex -4.807800 0.398400 -5.824300
      vertex -4.029400 1.767500 -6.000000
      vertex -4.385000 0.363300 -6.000000
    endloop
  endfacet
  facet normal -3.858546e-01 -3.198592e-02 -9.220049e-01
    outer loop
      vertex -4.807800 0.398400 -5.824300
      vertex -4.265400 -1.080100 -6.000000
      vertex -4.676600 -1.184300 -5.824300
    endloop
  endfacet
  facet normal -3.545092e-01 -1.555137e-01 -9.220297e-01
    outer loop
      vertex -4.038700 -2.638600 -5.824300
      vertex -4.265400 -1.080100 -6.000000
      vertex -3.683500 -2.406600 -6.000000
    endloop
  endfacet
  facet normal -2.848079e-01 -2.621870e-01 -9.220317e-01
    outer loop
      vertex -4.038700 -2.638600 -5.824300
      vertex -2.702500 -3.472200 -6.000000
      vertex -2.963100 -3.807000 -5.824300
    endloop
  endfacet
  facet normal -1.842629e-01 -3.404615e-01 -9.220267e-01
    outer loop
      vertex -1.566400 -4.562900 -5.824300
      vertex -2.702500 -3.472200 -6.000000
      vertex -1.428700 -4.161600 -6.000000
    endloop
  endfacet
  facet normal -6.371657e-02 -3.818118e-01 -9.220412e-01
    outer loop
      vertex -1.566400 -4.562900 -5.824300
      vertex 0.000000 -4.400000 -6.000000
      vertex 0.000000 -4.824300 -5.824300
    endloop
  endfacet
  facet normal 1.523789e-01 -9.131074e-01 -3.781739e-01
    outer loop
      vertex 1.623500 -4.729100 -5.400000
      vertex 0.000000 -4.824300 -5.824300
      vertex 1.566400 -4.562900 -5.824300
    endloop
  endfacet
  facet normal 4.405968e-01 -8.141500e-01 -3.781988e-01
    outer loop
      vertex 1.566400 -4.562900 -5.824300
      vertex 2.139600 -4.449800 -5.400000
      vertex 1.623500 -4.729100 -5.400000
    endloop
  endfacet
  facet normal 6.810552e-01 -6.269419e-01 -3.782958e-01
    outer loop
      vertex 2.963100 -3.807000 -5.824300
      vertex 3.868200 -3.079800 -5.400000
      vertex 3.071100 -3.945700 -5.400000
    endloop
  endfacet
  facet normal 8.477457e-01 -3.718471e-01 -3.782286e-01
    outer loop
      vertex 4.847000 -1.227400 -5.400000
      vertex 4.038700 -2.638600 -5.824300
      vertex 4.676600 -1.184300 -5.824300
    endloop
  endfacet
  facet normal 9.225692e-01 -7.615302e-02 -3.782416e-01
    outer loop
      vertex 4.676600 -1.184300 -5.824300
      vertex 4.856600 -1.111100 -5.400000
      vertex 4.847000 -1.227400 -5.400000
    endloop
  endfacet
  facet normal 8.974396e-01 2.272167e-01 -3.781201e-01
    outer loop
      vertex 4.807800 0.398400 -5.824300
      vertex 4.809900 1.096200 -5.400000
      vertex 4.982900 0.412900 -5.400000
    endloop
  endfacet
  facet normal 7.749141e-01 5.063611e-01 -3.782942e-01
    outer loop
      vertex 4.417900 1.937900 -5.824300
      vertex 3.870700 3.092300 -5.400000
      vertex 4.578900 2.008500 -5.400000
    endloop
  endfacet
  facet normal 5.685878e-01 7.305253e-01 -3.782072e-01
    outer loop
      vertex 2.379700 4.397400 -5.400000
      vertex 3.549300 3.267400 -5.824300
      vertex 2.296100 4.242800 -5.824300
    endloop
  endfacet
  facet normal 3.005632e-01 8.755541e-01 -3.782417e-01
    outer loop
      vertex 2.296100 4.242800 -5.824300
      vertex 2.158600 4.473300 -5.400000
      vertex 2.379700 4.397400 -5.400000
    endloop
  endfacet
  facet normal 0.000000e+00 9.257586e-01 -3.781151e-01
    outer loop
      vertex 0.794000 4.758500 -5.824300
      vertex 0.000000 4.931800 -5.400000
      vertex 0.823000 4.931800 -5.400000
    endloop
  endfacet
  facet normal -3.005797e-01 8.755816e-01 -3.781648e-01
    outer loop
      vertex -0.794000 4.758500 -5.824300
      vertex -2.158600 4.473300 -5.400000
      vertex -0.823000 4.931800 -5.400000
    endloop
  endfacet
  facet normal -6.810552e-01 -6.269419e-01 -3.782958e-01
    outer loop
      vertex -3.868200 -3.079800 -5.400000
      vertex -2.963100 -3.807000 -5.824300
      vertex -3.071100 -3.945700 -5.400000
    endloop
  endfacet
  facet normal -1.523825e-01 -9.131288e-01 -3.781209e-01
    outer loop
      vertex 0.000000 -5.000000 -5.400000
      vertex -1.566400 -4.562900 -5.824300
      vertex 0.000000 -4.824300 -5.824300
    endloop
  endfacet
  facet normal -4.405797e-01 -8.141242e-01 -3.782741e-01
    outer loop
      vertex -2.963100 -3.807000 -5.824300
      vertex -2.139600 -4.449800 -5.400000
      vertex -3.071100 -3.945700 -5.400000
    endloop
  endfacet
  facet normal -6.811792e-01 -6.268984e-01 -3.781445e-01
    outer loop
      vertex -4.038700 -2.638600 -5.824300
      vertex -3.868200 -3.079800 -5.400000
      vertex -4.185800 -2.734700 -5.400000
    endloop
  endfacet
  facet normal -8.477792e-01 -3.718618e-01 -3.781392e-01
    outer loop
      vertex -4.185800 -2.734700 -5.400000
      vertex -4.676600 -1.184300 -5.824300
      vertex -4.038700 -2.638600 -5.824300
    endloop
  endfacet
  facet normal -9.225928e-01 -7.645906e-02 -3.781225e-01
    outer loop
      vertex -4.807800 0.398400 -5.824300
      vertex -4.856600 -1.111100 -5.400000
      vertex -4.982900 0.412900 -5.400000
    endloop
  endfacet
  facet normal -8.973600e-01 2.272170e-01 -3.783088e-01
    outer loop
      vertex -4.417900 1.937900 -5.824300
      vertex -4.809900 1.096200 -5.400000
      vertex -4.578900 2.008500 -5.400000
    endloop
  endfacet
  facet normal -7.750499e-01 5.062467e-01 -3.781693e-01
    outer loop
      vertex -3.549300 3.267400 -5.824300
      vertex -3.870700 3.092300 -5.400000
      vertex -3.678600 3.386400 -5.400000
    endloop
  endfacet
  facet normal 0.000000e+00 3.871017e-01 -9.220370e-01
    outer loop
      vertex 0.794000 4.758500 -5.824300
      vertex -0.724200 4.340000 -6.000000
      vertex -0.794000 4.758500 -5.824300
    endloop
  endfacet
  facet normal 1.257012e-01 3.661348e-01 -9.220328e-01
    outer loop
      vertex 2.296100 4.242800 -5.824300
      vertex 0.724200 4.340000 -6.000000
      vertex 0.794000 4.758500 -5.824300
    endloop
  endfacet
  facet normal 2.377921e-01 3.055168e-01 -9.220165e-01
    outer loop
      vertex 3.549300 3.267400 -5.824300
      vertex 2.094200 3.869700 -6.000000
      vertex 2.296100 4.242800 -5.824300
    endloop
  endfacet
  facet normal 3.240816e-01 2.117422e-01 -9.220284e-01
    outer loop
      vertex 3.549300 3.267400 -5.824300
      vertex 4.029400 1.767500 -6.000000
      vertex 3.237200 2.980000 -6.000000
    endloop
  endfacet
  facet normal 3.752993e-01 9.504085e-02 -9.220183e-01
    outer loop
      vertex 4.417900 1.937900 -5.824300
      vertex 4.385000 0.363300 -6.000000
      vertex 4.029400 1.767500 -6.000000
    endloop
  endfacet
  facet normal 3.858128e-01 -3.196841e-02 -9.220231e-01
    outer loop
      vertex 4.807800 0.398400 -5.824300
      vertex 4.265400 -1.080100 -6.000000
      vertex 4.385000 0.363300 -6.000000
    endloop
  endfacet
  facet normal 3.545501e-01 -1.555316e-01 -9.220109e-01
    outer loop
      vertex 4.676600 -1.184300 -5.824300
      vertex 3.683500 -2.406600 -6.000000
      vertex 4.265400 -1.080100 -6.000000
    endloop
  endfacet
  facet normal 2.848229e-01 -2.622008e-01 -9.220231e-01
    outer loop
      vertex 2.963100 -3.807000 -5.824300
      vertex 3.683500 -2.406600 -6.000000
      vertex 4.038700 -2.638600 -5.824300
    endloop
  endfacet
  facet normal 1.842579e-01 -3.404523e-01 -9.220311e-01
    outer loop
      vertex 2.963100 -3.807000 -5.824300
      vertex 1.428700 -4.161600 -6.000000
      vertex 2.702500 -3.472200 -6.000000
    endloop
  endfacet
  facet normal 6.371396e-02 -3.818293e-01 -9.220341e-01
    outer loop
      vertex 1.566400 -4.562900 -5.824300
      vertex 0.000000 -4.400000 -6.000000
      vertex 1.428700 -4.161600 -6.000000
    endloop
  endfacet
  facet normal 6.371657e-02 -3.818118e-01 -9.220412e-01
    outer loop
      vertex 0.000000 -4.400000 -6.000000
      vertex 1.566400 -4.562900 -5.824300
      vertex 0.000000 -4.824300 -5.824300
    endloop
  endfacet
  facet normal 1.842598e-01 -3.404626e-01 -9.220269e-01
    outer loop
      vertex 1.428700 -4.161600 -6.000000
      vertex 2.963100 -3.807000 -5.824300
      vertex 1.566400 -4.562900 -5.824300
    endloop
  endfacet
  facet normal 2.848024e-01 -2.621914e-01 -9.220321e-01
    outer loop
      vertex 3.683500 -2.406600 -6.000000
      vertex 2.963100 -3.807000 -5.824300
      vertex 2.702500 -3.472200 -6.000000
    endloop
  endfacet
  facet normal 3.545166e-01 -1.555018e-01 -9.220288e-01
    outer loop
      vertex 3.683500 -2.406600 -6.000000
      vertex 4.676600 -1.184300 -5.824300
      vertex 4.038700 -2.638600 -5.824300
    endloop
  endfacet
  facet normal 3.858546e-01 -3.198592e-02 -9.220049e-01
    outer loop
      vertex 4.265400 -1.080100 -6.000000
      vertex 4.807800 0.398400 -5.824300
      vertex 4.676600 -1.184300 -5.824300
    endloop
  endfacet
  facet normal 3.752713e-01 9.504269e-02 -9.220295e-01
    outer loop
      vertex 4.385000 0.363300 -6.000000
      vertex 4.417900 1.937900 -5.824300
      vertex 4.807800 0.398400 -5.824300
    endloop
  endfacet
  facet normal 3.241091e-01 2.117497e-01 -9.220170e-01
    outer loop
      vertex 4.029400 1.767500 -6.000000
      vertex 3.549300 3.267400 -5.824300
      vertex 4.417900 1.937900 -5.824300
    endloop
  endfacet
  facet normal 2.377753e-01 3.054706e-01 -9.220361e-01
    outer loop
      vertex 2.094200 3.869700 -6.000000
      vertex 3.549300 3.267400 -5.824300
      vertex 3.237200 2.980000 -6.000000
    endloop
  endfacet
  facet normal 1.257018e-01 3.661739e-01 -9.220172e-01
    outer loop
      vertex 0.724200 4.340000 -6.000000
      vertex 2.296100 4.242800 -5.824300
      vertex 2.094200 3.869700 -6.000000
    endloop
  endfacet
  facet normal 0.000000e+00 3.871017e-01 -9.220370e-01
    outer loop
      vertex -0.724200 4.340000 -6.000000
      vertex 0.794000 4.758500 -5.824300
      vertex 0.724200 4.340000 -6.000000
    endloop
  endfacet
  facet normal -1.256892e-01 3.661371e-01 -9.220336e-01
    outer loop
      vertex -2.094200 3.869700 -6.000000
      vertex -0.794000 4.758500 -5.824300
      vertex -0.724200 4.340000 -6.000000
    endloop
  endfacet
  facet normal -2.378054e-01 3.055092e-01 -9.220156e-01
    outer loop
      vertex -3.237200 2.980000 -6.000000
      vertex -2.296100 4.242800 -5.824300
      vertex -2.094200 3.869700 -6.000000
    endloop
  endfacet
  facet normal -3.240816e-01 2.117422e-01 -9.220284e-01
    outer loop
      vertex -4.029400 1.767500 -6.000000
      vertex -3.549300 3.267400 -5.824300
      vertex -3.237200 2.980000 -6.000000
    endloop
  endfacet
  facet normal -3.752960e-01 9.504896e-02 -9.220188e-01
    outer loop
      vertex -4.029400 1.767500 -6.000000
      vertex -4.807800 0.398400 -5.824300
      vertex -4.417900 1.937900 -5.824300
    endloop
  endfacet
  facet normal -3.858128e-01 -3.196841e-02 -9.220231e-01
    outer loop
      vertex -4.265400 -1.080100 -6.000000
      vertex -4.807800 0.398400 -5.824300
      vertex -4.385000 0.363300 -6.000000
    endloop
  endfacet
  facet normal -3.545539e-01 -1.555181e-01 -9.220117e-01
    outer loop
      vertex -4.265400 -1.080100 -6.000000
      vertex -4.038700 -2.638600 -5.824300
      vertex -4.676600 -1.184300 -5.824300
    endloop
  endfacet
  facet normal -2.848189e-01 -2.622066e-01 -9.220227e-01
    outer loop
      vertex -2.702500 -3.472200 -6.000000
      vertex -4.038700 -2.638600 -5.824300
      vertex -3.683500 -2.406600 -6.000000
    endloop
  endfacet
  facet normal -1.842553e-01 -3.404542e-01 -9.220309e-01
    outer loop
      vertex -2.702500 -3.472200 -6.000000
      vertex -1.566400 -4.562900 -5.824300
      vertex -2.963100 -3.807000 -5.824300
    endloop
  endfacet
  facet normal -6.371396e-02 -3.818293e-01 -9.220341e-01
    outer loop
      vertex 0.000000 -4.400000 -6.000000
      vertex -1.566400 -4.562900 -5.824300
      vertex -1.428700 -4.161600 -6.000000
    endloop
  endfacet
  facet normal 1.523667e-01 -9.131310e-01 -3.781218e-01
    outer loop
      vertex 0.000000 -4.824300 -5.824300
      vertex 1.623500 -4.729100 -5.400000
      vertex 0.000000 -5.000000 -5.400000
    endloop
  endfacet
  facet normal 4.406111e-01 -8.141308e-01 -3.782233e-01
    outer loop
      vertex 2.963100 -3.807000 -5.824300
      vertex 2.139600 -4.449800 -5.400000
      vertex 1.566400 -4.562900 -5.824300
    endloop
  endfacet
  facet normal 4.405797e-01 -8.141242e-01 -3.782741e-01
    outer loop
      vertex 2.139600 -4.449800 -5.400000
      vertex 2.963100 -3.807000 -5.824300
      vertex 3.071100 -3.945700 -5.400000
    endloop
  endfacet
  facet normal 6.811792e-01 -6.268984e-01 -3.781445e-01
    outer loop
      vertex 3.868200 -3.079800 -5.400000
      vertex 4.038700 -2.638600 -5.824300
      vertex 4.185800 -2.734700 -5.400000
    endloop
  endfacet
  facet normal 6.810555e-01 -6.269626e-01 -3.782609e-01
    outer loop
      vertex 3.868200 -3.079800 -5.400000
      vertex 2.963100 -3.807000 -5.824300
      vertex 4.038700 -2.638600 -5.824300
    endloop
  endfacet
  facet normal 8.477678e-01 -3.718862e-01 -3.781408e-01
    outer loop
      vertex 4.038700 -2.638600 -5.824300
      vertex 4.847000 -1.227400 -5.400000
      vertex 4.185800 -2.734700 -5.400000
    endloop
  endfacet
  facet normal 9.225659e-01 -7.647729e-02 -3.781843e-01
    outer loop
      vertex 4.807800 0.398400 -5.824300
      vertex 4.856600 -1.111100 -5.400000
      vertex 4.676600 -1.184300 -5.824300
    endloop
  endfacet
  facet normal 9.225928e-01 -7.645906e-02 -3.781225e-01
    outer loop
      vertex 4.856600 -1.111100 -5.400000
      vertex 4.807800 0.398400 -5.824300
      vertex 4.982900 0.412900 -5.400000
    endloop
  endfacet
  facet normal 8.973844e-01 2.272751e-01 -3.782160e-01
    outer loop
      vertex 4.417900 1.937900 -5.824300
      vertex 4.809900 1.096200 -5.400000
      vertex 4.807800 0.398400 -5.824300
    endloop
  endfacet
  facet normal 8.973600e-01 2.272170e-01 -3.783088e-01
    outer loop
      vertex 4.809900 1.096200 -5.400000
      vertex 4.417900 1.937900 -5.824300
      vertex 4.578900 2.008500 -5.400000
    endloop
  endfacet
  facet normal 7.750499e-01 5.062467e-01 -3.781693e-01
    outer loop
      vertex 3.870700 3.092300 -5.400000
      vertex 3.549300 3.267400 -5.824300
      vertex 3.678600 3.386400 -5.400000
    endloop
  endfacet
  facet normal 7.750186e-01 5.063416e-01 -3.781064e-01
    outer loop
      vertex 3.870700 3.092300 -5.400000
      vertex 4.417900 1.937900 -5.824300
      vertex 3.549300 3.267400 -5.824300
    endloop
  endfacet
  facet normal 5.686097e-01 7.305313e-01 -3.781627e-01
    outer loop
      vertex 3.549300 3.267400 -5.824300
      vertex 2.379700 4.397400 -5.400000
      vertex 3.678600 3.386400 -5.400000
    endloop
  endfacet
  facet normal 3.005930e-01 8.755492e-01 -3.782293e-01
    outer loop
      vertex 0.794000 4.758500 -5.824300
      vertex 2.158600 4.473300 -5.400000
      vertex 2.296100 4.242800 -5.824300
    endloop
  endfacet
  facet normal 3.005797e-01 8.755816e-01 -3.781648e-01
    outer loop
      vertex 2.158600 4.473300 -5.400000
      vertex 0.794000 4.758500 -5.824300
      vertex 0.823000 4.931800 -5.400000
    endloop
  endfacet
  facet normal 0.000000e+00 9.257586e-01 -3.781151e-01
    outer loop
      vertex 0.000000 4.931800 -5.400000
      vertex -0.794000 4.758500 -5.824300
      vertex -0.823000 4.931800 -5.400000
    endloop
  endfacet
  facet normal 0.000000e+00 9.257586e-01 -3.781151e-01
    outer loop
      vertex 0.000000 4.931800 -5.400000
      vertex 0.794000 4.758500 -5.824300
      vertex -0.794000 4.758500 -5.824300
    endloop
  endfacet
  facet normal -3.005632e-01 8.755541e-01 -3.782417e-01
    outer loop
      vertex -2.158600 4.473300 -5.400000
      vertex -2.296100 4.242800 -5.824300
      vertex -2.379700 4.397400 -5.400000
    endloop
  endfacet
  facet normal -3.005930e-01 8.755492e-01 -3.782293e-01
    outer loop
      vertex -2.158600 4.473300 -5.400000
      vertex -0.794000 4.758500 -5.824300
      vertex -2.296100 4.242800 -5.824300
    endloop
  endfacet
  facet normal -5.685987e-01 7.305172e-01 -3.782064e-01
    outer loop
      vertex -2.296100 4.242800 -5.824300
      vertex -3.678600 3.386400 -5.400000
      vertex -2.379700 4.397400 -5.400000
    endloop
  endfacet
  facet normal -7.750186e-01 5.063416e-01 -3.781064e-01
    outer loop
      vertex -4.417900 1.937900 -5.824300
      vertex -3.870700 3.092300 -5.400000
      vertex -3.549300 3.267400 -5.824300
    endloop
  endfacet
  facet normal -5.685992e-01 7.305399e-01 -3.781619e-01
    outer loop
      vertex -3.678600 3.386400 -5.400000
      vertex -2.296100 4.242800 -5.824300
      vertex -3.549300 3.267400 -5.824300
    endloop
  endfacet
  facet normal -7.749141e-01 5.063611e-01 -3.782942e-01
    outer loop
      vertex -3.870700 3.092300 -5.400000
      vertex -4.417900 1.937900 -5.824300
      vertex -4.578900 2.008500 -5.400000
    endloop
  endfacet
  facet normal -8.974396e-01 2.272167e-01 -3.781201e-01
    outer loop
      vertex -4.809900 1.096200 -5.400000
      vertex -4.807800 0.398400 -5.824300
      vertex -4.982900 0.412900 -5.400000
    endloop
  endfacet
  facet normal -8.973844e-01 2.272751e-01 -3.782160e-01
    outer loop
      vertex -4.809900 1.096200 -5.400000
      vertex -4.417900 1.937900 -5.824300
      vertex -4.807800 0.398400 -5.824300
    endloop
  endfacet
  facet normal -9.225692e-01 -7.615302e-02 -3.782416e-01
    outer loop
      vertex -4.856600 -1.111100 -5.400000
      vertex -4.676600 -1.184300 -5.824300
      vertex -4.847000 -1.227400 -5.400000
    endloop
  endfacet
  facet normal -9.225659e-01 -7.647729e-02 -3.781843e-01
    outer loop
      vertex -4.856600 -1.111100 -5.400000
      vertex -4.807800 0.398400 -5.824300
      vertex -4.676600 -1.184300 -5.824300
    endloop
  endfacet
  facet normal -8.477355e-01 -3.718720e-01 -3.782270e-01
    outer loop
      vertex -4.676600 -1.184300 -5.824300
      vertex -4.185800 -2.734700 -5.400000
      vertex -4.847000 -1.227400 -5.400000
    endloop
  endfacet
  facet normal -6.810555e-01 -6.269626e-01 -3.782609e-01
    outer loop
      vertex -2.963100 -3.807000 -5.824300
      vertex -3.868200 -3.079800 -5.400000
      vertex -4.038700 -2.638600 -5.824300
    endloop
  endfacet
  facet normal -4.405968e-01 -8.141500e-01 -3.781988e-01
    outer loop
      vertex -2.139600 -4.449800 -5.400000
      vertex -1.566400 -4.562900 -5.824300
      vertex -1.623500 -4.729100 -5.400000
    endloop
  endfacet
  facet normal -4.406111e-01 -8.141308e-01 -3.782233e-01
    outer loop
      vertex -2.139600 -4.449800 -5.400000
      vertex -2.963100 -3.807000 -5.824300
      vertex -1.566400 -4.562900 -5.824300
    endloop
  endfacet
  facet normal -1.523632e-01 -9.131104e-01 -3.781730e-01
    outer loop
      vertex -1.566400 -4.562900 -5.824300
      vertex 0.000000 -5.000000 -5.400000
      vertex -1.623500 -4.729100 -5.400000
    endloop
  endfacet
  facet normal 8.660178e-01 5.000132e-01 0.000000e+00
    outer loop
      vertex -2.898300 -0.000000 -3.000000
      vertex -1.449100 -2.510000 -6.000000
      vertex -2.898300 -0.000000 -6.000000
    endloop
  endfacet
  facet normal 8.660178e-01 5.000132e-01 -0.000000e+00
    outer loop
      vertex -1.449100 -2.510000 -6.000000
      vertex -2.898300 -0.000000 -3.000000
      vertex -1.449100 -2.510000 -3.000000
    endloop
  endfacet
  facet normal 0.000000e+00 1.000000e+00 0.000000e+00
    outer loop
      vertex -1.449100 -2.510000 -6.000000
      vertex 1.449100 -2.510000 -3.000000
      vertex 1.449100 -2.510000 -6.000000
    endloop
  endfacet
  facet normal 0.000000e+00 1.000000e+00 0.000000e+00
    outer loop
      vertex 1.449100 -2.510000 -3.000000
      vertex -1.449100 -2.510000 -6.000000
      vertex -1.449100 -2.510000 -3.000000
    endloop
  endfacet
  facet normal -8.660178e-01 5.000132e-01 0.000000e+00
    outer loop
      vertex 1.449100 -2.510000 -6.000000
      vertex 2.898300 -0.000000 -3.000000
      vertex 2.898300 -0.000000 -6.000000
    endloop
  endfacet
  facet normal -8.660178e-01 5.000132e-01 0.000000e+00
    outer loop
      vertex 2.898300 -0.000000 -3.000000
      vertex 1.449100 -2.510000 -6.000000
      vertex 1.449100 -2.510000 -3.000000
    endloop
  endfacet
  facet normal -8.660178e-01 -5.000132e-01 -0.000000e+00
    outer loop
      vertex 2.898300 -0.000000 -3.000000
      vertex 1.449100 2.510000 -6.000000
      vertex 2.898300 -0.000000 -6.000000
    endloop
  endfacet
  facet normal -8.660178e-01 -5.000132e-01 0.000000e+00
    outer loop
      vertex 1.449100 2.510000 -6.000000
      vertex 2.898300 -0.000000 -3.000000
      vertex 1.449100 2.510000 -3.000000
    endloop
  endfacet
  facet normal 0.000000e+00 -1.000000e+00 -0.000000e+00
    outer loop
      vertex 1.449100 2.510000 -3.000000
      vertex -1.449100 2.510000 -6.000000
      vertex 1.449100 2.510000 -6.000000
    endloop
  endfacet
  facet normal 0.000000e+00 -1.000000e+00 0.000000e+00
    outer loop
      vertex -1.449100 2.510000 -6.000000
      vertex 1.449100 2.510000 -3.000000
      vertex -1.449100 2.510000 -3.000000
    endloop
  endfacet
  facet normal 8.660178e-01 -5.000132e-01 0.000000e+00
    outer loop
      vertex -1.449100 2.510000 -6.000000
      vertex -2.898300 -0.000000 -3.000000
      vertex -2.898300 -0.000000 -6.000000
    endloop
  endfacet
  facet normal 8.660178e-01 -5.000132e-01 0.000000e+00
    outer loop
      vertex -2.898300 -0.000000 -3.000000
      vertex -1.449100 2.510000 -6.000000
      vertex -1.449100 2.510000 -3.000000
    endloop
  endfacet
  facet normal 0.000000e+00 -0.000000e+00 -1.000000e+00
    outer loop
      vertex -1.449100 2.510000 -3.000000
      vertex -1.449100 -2.510000 -3.000000
      vertex -2.898300 -0.000000 -3.000000
    endloop
  endfacet
  facet normal 0.000000e+00 0.000000e+00 -1.000000e+00
    outer loop
      vertex -1.449100 -2.510000 -3.000000
      vertex -1.449100 2.510000 -3.000000
      vertex 1.449100 -2.510000 -3.000000
    endloop
  endfacet
  facet normal -0.000000e+00 -0.000000e+00 -1.000000e+00
    outer loop
      vertex 1.449100 2.510000 -3.000000
      vertex 1.449100 -2.510000 -3.000000
      vertex -1.449100 2.510000 -3.000000
    endloop
  endfacet
  facet normal 0.000000e+00 0.000000e+00 -1.000000e+00
    outer loop
      vertex 1.449100 -2.510000 -3.000000
      vertex 1.449100 2.510000 -3.000000
      vertex 2.898300 -0.000000 -3.000000
    endloop
  endfacet
endsolid 0.63.D00912.06012
