solid 0.63.D07991.05030
  facet normal -0.000000e+00 0.000000e+00 -1.000000e+00
    outer loop
      vertex -0.871800 -1.510000 0.000000
      vertex -4.384400 -2.002300 0.000000
      vertex -1.743600 -0.000000 0.000000
    endloop
  endfacet
  facet normal 0.000000e+00 0.000000e+00 -1.000000e+00
    outer loop
      vertex -4.384400 -2.002300 0.000000
      vertex -0.871800 -1.510000 0.000000
      vertex -2.605900 -4.054800 0.000000
    endloop
  endfacet
  facet normal 0.000000e+00 -0.000000e+00 -1.000000e+00
    outer loop
      vertex -3.642700 3.156400 0.000000
      vertex -1.743600 -0.000000 0.000000
      vertex -4.770900 0.686000 0.000000
    endloop
  endfacet
  facet normal -0.000000e+00 0.000000e+00 -1.000000e+00
    outer loop
      vertex 0.871800 -1.510000 0.000000
      vertex 0.000000 -4.820000 0.000000
      vertex -0.871800 -1.510000 0.000000
    endloop
  endfacet
  facet normal 0.000000e+00 0.000000e+00 -1.000000e+00
    outer loop
      vertex -0.871800 1.510000 0.000000
      vertex -3.642700 3.156400 0.000000
      vertex -1.358000 4.624800 0.000000
    endloop
  endfacet
  facet normal 0.000000e+00 0.000000e+00 -1.000000e+00
    outer loop
      vertex 0.871800 1.510000 0.000000
      vertex -1.358000 4.624800 0.000000
      vertex 1.358000 4.624800 0.000000
    endloop
  endfacet
  facet normal 0.000000e+00 0.000000e+00 -1.000000e+00
    outer loop
      vertex 0.871800 -1.510000 0.000000
      vertex 4.384400 -2.002300 0.000000
      vertex 2.605900 -4.054800 0.000000
    endloop
  endfacet
  facet normal 0.000000e+00 0.000000e+00 -1.000000e+00
    outer loop
      vertex 4.384400 -2.002300 0.000000
      vertex 0.871800 -1.510000 0.000000
      vertex 1.743600 -0.000000 0.000000
    endloop
  endfacet
  facet normal 0.000000e+00 0.000000e+00 -1.000000e+00
    outer loop
      vertex 3.642700 3.156400 0.000000
      vertex 1.743600 -0.000000 0.000000
      vertex 0.871800 1.510000 0.000000
    endloop
  endfacet
  facet normal -0.000000e+00 0.000000e+00 -1.000000e+00
    outer loop
      vertex 3.642700 3.156400 0.000000
      vertex 0.871800 1.510000 0.000000
      vertex 1.358000 4.624800 0.000000
    endloop
  endfacet
  facet normal 0.000000e+00 -0.000000e+00 -1.000000e+00
    outer loop
      vertex -0.871800 -1.510000 0.000000
      vertex 0.000000 -4.820000 0.000000
      vertex -2.605900 -4.054800 0.000000
    endloop
  endfacet
  facet normal 0.000000e+00 0.000000e+00 -1.000000e+00
    outer loop
      vertex 1.743600 -0.000000 0.000000
      vertex 3.642700 3.156400 0.000000
      vertex 4.770900 0.686000 0.000000
    endloop
  endfacet
  facet normal -0.000000e+00 0.000000e+00 -1.000000e+00
    outer loop
      vertex -1.743600 -0.000000 0.000000
      vertex -4.384400 -2.002300 0.000000
      vertex -4.770900 0.686000 0.000000
    endloop
  endfacet
  facet normal 0.000000e+00 0.000000e+00 -1.000000e+00
    outer loop
      vertex 4.384400 -2.002300 0.000000
      vertex 1.743600 -0.000000 0.000000
      vertex 4.770900 0.686000 0.000000
    endloop
  endfacet
  facet normal 0.000000e+00 0.000000e+00 -1.000000e+00
    outer loop
      vertex -1.358000 4.624800 0.000000
      vertex 0.871800 1.510000 0.000000
      vertex -0.871800 1.510000 0.000000
    endloop
  endfacet
  facet normal 0.000000e+00 0.000000e+00 -1.000000e+00
    outer loop
      vertex 0.000000 -4.820000 0.000000
      vertex 0.871800 -1.510000 0.000000
      vertex 2.605900 -4.054800 0.000000
    endloop
  endfacet
  facet normal 0.000000e+00 0.000000e+00 -1.000000e+00
    outer loop
      vertex -1.743600 -0.000000 0.000000
      vertex -3.642700 3.156400 0.000000
      vertex -0.871800 1.510000 0.000000
    endloop
  endfacet
  facet normal -2.817457e-01 -9.594891e-01 -0.000000e+00
    outer loop
      vertex 0.000000 -4.820000 0.480000
      vertex -2.605900 -4.054800 0.000000
      vertex 0.000000 -4.820000 0.000000
    endloop
  endfacet
  facet normal -7.557498e-01 -6.548605e-01 0.000000e+00
    outer loop
      vertex -4.384400 -2.002300 0.000000
      vertex -2.605900 -4.054800 0.480000
      vertex -4.384400 -2.002300 0.480000
    endloop
  endfacet
  facet normal -9.898224e-01 -1.423079e-01 0.000000e+00
    outer loop
      vertex -4.770900 0.686000 0.480000
      vertex -4.384400 -2.002300 0.000000
      vertex -4.384400 -2.002300 0.480000
    endloop
  endfacet
  facet normal -9.096311e-01 4.154169e-01 0.000000e+00
    outer loop
      vertex -3.642700 3.156400 0.480000
      vertex -4.770900 0.686000 0.000000
      vertex -4.770900 0.686000 0.480000
    endloop
  endfacet
  facet normal -5.406701e-01 8.412347e-01 0.000000e+00
    outer loop
      vertex -1.358000 4.624800 0.480000
      vertex -3.642700 3.156400 0.000000
      vertex -3.642700 3.156400 0.480000
    endloop
  endfacet
  facet normal 0.000000e+00 1.000000e+00 0.000000e+00
    outer loop
      vertex 1.358000 4.624800 0.480000
      vertex -1.358000 4.624800 0.000000
      vertex -1.358000 4.624800 0.480000
    endloop
  endfacet
  facet normal 5.406701e-01 8.412347e-01 0.000000e+00
    outer loop
      vertex 3.642700 3.156400 0.480000
      vertex 1.358000 4.624800 0.000000
      vertex 1.358000 4.624800 0.480000
    endloop
  endfacet
  facet normal 9.096311e-01 4.154169e-01 0.000000e+00
    outer loop
      vertex 4.770900 0.686000 0.480000
      vertex 3.642700 3.156400 0.000000
      vertex 3.642700 3.156400 0.480000
    endloop
  endfacet
  facet normal 9.898224e-01 -1.423079e-01 0.000000e+00
    outer loop
      vertex 4.384400 -2.002300 0.480000
      vertex 4.770900 0.686000 0.000000
      vertex 4.770900 0.686000 0.480000
    endloop
  endfacet
  facet normal 7.557498e-01 -6.548605e-01 0.000000e+00
    outer loop
      vertex 2.605900 -4.054800 0.000000
      vertex 4.384400 -2.002300 0.480000
      vertex 2.605900 -4.054800 0.480000
    endloop
  endfacet
  facet normal 2.817457e-01 -9.594891e-01 0.000000e+00
    outer loop
      vertex 0.000000 -4.820000 0.000000
      vertex 2.605900 -4.054800 0.480000
      vertex 0.000000 -4.820000 0.480000
    endloop
  endfacet
  facet normal 2.817457e-01 -9.594891e-01 0.000000e+00
    outer loop
      vertex 2.605900 -4.054800 0.480000
      vertex 0.000000 -4.820000 0.000000
      vertex 2.605900 -4.054800 0.000000
    endloop
  endfacet
  facet normal 7.557498e-01 -6.548605e-01 0.000000e+00
    outer loop
      vertex 4.384400 -2.002300 0.480000
      vertex 2.605900 -4.054800 0.000000
      vertex 4.384400 -2.002300 0.000000
    endloop
  endfacet
  facet normal 9.898224e-01 -1.423079e-01 0.000000e+00
    outer loop
      vertex 4.770900 0.686000 0.000000
      vertex 4.384400 -2.002300 0.480000
      vertex 4.384400 -2.002300 0.000000
    endloop
  endfacet
  facet normal 9.096311e-01 4.154169e-01 0.000000e+00
    outer loop
      vertex 3.642700 3.156400 0.000000
      vertex 4.770900 0.686000 0.480000
      vertex 4.770900 0.686000 0.000000
    endloop
  endfacet
  facet normal 5.406701e-01 8.412347e-01 0.000000e+00
    outer loop
      vertex 1.358000 4.624800 0.000000
      vertex 3.642700 3.156400 0.480000
      vertex 3.642700 3.156400 0.000000
    endloop
  endfacet
  facet normal 0.000000e+00 1.000000e+00 0.000000e+00
    outer loop
      vertex -1.358000 4.624800 0.000000
      vertex 1.358000 4.624800 0.480000
      vertex 1.358000 4.624800 0.000000
    endloop
  endfacet
  facet normal -5.406701e-01 8.412347e-01 0.000000e+00
    outer loop
      vertex -3.642700 3.156400 0.000000
      vertex -1.358000 4.624800 0.480000
      vertex -1.358000 4.624800 0.000000
    endloop
  endfacet
  facet normal -9.096311e-01 4.154169e-01 0.000000e+00
    outer loop
      vertex -4.770900 0.686000 0.000000
      vertex -3.642700 3.156400 0.480000
      vertex -3.642700 3.156400 0.000000
    endloop
  endfacet
  facet normal -9.898224e-01 -1.423079e-01 0.000000e+00
    outer loop
      vertex -4.384400 -2.002300 0.000000
      vertex -4.770900 0.686000 0.480000
      vertex -4.770900 0.686000 0.000000
    endloop
  endfacet
  facet normal -7.557498e-01 -6.548605e-01 -0.000000e+00
    outer loop
      vertex -2.605900 -4.054800 0.480000
      vertex -4.384400 -2.002300 0.000000
      vertex -2.605900 -4.054800 0.000000
    endloop
  endfacet
  facet normal -2.817457e-01 -9.594891e-01 0.000000e+00
    outer loop
      vertex -2.605900 -4.054800 0.000000
      vertex 0.000000 -4.820000 0.480000
      vertex -2.605900 -4.054800 0.480000
    endloop
  endfacet
  facet normal -2.032990e-01 -6.923379e-01 6.923422e-01
    outer loop
      vertex 0.000000 -4.820000 0.480000
      vertex -1.351600 -2.103100 2.800000
      vertex -2.605900 -4.054800 0.480000
    endloop
  endfacet
  facet normal -5.453090e-01 -4.725576e-01 6.923347e-01
    outer loop
      vertex -4.384400 -2.002300 0.480000
      vertex -1.696000 -1.705600 2.800000
      vertex -2.274100 -1.038500 2.800000
    endloop
  endfacet
  facet normal -2.033067e-01 -6.923389e-01 6.923389e-01
    outer loop
      vertex -1.351600 -2.103100 2.800000
      vertex 0.000000 -4.820000 0.480000
      vertex 0.000000 -2.500000 2.800000
    endloop
  endfacet
  facet normal -5.453228e-01 -4.725245e-01 6.923465e-01
    outer loop
      vertex -1.696000 -1.705600 2.800000
      vertex -4.384400 -2.002300 0.480000
      vertex -2.605900 -4.054800 0.480000
    endloop
  endfacet
  facet normal -5.453539e-01 -4.725029e-01 6.923367e-01
    outer loop
      vertex -1.696000 -1.705600 2.800000
      vertex -2.605900 -4.054800 0.480000
      vertex -1.351600 -2.103100 2.800000
    endloop
  endfacet
  facet normal -7.142254e-01 -1.027129e-01 6.923382e-01
    outer loop
      vertex -2.425000 0.010800 2.800000
      vertex -4.384400 -2.002300 0.480000
      vertex -2.274100 -1.038500 2.800000
    endloop
  endfacet
  facet normal -7.142394e-01 -1.026870e-01 6.923275e-01
    outer loop
      vertex -4.384400 -2.002300 0.480000
      vertex -2.425000 0.010800 2.800000
      vertex -4.770900 0.686000 0.480000
    endloop
  endfacet
  facet normal -6.563721e-01 2.997567e-01 6.923306e-01
    outer loop
      vertex -2.474600 0.355800 2.800000
      vertex -3.642700 3.156400 0.480000
      vertex -4.770900 0.686000 0.480000
    endloop
  endfacet
  facet normal -3.901286e-01 6.070054e-01 6.923468e-01
    outer loop
      vertex -1.743900 1.730600 2.800000
      vertex -1.358000 4.624800 0.480000
      vertex -3.642700 3.156400 0.480000
    endloop
  endfacet
  facet normal -3.898296e-01 6.072825e-01 6.922723e-01
    outer loop
      vertex -1.743900 1.730600 2.800000
      vertex -3.642700 3.156400 0.480000
      vertex -1.889400 1.637200 2.800000
    endloop
  endfacet
  facet normal 0.000000e+00 7.215582e-01 6.923538e-01
    outer loop
      vertex 0.000000 2.398700 2.800000
      vertex 1.358000 4.624800 0.480000
      vertex -1.358000 4.624800 0.480000
    endloop
  endfacet
  facet normal 0.000000e+00 7.215582e-01 6.923538e-01
    outer loop
      vertex 0.000000 2.398700 2.800000
      vertex -1.358000 4.624800 0.480000
      vertex -0.704300 2.398700 2.800000
    endloop
  endfacet
  facet normal 3.900965e-01 6.070114e-01 6.923596e-01
    outer loop
      vertex 1.743900 1.730600 2.800000
      vertex 1.358000 4.624800 0.480000
      vertex 0.704300 2.398700 2.800000
    endloop
  endfacet
  facet normal 3.901286e-01 6.070054e-01 6.923468e-01
    outer loop
      vertex 1.358000 4.624800 0.480000
      vertex 1.743900 1.730600 2.800000
      vertex 3.642700 3.156400 0.480000
    endloop
  endfacet
  facet normal 6.563720e-01 2.997566e-01 6.923307e-01
    outer loop
      vertex 1.889400 1.637200 2.800000
      vertex 4.770900 0.686000 0.480000
      vertex 3.642700 3.156400 0.480000
    endloop
  endfacet
  facet normal 7.142394e-01 -1.026870e-01 6.923275e-01
    outer loop
      vertex 2.425000 0.010800 2.800000
      vertex 4.384400 -2.002300 0.480000
      vertex 4.770900 0.686000 0.480000
    endloop
  endfacet
  facet normal 7.142392e-01 -1.026845e-01 6.923281e-01
    outer loop
      vertex 2.425000 0.010800 2.800000
      vertex 4.770900 0.686000 0.480000
      vertex 2.474600 0.355800 2.800000
    endloop
  endfacet
  facet normal 5.453090e-01 -4.725576e-01 6.923347e-01
    outer loop
      vertex 1.696000 -1.705600 2.800000
      vertex 4.384400 -2.002300 0.480000
      vertex 2.274100 -1.038500 2.800000
    endloop
  endfacet
  facet normal 5.453228e-01 -4.725245e-01 6.923465e-01
    outer loop
      vertex 4.384400 -2.002300 0.480000
      vertex 1.696000 -1.705600 2.800000
      vertex 2.605900 -4.054800 0.480000
    endloop
  endfacet
  facet normal 2.033055e-01 -6.923350e-01 6.923432e-01
    outer loop
      vertex 0.000000 -2.500000 2.800000
      vertex 2.605900 -4.054800 0.480000
      vertex 1.351600 -2.103100 2.800000
    endloop
  endfacet
  facet normal 2.032996e-01 -6.923400e-01 6.923400e-01
    outer loop
      vertex 2.605900 -4.054800 0.480000
      vertex 0.000000 -2.500000 2.800000
      vertex 0.000000 -4.820000 0.480000
    endloop
  endfacet
  facet normal 5.453539e-01 -4.725029e-01 6.923367e-01
    outer loop
      vertex 2.605900 -4.054800 0.480000
      vertex 1.696000 -1.705600 2.800000
      vertex 1.351600 -2.103100 2.800000
    endloop
  endfacet
  facet normal 7.142254e-01 -1.027129e-01 6.923382e-01
    outer loop
      vertex 4.384400 -2.002300 0.480000
      vertex 2.425000 0.010800 2.800000
      vertex 2.274100 -1.038500 2.800000
    endloop
  endfacet
  facet normal 6.563719e-01 2.997571e-01 6.923305e-01
    outer loop
      vertex 4.770900 0.686000 0.480000
      vertex 1.889400 1.637200 2.800000
      vertex 2.474600 0.355800 2.800000
    endloop
  endfacet
  facet normal 3.898296e-01 6.072825e-01 6.922723e-01
    outer loop
      vertex 3.642700 3.156400 0.480000
      vertex 1.743900 1.730600 2.800000
      vertex 1.889400 1.637200 2.800000
    endloop
  endfacet
  facet normal 0.000000e+00 7.215582e-01 6.923538e-01
    outer loop
      vertex 1.358000 4.624800 0.480000
      vertex 0.000000 2.398700 2.800000
      vertex 0.704300 2.398700 2.800000
    endloop
  endfacet
  facet normal -3.900965e-01 6.070114e-01 6.923596e-01
    outer loop
      vertex -1.358000 4.624800 0.480000
      vertex -1.743900 1.730600 2.800000
      vertex -0.704300 2.398700 2.800000
    endloop
  endfacet
  facet normal -7.142392e-01 -1.026845e-01 6.923281e-01
    outer loop
      vertex -4.770900 0.686000 0.480000
      vertex -2.425000 0.010800 2.800000
      vertex -2.474600 0.355800 2.800000
    endloop
  endfacet
  facet normal -6.563717e-01 2.997570e-01 6.923308e-01
    outer loop
      vertex -3.642700 3.156400 0.480000
      vertex -2.474600 0.355800 2.800000
      vertex -1.889400 1.637200 2.800000
    endloop
  endfacet
  facet normal -2.817551e-01 -9.594864e-01 -0.000000e+00
    outer loop
      vertex 0.000000 -2.500000 29.554999
      vertex -1.351600 -2.103100 2.800000
      vertex 0.000000 -2.500000 2.800000
    endloop
  endfacet
  facet normal -7.557142e-01 -6.548919e-01 -3.550536e-03
    outer loop
      vertex -1.767800 -1.767800 29.554999
      vertex -2.274100 -1.038500 2.800000
      vertex -1.696000 -1.705600 2.800000
    endloop
  endfacet
  facet normal -9.898190e-01 -1.423040e-01 -2.832115e-03
    outer loop
      vertex -2.500000 -0.000000 29.554999
      vertex -2.474600 0.355800 2.800000
      vertex -2.425000 0.010800 2.800000
    endloop
  endfacet
  facet normal -5.406341e-01 8.412562e-01 -1.652621e-03
    outer loop
      vertex -1.767800 1.767800 29.554999
      vertex -0.704300 2.398700 2.800000
      vertex -1.743900 1.730600 2.800000
    endloop
  endfacet
  facet normal 0.000000e+00 9.999928e-01 -3.786182e-03
    outer loop
      vertex 0.000000 2.500000 29.554999
      vertex 0.704300 2.398700 2.800000
      vertex 0.000000 2.398700 2.800000
    endloop
  endfacet
  facet normal 5.402014e-01 8.415341e-01 -1.652621e-03
    outer loop
      vertex 1.767800 1.767800 29.554999
      vertex 1.889400 1.637200 2.800000
      vertex 1.743900 1.730600 2.800000
    endloop
  endfacet
  facet normal 9.898130e-01 -1.423452e-01 -2.832115e-03
    outer loop
      vertex 2.500000 -0.000000 29.554999
      vertex 2.274100 -1.038500 2.800000
      vertex 2.425000 0.010800 2.800000
    endloop
  endfacet
  facet normal 7.557784e-01 -6.548178e-01 -3.550536e-03
    outer loop
      vertex 1.767800 -1.767800 29.554999
      vertex 1.351600 -2.103100 2.800000
      vertex 1.696000 -1.705600 2.800000
    endloop
  endfacet
  facet normal 3.826565e-01 -9.238735e-01 5.625607e-03
    outer loop
      vertex 0.000000 -2.500000 29.554999
      vertex 1.351600 -2.103100 2.800000
      vertex 1.767800 -1.767800 29.554999
    endloop
  endfacet
  facet normal 2.817551e-01 -9.594864e-01 0.000000e+00
    outer loop
      vertex 1.351600 -2.103100 2.800000
      vertex 0.000000 -2.500000 29.554999
      vertex 0.000000 -2.500000 2.800000
    endloop
  endfacet
  facet normal 7.557142e-01 -6.548919e-01 -3.550536e-03
    outer loop
      vertex 2.274100 -1.038500 2.800000
      vertex 1.767800 -1.767800 29.554999
      vertex 1.696000 -1.705600 2.800000
    endloop
  endfacet
  facet normal 9.238652e-01 -3.826531e-01 7.052293e-03
    outer loop
      vertex 2.274100 -1.038500 2.800000
      vertex 2.500000 -0.000000 29.554999
      vertex 1.767800 -1.767800 29.554999
    endloop
  endfacet
  facet normal 9.898190e-01 -1.423040e-01 -2.832115e-03
    outer loop
      vertex 2.474600 0.355800 2.800000
      vertex 2.500000 -0.000000 29.554999
      vertex 2.425000 0.010800 2.800000
    endloop
  endfacet
  facet normal 9.096289e-01 4.154165e-01 2.106428e-03
    outer loop
      vertex 1.767800 1.767800 29.554999
      vertex 2.474600 0.355800 2.800000
      vertex 1.889400 1.637200 2.800000
    endloop
  endfacet
  facet normal 9.238800e-01 3.826592e-01 4.211681e-03
    outer loop
      vertex 2.474600 0.355800 2.800000
      vertex 1.767800 1.767800 29.554999
      vertex 2.500000 -0.000000 29.554999
    endloop
  endfacet
  facet normal 3.826543e-01 9.238682e-01 6.575054e-03
    outer loop
      vertex 1.767800 1.767800 29.554999
      vertex 0.704300 2.398700 2.800000
      vertex 0.000000 2.500000 29.554999
    endloop
  endfacet
  facet normal 5.406341e-01 8.412562e-01 -1.652621e-03
    outer loop
      vertex 0.704300 2.398700 2.800000
      vertex 1.767800 1.767800 29.554999
      vertex 1.743900 1.730600 2.800000
    endloop
  endfacet
  facet normal 0.000000e+00 9.999928e-01 -3.786182e-03
    outer loop
      vertex -0.704300 2.398700 2.800000
      vertex 0.000000 2.500000 29.554999
      vertex 0.000000 2.398700 2.800000
    endloop
  endfacet
  facet normal -3.826543e-01 9.238682e-01 6.575054e-03
    outer loop
      vertex -0.704300 2.398700 2.800000
      vertex -1.767800 1.767800 29.554999
      vertex 0.000000 2.500000 29.554999
    endloop
  endfacet
  facet normal -5.402014e-01 8.415341e-01 -1.652621e-03
    outer loop
      vertex -1.889400 1.637200 2.800000
      vertex -1.767800 1.767800 29.554999
      vertex -1.743900 1.730600 2.800000
    endloop
  endfacet
  facet normal -9.238800e-01 3.826592e-01 4.211681e-03
    outer loop
      vertex -1.767800 1.767800 29.554999
      vertex -2.474600 0.355800 2.800000
      vertex -2.500000 -0.000000 29.554999
    endloop
  endfacet
  facet normal -9.096289e-01 4.154165e-01 2.106428e-03
    outer loop
      vertex -2.474600 0.355800 2.800000
      vertex -1.767800 1.767800 29.554999
      vertex -1.889400 1.637200 2.800000
    endloop
  endfacet
  facet normal -9.238652e-01 -3.826531e-01 7.052293e-03
    outer loop
      vertex -2.500000 -0.000000 29.554999
      vertex -2.274100 -1.038500 2.800000
      vertex -1.767800 -1.767800 29.554999
    endloop
  endfacet
  facet normal -9.898130e-01 -1.423452e-01 -2.832115e-03
    outer loop
      vertex -2.274100 -1.038500 2.800000
      vertex -2.500000 -0.000000 29.554999
      vertex -2.425000 0.010800 2.800000
    endloop
  endfacet
  facet normal -7.557784e-01 -6.548178e-01 -3.550536e-03
    outer loop
      vertex -1.351600 -2.103100 2.800000
      vertex -1.767800 -1.767800 29.554999
      vertex -1.696000 -1.705600 2.800000
    endloop
  endfacet
  facet normal -3.826565e-01 -9.238735e-01 5.625607e-03
    outer loop
      vertex -1.351600 -2.103100 2.800000
      vertex 0.000000 -2.500000 29.554999
      vertex -1.767800 -1.767800 29.554999
    endloop
  endfacet
  facet normal -2.810719e-01 -6.785604e-01 6.786416e-01
    outer loop
      vertex -1.767800 -1.767800 29.554999
      vertex 0.000000 -2.055000 30.000000
      vertex -1.453100 -1.453100 30.000000
    endloop
  endfacet
  facet normal -6.786026e-01 -2.810685e-01 6.786008e-01
    outer loop
      vertex -1.767800 -1.767800 29.554999
      vertex -2.055000 -0.000000 30.000000
      vertex -2.500000 -0.000000 29.554999
    endloop
  endfacet
  facet normal -6.785604e-01 2.810719e-01 6.786416e-01
    outer loop
      vertex -1.767800 1.767800 29.554999
      vertex -2.055000 -0.000000 30.000000
      vertex -1.453100 1.453100 30.000000
    endloop
  endfacet
  facet normal -2.810685e-01 6.786026e-01 6.786008e-01
    outer loop
      vertex -1.767800 1.767800 29.554999
      vertex 0.000000 2.055000 30.000000
      vertex 0.000000 2.500000 29.554999
    endloop
  endfacet
  facet normal 2.810554e-01 6.785712e-01 6.786376e-01
    outer loop
      vertex 0.000000 2.500000 29.554999
      vertex 1.453100 1.453100 30.000000
      vertex 1.767800 1.767800 29.554999
    endloop
  endfacet
  facet normal 6.785986e-01 2.810877e-01 6.785968e-01
    outer loop
      vertex 2.500000 -0.000000 29.554999
      vertex 1.453100 1.453100 30.000000
      vertex 2.055000 -0.000000 30.000000
    endloop
  endfacet
  facet normal 6.785712e-01 -2.810554e-01 6.786376e-01
    outer loop
      vertex 2.500000 -0.000000 29.554999
      vertex 1.453100 -1.453100 30.000000
      vertex 1.767800 -1.767800 29.554999
    endloop
  endfacet
  facet normal 2.810877e-01 -6.785986e-01 6.785968e-01
    outer loop
      vertex 0.000000 -2.500000 29.554999
      vertex 1.453100 -1.453100 30.000000
      vertex 0.000000 -2.055000 30.000000
    endloop
  endfacet
  facet normal 2.810554e-01 -6.785712e-01 6.786376e-01
    outer loop
      vertex 1.453100 -1.453100 30.000000
      vertex 0.000000 -2.500000 29.554999
      vertex 1.767800 -1.767800 29.554999
    endloop
  endfacet
  facet normal 6.785986e-01 -2.810877e-01 6.785968e-01
    outer loop
      vertex 1.453100 -1.453100 30.000000
      vertex 2.500000 -0.000000 29.554999
      vertex 2.055000 -0.000000 30.000000
    endloop
  endfacet
  facet normal 6.785712e-01 2.810554e-01 6.786376e-01
    outer loop
      vertex 1.453100 1.453100 30.000000
      vertex 2.500000 -0.000000 29.554999
      vertex 1.767800 1.767800 29.554999
    endloop
  endfacet
  facet normal 2.810877e-01 6.785986e-01 6.785968e-01
    outer loop
      vertex 1.453100 1.453100 30.000000
      vertex 0.000000 2.500000 29.554999
      vertex 0.000000 2.055000 30.000000
    endloop
  endfacet
  facet normal -2.810719e-01 6.785604e-01 6.786416e-01
    outer loop
      vertex 0.000000 2.055000 30.000000
      vertex -1.767800 1.767800 29.554999
      vertex -1.453100 1.453100 30.000000
    endloop
  endfacet
  facet normal -6.786026e-01 2.810685e-01 6.786008e-01
    outer loop
      vertex -2.055000 -0.000000 30.000000
      vertex -1.767800 1.767800 29.554999
      vertex -2.500000 -0.000000 29.554999
    endloop
  endfacet
  facet normal -6.785604e-01 -2.810719e-01 6.786416e-01
    outer loop
      vertex -2.055000 -0.000000 30.000000
      vertex -1.767800 -1.767800 29.554999
      vertex -1.453100 -1.453100 30.000000
    endloop
  endfacet
  facet normal -2.810685e-01 -6.786026e-01 6.786008e-01
    outer loop
      vertex 0.000000 -2.055000 30.000000
      vertex -1.767800 -1.767800 29.554999
      vertex 0.000000 -2.500000 29.554999
    endloop
  endfacet
  facet normal 0.000000e+00 0.000000e+00 1.000000e+00
    outer loop
      vertex 0.000000 2.055000 30.000000
      vertex 2.055000 -0.000000 30.000000
      vertex 1.453100 1.453100 30.000000
    endloop
  endfacet
  facet normal 0.000000e+00 -0.000000e+00 1.000000e+00
    outer loop
      vertex -1.453100 -1.453100 30.000000
      vertex 2.055000 -0.000000 30.000000
      vertex -2.055000 -0.000000 30.000000
    endloop
  endfacet
  facet normal 0.000000e+00 0.000000e+00 1.000000e+00
    outer loop
      vertex 2.055000 -0.000000 30.000000
      vertex 0.000000 -2.055000 30.000000
      vertex 1.453100 -1.453100 30.000000
    endloop
  endfacet
  facet normal 0.000000e+00 0.000000e+00 1.000000e+00
    outer loop
      vertex 2.055000 -0.000000 30.000000
      vertex -1.453100 1.453100 30.000000
      vertex -2.055000 -0.000000 30.000000
    endloop
  endfacet
  facet normal 0.000000e+00 -0.000000e+00 1.000000e+00
    outer loop
      vertex 0.000000 -2.055000 30.000000
      vertex 2.055000 -0.000000 30.000000
      vertex -1.453100 -1.453100 30.000000
    endloop
  endfacet
  facet normal -0.000000e+00 0.000000e+00 1.000000e+00
    outer loop
      vertex -1.453100 1.453100 30.000000
      vertex 2.055000 -0.000000 30.000000
      vertex 0.000000 2.055000 30.000000
    endloop
  endfacet
  facet normal -8.660251e-01 -5.000005e-01 -2.805387e-08
    outer loop
      vertex 1.743600 -0.000000 0.000000
      vertex 1.307700 0.755000 2.300000
      vertex 0.871800 1.510000 0.000000
    endloop
  endfacet
  facet normal -8.660252e-01 -5.000004e-01 0.000000e+00
    outer loop
      vertex 0.871800 1.510000 0.000000
      vertex 1.307700 0.755000 2.300000
      vertex 0.871800 1.510000 2.300000
    endloop
  endfacet
  facet normal -8.660251e-01 -5.000006e-01 0.000000e+00
    outer loop
      vertex 1.307700 0.755000 2.300000
      vertex 1.743600 -0.000000 0.000000
      vertex 1.743600 -0.000000 2.300000
    endloop
  endfacet
  facet normal 0.000000e+00 -1.000000e+00 0.000000e+00
    outer loop
      vertex 0.000000 1.510000 2.300000
      vertex 0.871800 1.510000 0.000000
      vertex 0.871800 1.510000 2.300000
    endloop
  endfacet
  facet normal 0.000000e+00 -1.000000e+00 0.000000e+00
    outer loop
      vertex -0.871800 1.510000 0.000000
      vertex 0.000000 1.510000 2.300000
      vertex -0.871800 1.510000 2.300000
    endloop
  endfacet
  facet normal 0.000000e+00 -1.000000e+00 0.000000e+00
    outer loop
      vertex 0.871800 1.510000 0.000000
      vertex 0.000000 1.510000 2.300000
      vertex -0.871800 1.510000 0.000000
    endloop
  endfacet
  facet normal 8.660251e-01 -5.000005e-01 -2.805387e-08
    outer loop
      vertex -0.871800 1.510000 0.000000
      vertex -1.307700 0.755000 2.300000
      vertex -1.743600 -0.000000 0.000000
    endloop
  endfacet
  facet normal 8.660251e-01 -5.000006e-01 0.000000e+00
    outer loop
      vertex -1.743600 -0.000000 0.000000
      vertex -1.307700 0.755000 2.300000
      vertex -1.743600 -0.000000 2.300000
    endloop
  endfacet
  facet normal 8.660252e-01 -5.000004e-01 0.000000e+00
    outer loop
      vertex -1.307700 0.755000 2.300000
      vertex -0.871800 1.510000 0.000000
      vertex -0.871800 1.510000 2.300000
    endloop
  endfacet
  facet normal 8.660251e-01 5.000006e-01 0.000000e+00
    outer loop
      vertex -1.307700 -0.755000 2.300000
      vertex -1.743600 -0.000000 0.000000
      vertex -1.743600 -0.000000 2.300000
    endloop
  endfacet
  facet normal 8.660251e-01 5.000005e-01 -2.805387e-08
    outer loop
      vertex -1.307700 -0.755000 2.300000
      vertex -0.871800 -1.510000 0.000000
      vertex -1.743600 -0.000000 0.000000
    endloop
  endfacet
  facet normal 8.660252e-01 5.000004e-01 -0.000000e+00
    outer loop
      vertex -0.871800 -1.510000 0.000000
      vertex -1.307700 -0.755000 2.300000
      vertex -0.871800 -1.510000 2.300000
    endloop
  endfacet
  facet normal 0.000000e+00 1.000000e+00 0.000000e+00
    outer loop
      vertex -0.871800 -1.510000 0.000000
      vertex 0.000000 -1.510000 2.300000
      vertex 0.871800 -1.510000 0.000000
    endloop
  endfacet
  facet normal 0.000000e+00 1.000000e+00 0.000000e+00
    outer loop
      vertex 0.000000 -1.510000 2.300000
      vertex -0.871800 -1.510000 0.000000
      vertex -0.871800 -1.510000 2.300000
    endloop
  endfacet
  facet normal 0.000000e+00 1.000000e+00 -0.000000e+00
    outer loop
      vertex 0.871800 -1.510000 0.000000
      vertex 0.000000 -1.510000 2.300000
      vertex 0.871800 -1.510000 2.300000
    endloop
  endfacet
  facet normal -8.660251e-01 5.000006e-01 0.000000e+00
    outer loop
      vertex 1.743600 -0.000000 0.000000
      vertex 1.307700 -0.755000 2.300000
      vertex 1.743600 -0.000000 2.300000
    endloop
  endfacet
  facet normal -8.660252e-01 5.000004e-01 0.000000e+00
    outer loop
      vertex 1.307700 -0.755000 2.300000
      vertex 0.871800 -1.510000 0.000000
      vertex 0.871800 -1.510000 2.300000
    endloop
  endfacet
  facet normal -8.660251e-01 5.000005e-01 -2.805387e-08
    outer loop
      vertex 1.307700 -0.755000 2.300000
      vertex 1.743600 -0.000000 0.000000
      vertex 0.871800 -1.510000 0.000000
    endloop
  endfacet
  facet normal 0.000000e+00 0.000000e+00 -1.000000e+00
    outer loop
      vertex 0.000000 1.510000 2.300000
      vertex 0.871800 1.510000 2.300000
      vertex 1.307700 0.755000 2.300000
    endloop
  endfacet
  facet normal 0.000000e+00 0.000000e+00 -1.000000e+00
    outer loop
      vertex 1.307700 0.755000 2.300000
      vertex 1.743600 -0.000000 2.300000
      vertex 1.307700 -0.755000 2.300000
    endloop
  endfacet
  facet normal 0.000000e+00 0.000000e+00 -1.000000e+00
    outer loop
      vertex 1.307700 -0.755000 2.300000
      vertex 0.871800 -1.510000 2.300000
      vertex 0.000000 -1.510000 2.300000
    endloop
  endfacet
  facet normal 0.000000e+00 0.000000e+00 -1.000000e+00
    outer loop
      vertex 0.000000 -1.510000 2.300000
      vertex -0.871800 -1.510000 2.300000
      vertex -1.307700 -0.755000 2.300000
    endloop
  endfacet
  facet normal 0.000000e+00 0.000000e+00 -1.000000e+00
    outer loop
      vertex -1.307700 -0.755000 2.300000
      vertex -1.743600 -0.000000 2.300000
      vertex -1.307700 0.755000 2.300000
    endloop
  endfacet
  facet normal 0.000000e+00 0.000000e+00 -1.000000e+00
    outer loop
      vertex -1.307700 0.755000 2.300000
      vertex -0.871800 1.510000 2.300000
      vertex 0.000000 1.510000 2.300000
    endloop
  endfacet
  facet normal 2.773500e-01 4.803850e-01 -8.320500e-01
    outer loop
      vertex -1.307700 -0.755000 2.300000
      vertex 0.000000 -0.000000 3.171800
      vertex 0.000000 -1.510000 2.300000
    endloop
  endfacet
  facet normal -5.547002e-01 0.000000e+00 -8.320503e-01
    outer loop
      vertex 1.307700 -0.755000 2.300000
      vertex 0.000000 -0.000000 3.171800
      vertex 1.307700 0.755000 2.300000
    endloop
  endfacet
  facet normal -2.773500e-01 -4.803850e-01 -8.320500e-01
    outer loop
      vertex 1.307700 0.755000 2.300000
      vertex 0.000000 -0.000000 3.171800
      vertex 0.000000 1.510000 2.300000
    endloop
  endfacet
  facet normal -2.773500e-01 4.803850e-01 -8.320500e-01
    outer loop
      vertex 0.000000 -1.510000 2.300000
      vertex 0.000000 -0.000000 3.171800
      vertex 1.307700 -0.755000 2.300000
    endloop
  endfacet
  facet normal 5.547002e-01 0.000000e+00 -8.320503e-01
    outer loop
      vertex -1.307700 0.755000 2.300000
      vertex 0.000000 -0.000000 3.171800
      vertex -1.307700 -0.755000 2.300000
    endloop
  endfacet
  facet normal 2.773500e-01 -4.803850e-01 -8.320500e-01
    outer loop
      vertex 0.000000 1.510000 2.300000
      vertex 0.000000 -0.000000 3.171800
      vertex -1.307700 0.755000 2.300000
    endloop
  endfacet
endsolid 0.63.D07991.05030
