solid 1.32.4FM6
  facet normal 9.892749e-01 1.422880e-01 3.300402e-02
    outer loop
      vertex 2.433500 -0.349900 1.508500
      vertex 2.433500 0.349900 -1.508500
      vertex 2.275200 0.750700 1.508500
    endloop
  endfacet
  facet normal -7.556318e-01 -6.547337e-01 1.855614e-02
    outer loop
      vertex -1.329200 -2.068200 -1.508500
      vertex -1.393400 -1.908600 1.508500
      vertex -1.418100 -1.965600 -1.508500
    endloop
  endfacet
  facet normal -1.423416e-01 -9.898176e-01 0.000000e+00
    outer loop
      vertex -0.692600 -2.358900 1.508500
      vertex 0.000000 -2.458500 -1.508500
      vertex 0.000000 -2.458500 1.508500
    endloop
  endfacet
  facet normal -7.553542e-01 -6.544856e-01 -3.299477e-02
    outer loop
      vertex -1.858000 -1.610000 1.508500
      vertex -2.236300 -1.021300 -1.508500
      vertex -1.418100 -1.965600 -1.508500
    endloop
  endfacet
  facet normal -9.898099e-01 -1.422900e-01 5.477115e-03
    outer loop
      vertex -2.236300 -1.021300 -1.508500
      vertex -2.262200 -0.725000 1.508500
      vertex -2.275200 -0.750700 -1.508500
    endloop
  endfacet
  facet normal -5.405545e-01 -8.410637e-01 2.031563e-02
    outer loop
      vertex -1.858000 -1.610000 1.508500
      vertex -1.418100 -1.965600 -1.508500
      vertex -1.393400 -1.908600 1.508500
    endloop
  endfacet
  facet normal -5.402814e-01 -8.408377e-01 3.298361e-02
    outer loop
      vertex -1.329200 -2.068200 -1.508500
      vertex -0.692600 -2.358900 1.508500
      vertex -1.393400 -1.908600 1.508500
    endloop
  endfacet
  facet normal -9.091241e-01 -4.152180e-01 3.297408e-02
    outer loop
      vertex -2.236300 -1.021300 -1.508500
      vertex -1.858000 -1.610000 1.508500
      vertex -2.262200 -0.725000 1.508500
    endloop
  endfacet
  facet normal -9.892749e-01 -1.422880e-01 -3.300402e-02
    outer loop
      vertex -2.433500 -0.349900 1.508500
      vertex -2.433500 0.349900 -1.508500
      vertex -2.275200 -0.750700 -1.508500
    endloop
  endfacet
  facet normal -9.091241e-01 4.152180e-01 -3.297408e-02
    outer loop
      vertex -2.236300 1.021300 1.508500
      vertex -1.858000 1.610000 -1.508500
      vertex -2.262200 0.725000 -1.508500
    endloop
  endfacet
  facet normal -5.402814e-01 8.408377e-01 -3.298361e-02
    outer loop
      vertex -1.329200 2.068200 1.508500
      vertex -0.692600 2.358900 -1.508500
      vertex -1.393400 1.908600 -1.508500
    endloop
  endfacet
  facet normal 7.556318e-01 6.547337e-01 -1.855614e-02
    outer loop
      vertex 1.393400 1.908600 -1.508500
      vertex 1.329200 2.068200 1.508500
      vertex 1.418100 1.965600 1.508500
    endloop
  endfacet
  facet normal 9.898099e-01 1.422900e-01 -5.477115e-03
    outer loop
      vertex 2.262200 0.725000 -1.508500
      vertex 2.236300 1.021300 1.508500
      vertex 2.275200 0.750700 1.508500
    endloop
  endfacet
  facet normal 9.096089e-01 4.153987e-01 -7.457984e-03
    outer loop
      vertex 2.275200 0.750700 1.508500
      vertex 2.433500 0.349900 -1.508500
      vertex 2.262200 0.725000 -1.508500
    endloop
  endfacet
  facet normal 5.405545e-01 -8.410637e-01 2.031563e-02
    outer loop
      vertex 1.418100 -1.965600 -1.508500
      vertex 1.858000 -1.610000 1.508500
      vertex 1.393400 -1.908600 1.508500
    endloop
  endfacet
  facet normal 1.423416e-01 -9.898176e-01 0.000000e+00
    outer loop
      vertex 0.000000 -2.458500 -1.508500
      vertex 0.692600 -2.358900 1.508500
      vertex 0.000000 -2.458500 1.508500
    endloop
  endfacet
  facet normal 7.556318e-01 -6.547337e-01 1.855614e-02
    outer loop
      vertex 1.393400 -1.908600 1.508500
      vertex 1.329200 -2.068200 -1.508500
      vertex 1.418100 -1.965600 -1.508500
    endloop
  endfacet
  facet normal 2.815870e-01 -9.589686e-01 -3.298440e-02
    outer loop
      vertex 1.329200 -2.068200 -1.508500
      vertex 0.692600 -2.358900 1.508500
      vertex 0.000000 -2.458500 -1.508500
    endloop
  endfacet
  facet normal 5.402814e-01 -8.408377e-01 3.298361e-02
    outer loop
      vertex 0.692600 -2.358900 1.508500
      vertex 1.329200 -2.068200 -1.508500
      vertex 1.393400 -1.908600 1.508500
    endloop
  endfacet
  facet normal 9.898099e-01 -1.422900e-01 5.477115e-03
    outer loop
      vertex 2.262200 -0.725000 1.508500
      vertex 2.236300 -1.021300 -1.508500
      vertex 2.275200 -0.750700 -1.508500
    endloop
  endfacet
  facet normal 7.553542e-01 -6.544856e-01 -3.299477e-02
    outer loop
      vertex 2.236300 -1.021300 -1.508500
      vertex 1.858000 -1.610000 1.508500
      vertex 1.418100 -1.965600 -1.508500
    endloop
  endfacet
  facet normal 9.091241e-01 -4.152180e-01 3.297408e-02
    outer loop
      vertex 1.858000 -1.610000 1.508500
      vertex 2.236300 -1.021300 -1.508500
      vertex 2.262200 -0.725000 1.508500
    endloop
  endfacet
  facet normal 9.096089e-01 -4.153987e-01 7.457984e-03
    outer loop
      vertex 2.275200 -0.750700 -1.508500
      vertex 2.433500 -0.349900 1.508500
      vertex 2.262200 -0.725000 1.508500
    endloop
  endfacet
  facet normal -2.815870e-01 -9.589686e-01 -3.298440e-02
    outer loop
      vertex -0.692600 -2.358900 1.508500
      vertex -1.329200 -2.068200 -1.508500
      vertex 0.000000 -2.458500 -1.508500
    endloop
  endfacet
  facet normal 9.892749e-01 -1.422880e-01 -3.300402e-02
    outer loop
      vertex 2.433500 0.349900 -1.508500
      vertex 2.433500 -0.349900 1.508500
      vertex 2.275200 -0.750700 -1.508500
    endloop
  endfacet
  facet normal 5.405545e-01 8.410637e-01 -2.031563e-02
    outer loop
      vertex 1.418100 1.965600 1.508500
      vertex 1.858000 1.610000 -1.508500
      vertex 1.393400 1.908600 -1.508500
    endloop
  endfacet
  facet normal 7.553542e-01 6.544856e-01 3.299477e-02
    outer loop
      vertex 2.236300 1.021300 1.508500
      vertex 1.858000 1.610000 -1.508500
      vertex 1.418100 1.965600 1.508500
    endloop
  endfacet
  facet normal 9.091241e-01 4.152180e-01 -3.297408e-02
    outer loop
      vertex 1.858000 1.610000 -1.508500
      vertex 2.236300 1.021300 1.508500
      vertex 2.262200 0.725000 -1.508500
    endloop
  endfacet
  facet normal 0.000000e+00 9.994555e-01 -3.299494e-02
    outer loop
      vertex 0.000000 2.458500 1.508500
      vertex 0.692600 2.358900 -1.508500
      vertex 0.000000 2.358900 -1.508500
    endloop
  endfacet
  facet normal 2.815870e-01 9.589686e-01 3.298440e-02
    outer loop
      vertex 1.329200 2.068200 1.508500
      vertex 0.692600 2.358900 -1.508500
      vertex 0.000000 2.458500 1.508500
    endloop
  endfacet
  facet normal 5.402814e-01 8.408377e-01 -3.298361e-02
    outer loop
      vertex 0.692600 2.358900 -1.508500
      vertex 1.329200 2.068200 1.508500
      vertex 1.393400 1.908600 -1.508500
    endloop
  endfacet
  facet normal -7.556318e-01 6.547337e-01 -1.855614e-02
    outer loop
      vertex -1.329200 2.068200 1.508500
      vertex -1.393400 1.908600 -1.508500
      vertex -1.418100 1.965600 1.508500
    endloop
  endfacet
  facet normal 0.000000e+00 9.994555e-01 -3.299494e-02
    outer loop
      vertex -0.692600 2.358900 -1.508500
      vertex 0.000000 2.458500 1.508500
      vertex 0.000000 2.358900 -1.508500
    endloop
  endfacet
  facet normal -2.815870e-01 9.589686e-01 3.298440e-02
    outer loop
      vertex -0.692600 2.358900 -1.508500
      vertex -1.329200 2.068200 1.508500
      vertex 0.000000 2.458500 1.508500
    endloop
  endfacet
  facet normal -9.898099e-01 1.422900e-01 -5.477115e-03
    outer loop
      vertex -2.236300 1.021300 1.508500
      vertex -2.262200 0.725000 -1.508500
      vertex -2.275200 0.750700 1.508500
    endloop
  endfacet
  facet normal -5.405545e-01 8.410637e-01 -2.031563e-02
    outer loop
      vertex -1.858000 1.610000 -1.508500
      vertex -1.418100 1.965600 1.508500
      vertex -1.393400 1.908600 -1.508500
    endloop
  endfacet
  facet normal -7.553542e-01 6.544856e-01 3.299477e-02
    outer loop
      vertex -1.858000 1.610000 -1.508500
      vertex -2.236300 1.021300 1.508500
      vertex -1.418100 1.965600 1.508500
    endloop
  endfacet
  facet normal -9.096089e-01 4.153987e-01 -7.457984e-03
    outer loop
      vertex -2.433500 0.349900 -1.508500
      vertex -2.275200 0.750700 1.508500
      vertex -2.262200 0.725000 -1.508500
    endloop
  endfacet
  facet normal -9.096089e-01 -4.153987e-01 7.457984e-03
    outer loop
      vertex -2.433500 -0.349900 1.508500
      vertex -2.275200 -0.750700 -1.508500
      vertex -2.262200 -0.725000 1.508500
    endloop
  endfacet
  facet normal -9.892749e-01 1.422880e-01 3.300402e-02
    outer loop
      vertex -2.433500 0.349900 -1.508500
      vertex -2.433500 -0.349900 1.508500
      vertex -2.275200 0.750700 1.508500
    endloop
  endfacet
  facet normal -6.563736e-01 -2.997810e-01 -6.923186e-01
    outer loop
      vertex -2.267200 -1.964600 2.050000
      vertex -2.262200 -0.725000 1.508500
      vertex -1.858000 -1.610000 1.508500
    endloop
  endfacet
  facet normal -3.900403e-01 -6.070181e-01 -6.923855e-01
    outer loop
      vertex -0.845200 -2.878500 2.050000
      vertex -1.393400 -1.908600 1.508500
      vertex -0.692600 -2.358900 1.508500
    endloop
  endfacet
  facet normal 3.901364e-01 -6.070240e-01 -6.923261e-01
    outer loop
      vertex 2.267200 -1.964600 2.050000
      vertex 1.393400 -1.908600 1.508500
      vertex 1.858000 -1.610000 1.508500
    endloop
  endfacet
  facet normal 6.563737e-01 -2.997517e-01 -6.923312e-01
    outer loop
      vertex 2.969500 -0.426900 2.050000
      vertex 2.262200 -0.725000 1.508500
      vertex 2.433500 -0.349900 1.508500
    endloop
  endfacet
  facet normal 7.142122e-01 1.026715e-01 -6.923579e-01
    outer loop
      vertex 2.728900 1.246200 2.050000
      vertex 2.275200 0.750700 1.508500
      vertex 2.236300 1.021300 1.508500
    endloop
  endfacet
  facet normal 5.453380e-01 4.725201e-01 -6.923375e-01
    outer loop
      vertex 1.621900 2.523800 2.050000
      vertex 1.418100 1.965600 1.508500
      vertex 1.329200 2.068200 1.508500
    endloop
  endfacet
  facet normal 2.032956e-01 6.923404e-01 -6.923407e-01
    outer loop
      vertex 0.000000 3.000000 2.050000
      vertex 1.329200 2.068200 1.508500
      vertex 0.000000 2.458500 1.508500
    endloop
  endfacet
  facet normal 6.563736e-01 -2.997810e-01 -6.923186e-01
    outer loop
      vertex 2.262200 -0.725000 1.508500
      vertex 2.267200 -1.964600 2.050000
      vertex 1.858000 -1.610000 1.508500
    endloop
  endfacet
  facet normal 7.141934e-01 1.027046e-01 -6.923724e-01
    outer loop
      vertex 2.969500 -0.426900 2.050000
      vertex 2.275200 0.750700 1.508500
      vertex 2.728900 1.246200 2.050000
    endloop
  endfacet
  facet normal 7.142117e-01 1.027255e-01 -6.923504e-01
    outer loop
      vertex 2.275200 0.750700 1.508500
      vertex 2.969500 -0.426900 2.050000
      vertex 2.433500 -0.349900 1.508500
    endloop
  endfacet
  facet normal 5.453393e-01 4.725192e-01 -6.923371e-01
    outer loop
      vertex 2.728900 1.246200 2.050000
      vertex 1.418100 1.965600 1.508500
      vertex 1.621900 2.523800 2.050000
    endloop
  endfacet
  facet normal 5.453385e-01 4.725150e-01 -6.923406e-01
    outer loop
      vertex 1.418100 1.965600 1.508500
      vertex 2.728900 1.246200 2.050000
      vertex 2.236300 1.021300 1.508500
    endloop
  endfacet
  facet normal 2.032694e-01 6.923196e-01 -6.923692e-01
    outer loop
      vertex 1.329200 2.068200 1.508500
      vertex 0.000000 3.000000 2.050000
      vertex 1.621900 2.523800 2.050000
    endloop
  endfacet
  facet normal 1.011244e-01 -7.034582e-01 -7.035059e-01
    outer loop
      vertex 0.000000 -3.000000 2.050000
      vertex 0.692600 -2.358900 1.508500
      vertex 0.845200 -2.878500 2.050000
    endloop
  endfacet
  facet normal -7.142117e-01 1.027255e-01 -6.923504e-01
    outer loop
      vertex -2.969500 -0.426900 2.050000
      vertex -2.275200 0.750700 1.508500
      vertex -2.433500 -0.349900 1.508500
    endloop
  endfacet
  facet normal -5.453385e-01 4.725150e-01 -6.923406e-01
    outer loop
      vertex -2.728900 1.246200 2.050000
      vertex -1.418100 1.965600 1.508500
      vertex -2.236300 1.021300 1.508500
    endloop
  endfacet
  facet normal -2.032871e-01 6.923116e-01 -6.923721e-01
    outer loop
      vertex -1.621900 2.523800 2.050000
      vertex 0.000000 2.458500 1.508500
      vertex -1.329200 2.068200 1.508500
    endloop
  endfacet
  facet normal -2.032763e-01 6.923432e-01 -6.923435e-01
    outer loop
      vertex 0.000000 2.458500 1.508500
      vertex -1.621900 2.523800 2.050000
      vertex 0.000000 3.000000 2.050000
    endloop
  endfacet
  facet normal -5.453380e-01 4.725201e-01 -6.923375e-01
    outer loop
      vertex -1.418100 1.965600 1.508500
      vertex -1.621900 2.523800 2.050000
      vertex -1.329200 2.068200 1.508500
    endloop
  endfacet
  facet normal -5.453393e-01 4.725192e-01 -6.923371e-01
    outer loop
      vertex -1.418100 1.965600 1.508500
      vertex -2.728900 1.246200 2.050000
      vertex -1.621900 2.523800 2.050000
    endloop
  endfacet
  facet normal -7.142122e-01 1.026715e-01 -6.923579e-01
    outer loop
      vertex -2.275200 0.750700 1.508500
      vertex -2.728900 1.246200 2.050000
      vertex -2.236300 1.021300 1.508500
    endloop
  endfacet
  facet normal -7.141934e-01 1.027046e-01 -6.923724e-01
    outer loop
      vertex -2.275200 0.750700 1.508500
      vertex -2.969500 -0.426900 2.050000
      vertex -2.728900 1.246200 2.050000
    endloop
  endfacet
  facet normal -6.563737e-01 -2.997517e-01 -6.923312e-01
    outer loop
      vertex -2.262200 -0.725000 1.508500
      vertex -2.969500 -0.426900 2.050000
      vertex -2.433500 -0.349900 1.508500
    endloop
  endfacet
  facet normal -6.563752e-01 -2.997804e-01 -6.923173e-01
    outer loop
      vertex -2.262200 -0.725000 1.508500
      vertex -2.267200 -1.964600 2.050000
      vertex -2.969500 -0.426900 2.050000
    endloop
  endfacet
  facet normal -3.901364e-01 -6.070240e-01 -6.923261e-01
    outer loop
      vertex -1.393400 -1.908600 1.508500
      vertex -2.267200 -1.964600 2.050000
      vertex -1.858000 -1.610000 1.508500
    endloop
  endfacet
  facet normal -3.901321e-01 -6.070335e-01 -6.923202e-01
    outer loop
      vertex -1.393400 -1.908600 1.508500
      vertex -0.845200 -2.878500 2.050000
      vertex -2.267200 -1.964600 2.050000
    endloop
  endfacet
  facet normal -1.011277e-01 -7.034816e-01 -7.034819e-01
    outer loop
      vertex -0.845200 -2.878500 2.050000
      vertex 0.000000 -2.458500 1.508500
      vertex 0.000000 -3.000000 2.050000
    endloop
  endfacet
  facet normal -1.011603e-01 -7.034503e-01 -7.035085e-01
    outer loop
      vertex 0.000000 -2.458500 1.508500
      vertex -0.845200 -2.878500 2.050000
      vertex -0.692600 -2.358900 1.508500
    endloop
  endfacet
  facet normal 1.011644e-01 -7.034790e-01 -7.034793e-01
    outer loop
      vertex 0.692600 -2.358900 1.508500
      vertex 0.000000 -3.000000 2.050000
      vertex 0.000000 -2.458500 1.508500
    endloop
  endfacet
  facet normal 3.901321e-01 -6.070335e-01 -6.923202e-01
    outer loop
      vertex 0.845200 -2.878500 2.050000
      vertex 1.393400 -1.908600 1.508500
      vertex 2.267200 -1.964600 2.050000
    endloop
  endfacet
  facet normal 3.900403e-01 -6.070181e-01 -6.923855e-01
    outer loop
      vertex 1.393400 -1.908600 1.508500
      vertex 0.845200 -2.878500 2.050000
      vertex 0.692600 -2.358900 1.508500
    endloop
  endfacet
  facet normal 6.563752e-01 -2.997804e-01 -6.923173e-01
    outer loop
      vertex 2.267200 -1.964600 2.050000
      vertex 2.262200 -0.725000 1.508500
      vertex 2.969500 -0.426900 2.050000
    endloop
  endfacet
  facet normal -2.121117e-01 0.000000e+00 9.772454e-01
    outer loop
      vertex 3.418000 -10.000000 -1.870000
      vertex 2.588700 -1.516100 -2.050000
      vertex 2.588700 -10.000000 -2.050000
    endloop
  endfacet
  facet normal -2.130180e-01 4.386432e-03 9.770384e-01
    outer loop
      vertex 3.418000 -10.000000 -1.870000
      vertex 2.962000 0.130500 -2.014900
      vertex 2.881400 -0.754400 -2.028500
    endloop
  endfacet
  facet normal -3.028415e-01 0.000000e+00 9.530409e-01
    outer loop
      vertex 3.418000 10.000000 -1.870000
      vertex 2.962000 0.130500 -2.014900
      vertex 3.418000 -10.000000 -1.870000
    endloop
  endfacet
  facet normal -1.579704e-01 -7.425797e-03 9.874159e-01
    outer loop
      vertex 3.418000 10.000000 -1.870000
      vertex 2.933800 0.421300 -2.019500
      vertex 2.943900 0.379300 -2.018200
    endloop
  endfacet
  facet normal -9.865018e-02 -1.210548e-02 9.950485e-01
    outer loop
      vertex 3.418000 10.000000 -1.870000
      vertex 2.708600 1.281300 -2.046400
      vertex 2.751400 1.179100 -2.043400
    endloop
  endfacet
  facet normal -5.995979e-02 -1.531494e-02 9.980833e-01
    outer loop
      vertex 3.418000 10.000000 -1.870000
      vertex 2.588700 1.516100 -2.050000
      vertex 2.708600 1.281300 -2.046400
    endloop
  endfacet
  facet normal -2.121117e-01 0.000000e+00 9.772454e-01
    outer loop
      vertex 2.588700 1.516100 -2.050000
      vertex 3.418000 10.000000 -1.870000
      vertex 2.588700 10.000000 -2.050000
    endloop
  endfacet
  facet normal -1.597928e-01 -7.329106e-03 9.871234e-01
    outer loop
      vertex 2.933800 0.421300 -2.019500
      vertex 3.418000 10.000000 -1.870000
      vertex 2.751400 1.179100 -2.043400
    endloop
  endfacet
  facet normal -2.286999e-01 -3.725781e-03 9.734898e-01
    outer loop
      vertex 2.962000 0.130500 -2.014900
      vertex 3.418000 10.000000 -1.870000
      vertex 2.943900 0.379300 -2.018200
    endloop
  endfacet
  facet normal -1.019313e-01 1.113700e-02 9.947291e-01
    outer loop
      vertex 2.697300 -1.233600 -2.042000
      vertex 3.418000 -10.000000 -1.870000
      vertex 2.881400 -0.754400 -2.028500
    endloop
  endfacet
  facet normal -1.021898e-01 1.111524e-02 9.947028e-01
    outer loop
      vertex 2.588700 -1.516100 -2.050000
      vertex 3.418000 -10.000000 -1.870000
      vertex 2.697300 -1.233600 -2.042000
    endloop
  endfacet
  facet normal -5.981884e-01 0.000000e+00 8.013555e-01
    outer loop
      vertex 4.098000 -10.000000 -1.362400
      vertex 3.418000 10.000000 -1.870000
      vertex 3.418000 -10.000000 -1.870000
    endloop
  endfacet
  facet normal -5.981884e-01 0.000000e+00 8.013555e-01
    outer loop
      vertex 3.418000 10.000000 -1.870000
      vertex 4.098000 -10.000000 -1.362400
      vertex 4.098000 10.000000 -1.362400
    endloop
  endfacet
  facet normal 0.000000e+00 0.000000e+00 1.000000e+00
    outer loop
      vertex -2.267200 1.964600 -2.050000
      vertex -2.588700 10.000000 -2.050000
      vertex -2.588700 1.516100 -2.050000
    endloop
  endfacet
  facet normal 0.000000e+00 -0.000000e+00 1.000000e+00
    outer loop
      vertex 2.267200 1.964600 -2.050000
      vertex 2.588700 10.000000 -2.050000
      vertex 0.845200 2.878500 -2.050000
    endloop
  endfacet
  facet normal 0.000000e+00 0.000000e+00 1.000000e+00
    outer loop
      vertex -2.588700 10.000000 -2.050000
      vertex -2.267200 1.964600 -2.050000
      vertex -0.845200 2.878500 -2.050000
    endloop
  endfacet
  facet normal 0.000000e+00 0.000000e+00 1.000000e+00
    outer loop
      vertex 2.588700 10.000000 -2.050000
      vertex -0.845200 2.878500 -2.050000
      vertex 0.845200 2.878500 -2.050000
    endloop
  endfacet
  facet normal 0.000000e+00 -0.000000e+00 1.000000e+00
    outer loop
      vertex -0.845200 2.878500 -2.050000
      vertex 2.588700 10.000000 -2.050000
      vertex -2.588700 10.000000 -2.050000
    endloop
  endfacet
  facet normal 0.000000e+00 0.000000e+00 1.000000e+00
    outer loop
      vertex 2.588700 10.000000 -2.050000
      vertex 2.267200 1.964600 -2.050000
      vertex 2.588700 1.516100 -2.050000
    endloop
  endfacet
  facet normal 0.000000e+00 0.000000e+00 1.000000e+00
    outer loop
      vertex -1.621900 -2.523800 -2.050000
      vertex -2.588700 -10.000000 -2.050000
      vertex 0.000000 -3.000000 -2.050000
    endloop
  endfacet
  facet normal -0.000000e+00 0.000000e+00 1.000000e+00
    outer loop
      vertex 1.621900 -2.523800 -2.050000
      vertex 2.588700 -10.000000 -2.050000
      vertex 2.588700 -1.516100 -2.050000
    endloop
  endfacet
  facet normal 0.000000e+00 0.000000e+00 1.000000e+00
    outer loop
      vertex 2.588700 -10.000000 -2.050000
      vertex 0.000000 -3.000000 -2.050000
      vertex -2.588700 -10.000000 -2.050000
    endloop
  endfacet
  facet normal 0.000000e+00 0.000000e+00 1.000000e+00
    outer loop
      vertex -2.588700 -10.000000 -2.050000
      vertex -1.621900 -2.523800 -2.050000
      vertex -2.588700 -1.516100 -2.050000
    endloop
  endfacet
  facet normal -0.000000e+00 0.000000e+00 1.000000e+00
    outer loop
      vertex 0.000000 -3.000000 -2.050000
      vertex 2.588700 -10.000000 -2.050000
      vertex 1.621900 -2.523800 -2.050000
    endloop
  endfacet
  facet normal 1.020325e-01 -1.113096e-02 9.947188e-01
    outer loop
      vertex -2.588700 1.516100 -2.050000
      vertex -3.418000 10.000000 -1.870000
      vertex -2.881400 0.754400 -2.028500
    endloop
  endfacet
  facet normal 2.121117e-01 0.000000e+00 9.772454e-01
    outer loop
      vertex -2.588700 -1.516100 -2.050000
      vertex -3.418000 -10.000000 -1.870000
      vertex -2.588700 -10.000000 -2.050000
    endloop
  endfacet
  facet normal 2.286999e-01 3.725781e-03 9.734898e-01
    outer loop
      vertex -2.962000 -0.130500 -2.014900
      vertex -3.418000 -10.000000 -1.870000
      vertex -2.943900 -0.379300 -2.018200
    endloop
  endfacet
  facet normal 9.896576e-02 1.207918e-02 9.950175e-01
    outer loop
      vertex -2.724200 -1.244100 -2.045300
      vertex -3.418000 -10.000000 -1.870000
      vertex -2.708600 -1.281300 -2.046400
    endloop
  endfacet
  facet normal 5.981884e-01 0.000000e+00 8.013555e-01
    outer loop
      vertex -4.098000 10.000000 -1.362400
      vertex -3.418000 -10.000000 -1.870000
      vertex -3.418000 10.000000 -1.870000
    endloop
  endfacet
  facet normal 5.995979e-02 1.531494e-02 9.980833e-01
    outer loop
      vertex -3.418000 -10.000000 -1.870000
      vertex -2.588700 -1.516100 -2.050000
      vertex -2.708600 -1.281300 -2.046400
    endloop
  endfacet
  facet normal 5.981884e-01 0.000000e+00 8.013555e-01
    outer loop
      vertex -3.418000 -10.000000 -1.870000
      vertex -4.098000 10.000000 -1.362400
      vertex -4.098000 -10.000000 -1.362400
    endloop
  endfacet
  facet normal 9.846712e-02 1.211967e-02 9.950665e-01
    outer loop
      vertex -3.418000 -10.000000 -1.870000
      vertex -2.724200 -1.244100 -2.045300
      vertex -2.751400 -1.179100 -2.043400
    endloop
  endfacet
  facet normal 1.597048e-01 7.336038e-03 9.871376e-01
    outer loop
      vertex -3.418000 -10.000000 -1.870000
      vertex -2.751400 -1.179100 -2.043400
      vertex -2.943900 -0.379300 -2.018200
    endloop
  endfacet
  facet normal 3.028415e-01 -0.000000e+00 9.530409e-01
    outer loop
      vertex -3.418000 -10.000000 -1.870000
      vertex -2.962000 -0.130500 -2.014900
      vertex -3.418000 10.000000 -1.870000
    endloop
  endfacet
  facet normal 2.143641e-01 -4.303264e-03 9.767443e-01
    outer loop
      vertex -3.418000 10.000000 -1.870000
      vertex -2.911800 0.420300 -2.023300
      vertex -2.881400 0.754400 -2.028500
    endloop
  endfacet
  facet normal 2.121117e-01 0.000000e+00 9.772454e-01
    outer loop
      vertex -3.418000 10.000000 -1.870000
      vertex -2.588700 1.516100 -2.050000
      vertex -2.588700 10.000000 -2.050000
    endloop
  endfacet
  facet normal 2.121236e-01 -4.429471e-03 9.772328e-01
    outer loop
      vertex -2.911800 0.420300 -2.023300
      vertex -3.418000 10.000000 -1.870000
      vertex -2.962000 -0.130500 -2.014900
    endloop
  endfacet
  facet normal 0.000000e+00 0.000000e+00 -1.000000e+00
    outer loop
      vertex -1.621900 2.523800 2.050000
      vertex -4.050000 10.000000 2.050000
      vertex 0.000000 3.000000 2.050000
    endloop
  endfacet
  facet normal 0.000000e+00 0.000000e+00 -1.000000e+00
    outer loop
      vertex 0.000000 3.000000 2.050000
      vertex 4.050000 10.000000 2.050000
      vertex 1.621900 2.523800 2.050000
    endloop
  endfacet
  facet normal 0.000000e+00 0.000000e+00 -1.000000e+00
    outer loop
      vertex 2.969500 -0.426900 2.050000
      vertex 4.050000 10.000000 2.050000
      vertex 4.050000 -10.000000 2.050000
    endloop
  endfacet
  facet normal 0.000000e+00 0.000000e+00 -1.000000e+00
    outer loop
      vertex 4.050000 -10.000000 2.050000
      vertex 0.000000 -3.000000 2.050000
      vertex 0.845200 -2.878500 2.050000
    endloop
  endfacet
  facet normal -0.000000e+00 0.000000e+00 -1.000000e+00
    outer loop
      vertex 4.050000 10.000000 2.050000
      vertex 0.000000 3.000000 2.050000
      vertex -4.050000 10.000000 2.050000
    endloop
  endfacet
  facet normal 0.000000e+00 0.000000e+00 -1.000000e+00
    outer loop
      vertex 4.050000 10.000000 2.050000
      vertex 2.969500 -0.426900 2.050000
      vertex 2.728900 1.246200 2.050000
    endloop
  endfacet
  facet normal -0.000000e+00 -0.000000e+00 -1.000000e+00
    outer loop
      vertex -0.845200 -2.878500 2.050000
      vertex 4.050000 -10.000000 2.050000
      vertex -2.267200 -1.964600 2.050000
    endloop
  endfacet
  facet normal 0.000000e+00 0.000000e+00 -1.000000e+00
    outer loop
      vertex 4.050000 10.000000 2.050000
      vertex 2.728900 1.246200 2.050000
      vertex 1.621900 2.523800 2.050000
    endloop
  endfacet
  facet normal 0.000000e+00 0.000000e+00 -1.000000e+00
    outer loop
      vertex 4.050000 -10.000000 2.050000
      vertex 0.845200 -2.878500 2.050000
      vertex 2.267200 -1.964600 2.050000
    endloop
  endfacet
  facet normal 0.000000e+00 0.000000e+00 -1.000000e+00
    outer loop
      vertex 4.050000 -10.000000 2.050000
      vertex 2.267200 -1.964600 2.050000
      vertex 2.969500 -0.426900 2.050000
    endloop
  endfacet
  facet normal 0.000000e+00 0.000000e+00 -1.000000e+00
    outer loop
      vertex -4.050000 -10.000000 2.050000
      vertex -2.267200 -1.964600 2.050000
      vertex 4.050000 -10.000000 2.050000
    endloop
  endfacet
  facet normal 0.000000e+00 0.000000e+00 -1.000000e+00
    outer loop
      vertex -2.728900 1.246200 2.050000
      vertex -4.050000 10.000000 2.050000
      vertex -1.621900 2.523800 2.050000
    endloop
  endfacet
  facet normal 0.000000e+00 0.000000e+00 -1.000000e+00
    outer loop
      vertex -4.050000 10.000000 2.050000
      vertex -2.969500 -0.426900 2.050000
      vertex -4.050000 -10.000000 2.050000
    endloop
  endfacet
  facet normal 0.000000e+00 0.000000e+00 -1.000000e+00
    outer loop
      vertex -2.969500 -0.426900 2.050000
      vertex -4.050000 10.000000 2.050000
      vertex -2.728900 1.246200 2.050000
    endloop
  endfacet
  facet normal -0.000000e+00 0.000000e+00 -1.000000e+00
    outer loop
      vertex -2.267200 -1.964600 2.050000
      vertex -4.050000 -10.000000 2.050000
      vertex -2.969500 -0.426900 2.050000
    endloop
  endfacet
  facet normal -0.000000e+00 -0.000000e+00 -1.000000e+00
    outer loop
      vertex 0.000000 -3.000000 2.050000
      vertex 4.050000 -10.000000 2.050000
      vertex -0.845200 -2.878500 2.050000
    endloop
  endfacet
  facet normal -3.825366e-01 0.000000e+00 -9.239403e-01
    outer loop
      vertex 5.000000 -10.000000 0.750000
      vertex 5.353600 10.000000 0.603600
      vertex 5.353600 -10.000000 0.603600
    endloop
  endfacet
  facet normal -3.825366e-01 0.000000e+00 -9.239403e-01
    outer loop
      vertex 5.353600 10.000000 0.603600
      vertex 5.000000 -10.000000 0.750000
      vertex 5.000000 10.000000 0.750000
    endloop
  endfacet
  facet normal -9.239401e-01 0.000000e+00 -3.825371e-01
    outer loop
      vertex 5.500000 10.000000 0.250000
      vertex 5.353600 -10.000000 0.603600
      vertex 5.353600 10.000000 0.603600
    endloop
  endfacet
  facet normal -9.239401e-01 0.000000e+00 -3.825371e-01
    outer loop
      vertex 5.353600 -10.000000 0.603600
      vertex 5.500000 10.000000 0.250000
      vertex 5.500000 -10.000000 0.250000
    endloop
  endfacet
  facet normal -7.546256e-01 0.000000e+00 6.561556e-01
    outer loop
      vertex 4.098000 10.000000 -1.362400
      vertex 5.500000 -10.000000 0.250000
      vertex 5.500000 10.000000 0.250000
    endloop
  endfacet
  facet normal -7.546256e-01 0.000000e+00 6.561556e-01
    outer loop
      vertex 5.500000 -10.000000 0.250000
      vertex 4.098000 10.000000 -1.362400
      vertex 4.098000 -10.000000 -1.362400
    endloop
  endfacet
  facet normal 7.546256e-01 0.000000e+00 6.561556e-01
    outer loop
      vertex -5.500000 10.000000 0.250000
      vertex -4.098000 -10.000000 -1.362400
      vertex -4.098000 10.000000 -1.362400
    endloop
  endfacet
  facet normal 7.546256e-01 0.000000e+00 6.561556e-01
    outer loop
      vertex -4.098000 -10.000000 -1.362400
      vertex -5.500000 10.000000 0.250000
      vertex -5.500000 -10.000000 0.250000
    endloop
  endfacet
  facet normal 3.825366e-01 0.000000e+00 -9.239403e-01
    outer loop
      vertex -5.000000 10.000000 0.750000
      vertex -5.353600 -10.000000 0.603600
      vertex -5.353600 10.000000 0.603600
    endloop
  endfacet
  facet normal 3.825366e-01 0.000000e+00 -9.239403e-01
    outer loop
      vertex -5.353600 -10.000000 0.603600
      vertex -5.000000 10.000000 0.750000
      vertex -5.000000 -10.000000 0.750000
    endloop
  endfacet
  facet normal 9.239401e-01 0.000000e+00 -3.825371e-01
    outer loop
      vertex -5.500000 -10.000000 0.250000
      vertex -5.353600 10.000000 0.603600
      vertex -5.353600 -10.000000 0.603600
    endloop
  endfacet
  facet normal 9.239401e-01 0.000000e+00 -3.825371e-01
    outer loop
      vertex -5.353600 10.000000 0.603600
      vertex -5.500000 -10.000000 0.250000
      vertex -5.500000 10.000000 0.250000
    endloop
  endfacet
  facet normal 0.000000e+00 0.000000e+00 -1.000000e+00
    outer loop
      vertex -5.000000 -10.000000 0.750000
      vertex -4.050000 10.000000 0.750000
      vertex -4.050000 -10.000000 0.750000
    endloop
  endfacet
  facet normal -0.000000e+00 0.000000e+00 -1.000000e+00
    outer loop
      vertex -4.050000 10.000000 0.750000
      vertex -5.000000 -10.000000 0.750000
      vertex -5.000000 10.000000 0.750000
    endloop
  endfacet
  facet normal 1.000000e+00 0.000000e+00 0.000000e+00
    outer loop
      vertex -4.050000 -10.000000 0.750000
      vertex -4.050000 10.000000 2.050000
      vertex -4.050000 -10.000000 2.050000
    endloop
  endfacet
  facet normal 1.000000e+00 0.000000e+00 0.000000e+00
    outer loop
      vertex -4.050000 10.000000 2.050000
      vertex -4.050000 -10.000000 0.750000
      vertex -4.050000 10.000000 0.750000
    endloop
  endfacet
  facet normal -1.000000e+00 0.000000e+00 0.000000e+00
    outer loop
      vertex 4.050000 -10.000000 2.050000
      vertex 4.050000 10.000000 0.750000
      vertex 4.050000 -10.000000 0.750000
    endloop
  endfacet
  facet normal -1.000000e+00 0.000000e+00 0.000000e+00
    outer loop
      vertex 4.050000 10.000000 0.750000
      vertex 4.050000 -10.000000 2.050000
      vertex 4.050000 10.000000 2.050000
    endloop
  endfacet
  facet normal 0.000000e+00 0.000000e+00 -1.000000e+00
    outer loop
      vertex 4.050000 -10.000000 0.750000
      vertex 5.000000 10.000000 0.750000
      vertex 5.000000 -10.000000 0.750000
    endloop
  endfacet
  facet normal -0.000000e+00 0.000000e+00 -1.000000e+00
    outer loop
      vertex 5.000000 10.000000 0.750000
      vertex 4.050000 -10.000000 0.750000
      vertex 4.050000 10.000000 0.750000
    endloop
  endfacet
  facet normal -0.000000e+00 1.000000e+00 -0.000000e+00
    outer loop
      vertex -3.418000 -10.000000 -1.870000
      vertex -4.050000 -10.000000 0.750000
      vertex -2.588700 -10.000000 -2.050000
    endloop
  endfacet
  facet normal 0.000000e+00 1.000000e+00 0.000000e+00
    outer loop
      vertex 4.050000 -10.000000 2.050000
      vertex -4.050000 -10.000000 0.750000
      vertex -4.050000 -10.000000 2.050000
    endloop
  endfacet
  facet normal 0.000000e+00 1.000000e+00 0.000000e+00
    outer loop
      vertex -4.050000 -10.000000 0.750000
      vertex -3.418000 -10.000000 -1.870000
      vertex -4.098000 -10.000000 -1.362400
    endloop
  endfacet
  facet normal 0.000000e+00 1.000000e+00 -0.000000e+00
    outer loop
      vertex -4.098000 -10.000000 -1.362400
      vertex -5.000000 -10.000000 0.750000
      vertex -4.050000 -10.000000 0.750000
    endloop
  endfacet
  facet normal 0.000000e+00 1.000000e+00 -0.000000e+00
    outer loop
      vertex 2.588700 -10.000000 -2.050000
      vertex -4.050000 -10.000000 0.750000
      vertex 4.050000 -10.000000 0.750000
    endloop
  endfacet
  facet normal 0.000000e+00 1.000000e+00 0.000000e+00
    outer loop
      vertex -4.098000 -10.000000 -1.362400
      vertex -5.353600 -10.000000 0.603600
      vertex -5.000000 -10.000000 0.750000
    endloop
  endfacet
  facet normal 0.000000e+00 1.000000e+00 0.000000e+00
    outer loop
      vertex -4.050000 -10.000000 0.750000
      vertex 2.588700 -10.000000 -2.050000
      vertex -2.588700 -10.000000 -2.050000
    endloop
  endfacet
  facet normal 0.000000e+00 1.000000e+00 0.000000e+00
    outer loop
      vertex 4.098000 -10.000000 -1.362400
      vertex 5.353600 -10.000000 0.603600
      vertex 5.500000 -10.000000 0.250000
    endloop
  endfacet
  facet normal 0.000000e+00 1.000000e+00 0.000000e+00
    outer loop
      vertex -5.353600 -10.000000 0.603600
      vertex -4.098000 -10.000000 -1.362400
      vertex -5.500000 -10.000000 0.250000
    endloop
  endfacet
  facet normal 0.000000e+00 1.000000e+00 -0.000000e+00
    outer loop
      vertex 4.050000 -10.000000 0.750000
      vertex -4.050000 -10.000000 0.750000
      vertex 4.050000 -10.000000 2.050000
    endloop
  endfacet
  facet normal 0.000000e+00 1.000000e+00 0.000000e+00
    outer loop
      vertex 5.000000 -10.000000 0.750000
      vertex 4.098000 -10.000000 -1.362400
      vertex 4.050000 -10.000000 0.750000
    endloop
  endfacet
  facet normal 0.000000e+00 1.000000e+00 0.000000e+00
    outer loop
      vertex 3.418000 -10.000000 -1.870000
      vertex 4.050000 -10.000000 0.750000
      vertex 4.098000 -10.000000 -1.362400
    endloop
  endfacet
  facet normal 0.000000e+00 1.000000e+00 0.000000e+00
    outer loop
      vertex 5.353600 -10.000000 0.603600
      vertex 4.098000 -10.000000 -1.362400
      vertex 5.000000 -10.000000 0.750000
    endloop
  endfacet
  facet normal 0.000000e+00 1.000000e+00 0.000000e+00
    outer loop
      vertex 4.050000 -10.000000 0.750000
      vertex 3.418000 -10.000000 -1.870000
      vertex 2.588700 -10.000000 -2.050000
    endloop
  endfacet
  facet normal 0.000000e+00 -1.000000e+00 0.000000e+00
    outer loop
      vertex -5.353600 10.000000 0.603600
      vertex -4.098000 10.000000 -1.362400
      vertex -5.000000 10.000000 0.750000
    endloop
  endfacet
  facet normal 0.000000e+00 -1.000000e+00 0.000000e+00
    outer loop
      vertex -2.588700 10.000000 -2.050000
      vertex 4.050000 10.000000 0.750000
      vertex -4.050000 10.000000 0.750000
    endloop
  endfacet
  facet normal 0.000000e+00 -1.000000e+00 0.000000e+00
    outer loop
      vertex -3.418000 10.000000 -1.870000
      vertex -4.050000 10.000000 0.750000
      vertex -4.098000 10.000000 -1.362400
    endloop
  endfacet
  facet normal 0.000000e+00 -1.000000e+00 0.000000e+00
    outer loop
      vertex -5.000000 10.000000 0.750000
      vertex -4.098000 10.000000 -1.362400
      vertex -4.050000 10.000000 0.750000
    endloop
  endfacet
  facet normal 0.000000e+00 -1.000000e+00 0.000000e+00
    outer loop
      vertex -4.050000 10.000000 0.750000
      vertex 4.050000 10.000000 0.750000
      vertex -4.050000 10.000000 2.050000
    endloop
  endfacet
  facet normal 0.000000e+00 -1.000000e+00 0.000000e+00
    outer loop
      vertex -4.050000 10.000000 0.750000
      vertex -3.418000 10.000000 -1.870000
      vertex -2.588700 10.000000 -2.050000
    endloop
  endfacet
  facet normal 0.000000e+00 -1.000000e+00 0.000000e+00
    outer loop
      vertex 4.098000 10.000000 -1.362400
      vertex 5.000000 10.000000 0.750000
      vertex 4.050000 10.000000 0.750000
    endloop
  endfacet
  facet normal 0.000000e+00 -1.000000e+00 -0.000000e+00
    outer loop
      vertex 4.050000 10.000000 0.750000
      vertex 3.418000 10.000000 -1.870000
      vertex 4.098000 10.000000 -1.362400
    endloop
  endfacet
  facet normal 0.000000e+00 -1.000000e+00 0.000000e+00
    outer loop
      vertex -4.050000 10.000000 2.050000
      vertex 4.050000 10.000000 0.750000
      vertex 4.050000 10.000000 2.050000
    endloop
  endfacet
  facet normal -0.000000e+00 -1.000000e+00 0.000000e+00
    outer loop
      vertex 3.418000 10.000000 -1.870000
      vertex 4.050000 10.000000 0.750000
      vertex 2.588700 10.000000 -2.050000
    endloop
  endfacet
  facet normal 0.000000e+00 -1.000000e+00 0.000000e+00
    outer loop
      vertex 4.098000 10.000000 -1.362400
      vertex 5.353600 10.000000 0.603600
      vertex 5.000000 10.000000 0.750000
    endloop
  endfacet
  facet normal 0.000000e+00 -1.000000e+00 0.000000e+00
    outer loop
      vertex 4.050000 10.000000 0.750000
      vertex -2.588700 10.000000 -2.050000
      vertex 2.588700 10.000000 -2.050000
    endloop
  endfacet
  facet normal 0.000000e+00 -1.000000e+00 0.000000e+00
    outer loop
      vertex -4.098000 10.000000 -1.362400
      vertex -5.353600 10.000000 0.603600
      vertex -5.500000 10.000000 0.250000
    endloop
  endfacet
  facet normal 0.000000e+00 -1.000000e+00 -0.000000e+00
    outer loop
      vertex 5.353600 10.000000 0.603600
      vertex 4.098000 10.000000 -1.362400
      vertex 5.500000 10.000000 0.250000
    endloop
  endfacet
  facet normal -6.437169e-01 -9.258618e-02 7.596422e-01
    outer loop
      vertex -2.962000 -0.130500 -2.014900
      vertex -2.275200 -0.750700 -1.508500
      vertex -2.433500 0.349900 -1.508500
    endloop
  endfacet
  facet normal 3.900403e-01 6.070181e-01 6.923854e-01
    outer loop
      vertex 1.393400 1.908600 -1.508500
      vertex 0.845200 2.878500 -2.050000
      vertex 0.692600 2.358900 -1.508500
    endloop
  endfacet
  facet normal 3.901322e-01 6.070336e-01 6.923201e-01
    outer loop
      vertex 0.845200 2.878500 -2.050000
      vertex 1.393400 1.908600 -1.508500
      vertex 2.267200 1.964600 -2.050000
    endloop
  endfacet
  facet normal 0.000000e+00 7.215471e-01 6.923653e-01
    outer loop
      vertex 0.000000 2.358900 -1.508500
      vertex 0.845200 2.878500 -2.050000
      vertex -0.845200 2.878500 -2.050000
    endloop
  endfacet
  facet normal 0.000000e+00 7.215471e-01 6.923653e-01
    outer loop
      vertex 0.000000 2.358900 -1.508500
      vertex -0.845200 2.878500 -2.050000
      vertex -0.692600 2.358900 -1.508500
    endloop
  endfacet
  facet normal -3.901322e-01 6.070336e-01 6.923201e-01
    outer loop
      vertex -1.393400 1.908600 -1.508500
      vertex -0.845200 2.878500 -2.050000
      vertex -2.267200 1.964600 -2.050000
    endloop
  endfacet
  facet normal 2.032956e-01 -6.923405e-01 6.923407e-01
    outer loop
      vertex 0.000000 -3.000000 -2.050000
      vertex 1.329200 -2.068200 -1.508500
      vertex 0.000000 -2.458500 -1.508500
    endloop
  endfacet
  facet normal 3.901365e-01 6.070240e-01 6.923260e-01
    outer loop
      vertex 2.267200 1.964600 -2.050000
      vertex 1.393400 1.908600 -1.508500
      vertex 1.858000 1.610000 -1.508500
    endloop
  endfacet
  facet normal 0.000000e+00 7.215471e-01 6.923653e-01
    outer loop
      vertex 0.845200 2.878500 -2.050000
      vertex 0.000000 2.358900 -1.508500
      vertex 0.692600 2.358900 -1.508500
    endloop
  endfacet
  facet normal -3.900403e-01 6.070181e-01 6.923854e-01
    outer loop
      vertex -0.845200 2.878500 -2.050000
      vertex -1.393400 1.908600 -1.508500
      vertex -0.692600 2.358900 -1.508500
    endloop
  endfacet
  facet normal -2.032871e-01 -6.923116e-01 6.923720e-01
    outer loop
      vertex -1.621900 -2.523800 -2.050000
      vertex 0.000000 -2.458500 -1.508500
      vertex -1.329200 -2.068200 -1.508500
    endloop
  endfacet
  facet normal 5.453380e-01 -4.725201e-01 6.923375e-01
    outer loop
      vertex 1.621900 -2.523800 -2.050000
      vertex 1.418100 -1.965600 -1.508500
      vertex 1.329200 -2.068200 -1.508500
    endloop
  endfacet
  facet normal 6.698682e-01 -2.767607e-01 6.889703e-01
    outer loop
      vertex 2.881400 -0.754400 -2.028500
      vertex 2.236300 -1.021300 -1.508500
      vertex 2.697300 -1.233600 -2.042000
    endloop
  endfacet
  facet normal 6.599354e-01 3.013782e-01 6.882271e-01
    outer loop
      vertex 2.933800 0.421300 -2.019500
      vertex 2.262200 0.725000 -1.508500
      vertex 2.433500 0.349900 -1.508500
    endloop
  endfacet
  facet normal -6.142912e-01 2.571122e-01 7.460158e-01
    outer loop
      vertex -2.262200 0.725000 -1.508500
      vertex -2.588700 1.516100 -2.050000
      vertex -2.881400 0.754400 -2.028500
    endloop
  endfacet
  facet normal -6.578858e-01 -1.813741e-01 7.309512e-01
    outer loop
      vertex -2.275200 -0.750700 -1.508500
      vertex -2.943900 -0.379300 -2.018200
      vertex -2.751400 -1.179100 -2.043400
    endloop
  endfacet
  facet normal -5.108678e-01 -4.426475e-01 7.369378e-01
    outer loop
      vertex -2.588700 -1.516100 -2.050000
      vertex -1.418100 -1.965600 -1.508500
      vertex -2.236300 -1.021300 -1.508500
    endloop
  endfacet
  facet normal -5.453380e-01 -4.725201e-01 6.923375e-01
    outer loop
      vertex -1.418100 -1.965600 -1.508500
      vertex -1.621900 -2.523800 -2.050000
      vertex -1.329200 -2.068200 -1.508500
    endloop
  endfacet
  facet normal -6.446612e-01 -2.912428e-01 7.068165e-01
    outer loop
      vertex -2.708600 -1.281300 -2.046400
      vertex -2.236300 -1.021300 -1.508500
      vertex -2.724200 -1.244100 -2.045300
    endloop
  endfacet
  facet normal -6.246208e-01 -3.298140e-01 7.078641e-01
    outer loop
      vertex -2.588700 -1.516100 -2.050000
      vertex -2.236300 -1.021300 -1.508500
      vertex -2.708600 -1.281300 -2.046400
    endloop
  endfacet
  facet normal -5.140258e-01 -4.931627e-01 7.018319e-01
    outer loop
      vertex -1.418100 -1.965600 -1.508500
      vertex -2.588700 -1.516100 -2.050000
      vertex -1.621900 -2.523800 -2.050000
    endloop
  endfacet
  facet normal -6.449731e-01 -2.905556e-01 7.068148e-01
    outer loop
      vertex -2.236300 -1.021300 -1.508500
      vertex -2.751400 -1.179100 -2.043400
      vertex -2.724200 -1.244100 -2.045300
    endloop
  endfacet
  facet normal -7.016068e-01 -1.008594e-01 7.053902e-01
    outer loop
      vertex -2.751400 -1.179100 -2.043400
      vertex -2.236300 -1.021300 -1.508500
      vertex -2.275200 -0.750700 -1.508500
    endloop
  endfacet
  facet normal -7.252118e-01 7.653126e-02 6.842593e-01
    outer loop
      vertex -2.962000 -0.130500 -2.014900
      vertex -2.433500 0.349900 -1.508500
      vertex -2.911800 0.420300 -2.023300
    endloop
  endfacet
  facet normal -6.246708e-01 -5.577567e-02 7.788938e-01
    outer loop
      vertex -2.275200 -0.750700 -1.508500
      vertex -2.962000 -0.130500 -2.014900
      vertex -2.943900 -0.379300 -2.018200
    endloop
  endfacet
  facet normal 2.032694e-01 -6.923196e-01 6.923692e-01
    outer loop
      vertex 1.329200 -2.068200 -1.508500
      vertex 0.000000 -3.000000 -2.050000
      vertex 1.621900 -2.523800 -2.050000
    endloop
  endfacet
  facet normal -6.098645e-01 2.785119e-01 7.419545e-01
    outer loop
      vertex -2.881400 0.754400 -2.028500
      vertex -2.433500 0.349900 -1.508500
      vertex -2.262200 0.725000 -1.508500
    endloop
  endfacet
  facet normal -7.251987e-01 7.663650e-02 6.842614e-01
    outer loop
      vertex -2.433500 0.349900 -1.508500
      vertex -2.881400 0.754400 -2.028500
      vertex -2.911800 0.420300 -2.023300
    endloop
  endfacet
  facet normal -5.759399e-01 4.128533e-01 7.055816e-01
    outer loop
      vertex -2.588700 1.516100 -2.050000
      vertex -1.858000 1.610000 -1.508500
      vertex -2.267200 1.964600 -2.050000
    endloop
  endfacet
  facet normal -5.952796e-01 2.718780e-01 7.561247e-01
    outer loop
      vertex -2.588700 1.516100 -2.050000
      vertex -2.262200 0.725000 -1.508500
      vertex -1.858000 1.610000 -1.508500
    endloop
  endfacet
  facet normal 5.759399e-01 4.128533e-01 7.055816e-01
    outer loop
      vertex 1.858000 1.610000 -1.508500
      vertex 2.588700 1.516100 -2.050000
      vertex 2.267200 1.964600 -2.050000
    endloop
  endfacet
  facet normal 5.866642e-01 2.681176e-01 7.641584e-01
    outer loop
      vertex 2.708600 1.281300 -2.046400
      vertex 2.262200 0.725000 -1.508500
      vertex 2.751400 1.179100 -2.043400
    endloop
  endfacet
  facet normal 5.952796e-01 2.718780e-01 7.561247e-01
    outer loop
      vertex 2.262200 0.725000 -1.508500
      vertex 2.588700 1.516100 -2.050000
      vertex 1.858000 1.610000 -1.508500
    endloop
  endfacet
  facet normal 5.601638e-01 2.978974e-01 7.729642e-01
    outer loop
      vertex 2.588700 1.516100 -2.050000
      vertex 2.262200 0.725000 -1.508500
      vertex 2.708600 1.281300 -2.046400
    endloop
  endfacet
  facet normal 6.457021e-01 1.788312e-01 7.423531e-01
    outer loop
      vertex 2.262200 0.725000 -1.508500
      vertex 2.933800 0.421300 -2.019500
      vertex 2.751400 1.179100 -2.043400
    endloop
  endfacet
  facet normal 6.886943e-01 1.872947e-01 7.004433e-01
    outer loop
      vertex 2.433500 0.349900 -1.508500
      vertex 2.943900 0.379300 -2.018200
      vertex 2.933800 0.421300 -2.019500
    endloop
  endfacet
  facet normal 6.675830e-01 -9.601886e-02 7.383179e-01
    outer loop
      vertex 2.275200 -0.750700 -1.508500
      vertex 2.962000 0.130500 -2.014900
      vertex 2.433500 0.349900 -1.508500
    endloop
  endfacet
  facet normal 6.491987e-01 -7.077072e-02 7.573193e-01
    outer loop
      vertex 2.962000 0.130500 -2.014900
      vertex 2.275200 -0.750700 -1.508500
      vertex 2.881400 -0.754400 -2.028500
    endloop
  endfacet
  facet normal 7.035746e-01 6.057606e-02 7.080348e-01
    outer loop
      vertex 2.943900 0.379300 -2.018200
      vertex 2.433500 0.349900 -1.508500
      vertex 2.962000 0.130500 -2.014900
    endloop
  endfacet
  facet normal 6.479222e-01 -9.314198e-02 7.559904e-01
    outer loop
      vertex 2.236300 -1.021300 -1.508500
      vertex 2.881400 -0.754400 -2.028500
      vertex 2.275200 -0.750700 -1.508500
    endloop
  endfacet
  facet normal 6.697696e-01 -2.769871e-01 6.889752e-01
    outer loop
      vertex 2.236300 -1.021300 -1.508500
      vertex 2.588700 -1.516100 -2.050000
      vertex 2.697300 -1.233600 -2.042000
    endloop
  endfacet
  facet normal 5.140258e-01 -4.931627e-01 7.018319e-01
    outer loop
      vertex 2.588700 -1.516100 -2.050000
      vertex 1.418100 -1.965600 -1.508500
      vertex 1.621900 -2.523800 -2.050000
    endloop
  endfacet
  facet normal 5.108678e-01 -4.426475e-01 7.369378e-01
    outer loop
      vertex 1.418100 -1.965600 -1.508500
      vertex 2.588700 -1.516100 -2.050000
      vertex 2.236300 -1.021300 -1.508500
    endloop
  endfacet
  facet normal -2.032763e-01 -6.923433e-01 6.923435e-01
    outer loop
      vertex 0.000000 -2.458500 -1.508500
      vertex -1.621900 -2.523800 -2.050000
      vertex 0.000000 -3.000000 -2.050000
    endloop
  endfacet
  facet normal -3.901365e-01 6.070240e-01 6.923260e-01
    outer loop
      vertex -1.393400 1.908600 -1.508500
      vertex -2.267200 1.964600 -2.050000
      vertex -1.858000 1.610000 -1.508500
    endloop
  endfacet
endsolid 1.32.4FM6
