solid 1.46.203.3038.2
  facet normal 0.000000e+00 1.000000e+00 0.000000e+00
    outer loop
      vertex 33.000000 5.000000 10.000000
      vertex 23.182000 5.000000 3.182000
      vertex 20.000000 5.000000 4.500000
    endloop
  endfacet
  facet normal 0.000000e+00 1.000000e+00 0.000000e+00
    outer loop
      vertex 5.000000 5.000000 -10.000000
      vertex 20.000000 5.000000 -4.500000
      vertex 33.000000 5.000000 -10.000000
    endloop
  endfacet
  facet normal 0.000000e+00 1.000000e+00 0.000000e+00
    outer loop
      vertex 5.000000 5.000000 10.000000
      vertex 20.000000 5.000000 4.500000
      vertex 16.818000 5.000000 3.182000
    endloop
  endfacet
  facet normal 0.000000e+00 1.000000e+00 0.000000e+00
    outer loop
      vertex 16.818000 5.000000 -3.182000
      vertex 5.000000 5.000000 -10.000000
      vertex 15.500000 5.000000 0.000000
    endloop
  endfacet
  facet normal 0.000000e+00 1.000000e+00 0.000000e+00
    outer loop
      vertex 5.000000 5.000000 10.000000
      vertex 15.500000 5.000000 0.000000
      vertex 5.000000 5.000000 -10.000000
    endloop
  endfacet
  facet normal 0.000000e+00 1.000000e+00 -0.000000e+00
    outer loop
      vertex 20.000000 5.000000 4.500000
      vertex 5.000000 5.000000 10.000000
      vertex 33.000000 5.000000 10.000000
    endloop
  endfacet
  facet normal 0.000000e+00 1.000000e+00 -0.000000e+00
    outer loop
      vertex 15.500000 5.000000 0.000000
      vertex 5.000000 5.000000 10.000000
      vertex 16.818000 5.000000 3.182000
    endloop
  endfacet
  facet normal 0.000000e+00 1.000000e+00 0.000000e+00
    outer loop
      vertex 20.000000 5.000000 -4.500000
      vertex 5.000000 5.000000 -10.000000
      vertex 16.818000 5.000000 -3.182000
    endloop
  endfacet
  facet normal 0.000000e+00 1.000000e+00 0.000000e+00
    outer loop
      vertex 23.182000 5.000000 -3.182000
      vertex 33.000000 5.000000 -10.000000
      vertex 20.000000 5.000000 -4.500000
    endloop
  endfacet
  facet normal -0.000000e+00 1.000000e+00 0.000000e+00
    outer loop
      vertex 23.182000 5.000000 3.182000
      vertex 33.000000 5.000000 10.000000
      vertex 24.500000 5.000000 0.000000
    endloop
  endfacet
  facet normal 0.000000e+00 1.000000e+00 0.000000e+00
    outer loop
      vertex 24.500000 5.000000 0.000000
      vertex 33.000000 5.000000 -10.000000
      vertex 23.182000 5.000000 -3.182000
    endloop
  endfacet
  facet normal 0.000000e+00 1.000000e+00 -0.000000e+00
    outer loop
      vertex 33.000000 5.000000 -10.000000
      vertex 24.500000 5.000000 0.000000
      vertex 33.000000 5.000000 10.000000
    endloop
  endfacet
  facet normal 1.000000e+00 0.000000e+00 0.000000e+00
    outer loop
      vertex 5.000000 33.000000 10.000000
      vertex 5.000000 24.500000 0.000000
      vertex 5.000000 33.000000 -10.000000
    endloop
  endfacet
  facet normal 1.000000e+00 0.000000e+00 -0.000000e+00
    outer loop
      vertex 5.000000 24.500000 0.000000
      vertex 5.000000 33.000000 10.000000
      vertex 5.000000 23.182000 3.182000
    endloop
  endfacet
  facet normal 1.000000e+00 0.000000e+00 0.000000e+00
    outer loop
      vertex 5.000000 15.500000 0.000000
      vertex 5.000000 5.000000 -10.000000
      vertex 5.000000 16.818000 -3.182000
    endloop
  endfacet
  facet normal 1.000000e+00 0.000000e+00 -0.000000e+00
    outer loop
      vertex 5.000000 23.182000 3.182000
      vertex 5.000000 33.000000 10.000000
      vertex 5.000000 20.000000 4.500000
    endloop
  endfacet
  facet normal 1.000000e+00 0.000000e+00 0.000000e+00
    outer loop
      vertex 5.000000 20.000000 4.500000
      vertex 5.000000 5.000000 10.000000
      vertex 5.000000 16.818000 3.182000
    endloop
  endfacet
  facet normal 1.000000e+00 0.000000e+00 0.000000e+00
    outer loop
      vertex 5.000000 5.000000 -10.000000
      vertex 5.000000 15.500000 0.000000
      vertex 5.000000 5.000000 10.000000
    endloop
  endfacet
  facet normal 1.000000e+00 0.000000e+00 0.000000e+00
    outer loop
      vertex 5.000000 20.000000 -4.500000
      vertex 5.000000 5.000000 -10.000000
      vertex 5.000000 33.000000 -10.000000
    endloop
  endfacet
  facet normal 1.000000e+00 -0.000000e+00 0.000000e+00
    outer loop
      vertex 5.000000 5.000000 10.000000
      vertex 5.000000 20.000000 4.500000
      vertex 5.000000 33.000000 10.000000
    endloop
  endfacet
  facet normal 1.000000e+00 0.000000e+00 0.000000e+00
    outer loop
      vertex 5.000000 5.000000 -10.000000
      vertex 5.000000 20.000000 -4.500000
      vertex 5.000000 16.818000 -3.182000
    endloop
  endfacet
  facet normal 1.000000e+00 0.000000e+00 0.000000e+00
    outer loop
      vertex 5.000000 5.000000 10.000000
      vertex 5.000000 15.500000 0.000000
      vertex 5.000000 16.818000 3.182000
    endloop
  endfacet
  facet normal 1.000000e+00 -0.000000e+00 0.000000e+00
    outer loop
      vertex 5.000000 23.182000 -3.182000
      vertex 5.000000 33.000000 -10.000000
      vertex 5.000000 24.500000 0.000000
    endloop
  endfacet
  facet normal 1.000000e+00 0.000000e+00 0.000000e+00
    outer loop
      vertex 5.000000 33.000000 -10.000000
      vertex 5.000000 23.182000 -3.182000
      vertex 5.000000 20.000000 -4.500000
    endloop
  endfacet
  facet normal -1.000000e+00 0.000000e+00 0.000000e+00
    outer loop
      vertex 0.000000 0.000000 15.000000
      vertex 0.000000 1.414200 4.000000
      vertex 0.000000 0.000000 4.000000
    endloop
  endfacet
  facet normal -1.000000e+00 0.000000e+00 0.000000e+00
    outer loop
      vertex 0.000000 38.000000 -15.000000
      vertex 0.000000 35.990000 -4.000000
      vertex 0.000000 37.990000 -4.000000
    endloop
  endfacet
  facet normal -1.000000e+00 0.000000e+00 0.000000e+00
    outer loop
      vertex 0.000000 0.000000 -15.000000
      vertex 0.000000 16.818000 -3.182000
      vertex 0.000000 20.000000 -4.500000
    endloop
  endfacet
  facet normal -1.000000e+00 0.000000e+00 0.000000e+00
    outer loop
      vertex 0.000000 37.990000 4.000000
      vertex 0.000000 38.000000 15.000000
      vertex 0.000000 38.000000 -15.000000
    endloop
  endfacet
  facet normal -1.000000e+00 0.000000e+00 0.000000e+00
    outer loop
      vertex 0.000000 1.414200 4.000000
      vertex 0.000000 0.000000 15.000000
      vertex 0.000000 38.000000 15.000000
    endloop
  endfacet
  facet normal -1.000000e+00 0.000000e+00 0.000000e+00
    outer loop
      vertex 0.000000 1.414200 4.000000
      vertex 0.000000 20.000000 4.500000
      vertex 0.000000 16.818000 3.182000
    endloop
  endfacet
  facet normal -1.000000e+00 -0.000000e+00 0.000000e+00
    outer loop
      vertex 0.000000 35.990000 4.000000
      vertex 0.000000 23.182000 3.182000
      vertex 0.000000 20.000000 4.500000
    endloop
  endfacet
  facet normal -1.000000e+00 0.000000e+00 0.000000e+00
    outer loop
      vertex 0.000000 38.000000 15.000000
      vertex 0.000000 37.990000 4.000000
      vertex 0.000000 20.000000 4.500000
    endloop
  endfacet
  facet normal -1.000000e+00 0.000000e+00 0.000000e+00
    outer loop
      vertex 0.000000 20.000000 4.500000
      vertex 0.000000 37.990000 4.000000
      vertex 0.000000 35.990000 4.000000
    endloop
  endfacet
  facet normal -1.000000e+00 0.000000e+00 0.000000e+00
    outer loop
      vertex 0.000000 1.414200 -4.000000
      vertex 0.000000 15.500000 0.000000
      vertex 0.000000 16.818000 -3.182000
    endloop
  endfacet
  facet normal -1.000000e+00 0.000000e+00 0.000000e+00
    outer loop
      vertex 0.000000 38.000000 -15.000000
      vertex 0.000000 37.990000 -4.000000
      vertex 0.000000 37.990000 4.000000
    endloop
  endfacet
  facet normal -1.000000e+00 -0.000000e+00 0.000000e+00
    outer loop
      vertex 0.000000 20.000000 4.500000
      vertex 0.000000 1.414200 4.000000
      vertex 0.000000 38.000000 15.000000
    endloop
  endfacet
  facet normal -1.000000e+00 0.000000e+00 0.000000e+00
    outer loop
      vertex 0.000000 15.500000 0.000000
      vertex 0.000000 1.414200 4.000000
      vertex 0.000000 16.818000 3.182000
    endloop
  endfacet
  facet normal -1.000000e+00 -0.000000e+00 0.000000e+00
    outer loop
      vertex 0.000000 1.414200 -4.000000
      vertex 0.000000 0.000000 -15.000000
      vertex 0.000000 0.000000 -4.000000
    endloop
  endfacet
  facet normal -1.000000e+00 0.000000e+00 0.000000e+00
    outer loop
      vertex 0.000000 35.990000 -4.000000
      vertex 0.000000 23.182000 -3.182000
      vertex 0.000000 24.500000 0.000000
    endloop
  endfacet
  facet normal -1.000000e+00 -0.000000e+00 0.000000e+00
    outer loop
      vertex 0.000000 15.500000 0.000000
      vertex 0.000000 1.414200 -4.000000
      vertex 0.000000 1.414200 4.000000
    endloop
  endfacet
  facet normal -1.000000e+00 0.000000e+00 0.000000e+00
    outer loop
      vertex 0.000000 16.818000 -3.182000
      vertex 0.000000 0.000000 -15.000000
      vertex 0.000000 1.414200 -4.000000
    endloop
  endfacet
  facet normal -1.000000e+00 -0.000000e+00 0.000000e+00
    outer loop
      vertex 0.000000 35.990000 -4.000000
      vertex 0.000000 20.000000 -4.500000
      vertex 0.000000 23.182000 -3.182000
    endloop
  endfacet
  facet normal -1.000000e+00 0.000000e+00 0.000000e+00
    outer loop
      vertex 0.000000 35.990000 4.000000
      vertex 0.000000 24.500000 0.000000
      vertex 0.000000 23.182000 3.182000
    endloop
  endfacet
  facet normal -1.000000e+00 0.000000e+00 -0.000000e+00
    outer loop
      vertex 0.000000 20.000000 -4.500000
      vertex 0.000000 35.990000 -4.000000
      vertex 0.000000 0.000000 -15.000000
    endloop
  endfacet
  facet normal -1.000000e+00 0.000000e+00 0.000000e+00
    outer loop
      vertex 0.000000 24.500000 0.000000
      vertex 0.000000 35.990000 4.000000
      vertex 0.000000 35.990000 -4.000000
    endloop
  endfacet
  facet normal -1.000000e+00 0.000000e+00 -0.000000e+00
    outer loop
      vertex 0.000000 35.990000 -4.000000
      vertex 0.000000 38.000000 -15.000000
      vertex 0.000000 0.000000 -15.000000
    endloop
  endfacet
  facet normal 0.000000e+00 -1.000000e+00 0.000000e+00
    outer loop
      vertex 0.000000 0.000000 -15.000000
      vertex 37.990000 0.000000 -4.000000
      vertex 35.990000 0.000000 -4.000000
    endloop
  endfacet
  facet normal 0.000000e+00 -1.000000e+00 0.000000e+00
    outer loop
      vertex 0.000000 0.000000 15.000000
      vertex 1.414200 0.000000 4.000000
      vertex 38.000000 0.000000 15.000000
    endloop
  endfacet
  facet normal 0.000000e+00 -1.000000e+00 0.000000e+00
    outer loop
      vertex 1.414200 0.000000 4.000000
      vertex 0.000000 0.000000 15.000000
      vertex 0.000000 0.000000 4.000000
    endloop
  endfacet
  facet normal -0.000000e+00 -1.000000e+00 0.000000e+00
    outer loop
      vertex 35.990000 0.000000 -4.000000
      vertex 23.182000 0.000000 -3.182000
      vertex 20.000000 0.000000 -4.500000
    endloop
  endfacet
  facet normal 0.000000e+00 -1.000000e+00 -0.000000e+00
    outer loop
      vertex 20.000000 0.000000 -4.500000
      vertex 0.000000 0.000000 -15.000000
      vertex 35.990000 0.000000 -4.000000
    endloop
  endfacet
  facet normal 0.000000e+00 -1.000000e+00 0.000000e+00
    outer loop
      vertex 35.990000 0.000000 4.000000
      vertex 23.182000 0.000000 3.182000
      vertex 24.500000 0.000000 0.000000
    endloop
  endfacet
  facet normal 0.000000e+00 -1.000000e+00 0.000000e+00
    outer loop
      vertex 38.000000 0.000000 15.000000
      vertex 35.990000 0.000000 4.000000
      vertex 37.990000 0.000000 4.000000
    endloop
  endfacet
  facet normal 0.000000e+00 -1.000000e+00 -0.000000e+00
    outer loop
      vertex 1.414200 0.000000 -4.000000
      vertex 0.000000 0.000000 -15.000000
      vertex 20.000000 0.000000 -4.500000
    endloop
  endfacet
  facet normal 0.000000e+00 -1.000000e+00 0.000000e+00
    outer loop
      vertex 23.182000 0.000000 3.182000
      vertex 35.990000 0.000000 4.000000
      vertex 20.000000 0.000000 4.500000
    endloop
  endfacet
  facet normal 0.000000e+00 -1.000000e+00 0.000000e+00
    outer loop
      vertex 35.990000 0.000000 -4.000000
      vertex 24.500000 0.000000 0.000000
      vertex 23.182000 0.000000 -3.182000
    endloop
  endfacet
  facet normal 0.000000e+00 -1.000000e+00 -0.000000e+00
    outer loop
      vertex 16.818000 0.000000 -3.182000
      vertex 1.414200 0.000000 -4.000000
      vertex 20.000000 0.000000 -4.500000
    endloop
  endfacet
  facet normal 0.000000e+00 -1.000000e+00 0.000000e+00
    outer loop
      vertex 24.500000 0.000000 0.000000
      vertex 35.990000 0.000000 -4.000000
      vertex 35.990000 0.000000 4.000000
    endloop
  endfacet
  facet normal 0.000000e+00 -1.000000e+00 0.000000e+00
    outer loop
      vertex 35.990000 0.000000 4.000000
      vertex 38.000000 0.000000 15.000000
      vertex 20.000000 0.000000 4.500000
    endloop
  endfacet
  facet normal 0.000000e+00 -1.000000e+00 0.000000e+00
    outer loop
      vertex 20.000000 0.000000 4.500000
      vertex 1.414200 0.000000 4.000000
      vertex 16.818000 0.000000 3.182000
    endloop
  endfacet
  facet normal -0.000000e+00 -1.000000e+00 0.000000e+00
    outer loop
      vertex 15.500000 0.000000 0.000000
      vertex 1.414200 0.000000 4.000000
      vertex 1.414200 0.000000 -4.000000
    endloop
  endfacet
  facet normal 0.000000e+00 -1.000000e+00 0.000000e+00
    outer loop
      vertex 37.990000 0.000000 4.000000
      vertex 38.000000 0.000000 -15.000000
      vertex 38.000000 0.000000 15.000000
    endloop
  endfacet
  facet normal 0.000000e+00 -1.000000e+00 0.000000e+00
    outer loop
      vertex 1.414200 0.000000 4.000000
      vertex 20.000000 0.000000 4.500000
      vertex 38.000000 0.000000 15.000000
    endloop
  endfacet
  facet normal 0.000000e+00 -1.000000e+00 -0.000000e+00
    outer loop
      vertex 15.500000 0.000000 0.000000
      vertex 1.414200 0.000000 -4.000000
      vertex 16.818000 0.000000 -3.182000
    endloop
  endfacet
  facet normal 0.000000e+00 -1.000000e+00 0.000000e+00
    outer loop
      vertex 38.000000 0.000000 -15.000000
      vertex 37.990000 0.000000 4.000000
      vertex 37.990000 0.000000 -4.000000
    endloop
  endfacet
  facet normal 0.000000e+00 -1.000000e+00 0.000000e+00
    outer loop
      vertex 38.000000 0.000000 -15.000000
      vertex 37.990000 0.000000 -4.000000
      vertex 0.000000 0.000000 -15.000000
    endloop
  endfacet
  facet normal 0.000000e+00 -1.000000e+00 0.000000e+00
    outer loop
      vertex 1.414200 0.000000 4.000000
      vertex 15.500000 0.000000 0.000000
      vertex 16.818000 0.000000 3.182000
    endloop
  endfacet
  facet normal 0.000000e+00 -1.000000e+00 0.000000e+00
    outer loop
      vertex 0.000000 0.000000 -15.000000
      vertex 1.414200 0.000000 -4.000000
      vertex 0.000000 0.000000 -4.000000
    endloop
  endfacet
  facet normal 7.071068e-01 7.071068e-01 0.000000e+00
    outer loop
      vertex 33.000000 5.000000 -10.000000
      vertex 38.000000 0.000000 15.000000
      vertex 38.000000 0.000000 -15.000000
    endloop
  endfacet
  facet normal 7.071068e-01 7.071068e-01 0.000000e+00
    outer loop
      vertex 38.000000 0.000000 15.000000
      vertex 33.000000 5.000000 -10.000000
      vertex 33.000000 5.000000 10.000000
    endloop
  endfacet
  facet normal 7.071068e-01 7.071068e-01 0.000000e+00
    outer loop
      vertex 0.000000 38.000000 -15.000000
      vertex 33.000000 5.000000 -10.000000
      vertex 38.000000 0.000000 -15.000000
    endloop
  endfacet
  facet normal 7.071068e-01 7.071068e-01 0.000000e+00
    outer loop
      vertex 5.000000 33.000000 10.000000
      vertex 0.000000 38.000000 -15.000000
      vertex 0.000000 38.000000 15.000000
    endloop
  endfacet
  facet normal 7.071068e-01 7.071068e-01 0.000000e+00
    outer loop
      vertex 0.000000 38.000000 -15.000000
      vertex 5.000000 33.000000 10.000000
      vertex 5.000000 33.000000 -10.000000
    endloop
  endfacet
  facet normal 7.071068e-01 7.071068e-01 0.000000e+00
    outer loop
      vertex 38.000000 0.000000 15.000000
      vertex 5.000000 33.000000 10.000000
      vertex 0.000000 38.000000 15.000000
    endloop
  endfacet
  facet normal 7.071068e-01 7.071068e-01 0.000000e+00
    outer loop
      vertex 33.000000 5.000000 -10.000000
      vertex 0.000000 38.000000 -15.000000
      vertex 5.000000 33.000000 -10.000000
    endloop
  endfacet
  facet normal 7.071068e-01 7.071068e-01 0.000000e+00
    outer loop
      vertex 38.000000 0.000000 15.000000
      vertex 33.000000 5.000000 10.000000
      vertex 5.000000 33.000000 10.000000
    endloop
  endfacet
  facet normal 0.000000e+00 0.000000e+00 -1.000000e+00
    outer loop
      vertex 0.000000 38.000000 -15.000000
      vertex 38.000000 0.000000 -15.000000
      vertex 0.000000 0.000000 -15.000000
    endloop
  endfacet
  facet normal 0.000000e+00 0.000000e+00 1.000000e+00
    outer loop
      vertex 38.000000 0.000000 15.000000
      vertex 0.000000 38.000000 15.000000
      vertex 0.000000 0.000000 15.000000
    endloop
  endfacet
  facet normal 0.000000e+00 0.000000e+00 -1.000000e+00
    outer loop
      vertex 5.000000 5.000000 10.000000
      vertex 5.000000 33.000000 10.000000
      vertex 33.000000 5.000000 10.000000
    endloop
  endfacet
  facet normal 0.000000e+00 0.000000e+00 1.000000e+00
    outer loop
      vertex 5.000000 33.000000 -10.000000
      vertex 5.000000 5.000000 -10.000000
      vertex 33.000000 5.000000 -10.000000
    endloop
  endfacet
  facet normal -1.000000e+00 0.000000e+00 0.000000e+00
    outer loop
      vertex 35.990000 0.000000 -4.000000
      vertex 35.990000 -3.000000 4.000000
      vertex 35.990000 0.000000 4.000000
    endloop
  endfacet
  facet normal -1.000000e+00 0.000000e+00 0.000000e+00
    outer loop
      vertex 35.990000 -3.000000 4.000000
      vertex 35.990000 0.000000 -4.000000
      vertex 35.990000 -3.000000 -4.000000
    endloop
  endfacet
  facet normal 0.000000e+00 0.000000e+00 -1.000000e+00
    outer loop
      vertex 35.990000 -3.000000 -4.000000
      vertex 37.990000 0.000000 -4.000000
      vertex 37.990000 -3.000000 -4.000000
    endloop
  endfacet
  facet normal -0.000000e+00 0.000000e+00 -1.000000e+00
    outer loop
      vertex 37.990000 0.000000 -4.000000
      vertex 35.990000 -3.000000 -4.000000
      vertex 35.990000 0.000000 -4.000000
    endloop
  endfacet
  facet normal 1.000000e+00 0.000000e+00 0.000000e+00
    outer loop
      vertex 37.990000 0.000000 4.000000
      vertex 37.990000 -3.000000 -4.000000
      vertex 37.990000 0.000000 -4.000000
    endloop
  endfacet
  facet normal 1.000000e+00 0.000000e+00 0.000000e+00
    outer loop
      vertex 37.990000 -3.000000 -4.000000
      vertex 37.990000 0.000000 4.000000
      vertex 37.990000 -3.000000 4.000000
    endloop
  endfacet
  facet normal 0.000000e+00 0.000000e+00 1.000000e+00
    outer loop
      vertex 37.990000 -3.000000 4.000000
      vertex 35.990000 0.000000 4.000000
      vertex 35.990000 -3.000000 4.000000
    endloop
  endfacet
  facet normal -0.000000e+00 0.000000e+00 1.000000e+00
    outer loop
      vertex 35.990000 0.000000 4.000000
      vertex 37.990000 -3.000000 4.000000
      vertex 37.990000 0.000000 4.000000
    endloop
  endfacet
  facet normal 0.000000e+00 -1.000000e+00 -0.000000e+00
    outer loop
      vertex 37.990000 -3.000000 4.000000
      vertex 35.990000 -3.000000 -4.000000
      vertex 37.990000 -3.000000 -4.000000
    endloop
  endfacet
  facet normal 0.000000e+00 -1.000000e+00 0.000000e+00
    outer loop
      vertex 35.990000 -3.000000 -4.000000
      vertex 37.990000 -3.000000 4.000000
      vertex 35.990000 -3.000000 4.000000
    endloop
  endfacet
  facet normal 0.000000e+00 1.000000e+00 -0.000000e+00
    outer loop
      vertex 0.000000 37.990000 -4.000000
      vertex -3.000000 37.990000 4.000000
      vertex 0.000000 37.990000 4.000000
    endloop
  endfacet
  facet normal 0.000000e+00 1.000000e+00 0.000000e+00
    outer loop
      vertex -3.000000 37.990000 4.000000
      vertex 0.000000 37.990000 -4.000000
      vertex -3.000000 37.990000 -4.000000
    endloop
  endfacet
  facet normal 0.000000e+00 0.000000e+00 -1.000000e+00
    outer loop
      vertex 0.000000 35.990000 -4.000000
      vertex -3.000000 37.990000 -4.000000
      vertex 0.000000 37.990000 -4.000000
    endloop
  endfacet
  facet normal 0.000000e+00 0.000000e+00 -1.000000e+00
    outer loop
      vertex -3.000000 37.990000 -4.000000
      vertex 0.000000 35.990000 -4.000000
      vertex -3.000000 35.990000 -4.000000
    endloop
  endfacet
  facet normal 0.000000e+00 -1.000000e+00 -0.000000e+00
    outer loop
      vertex 0.000000 35.990000 4.000000
      vertex -3.000000 35.990000 -4.000000
      vertex 0.000000 35.990000 -4.000000
    endloop
  endfacet
  facet normal 0.000000e+00 -1.000000e+00 0.000000e+00
    outer loop
      vertex -3.000000 35.990000 -4.000000
      vertex 0.000000 35.990000 4.000000
      vertex -3.000000 35.990000 4.000000
    endloop
  endfacet
  facet normal 0.000000e+00 0.000000e+00 1.000000e+00
    outer loop
      vertex 0.000000 37.990000 4.000000
      vertex -3.000000 35.990000 4.000000
      vertex 0.000000 35.990000 4.000000
    endloop
  endfacet
  facet normal 0.000000e+00 0.000000e+00 1.000000e+00
    outer loop
      vertex -3.000000 35.990000 4.000000
      vertex 0.000000 37.990000 4.000000
      vertex -3.000000 37.990000 4.000000
    endloop
  endfacet
  facet normal -1.000000e+00 0.000000e+00 0.000000e+00
    outer loop
      vertex -3.000000 35.990000 4.000000
      vertex -3.000000 37.990000 -4.000000
      vertex -3.000000 35.990000 -4.000000
    endloop
  endfacet
  facet normal -1.000000e+00 0.000000e+00 0.000000e+00
    outer loop
      vertex -3.000000 37.990000 -4.000000
      vertex -3.000000 35.990000 4.000000
      vertex -3.000000 37.990000 4.000000
    endloop
  endfacet
  facet normal 0.000000e+00 -3.826766e-01 9.238824e-01
    outer loop
      vertex 0.000000 20.000000 -4.500000
      vertex 5.000000 23.182000 -3.182000
      vertex 0.000000 23.182000 -3.182000
    endloop
  endfacet
  facet normal 0.000000e+00 9.238824e-01 -3.826766e-01
    outer loop
      vertex 0.000000 16.818000 3.182000
      vertex 5.000000 15.500000 0.000000
      vertex 0.000000 15.500000 0.000000
    endloop
  endfacet
  facet normal 0.000000e+00 -3.826766e-01 -9.238824e-01
    outer loop
      vertex 0.000000 23.182000 3.182000
      vertex 5.000000 20.000000 4.500000
      vertex 0.000000 20.000000 4.500000
    endloop
  endfacet
  facet normal 0.000000e+00 -9.238824e-01 -3.826766e-01
    outer loop
      vertex 0.000000 24.500000 0.000000
      vertex 5.000000 23.182000 3.182000
      vertex 0.000000 23.182000 3.182000
    endloop
  endfacet
  facet normal 0.000000e+00 -9.238824e-01 3.826766e-01
    outer loop
      vertex 5.000000 24.500000 0.000000
      vertex 0.000000 23.182000 -3.182000
      vertex 5.000000 23.182000 -3.182000
    endloop
  endfacet
  facet normal 0.000000e+00 -9.238824e-01 3.826766e-01
    outer loop
      vertex 0.000000 23.182000 -3.182000
      vertex 5.000000 24.500000 0.000000
      vertex 0.000000 24.500000 0.000000
    endloop
  endfacet
  facet normal 0.000000e+00 -3.826766e-01 9.238824e-01
    outer loop
      vertex 5.000000 23.182000 -3.182000
      vertex 0.000000 20.000000 -4.500000
      vertex 5.000000 20.000000 -4.500000
    endloop
  endfacet
  facet normal 0.000000e+00 9.238824e-01 -3.826766e-01
    outer loop
      vertex 5.000000 15.500000 0.000000
      vertex 0.000000 16.818000 3.182000
      vertex 5.000000 16.818000 3.182000
    endloop
  endfacet
  facet normal 0.000000e+00 -3.826766e-01 -9.238824e-01
    outer loop
      vertex 5.000000 20.000000 4.500000
      vertex 0.000000 23.182000 3.182000
      vertex 5.000000 23.182000 3.182000
    endloop
  endfacet
  facet normal 0.000000e+00 3.826766e-01 -9.238824e-01
    outer loop
      vertex 0.000000 20.000000 4.500000
      vertex 5.000000 16.818000 3.182000
      vertex 0.000000 16.818000 3.182000
    endloop
  endfacet
  facet normal 0.000000e+00 3.826766e-01 -9.238824e-01
    outer loop
      vertex 5.000000 16.818000 3.182000
      vertex 0.000000 20.000000 4.500000
      vertex 5.000000 20.000000 4.500000
    endloop
  endfacet
  facet normal 0.000000e+00 9.238824e-01 3.826766e-01
    outer loop
      vertex 0.000000 15.500000 0.000000
      vertex 5.000000 16.818000 -3.182000
      vertex 0.000000 16.818000 -3.182000
    endloop
  endfacet
  facet normal 0.000000e+00 -9.238824e-01 -3.826766e-01
    outer loop
      vertex 5.000000 23.182000 3.182000
      vertex 0.000000 24.500000 0.000000
      vertex 5.000000 24.500000 0.000000
    endloop
  endfacet
  facet normal 0.000000e+00 3.826766e-01 9.238824e-01
    outer loop
      vertex 5.000000 20.000000 -4.500000
      vertex 0.000000 16.818000 -3.182000
      vertex 5.000000 16.818000 -3.182000
    endloop
  endfacet
  facet normal 0.000000e+00 9.238824e-01 3.826766e-01
    outer loop
      vertex 5.000000 16.818000 -3.182000
      vertex 0.000000 15.500000 0.000000
      vertex 5.000000 15.500000 0.000000
    endloop
  endfacet
  facet normal 0.000000e+00 3.826766e-01 9.238824e-01
    outer loop
      vertex 0.000000 16.818000 -3.182000
      vertex 5.000000 20.000000 -4.500000
      vertex 0.000000 20.000000 -4.500000
    endloop
  endfacet
  facet normal -3.826766e-01 0.000000e+00 -9.238824e-01
    outer loop
      vertex 20.000000 0.000000 4.500000
      vertex 23.182000 5.000000 3.182000
      vertex 23.182000 0.000000 3.182000
    endloop
  endfacet
  facet normal 9.238824e-01 0.000000e+00 -3.826766e-01
    outer loop
      vertex 15.500000 0.000000 0.000000
      vertex 16.818000 5.000000 3.182000
      vertex 16.818000 0.000000 3.182000
    endloop
  endfacet
  facet normal 9.238824e-01 0.000000e+00 3.826766e-01
    outer loop
      vertex 16.818000 0.000000 -3.182000
      vertex 15.500000 5.000000 0.000000
      vertex 15.500000 0.000000 0.000000
    endloop
  endfacet
  facet normal 3.826766e-01 0.000000e+00 9.238824e-01
    outer loop
      vertex 20.000000 0.000000 -4.500000
      vertex 16.818000 5.000000 -3.182000
      vertex 16.818000 0.000000 -3.182000
    endloop
  endfacet
  facet normal 3.826766e-01 0.000000e+00 -9.238824e-01
    outer loop
      vertex 20.000000 5.000000 4.500000
      vertex 16.818000 0.000000 3.182000
      vertex 16.818000 5.000000 3.182000
    endloop
  endfacet
  facet normal 9.238824e-01 0.000000e+00 -3.826766e-01
    outer loop
      vertex 16.818000 5.000000 3.182000
      vertex 15.500000 0.000000 0.000000
      vertex 15.500000 5.000000 0.000000
    endloop
  endfacet
  facet normal 9.238824e-01 0.000000e+00 3.826766e-01
    outer loop
      vertex 15.500000 5.000000 0.000000
      vertex 16.818000 0.000000 -3.182000
      vertex 16.818000 5.000000 -3.182000
    endloop
  endfacet
  facet normal 3.826766e-01 0.000000e+00 9.238824e-01
    outer loop
      vertex 16.818000 5.000000 -3.182000
      vertex 20.000000 0.000000 -4.500000
      vertex 20.000000 5.000000 -4.500000
    endloop
  endfacet
  facet normal -3.826766e-01 0.000000e+00 9.238824e-01
    outer loop
      vertex 20.000000 5.000000 -4.500000
      vertex 23.182000 0.000000 -3.182000
      vertex 23.182000 5.000000 -3.182000
    endloop
  endfacet
  facet normal -9.238824e-01 0.000000e+00 3.826766e-01
    outer loop
      vertex 23.182000 5.000000 -3.182000
      vertex 24.500000 0.000000 0.000000
      vertex 24.500000 5.000000 0.000000
    endloop
  endfacet
  facet normal -9.238824e-01 0.000000e+00 -3.826766e-01
    outer loop
      vertex 23.182000 0.000000 3.182000
      vertex 24.500000 5.000000 0.000000
      vertex 24.500000 0.000000 0.000000
    endloop
  endfacet
  facet normal -9.238824e-01 0.000000e+00 -3.826766e-01
    outer loop
      vertex 24.500000 5.000000 0.000000
      vertex 23.182000 0.000000 3.182000
      vertex 23.182000 5.000000 3.182000
    endloop
  endfacet
  facet normal -3.826766e-01 0.000000e+00 -9.238824e-01
    outer loop
      vertex 23.182000 5.000000 3.182000
      vertex 20.000000 0.000000 4.500000
      vertex 20.000000 5.000000 4.500000
    endloop
  endfacet
  facet normal 3.826766e-01 0.000000e+00 -9.238824e-01
    outer loop
      vertex 16.818000 0.000000 3.182000
      vertex 20.000000 5.000000 4.500000
      vertex 20.000000 0.000000 4.500000
    endloop
  endfacet
  facet normal -9.238824e-01 0.000000e+00 3.826766e-01
    outer loop
      vertex 24.500000 0.000000 0.000000
      vertex 23.182000 5.000000 -3.182000
      vertex 23.182000 0.000000 -3.182000
    endloop
  endfacet
  facet normal -3.826766e-01 0.000000e+00 9.238824e-01
    outer loop
      vertex 23.182000 0.000000 -3.182000
      vertex 20.000000 5.000000 -4.500000
      vertex 20.000000 0.000000 -4.500000
    endloop
  endfacet
  facet normal 7.071068e-01 -7.071068e-01 0.000000e+00
    outer loop
      vertex 0.000000 -1.414200 4.000000
      vertex -1.414200 -2.828400 -4.000000
      vertex 0.000000 -1.414200 -4.000000
    endloop
  endfacet
  facet normal 7.071068e-01 -7.071068e-01 0.000000e+00
    outer loop
      vertex -1.414200 -2.828400 -4.000000
      vertex 0.000000 -1.414200 4.000000
      vertex -1.414200 -2.828400 4.000000
    endloop
  endfacet
  facet normal -7.071068e-01 -7.071068e-01 -0.000000e+00
    outer loop
      vertex -1.414200 -2.828400 4.000000
      vertex -2.828400 -1.414200 -4.000000
      vertex -1.414200 -2.828400 -4.000000
    endloop
  endfacet
  facet normal -7.071068e-01 -7.071068e-01 0.000000e+00
    outer loop
      vertex -2.828400 -1.414200 -4.000000
      vertex -1.414200 -2.828400 4.000000
      vertex -2.828400 -1.414200 4.000000
    endloop
  endfacet
  facet normal -7.071068e-01 7.071068e-01 0.000000e+00
    outer loop
      vertex 0.000000 1.414200 4.000000
      vertex -2.828400 -1.414200 -4.000000
      vertex -2.828400 -1.414200 4.000000
    endloop
  endfacet
  facet normal -7.071068e-01 7.071068e-01 0.000000e+00
    outer loop
      vertex -2.828400 -1.414200 -4.000000
      vertex 0.000000 1.414200 4.000000
      vertex 0.000000 1.414200 -4.000000
    endloop
  endfacet
  facet normal 7.071068e-01 -7.071068e-01 0.000000e+00
    outer loop
      vertex 1.414200 0.000000 -4.000000
      vertex 0.000000 -1.414200 4.000000
      vertex 0.000000 -1.414200 -4.000000
    endloop
  endfacet
  facet normal 7.071068e-01 -7.071068e-01 0.000000e+00
    outer loop
      vertex 0.000000 -1.414200 4.000000
      vertex 1.414200 0.000000 -4.000000
      vertex 1.414200 0.000000 4.000000
    endloop
  endfacet
  facet normal 0.000000e+00 -0.000000e+00 -1.000000e+00
    outer loop
      vertex 0.000000 0.000000 -4.000000
      vertex 0.000000 -1.414200 -4.000000
      vertex -1.414200 -2.828400 -4.000000
    endloop
  endfacet
  facet normal -0.000000e+00 0.000000e+00 -1.000000e+00
    outer loop
      vertex 0.000000 0.000000 -4.000000
      vertex -2.828400 -1.414200 -4.000000
      vertex 0.000000 1.414200 -4.000000
    endloop
  endfacet
  facet normal 0.000000e+00 0.000000e+00 -1.000000e+00
    outer loop
      vertex 0.000000 -1.414200 -4.000000
      vertex 0.000000 0.000000 -4.000000
      vertex 1.414200 0.000000 -4.000000
    endloop
  endfacet
  facet normal 0.000000e+00 0.000000e+00 -1.000000e+00
    outer loop
      vertex -2.828400 -1.414200 -4.000000
      vertex 0.000000 0.000000 -4.000000
      vertex -1.414200 -2.828400 -4.000000
    endloop
  endfacet
  facet normal -0.000000e+00 0.000000e+00 1.000000e+00
    outer loop
      vertex 0.000000 0.000000 4.000000
      vertex 0.000000 -1.414200 4.000000
      vertex 1.414200 0.000000 4.000000
    endloop
  endfacet
  facet normal 0.000000e+00 0.000000e+00 1.000000e+00
    outer loop
      vertex -2.828400 -1.414200 4.000000
      vertex 0.000000 0.000000 4.000000
      vertex 0.000000 1.414200 4.000000
    endloop
  endfacet
  facet normal 0.000000e+00 0.000000e+00 1.000000e+00
    outer loop
      vertex 0.000000 0.000000 4.000000
      vertex -2.828400 -1.414200 4.000000
      vertex -1.414200 -2.828400 4.000000
    endloop
  endfacet
  facet normal 0.000000e+00 -0.000000e+00 1.000000e+00
    outer loop
      vertex 0.000000 -1.414200 4.000000
      vertex 0.000000 0.000000 4.000000
      vertex -1.414200 -2.828400 4.000000
    endloop
  endfacet
endsolid 1.46.203.3038.2
