solid 1.46.203.2028.1
  facet normal 0.000000e+00 1.000000e+00 0.000000e+00
    outer loop
      vertex 4.000000 4.000000 6.000000
      vertex 15.000000 4.000000 3.300000
      vertex 12.666500 4.000000 2.333500
    endloop
  endfacet
  facet normal 0.000000e+00 1.000000e+00 0.000000e+00
    outer loop
      vertex 24.000000 4.000000 -6.000000
      vertex 15.000000 4.000000 -3.300000
      vertex 17.333500 4.000000 -2.333500
    endloop
  endfacet
  facet normal 0.000000e+00 1.000000e+00 -0.000000e+00
    outer loop
      vertex 11.700000 4.000000 0.000000
      vertex 4.000000 4.000000 6.000000
      vertex 12.666500 4.000000 2.333500
    endloop
  endfacet
  facet normal 0.000000e+00 1.000000e+00 0.000000e+00
    outer loop
      vertex 12.666500 4.000000 -2.333500
      vertex 4.000000 4.000000 -6.000000
      vertex 11.700000 4.000000 0.000000
    endloop
  endfacet
  facet normal 0.000000e+00 1.000000e+00 0.000000e+00
    outer loop
      vertex 4.000000 4.000000 6.000000
      vertex 11.700000 4.000000 0.000000
      vertex 4.000000 4.000000 -6.000000
    endloop
  endfacet
  facet normal 0.000000e+00 1.000000e+00 0.000000e+00
    outer loop
      vertex 4.000000 4.000000 -6.000000
      vertex 15.000000 4.000000 -3.300000
      vertex 24.000000 4.000000 -6.000000
    endloop
  endfacet
  facet normal 0.000000e+00 1.000000e+00 0.000000e+00
    outer loop
      vertex 18.300000 4.000000 0.000000
      vertex 24.000000 4.000000 -6.000000
      vertex 17.333500 4.000000 -2.333500
    endloop
  endfacet
  facet normal 0.000000e+00 1.000000e+00 0.000000e+00
    outer loop
      vertex 24.000000 4.000000 6.000000
      vertex 17.333500 4.000000 2.333500
      vertex 15.000000 4.000000 3.300000
    endloop
  endfacet
  facet normal 0.000000e+00 1.000000e+00 0.000000e+00
    outer loop
      vertex 15.000000 4.000000 -3.300000
      vertex 4.000000 4.000000 -6.000000
      vertex 12.666500 4.000000 -2.333500
    endloop
  endfacet
  facet normal -0.000000e+00 1.000000e+00 0.000000e+00
    outer loop
      vertex 17.333500 4.000000 2.333500
      vertex 24.000000 4.000000 6.000000
      vertex 18.300000 4.000000 0.000000
    endloop
  endfacet
  facet normal 0.000000e+00 1.000000e+00 -0.000000e+00
    outer loop
      vertex 15.000000 4.000000 3.300000
      vertex 4.000000 4.000000 6.000000
      vertex 24.000000 4.000000 6.000000
    endloop
  endfacet
  facet normal 0.000000e+00 1.000000e+00 -0.000000e+00
    outer loop
      vertex 24.000000 4.000000 -6.000000
      vertex 18.300000 4.000000 0.000000
      vertex 24.000000 4.000000 6.000000
    endloop
  endfacet
  facet normal 1.000000e+00 0.000000e+00 0.000000e+00
    outer loop
      vertex 4.000000 24.000000 6.000000
      vertex 4.000000 17.333500 2.333500
      vertex 4.000000 18.300000 0.000000
    endloop
  endfacet
  facet normal 1.000000e+00 0.000000e+00 0.000000e+00
    outer loop
      vertex 4.000000 15.000000 3.300000
      vertex 4.000000 4.000000 6.000000
      vertex 4.000000 12.666500 2.333500
    endloop
  endfacet
  facet normal 1.000000e+00 -0.000000e+00 0.000000e+00
    outer loop
      vertex 4.000000 4.000000 6.000000
      vertex 4.000000 15.000000 3.300000
      vertex 4.000000 24.000000 6.000000
    endloop
  endfacet
  facet normal 1.000000e+00 0.000000e+00 0.000000e+00
    outer loop
      vertex 4.000000 12.666500 2.333500
      vertex 4.000000 4.000000 6.000000
      vertex 4.000000 11.700000 0.000000
    endloop
  endfacet
  facet normal 1.000000e+00 0.000000e+00 0.000000e+00
    outer loop
      vertex 4.000000 11.700000 0.000000
      vertex 4.000000 4.000000 -6.000000
      vertex 4.000000 12.666500 -2.333500
    endloop
  endfacet
  facet normal 1.000000e+00 0.000000e+00 0.000000e+00
    outer loop
      vertex 4.000000 4.000000 -6.000000
      vertex 4.000000 11.700000 0.000000
      vertex 4.000000 4.000000 6.000000
    endloop
  endfacet
  facet normal 1.000000e+00 0.000000e+00 0.000000e+00
    outer loop
      vertex 4.000000 24.000000 6.000000
      vertex 4.000000 15.000000 3.300000
      vertex 4.000000 17.333500 2.333500
    endloop
  endfacet
  facet normal 1.000000e+00 0.000000e+00 0.000000e+00
    outer loop
      vertex 4.000000 15.000000 -3.300000
      vertex 4.000000 4.000000 -6.000000
      vertex 4.000000 24.000000 -6.000000
    endloop
  endfacet
  facet normal 1.000000e+00 0.000000e+00 0.000000e+00
    outer loop
      vertex 4.000000 4.000000 -6.000000
      vertex 4.000000 15.000000 -3.300000
      vertex 4.000000 12.666500 -2.333500
    endloop
  endfacet
  facet normal 1.000000e+00 -0.000000e+00 0.000000e+00
    outer loop
      vertex 4.000000 15.000000 -3.300000
      vertex 4.000000 24.000000 -6.000000
      vertex 4.000000 17.333500 -2.333500
    endloop
  endfacet
  facet normal 1.000000e+00 -0.000000e+00 0.000000e+00
    outer loop
      vertex 4.000000 18.300000 0.000000
      vertex 4.000000 24.000000 -6.000000
      vertex 4.000000 24.000000 6.000000
    endloop
  endfacet
  facet normal 1.000000e+00 0.000000e+00 0.000000e+00
    outer loop
      vertex 4.000000 24.000000 -6.000000
      vertex 4.000000 18.300000 0.000000
      vertex 4.000000 17.333500 -2.333500
    endloop
  endfacet
  facet normal -1.000000e+00 0.000000e+00 0.000000e+00
    outer loop
      vertex 0.000000 0.000000 10.000000
      vertex 0.000000 1.414200 4.000000
      vertex 0.000000 0.000000 4.000000
    endloop
  endfacet
  facet normal -1.000000e+00 0.000000e+00 0.000000e+00
    outer loop
      vertex 0.000000 28.000000 -10.000000
      vertex 0.000000 25.990000 -4.000000
      vertex 0.000000 27.990000 -4.000000
    endloop
  endfacet
  facet normal -1.000000e+00 0.000000e+00 0.000000e+00
    outer loop
      vertex 0.000000 0.000000 -10.000000
      vertex 0.000000 12.666500 -2.333500
      vertex 0.000000 15.000000 -3.300000
    endloop
  endfacet
  facet normal -1.000000e+00 0.000000e+00 0.000000e+00
    outer loop
      vertex 0.000000 27.990000 4.000000
      vertex 0.000000 28.000000 10.000000
      vertex 0.000000 28.000000 -10.000000
    endloop
  endfacet
  facet normal -1.000000e+00 0.000000e+00 0.000000e+00
    outer loop
      vertex 0.000000 1.414200 4.000000
      vertex 0.000000 0.000000 10.000000
      vertex 0.000000 28.000000 10.000000
    endloop
  endfacet
  facet normal -1.000000e+00 0.000000e+00 0.000000e+00
    outer loop
      vertex 0.000000 1.414200 4.000000
      vertex 0.000000 15.000000 3.300000
      vertex 0.000000 12.666500 2.333500
    endloop
  endfacet
  facet normal -1.000000e+00 0.000000e+00 0.000000e+00
    outer loop
      vertex 0.000000 25.990000 4.000000
      vertex 0.000000 17.333500 2.333500
      vertex 0.000000 15.000000 3.300000
    endloop
  endfacet
  facet normal -1.000000e+00 0.000000e+00 0.000000e+00
    outer loop
      vertex 0.000000 28.000000 10.000000
      vertex 0.000000 27.990000 4.000000
      vertex 0.000000 25.990000 4.000000
    endloop
  endfacet
  facet normal -1.000000e+00 0.000000e+00 0.000000e+00
    outer loop
      vertex 0.000000 28.000000 10.000000
      vertex 0.000000 25.990000 4.000000
      vertex 0.000000 15.000000 3.300000
    endloop
  endfacet
  facet normal -1.000000e+00 0.000000e+00 0.000000e+00
    outer loop
      vertex 0.000000 1.414200 -4.000000
      vertex 0.000000 11.700000 0.000000
      vertex 0.000000 12.666500 -2.333500
    endloop
  endfacet
  facet normal -1.000000e+00 0.000000e+00 0.000000e+00
    outer loop
      vertex 0.000000 28.000000 -10.000000
      vertex 0.000000 27.990000 -4.000000
      vertex 0.000000 27.990000 4.000000
    endloop
  endfacet
  facet normal -1.000000e+00 0.000000e+00 0.000000e+00
    outer loop
      vertex 0.000000 15.000000 3.300000
      vertex 0.000000 1.414200 4.000000
      vertex 0.000000 28.000000 10.000000
    endloop
  endfacet
  facet normal -1.000000e+00 0.000000e+00 0.000000e+00
    outer loop
      vertex 0.000000 11.700000 0.000000
      vertex 0.000000 1.414200 4.000000
      vertex 0.000000 12.666500 2.333500
    endloop
  endfacet
  facet normal -1.000000e+00 -0.000000e+00 0.000000e+00
    outer loop
      vertex 0.000000 1.414200 -4.000000
      vertex 0.000000 0.000000 -10.000000
      vertex 0.000000 0.000000 -4.000000
    endloop
  endfacet
  facet normal -1.000000e+00 0.000000e+00 0.000000e+00
    outer loop
      vertex 0.000000 25.990000 -4.000000
      vertex 0.000000 15.000000 -3.300000
      vertex 0.000000 17.333500 -2.333500
    endloop
  endfacet
  facet normal -1.000000e+00 -0.000000e+00 0.000000e+00
    outer loop
      vertex 0.000000 11.700000 0.000000
      vertex 0.000000 1.414200 -4.000000
      vertex 0.000000 1.414200 4.000000
    endloop
  endfacet
  facet normal -1.000000e+00 0.000000e+00 0.000000e+00
    outer loop
      vertex 0.000000 12.666500 -2.333500
      vertex 0.000000 0.000000 -10.000000
      vertex 0.000000 1.414200 -4.000000
    endloop
  endfacet
  facet normal -1.000000e+00 0.000000e+00 -0.000000e+00
    outer loop
      vertex 0.000000 15.000000 -3.300000
      vertex 0.000000 25.990000 -4.000000
      vertex 0.000000 0.000000 -10.000000
    endloop
  endfacet
  facet normal -1.000000e+00 0.000000e+00 0.000000e+00
    outer loop
      vertex 0.000000 25.990000 4.000000
      vertex 0.000000 18.300000 0.000000
      vertex 0.000000 17.333500 2.333500
    endloop
  endfacet
  facet normal -1.000000e+00 0.000000e+00 -0.000000e+00
    outer loop
      vertex 0.000000 18.300000 0.000000
      vertex 0.000000 25.990000 -4.000000
      vertex 0.000000 17.333500 -2.333500
    endloop
  endfacet
  facet normal -1.000000e+00 0.000000e+00 0.000000e+00
    outer loop
      vertex 0.000000 18.300000 0.000000
      vertex 0.000000 25.990000 4.000000
      vertex 0.000000 25.990000 -4.000000
    endloop
  endfacet
  facet normal -1.000000e+00 0.000000e+00 -0.000000e+00
    outer loop
      vertex 0.000000 25.990000 -4.000000
      vertex 0.000000 28.000000 -10.000000
      vertex 0.000000 0.000000 -10.000000
    endloop
  endfacet
  facet normal 0.000000e+00 -1.000000e+00 -0.000000e+00
    outer loop
      vertex 15.000000 0.000000 -3.300000
      vertex 1.414200 0.000000 -4.000000
      vertex 25.990000 0.000000 -4.000000
    endloop
  endfacet
  facet normal 0.000000e+00 -1.000000e+00 0.000000e+00
    outer loop
      vertex 0.000000 0.000000 10.000000
      vertex 1.414200 0.000000 4.000000
      vertex 28.000000 0.000000 10.000000
    endloop
  endfacet
  facet normal 0.000000e+00 -1.000000e+00 0.000000e+00
    outer loop
      vertex 1.414200 0.000000 4.000000
      vertex 0.000000 0.000000 10.000000
      vertex 0.000000 0.000000 4.000000
    endloop
  endfacet
  facet normal 0.000000e+00 -1.000000e+00 0.000000e+00
    outer loop
      vertex 25.990000 0.000000 -4.000000
      vertex 17.333500 0.000000 -2.333500
      vertex 15.000000 0.000000 -3.300000
    endloop
  endfacet
  facet normal 0.000000e+00 -1.000000e+00 -0.000000e+00
    outer loop
      vertex 1.414200 0.000000 -4.000000
      vertex 0.000000 0.000000 -10.000000
      vertex 25.990000 0.000000 -4.000000
    endloop
  endfacet
  facet normal 0.000000e+00 -1.000000e+00 0.000000e+00
    outer loop
      vertex 1.414200 0.000000 4.000000
      vertex 11.700000 0.000000 0.000000
      vertex 12.666500 0.000000 2.333500
    endloop
  endfacet
  facet normal 0.000000e+00 -1.000000e+00 0.000000e+00
    outer loop
      vertex 28.000000 0.000000 10.000000
      vertex 25.990000 0.000000 4.000000
      vertex 27.990000 0.000000 4.000000
    endloop
  endfacet
  facet normal 0.000000e+00 -1.000000e+00 0.000000e+00
    outer loop
      vertex 1.414200 0.000000 -4.000000
      vertex 15.000000 0.000000 -3.300000
      vertex 12.666500 0.000000 -2.333500
    endloop
  endfacet
  facet normal 0.000000e+00 -1.000000e+00 0.000000e+00
    outer loop
      vertex 25.990000 0.000000 -4.000000
      vertex 18.300000 0.000000 0.000000
      vertex 17.333500 0.000000 -2.333500
    endloop
  endfacet
  facet normal 0.000000e+00 -1.000000e+00 0.000000e+00
    outer loop
      vertex 25.990000 0.000000 4.000000
      vertex 28.000000 0.000000 10.000000
      vertex 1.414200 0.000000 4.000000
    endloop
  endfacet
  facet normal 0.000000e+00 -1.000000e+00 0.000000e+00
    outer loop
      vertex 0.000000 0.000000 -10.000000
      vertex 27.990000 0.000000 -4.000000
      vertex 25.990000 0.000000 -4.000000
    endloop
  endfacet
  facet normal 0.000000e+00 -1.000000e+00 -0.000000e+00
    outer loop
      vertex 11.700000 0.000000 0.000000
      vertex 1.414200 0.000000 -4.000000
      vertex 12.666500 0.000000 -2.333500
    endloop
  endfacet
  facet normal 0.000000e+00 -1.000000e+00 0.000000e+00
    outer loop
      vertex 18.300000 0.000000 0.000000
      vertex 25.990000 0.000000 -4.000000
      vertex 25.990000 0.000000 4.000000
    endloop
  endfacet
  facet normal 0.000000e+00 -1.000000e+00 0.000000e+00
    outer loop
      vertex 17.333500 0.000000 2.333500
      vertex 25.990000 0.000000 4.000000
      vertex 15.000000 0.000000 3.300000
    endloop
  endfacet
  facet normal 0.000000e+00 -1.000000e+00 0.000000e+00
    outer loop
      vertex 27.990000 0.000000 4.000000
      vertex 28.000000 0.000000 -10.000000
      vertex 28.000000 0.000000 10.000000
    endloop
  endfacet
  facet normal 0.000000e+00 -1.000000e+00 0.000000e+00
    outer loop
      vertex 25.990000 0.000000 4.000000
      vertex 17.333500 0.000000 2.333500
      vertex 18.300000 0.000000 0.000000
    endloop
  endfacet
  facet normal -0.000000e+00 -1.000000e+00 0.000000e+00
    outer loop
      vertex 15.000000 0.000000 3.300000
      vertex 1.414200 0.000000 4.000000
      vertex 12.666500 0.000000 2.333500
    endloop
  endfacet
  facet normal -0.000000e+00 -1.000000e+00 0.000000e+00
    outer loop
      vertex 11.700000 0.000000 0.000000
      vertex 1.414200 0.000000 4.000000
      vertex 1.414200 0.000000 -4.000000
    endloop
  endfacet
  facet normal 0.000000e+00 -1.000000e+00 0.000000e+00
    outer loop
      vertex 28.000000 0.000000 -10.000000
      vertex 27.990000 0.000000 4.000000
      vertex 27.990000 0.000000 -4.000000
    endloop
  endfacet
  facet normal 0.000000e+00 -1.000000e+00 0.000000e+00
    outer loop
      vertex 28.000000 0.000000 -10.000000
      vertex 27.990000 0.000000 -4.000000
      vertex 0.000000 0.000000 -10.000000
    endloop
  endfacet
  facet normal 0.000000e+00 -1.000000e+00 0.000000e+00
    outer loop
      vertex 1.414200 0.000000 4.000000
      vertex 15.000000 0.000000 3.300000
      vertex 25.990000 0.000000 4.000000
    endloop
  endfacet
  facet normal 0.000000e+00 -1.000000e+00 0.000000e+00
    outer loop
      vertex 0.000000 0.000000 -10.000000
      vertex 1.414200 0.000000 -4.000000
      vertex 0.000000 0.000000 -4.000000
    endloop
  endfacet
  facet normal 7.071068e-01 7.071068e-01 0.000000e+00
    outer loop
      vertex 24.000000 4.000000 -6.000000
      vertex 28.000000 0.000000 10.000000
      vertex 28.000000 0.000000 -10.000000
    endloop
  endfacet
  facet normal 7.071068e-01 7.071068e-01 0.000000e+00
    outer loop
      vertex 28.000000 0.000000 10.000000
      vertex 24.000000 4.000000 -6.000000
      vertex 24.000000 4.000000 6.000000
    endloop
  endfacet
  facet normal 7.071068e-01 7.071068e-01 0.000000e+00
    outer loop
      vertex 0.000000 28.000000 -10.000000
      vertex 24.000000 4.000000 -6.000000
      vertex 28.000000 0.000000 -10.000000
    endloop
  endfacet
  facet normal 7.071068e-01 7.071068e-01 -0.000000e+00
    outer loop
      vertex 4.000000 24.000000 -6.000000
      vertex 0.000000 28.000000 10.000000
      vertex 4.000000 24.000000 6.000000
    endloop
  endfacet
  facet normal 7.071068e-01 7.071068e-01 0.000000e+00
    outer loop
      vertex 0.000000 28.000000 10.000000
      vertex 4.000000 24.000000 -6.000000
      vertex 0.000000 28.000000 -10.000000
    endloop
  endfacet
  facet normal 7.071068e-01 7.071068e-01 0.000000e+00
    outer loop
      vertex 28.000000 0.000000 10.000000
      vertex 4.000000 24.000000 6.000000
      vertex 0.000000 28.000000 10.000000
    endloop
  endfacet
  facet normal 7.071068e-01 7.071068e-01 0.000000e+00
    outer loop
      vertex 24.000000 4.000000 -6.000000
      vertex 0.000000 28.000000 -10.000000
      vertex 4.000000 24.000000 -6.000000
    endloop
  endfacet
  facet normal 7.071068e-01 7.071068e-01 0.000000e+00
    outer loop
      vertex 28.000000 0.000000 10.000000
      vertex 24.000000 4.000000 6.000000
      vertex 4.000000 24.000000 6.000000
    endloop
  endfacet
  facet normal 0.000000e+00 0.000000e+00 -1.000000e+00
    outer loop
      vertex 0.000000 28.000000 -10.000000
      vertex 28.000000 0.000000 -10.000000
      vertex 0.000000 0.000000 -10.000000
    endloop
  endfacet
  facet normal 0.000000e+00 0.000000e+00 1.000000e+00
    outer loop
      vertex 28.000000 0.000000 10.000000
      vertex 0.000000 28.000000 10.000000
      vertex 0.000000 0.000000 10.000000
    endloop
  endfacet
  facet normal 0.000000e+00 0.000000e+00 -1.000000e+00
    outer loop
      vertex 4.000000 4.000000 6.000000
      vertex 4.000000 24.000000 6.000000
      vertex 24.000000 4.000000 6.000000
    endloop
  endfacet
  facet normal 0.000000e+00 0.000000e+00 1.000000e+00
    outer loop
      vertex 4.000000 24.000000 -6.000000
      vertex 4.000000 4.000000 -6.000000
      vertex 24.000000 4.000000 -6.000000
    endloop
  endfacet
  facet normal -1.000000e+00 0.000000e+00 0.000000e+00
    outer loop
      vertex 25.990000 0.000000 -4.000000
      vertex 25.990000 -2.000000 4.000000
      vertex 25.990000 0.000000 4.000000
    endloop
  endfacet
  facet normal -1.000000e+00 0.000000e+00 0.000000e+00
    outer loop
      vertex 25.990000 -2.000000 4.000000
      vertex 25.990000 0.000000 -4.000000
      vertex 25.990000 -2.000000 -4.000000
    endloop
  endfacet
  facet normal 0.000000e+00 0.000000e+00 -1.000000e+00
    outer loop
      vertex 25.990000 -2.000000 -4.000000
      vertex 27.990000 0.000000 -4.000000
      vertex 27.990000 -2.000000 -4.000000
    endloop
  endfacet
  facet normal -0.000000e+00 0.000000e+00 -1.000000e+00
    outer loop
      vertex 27.990000 0.000000 -4.000000
      vertex 25.990000 -2.000000 -4.000000
      vertex 25.990000 0.000000 -4.000000
    endloop
  endfacet
  facet normal 1.000000e+00 0.000000e+00 0.000000e+00
    outer loop
      vertex 27.990000 0.000000 4.000000
      vertex 27.990000 -2.000000 -4.000000
      vertex 27.990000 0.000000 -4.000000
    endloop
  endfacet
  facet normal 1.000000e+00 0.000000e+00 0.000000e+00
    outer loop
      vertex 27.990000 -2.000000 -4.000000
      vertex 27.990000 0.000000 4.000000
      vertex 27.990000 -2.000000 4.000000
    endloop
  endfacet
  facet normal 0.000000e+00 0.000000e+00 1.000000e+00
    outer loop
      vertex 27.990000 -2.000000 4.000000
      vertex 25.990000 0.000000 4.000000
      vertex 25.990000 -2.000000 4.000000
    endloop
  endfacet
  facet normal -0.000000e+00 0.000000e+00 1.000000e+00
    outer loop
      vertex 25.990000 0.000000 4.000000
      vertex 27.990000 -2.000000 4.000000
      vertex 27.990000 0.000000 4.000000
    endloop
  endfacet
  facet normal 0.000000e+00 -1.000000e+00 -0.000000e+00
    outer loop
      vertex 27.990000 -2.000000 4.000000
      vertex 25.990000 -2.000000 -4.000000
      vertex 27.990000 -2.000000 -4.000000
    endloop
  endfacet
  facet normal 0.000000e+00 -1.000000e+00 0.000000e+00
    outer loop
      vertex 25.990000 -2.000000 -4.000000
      vertex 27.990000 -2.000000 4.000000
      vertex 25.990000 -2.000000 4.000000
    endloop
  endfacet
  facet normal 0.000000e+00 1.000000e+00 -0.000000e+00
    outer loop
      vertex 0.000000 27.990000 -4.000000
      vertex -2.000000 27.990000 4.000000
      vertex 0.000000 27.990000 4.000000
    endloop
  endfacet
  facet normal 0.000000e+00 1.000000e+00 0.000000e+00
    outer loop
      vertex -2.000000 27.990000 4.000000
      vertex 0.000000 27.990000 -4.000000
      vertex -2.000000 27.990000 -4.000000
    endloop
  endfacet
  facet normal 0.000000e+00 0.000000e+00 -1.000000e+00
    outer loop
      vertex 0.000000 25.990000 -4.000000
      vertex -2.000000 27.990000 -4.000000
      vertex 0.000000 27.990000 -4.000000
    endloop
  endfacet
  facet normal 0.000000e+00 0.000000e+00 -1.000000e+00
    outer loop
      vertex -2.000000 27.990000 -4.000000
      vertex 0.000000 25.990000 -4.000000
      vertex -2.000000 25.990000 -4.000000
    endloop
  endfacet
  facet normal 0.000000e+00 -1.000000e+00 -0.000000e+00
    outer loop
      vertex 0.000000 25.990000 4.000000
      vertex -2.000000 25.990000 -4.000000
      vertex 0.000000 25.990000 -4.000000
    endloop
  endfacet
  facet normal 0.000000e+00 -1.000000e+00 0.000000e+00
    outer loop
      vertex -2.000000 25.990000 -4.000000
      vertex 0.000000 25.990000 4.000000
      vertex -2.000000 25.990000 4.000000
    endloop
  endfacet
  facet normal 0.000000e+00 0.000000e+00 1.000000e+00
    outer loop
      vertex 0.000000 27.990000 4.000000
      vertex -2.000000 25.990000 4.000000
      vertex 0.000000 25.990000 4.000000
    endloop
  endfacet
  facet normal 0.000000e+00 0.000000e+00 1.000000e+00
    outer loop
      vertex -2.000000 25.990000 4.000000
      vertex 0.000000 27.990000 4.000000
      vertex -2.000000 27.990000 4.000000
    endloop
  endfacet
  facet normal -1.000000e+00 0.000000e+00 0.000000e+00
    outer loop
      vertex -2.000000 25.990000 4.000000
      vertex -2.000000 27.990000 -4.000000
      vertex -2.000000 25.990000 -4.000000
    endloop
  endfacet
  facet normal -1.000000e+00 0.000000e+00 0.000000e+00
    outer loop
      vertex -2.000000 27.990000 -4.000000
      vertex -2.000000 25.990000 4.000000
      vertex -2.000000 27.990000 4.000000
    endloop
  endfacet
  facet normal 0.000000e+00 -3.826607e-01 9.238890e-01
    outer loop
      vertex 0.000000 15.000000 -3.300000
      vertex 4.000000 17.333500 -2.333500
      vertex 0.000000 17.333500 -2.333500
    endloop
  endfacet
  facet normal 0.000000e+00 9.238890e-01 -3.826607e-01
    outer loop
      vertex 0.000000 12.666500 2.333500
      vertex 4.000000 11.700000 0.000000
      vertex 0.000000 11.700000 0.000000
    endloop
  endfacet
  facet normal 0.000000e+00 -3.826607e-01 -9.238890e-01
    outer loop
      vertex 0.000000 17.333500 2.333500
      vertex 4.000000 15.000000 3.300000
      vertex 0.000000 15.000000 3.300000
    endloop
  endfacet
  facet normal 0.000000e+00 -9.238890e-01 -3.826607e-01
    outer loop
      vertex 0.000000 18.300000 0.000000
      vertex 4.000000 17.333500 2.333500
      vertex 0.000000 17.333500 2.333500
    endloop
  endfacet
  facet normal 0.000000e+00 -9.238890e-01 3.826607e-01
    outer loop
      vertex 4.000000 18.300000 0.000000
      vertex 0.000000 17.333500 -2.333500
      vertex 4.000000 17.333500 -2.333500
    endloop
  endfacet
  facet normal 0.000000e+00 -9.238890e-01 3.826607e-01
    outer loop
      vertex 0.000000 17.333500 -2.333500
      vertex 4.000000 18.300000 0.000000
      vertex 0.000000 18.300000 0.000000
    endloop
  endfacet
  facet normal 0.000000e+00 -3.826607e-01 9.238890e-01
    outer loop
      vertex 4.000000 17.333500 -2.333500
      vertex 0.000000 15.000000 -3.300000
      vertex 4.000000 15.000000 -3.300000
    endloop
  endfacet
  facet normal 0.000000e+00 9.238890e-01 -3.826607e-01
    outer loop
      vertex 4.000000 11.700000 0.000000
      vertex 0.000000 12.666500 2.333500
      vertex 4.000000 12.666500 2.333500
    endloop
  endfacet
  facet normal 0.000000e+00 -3.826607e-01 -9.238890e-01
    outer loop
      vertex 4.000000 15.000000 3.300000
      vertex 0.000000 17.333500 2.333500
      vertex 4.000000 17.333500 2.333500
    endloop
  endfacet
  facet normal 0.000000e+00 3.826607e-01 -9.238890e-01
    outer loop
      vertex 0.000000 15.000000 3.300000
      vertex 4.000000 12.666500 2.333500
      vertex 0.000000 12.666500 2.333500
    endloop
  endfacet
  facet normal 0.000000e+00 3.826607e-01 -9.238890e-01
    outer loop
      vertex 4.000000 12.666500 2.333500
      vertex 0.000000 15.000000 3.300000
      vertex 4.000000 15.000000 3.300000
    endloop
  endfacet
  facet normal 0.000000e+00 9.238890e-01 3.826607e-01
    outer loop
      vertex 0.000000 11.700000 0.000000
      vertex 4.000000 12.666500 -2.333500
      vertex 0.000000 12.666500 -2.333500
    endloop
  endfacet
  facet normal 0.000000e+00 -9.238890e-01 -3.826607e-01
    outer loop
      vertex 4.000000 17.333500 2.333500
      vertex 0.000000 18.300000 0.000000
      vertex 4.000000 18.300000 0.000000
    endloop
  endfacet
  facet normal 0.000000e+00 3.826607e-01 9.238890e-01
    outer loop
      vertex 4.000000 15.000000 -3.300000
      vertex 0.000000 12.666500 -2.333500
      vertex 4.000000 12.666500 -2.333500
    endloop
  endfacet
  facet normal 0.000000e+00 9.238890e-01 3.826607e-01
    outer loop
      vertex 4.000000 12.666500 -2.333500
      vertex 0.000000 11.700000 0.000000
      vertex 4.000000 11.700000 0.000000
    endloop
  endfacet
  facet normal 0.000000e+00 3.826607e-01 9.238890e-01
    outer loop
      vertex 0.000000 12.666500 -2.333500
      vertex 4.000000 15.000000 -3.300000
      vertex 0.000000 15.000000 -3.300000
    endloop
  endfacet
  facet normal -3.826607e-01 0.000000e+00 -9.238890e-01
    outer loop
      vertex 15.000000 0.000000 3.300000
      vertex 17.333500 4.000000 2.333500
      vertex 17.333500 0.000000 2.333500
    endloop
  endfacet
  facet normal 9.238890e-01 0.000000e+00 -3.826607e-01
    outer loop
      vertex 11.700000 0.000000 0.000000
      vertex 12.666500 4.000000 2.333500
      vertex 12.666500 0.000000 2.333500
    endloop
  endfacet
  facet normal 9.238890e-01 0.000000e+00 3.826607e-01
    outer loop
      vertex 12.666500 0.000000 -2.333500
      vertex 11.700000 4.000000 0.000000
      vertex 11.700000 0.000000 0.000000
    endloop
  endfacet
  facet normal 3.826607e-01 0.000000e+00 9.238890e-01
    outer loop
      vertex 15.000000 0.000000 -3.300000
      vertex 12.666500 4.000000 -2.333500
      vertex 12.666500 0.000000 -2.333500
    endloop
  endfacet
  facet normal 3.826607e-01 0.000000e+00 -9.238890e-01
    outer loop
      vertex 15.000000 4.000000 3.300000
      vertex 12.666500 0.000000 2.333500
      vertex 12.666500 4.000000 2.333500
    endloop
  endfacet
  facet normal 9.238890e-01 0.000000e+00 -3.826607e-01
    outer loop
      vertex 12.666500 4.000000 2.333500
      vertex 11.700000 0.000000 0.000000
      vertex 11.700000 4.000000 0.000000
    endloop
  endfacet
  facet normal 9.238890e-01 0.000000e+00 3.826607e-01
    outer loop
      vertex 11.700000 4.000000 0.000000
      vertex 12.666500 0.000000 -2.333500
      vertex 12.666500 4.000000 -2.333500
    endloop
  endfacet
  facet normal 3.826607e-01 0.000000e+00 9.238890e-01
    outer loop
      vertex 12.666500 4.000000 -2.333500
      vertex 15.000000 0.000000 -3.300000
      vertex 15.000000 4.000000 -3.300000
    endloop
  endfacet
  facet normal -3.826607e-01 0.000000e+00 9.238890e-01
    outer loop
      vertex 15.000000 4.000000 -3.300000
      vertex 17.333500 0.000000 -2.333500
      vertex 17.333500 4.000000 -2.333500
    endloop
  endfacet
  facet normal -9.238890e-01 0.000000e+00 3.826607e-01
    outer loop
      vertex 17.333500 4.000000 -2.333500
      vertex 18.300000 0.000000 0.000000
      vertex 18.300000 4.000000 0.000000
    endloop
  endfacet
  facet normal -9.238890e-01 0.000000e+00 -3.826607e-01
    outer loop
      vertex 17.333500 0.000000 2.333500
      vertex 18.300000 4.000000 0.000000
      vertex 18.300000 0.000000 0.000000
    endloop
  endfacet
  facet normal -9.238890e-01 0.000000e+00 -3.826607e-01
    outer loop
      vertex 18.300000 4.000000 0.000000
      vertex 17.333500 0.000000 2.333500
      vertex 17.333500 4.000000 2.333500
    endloop
  endfacet
  facet normal -3.826607e-01 0.000000e+00 -9.238890e-01
    outer loop
      vertex 17.333500 4.000000 2.333500
      vertex 15.000000 0.000000 3.300000
      vertex 15.000000 4.000000 3.300000
    endloop
  endfacet
  facet normal 3.826607e-01 0.000000e+00 -9.238890e-01
    outer loop
      vertex 12.666500 0.000000 2.333500
      vertex 15.000000 4.000000 3.300000
      vertex 15.000000 0.000000 3.300000
    endloop
  endfacet
  facet normal -9.238890e-01 0.000000e+00 3.826607e-01
    outer loop
      vertex 18.300000 0.000000 0.000000
      vertex 17.333500 4.000000 -2.333500
      vertex 17.333500 0.000000 -2.333500
    endloop
  endfacet
  facet normal -3.826607e-01 0.000000e+00 9.238890e-01
    outer loop
      vertex 17.333500 0.000000 -2.333500
      vertex 15.000000 4.000000 -3.300000
      vertex 15.000000 0.000000 -3.300000
    endloop
  endfacet
  facet normal 7.070734e-01 -7.071401e-01 0.000000e+00
    outer loop
      vertex 0.353600 -1.060700 4.000000
      vertex -0.707100 -2.121300 -4.000000
      vertex 0.353600 -1.060700 -4.000000
    endloop
  endfacet
  facet normal 7.070734e-01 -7.071401e-01 0.000000e+00
    outer loop
      vertex -0.707100 -2.121300 -4.000000
      vertex 0.353600 -1.060700 4.000000
      vertex -0.707100 -2.121300 4.000000
    endloop
  endfacet
  facet normal -7.071068e-01 -7.071068e-01 -0.000000e+00
    outer loop
      vertex -0.707100 -2.121300 4.000000
      vertex -2.121300 -0.707100 -4.000000
      vertex -0.707100 -2.121300 -4.000000
    endloop
  endfacet
  facet normal -7.071068e-01 -7.071068e-01 0.000000e+00
    outer loop
      vertex -2.121300 -0.707100 -4.000000
      vertex -0.707100 -2.121300 4.000000
      vertex -2.121300 -0.707100 4.000000
    endloop
  endfacet
  facet normal -7.071068e-01 7.071068e-01 0.000000e+00
    outer loop
      vertex 0.000000 1.414200 4.000000
      vertex -2.121300 -0.707100 -4.000000
      vertex -2.121300 -0.707100 4.000000
    endloop
  endfacet
  facet normal -7.071068e-01 7.071068e-01 0.000000e+00
    outer loop
      vertex -2.121300 -0.707100 -4.000000
      vertex 0.000000 1.414200 4.000000
      vertex 0.000000 1.414200 -4.000000
    endloop
  endfacet
  facet normal 7.071401e-01 -7.070734e-01 0.000000e+00
    outer loop
      vertex 1.414200 0.000000 -4.000000
      vertex 0.353600 -1.060700 4.000000
      vertex 0.353600 -1.060700 -4.000000
    endloop
  endfacet
  facet normal 7.071401e-01 -7.070734e-01 0.000000e+00
    outer loop
      vertex 0.353600 -1.060700 4.000000
      vertex 1.414200 0.000000 -4.000000
      vertex 1.414200 0.000000 4.000000
    endloop
  endfacet
  facet normal 0.000000e+00 -0.000000e+00 -1.000000e+00
    outer loop
      vertex 0.000000 0.000000 -4.000000
      vertex 0.353600 -1.060700 -4.000000
      vertex -0.707100 -2.121300 -4.000000
    endloop
  endfacet
  facet normal -0.000000e+00 0.000000e+00 -1.000000e+00
    outer loop
      vertex 0.000000 0.000000 -4.000000
      vertex -2.121300 -0.707100 -4.000000
      vertex 0.000000 1.414200 -4.000000
    endloop
  endfacet
  facet normal 0.000000e+00 0.000000e+00 -1.000000e+00
    outer loop
      vertex 0.353600 -1.060700 -4.000000
      vertex 0.000000 0.000000 -4.000000
      vertex 1.414200 0.000000 -4.000000
    endloop
  endfacet
  facet normal 0.000000e+00 0.000000e+00 -1.000000e+00
    outer loop
      vertex -2.121300 -0.707100 -4.000000
      vertex 0.000000 0.000000 -4.000000
      vertex -0.707100 -2.121300 -4.000000
    endloop
  endfacet
  facet normal -0.000000e+00 0.000000e+00 1.000000e+00
    outer loop
      vertex 0.000000 0.000000 4.000000
      vertex 0.353600 -1.060700 4.000000
      vertex 1.414200 0.000000 4.000000
    endloop
  endfacet
  facet normal 0.000000e+00 0.000000e+00 1.000000e+00
    outer loop
      vertex -2.121300 -0.707100 4.000000
      vertex 0.000000 0.000000 4.000000
      vertex 0.000000 1.414200 4.000000
    endloop
  endfacet
  facet normal 0.000000e+00 0.000000e+00 1.000000e+00
    outer loop
      vertex 0.000000 0.000000 4.000000
      vertex -2.121300 -0.707100 4.000000
      vertex -0.707100 -2.121300 4.000000
    endloop
  endfacet
  facet normal 0.000000e+00 0.000000e+00 1.000000e+00
    outer loop
      vertex 0.353600 -1.060700 4.000000
      vertex 0.000000 0.000000 4.000000
      vertex -0.707100 -2.121300 4.000000
    endloop
  endfacet
endsolid 1.46.203.2028.1
