solid 1.46.110
  facet normal 0.000000e+00 -1.000000e+00 0.000000e+00
    outer loop
      vertex 15.000000 0.000000 3.300000
      vertex 40.000000 0.000000 10.000000
      vertex 0.000000 0.000000 10.000000
    endloop
  endfacet
  facet normal 0.000000e+00 -1.000000e+00 0.000000e+00
    outer loop
      vertex 40.000000 0.000000 10.000000
      vertex 15.000000 0.000000 3.300000
      vertex 27.000000 0.000000 3.300000
    endloop
  endfacet
  facet normal 0.000000e+00 -1.000000e+00 0.000000e+00
    outer loop
      vertex 30.300000 0.000000 0.000000
      vertex 40.000000 0.000000 10.000000
      vertex 29.333500 0.000000 2.333500
    endloop
  endfacet
  facet normal -0.000000e+00 -1.000000e+00 0.000000e+00
    outer loop
      vertex 15.000000 0.000000 3.300000
      vertex 0.000000 0.000000 10.000000
      vertex 12.666500 0.000000 2.333500
    endloop
  endfacet
  facet normal 0.000000e+00 -1.000000e+00 -0.000000e+00
    outer loop
      vertex 11.700000 0.000000 0.000000
      vertex 0.000000 0.000000 -10.000000
      vertex 12.666500 0.000000 -2.333500
    endloop
  endfacet
  facet normal 0.000000e+00 -1.000000e+00 0.000000e+00
    outer loop
      vertex 40.000000 0.000000 10.000000
      vertex 27.000000 0.000000 3.300000
      vertex 29.333500 0.000000 2.333500
    endloop
  endfacet
  facet normal 0.000000e+00 -1.000000e+00 0.000000e+00
    outer loop
      vertex 0.000000 0.000000 -10.000000
      vertex 11.700000 0.000000 0.000000
      vertex 0.000000 0.000000 10.000000
    endloop
  endfacet
  facet normal 0.000000e+00 -1.000000e+00 0.000000e+00
    outer loop
      vertex 29.333500 0.000000 -2.333500
      vertex 40.000000 0.000000 -10.000000
      vertex 30.300000 0.000000 0.000000
    endloop
  endfacet
  facet normal 0.000000e+00 -1.000000e+00 0.000000e+00
    outer loop
      vertex 0.000000 0.000000 10.000000
      vertex 11.700000 0.000000 0.000000
      vertex 12.666500 0.000000 2.333500
    endloop
  endfacet
  facet normal 0.000000e+00 -1.000000e+00 0.000000e+00
    outer loop
      vertex 15.000000 0.000000 -3.300000
      vertex 40.000000 0.000000 -10.000000
      vertex 27.000000 0.000000 -3.300000
    endloop
  endfacet
  facet normal 0.000000e+00 -1.000000e+00 -0.000000e+00
    outer loop
      vertex 40.000000 0.000000 10.000000
      vertex 30.300000 0.000000 0.000000
      vertex 40.000000 0.000000 -10.000000
    endloop
  endfacet
  facet normal 0.000000e+00 -1.000000e+00 0.000000e+00
    outer loop
      vertex 40.000000 0.000000 -10.000000
      vertex 15.000000 0.000000 -3.300000
      vertex 0.000000 0.000000 -10.000000
    endloop
  endfacet
  facet normal 0.000000e+00 -1.000000e+00 0.000000e+00
    outer loop
      vertex 0.000000 0.000000 -10.000000
      vertex 15.000000 0.000000 -3.300000
      vertex 12.666500 0.000000 -2.333500
    endloop
  endfacet
  facet normal 0.000000e+00 -1.000000e+00 0.000000e+00
    outer loop
      vertex 40.000000 0.000000 -10.000000
      vertex 29.333500 0.000000 -2.333500
      vertex 27.000000 0.000000 -3.300000
    endloop
  endfacet
  facet normal 0.000000e+00 1.000000e+00 0.000000e+00
    outer loop
      vertex 4.000000 4.000000 -10.000000
      vertex 27.000000 4.000000 -3.300000
      vertex 40.000000 4.000000 -10.000000
    endloop
  endfacet
  facet normal 0.000000e+00 1.000000e+00 -0.000000e+00
    outer loop
      vertex 11.700000 4.000000 0.000000
      vertex 4.000000 4.000000 10.000000
      vertex 12.666500 4.000000 2.333500
    endloop
  endfacet
  facet normal -0.000000e+00 1.000000e+00 0.000000e+00
    outer loop
      vertex 30.300000 4.000000 0.000000
      vertex 40.000000 4.000000 10.000000
      vertex 40.000000 4.000000 -10.000000
    endloop
  endfacet
  facet normal 0.000000e+00 1.000000e+00 0.000000e+00
    outer loop
      vertex 15.000000 4.000000 -3.300000
      vertex 4.000000 4.000000 -10.000000
      vertex 12.666500 4.000000 -2.333500
    endloop
  endfacet
  facet normal 0.000000e+00 1.000000e+00 0.000000e+00
    outer loop
      vertex 11.700000 4.000000 0.000000
      vertex 4.000000 4.000000 -10.000000
      vertex 4.000000 4.000000 10.000000
    endloop
  endfacet
  facet normal 0.000000e+00 1.000000e+00 -0.000000e+00
    outer loop
      vertex 27.000000 4.000000 3.300000
      vertex 4.000000 4.000000 10.000000
      vertex 40.000000 4.000000 10.000000
    endloop
  endfacet
  facet normal 0.000000e+00 1.000000e+00 0.000000e+00
    outer loop
      vertex 40.000000 4.000000 10.000000
      vertex 30.300000 4.000000 0.000000
      vertex 29.333500 4.000000 2.333500
    endloop
  endfacet
  facet normal 0.000000e+00 1.000000e+00 0.000000e+00
    outer loop
      vertex 40.000000 4.000000 10.000000
      vertex 29.333500 4.000000 2.333500
      vertex 27.000000 4.000000 3.300000
    endloop
  endfacet
  facet normal 0.000000e+00 1.000000e+00 0.000000e+00
    outer loop
      vertex 4.000000 4.000000 -10.000000
      vertex 11.700000 4.000000 0.000000
      vertex 12.666500 4.000000 -2.333500
    endloop
  endfacet
  facet normal 0.000000e+00 1.000000e+00 0.000000e+00
    outer loop
      vertex 4.000000 4.000000 10.000000
      vertex 15.000000 4.000000 3.300000
      vertex 12.666500 4.000000 2.333500
    endloop
  endfacet
  facet normal 0.000000e+00 1.000000e+00 0.000000e+00
    outer loop
      vertex 40.000000 4.000000 -10.000000
      vertex 29.333500 4.000000 -2.333500
      vertex 30.300000 4.000000 0.000000
    endloop
  endfacet
  facet normal 0.000000e+00 1.000000e+00 0.000000e+00
    outer loop
      vertex 40.000000 4.000000 -10.000000
      vertex 27.000000 4.000000 -3.300000
      vertex 29.333500 4.000000 -2.333500
    endloop
  endfacet
  facet normal 0.000000e+00 1.000000e+00 0.000000e+00
    outer loop
      vertex 27.000000 4.000000 -3.300000
      vertex 4.000000 4.000000 -10.000000
      vertex 15.000000 4.000000 -3.300000
    endloop
  endfacet
  facet normal 0.000000e+00 1.000000e+00 0.000000e+00
    outer loop
      vertex 4.000000 4.000000 10.000000
      vertex 27.000000 4.000000 3.300000
      vertex 15.000000 4.000000 3.300000
    endloop
  endfacet
  facet normal -1.000000e+00 0.000000e+00 0.000000e+00
    outer loop
      vertex 0.000000 25.000000 10.000000
      vertex 0.000000 17.580000 2.057500
      vertex 0.000000 15.000000 3.300000
    endloop
  endfacet
  facet normal -1.000000e+00 0.000000e+00 0.000000e+00
    outer loop
      vertex 0.000000 0.000000 -10.000000
      vertex 0.000000 15.000000 -3.300000
      vertex 0.000000 25.000000 -10.000000
    endloop
  endfacet
  facet normal -1.000000e+00 -0.000000e+00 0.000000e+00
    outer loop
      vertex 0.000000 13.568200 -2.973200
      vertex 0.000000 0.000000 -10.000000
      vertex 0.000000 11.782700 -0.734300
    endloop
  endfacet
  facet normal -1.000000e+00 0.000000e+00 0.000000e+00
    outer loop
      vertex 0.000000 25.000000 -10.000000
      vertex 0.000000 15.000000 -3.300000
      vertex 0.000000 16.431800 -2.973200
    endloop
  endfacet
  facet normal -1.000000e+00 0.000000e+00 0.000000e+00
    outer loop
      vertex 0.000000 11.782700 -0.734300
      vertex 0.000000 0.000000 10.000000
      vertex 0.000000 12.420000 2.057500
    endloop
  endfacet
  facet normal -1.000000e+00 0.000000e+00 0.000000e+00
    outer loop
      vertex 0.000000 18.217300 -0.734300
      vertex 0.000000 25.000000 10.000000
      vertex 0.000000 25.000000 -10.000000
    endloop
  endfacet
  facet normal -1.000000e+00 0.000000e+00 0.000000e+00
    outer loop
      vertex 0.000000 0.000000 10.000000
      vertex 0.000000 11.782700 -0.734300
      vertex 0.000000 0.000000 -10.000000
    endloop
  endfacet
  facet normal -1.000000e+00 0.000000e+00 0.000000e+00
    outer loop
      vertex 0.000000 15.000000 3.300000
      vertex 0.000000 0.000000 10.000000
      vertex 0.000000 25.000000 10.000000
    endloop
  endfacet
  facet normal -1.000000e+00 0.000000e+00 0.000000e+00
    outer loop
      vertex 0.000000 25.000000 10.000000
      vertex 0.000000 18.217300 -0.734300
      vertex 0.000000 17.580000 2.057500
    endloop
  endfacet
  facet normal -1.000000e+00 0.000000e+00 0.000000e+00
    outer loop
      vertex 0.000000 0.000000 10.000000
      vertex 0.000000 15.000000 3.300000
      vertex 0.000000 12.420000 2.057500
    endloop
  endfacet
  facet normal -1.000000e+00 0.000000e+00 0.000000e+00
    outer loop
      vertex 0.000000 25.000000 -10.000000
      vertex 0.000000 16.431800 -2.973200
      vertex 0.000000 18.217300 -0.734300
    endloop
  endfacet
  facet normal -1.000000e+00 -0.000000e+00 0.000000e+00
    outer loop
      vertex 0.000000 15.000000 -3.300000
      vertex 0.000000 0.000000 -10.000000
      vertex 0.000000 13.568200 -2.973200
    endloop
  endfacet
  facet normal 1.000000e+00 0.000000e+00 0.000000e+00
    outer loop
      vertex 4.000000 25.000000 10.000000
      vertex 4.000000 18.217300 -0.734300
      vertex 4.000000 25.000000 -10.000000
    endloop
  endfacet
  facet normal 1.000000e+00 -0.000000e+00 0.000000e+00
    outer loop
      vertex 4.000000 13.568200 -2.973200
      vertex 4.000000 25.000000 -10.000000
      vertex 4.000000 16.431800 -2.973200
    endloop
  endfacet
  facet normal 1.000000e+00 0.000000e+00 0.000000e+00
    outer loop
      vertex 4.000000 11.782700 -0.734300
      vertex 4.000000 4.000000 -10.000000
      vertex 4.000000 13.568200 -2.973200
    endloop
  endfacet
  facet normal 1.000000e+00 0.000000e+00 0.000000e+00
    outer loop
      vertex 4.000000 25.000000 -10.000000
      vertex 4.000000 18.217300 -0.734300
      vertex 4.000000 16.431800 -2.973200
    endloop
  endfacet
  facet normal 1.000000e+00 0.000000e+00 0.000000e+00
    outer loop
      vertex 4.000000 25.000000 10.000000
      vertex 4.000000 15.000000 3.300000
      vertex 4.000000 17.580000 2.057500
    endloop
  endfacet
  facet normal 1.000000e+00 0.000000e+00 0.000000e+00
    outer loop
      vertex 4.000000 15.000000 3.300000
      vertex 4.000000 4.000000 10.000000
      vertex 4.000000 12.420000 2.057500
    endloop
  endfacet
  facet normal 1.000000e+00 -0.000000e+00 0.000000e+00
    outer loop
      vertex 4.000000 4.000000 10.000000
      vertex 4.000000 15.000000 3.300000
      vertex 4.000000 25.000000 10.000000
    endloop
  endfacet
  facet normal 1.000000e+00 0.000000e+00 0.000000e+00
    outer loop
      vertex 4.000000 11.782700 -0.734300
      vertex 4.000000 4.000000 10.000000
      vertex 4.000000 4.000000 -10.000000
    endloop
  endfacet
  facet normal 1.000000e+00 0.000000e+00 0.000000e+00
    outer loop
      vertex 4.000000 4.000000 10.000000
      vertex 4.000000 11.782700 -0.734300
      vertex 4.000000 12.420000 2.057500
    endloop
  endfacet
  facet normal 1.000000e+00 0.000000e+00 -0.000000e+00
    outer loop
      vertex 4.000000 18.217300 -0.734300
      vertex 4.000000 25.000000 10.000000
      vertex 4.000000 17.580000 2.057500
    endloop
  endfacet
  facet normal 1.000000e+00 0.000000e+00 0.000000e+00
    outer loop
      vertex 4.000000 25.000000 -10.000000
      vertex 4.000000 13.568200 -2.973200
      vertex 4.000000 4.000000 -10.000000
    endloop
  endfacet
  facet normal 1.000000e+00 0.000000e+00 0.000000e+00
    outer loop
      vertex 40.000000 0.000000 -10.000000
      vertex 40.000000 4.000000 10.000000
      vertex 40.000000 0.000000 10.000000
    endloop
  endfacet
  facet normal 1.000000e+00 0.000000e+00 0.000000e+00
    outer loop
      vertex 40.000000 4.000000 10.000000
      vertex 40.000000 0.000000 -10.000000
      vertex 40.000000 4.000000 -10.000000
    endloop
  endfacet
  facet normal 0.000000e+00 1.000000e+00 0.000000e+00
    outer loop
      vertex 0.000000 25.000000 10.000000
      vertex 4.000000 25.000000 -10.000000
      vertex 0.000000 25.000000 -10.000000
    endloop
  endfacet
  facet normal 0.000000e+00 1.000000e+00 -0.000000e+00
    outer loop
      vertex 4.000000 25.000000 -10.000000
      vertex 0.000000 25.000000 10.000000
      vertex 4.000000 25.000000 10.000000
    endloop
  endfacet
  facet normal -0.000000e+00 0.000000e+00 1.000000e+00
    outer loop
      vertex 0.000000 25.000000 10.000000
      vertex 4.000000 4.000000 10.000000
      vertex 4.000000 25.000000 10.000000
    endloop
  endfacet
  facet normal -0.000000e+00 0.000000e+00 1.000000e+00
    outer loop
      vertex 4.000000 4.000000 10.000000
      vertex 40.000000 0.000000 10.000000
      vertex 40.000000 4.000000 10.000000
    endloop
  endfacet
  facet normal 0.000000e+00 0.000000e+00 1.000000e+00
    outer loop
      vertex 40.000000 0.000000 10.000000
      vertex 4.000000 4.000000 10.000000
      vertex 0.000000 0.000000 10.000000
    endloop
  endfacet
  facet normal 0.000000e+00 0.000000e+00 1.000000e+00
    outer loop
      vertex 4.000000 4.000000 10.000000
      vertex 0.000000 25.000000 10.000000
      vertex 0.000000 0.000000 10.000000
    endloop
  endfacet
  facet normal 0.000000e+00 0.000000e+00 -1.000000e+00
    outer loop
      vertex 40.000000 0.000000 -10.000000
      vertex 4.000000 4.000000 -10.000000
      vertex 40.000000 4.000000 -10.000000
    endloop
  endfacet
  facet normal 0.000000e+00 0.000000e+00 -1.000000e+00
    outer loop
      vertex 0.000000 25.000000 -10.000000
      vertex 4.000000 4.000000 -10.000000
      vertex 0.000000 0.000000 -10.000000
    endloop
  endfacet
  facet normal 0.000000e+00 0.000000e+00 -1.000000e+00
    outer loop
      vertex 4.000000 4.000000 -10.000000
      vertex 0.000000 25.000000 -10.000000
      vertex 4.000000 25.000000 -10.000000
    endloop
  endfacet
  facet normal 0.000000e+00 -0.000000e+00 -1.000000e+00
    outer loop
      vertex 4.000000 4.000000 -10.000000
      vertex 40.000000 0.000000 -10.000000
      vertex 0.000000 0.000000 -10.000000
    endloop
  endfacet
  facet normal 0.000000e+00 9.749211e-01 -2.225508e-01
    outer loop
      vertex 4.000000 11.782700 -0.734300
      vertex 0.000000 12.420000 2.057500
      vertex 4.000000 12.420000 2.057500
    endloop
  endfacet
  facet normal 0.000000e+00 7.818252e-01 6.234977e-01
    outer loop
      vertex 4.000000 13.568200 -2.973200
      vertex 0.000000 11.782700 -0.734300
      vertex 4.000000 11.782700 -0.734300
    endloop
  endfacet
  facet normal 0.000000e+00 2.225216e-01 9.749278e-01
    outer loop
      vertex 4.000000 13.568200 -2.973200
      vertex 0.000000 15.000000 -3.300000
      vertex 0.000000 13.568200 -2.973200
    endloop
  endfacet
  facet normal 0.000000e+00 4.338944e-01 -9.009638e-01
    outer loop
      vertex 4.000000 12.420000 2.057500
      vertex 0.000000 15.000000 3.300000
      vertex 4.000000 15.000000 3.300000
    endloop
  endfacet
  facet normal 0.000000e+00 -9.749211e-01 -2.225508e-01
    outer loop
      vertex 4.000000 17.580000 2.057500
      vertex 0.000000 18.217300 -0.734300
      vertex 4.000000 18.217300 -0.734300
    endloop
  endfacet
  facet normal 0.000000e+00 -4.338944e-01 -9.009638e-01
    outer loop
      vertex 4.000000 15.000000 3.300000
      vertex 0.000000 17.580000 2.057500
      vertex 4.000000 17.580000 2.057500
    endloop
  endfacet
  facet normal 0.000000e+00 -4.338944e-01 -9.009638e-01
    outer loop
      vertex 0.000000 17.580000 2.057500
      vertex 4.000000 15.000000 3.300000
      vertex 0.000000 15.000000 3.300000
    endloop
  endfacet
  facet normal 0.000000e+00 -9.749211e-01 -2.225508e-01
    outer loop
      vertex 0.000000 18.217300 -0.734300
      vertex 4.000000 17.580000 2.057500
      vertex 0.000000 17.580000 2.057500
    endloop
  endfacet
  facet normal 0.000000e+00 -7.818252e-01 6.234977e-01
    outer loop
      vertex 0.000000 16.431800 -2.973200
      vertex 4.000000 18.217300 -0.734300
      vertex 0.000000 18.217300 -0.734300
    endloop
  endfacet
  facet normal 0.000000e+00 -2.225216e-01 9.749278e-01
    outer loop
      vertex 0.000000 15.000000 -3.300000
      vertex 4.000000 16.431800 -2.973200
      vertex 0.000000 16.431800 -2.973200
    endloop
  endfacet
  facet normal -8.142869e-02 0.000000e+00 9.966792e-01
    outer loop
      vertex 0.000000 15.000000 -3.300000
      vertex 4.000000 13.568200 -2.973200
      vertex 4.000000 16.431800 -2.973200
    endloop
  endfacet
  facet normal 0.000000e+00 7.818252e-01 6.234977e-01
    outer loop
      vertex 0.000000 11.782700 -0.734300
      vertex 4.000000 13.568200 -2.973200
      vertex 0.000000 13.568200 -2.973200
    endloop
  endfacet
  facet normal 0.000000e+00 9.749211e-01 -2.225508e-01
    outer loop
      vertex 0.000000 12.420000 2.057500
      vertex 4.000000 11.782700 -0.734300
      vertex 0.000000 11.782700 -0.734300
    endloop
  endfacet
  facet normal 0.000000e+00 -7.818252e-01 6.234977e-01
    outer loop
      vertex 4.000000 18.217300 -0.734300
      vertex 0.000000 16.431800 -2.973200
      vertex 4.000000 16.431800 -2.973200
    endloop
  endfacet
  facet normal 0.000000e+00 4.338944e-01 -9.009638e-01
    outer loop
      vertex 0.000000 15.000000 3.300000
      vertex 4.000000 12.420000 2.057500
      vertex 0.000000 12.420000 2.057500
    endloop
  endfacet
  facet normal 3.826607e-01 0.000000e+00 9.238890e-01
    outer loop
      vertex 12.666500 4.000000 -2.333500
      vertex 15.000000 0.000000 -3.300000
      vertex 15.000000 4.000000 -3.300000
    endloop
  endfacet
  facet normal 9.238890e-01 0.000000e+00 3.826607e-01
    outer loop
      vertex 11.700000 4.000000 0.000000
      vertex 12.666500 0.000000 -2.333500
      vertex 12.666500 4.000000 -2.333500
    endloop
  endfacet
  facet normal 9.238890e-01 0.000000e+00 -3.826607e-01
    outer loop
      vertex 12.666500 4.000000 2.333500
      vertex 11.700000 0.000000 0.000000
      vertex 11.700000 4.000000 0.000000
    endloop
  endfacet
  facet normal 3.826607e-01 0.000000e+00 -9.238890e-01
    outer loop
      vertex 15.000000 4.000000 3.300000
      vertex 12.666500 0.000000 2.333500
      vertex 12.666500 4.000000 2.333500
    endloop
  endfacet
  facet normal 3.826607e-01 0.000000e+00 -9.238890e-01
    outer loop
      vertex 12.666500 0.000000 2.333500
      vertex 15.000000 4.000000 3.300000
      vertex 15.000000 0.000000 3.300000
    endloop
  endfacet
  facet normal 9.238890e-01 0.000000e+00 -3.826607e-01
    outer loop
      vertex 11.700000 0.000000 0.000000
      vertex 12.666500 4.000000 2.333500
      vertex 12.666500 0.000000 2.333500
    endloop
  endfacet
  facet normal 9.238890e-01 0.000000e+00 3.826607e-01
    outer loop
      vertex 12.666500 0.000000 -2.333500
      vertex 11.700000 4.000000 0.000000
      vertex 11.700000 0.000000 0.000000
    endloop
  endfacet
  facet normal 3.826607e-01 0.000000e+00 9.238890e-01
    outer loop
      vertex 15.000000 0.000000 -3.300000
      vertex 12.666500 4.000000 -2.333500
      vertex 12.666500 0.000000 -2.333500
    endloop
  endfacet
  facet normal 0.000000e+00 0.000000e+00 -1.000000e+00
    outer loop
      vertex 15.000000 0.000000 3.300000
      vertex 27.000000 4.000000 3.300000
      vertex 27.000000 0.000000 3.300000
    endloop
  endfacet
  facet normal -0.000000e+00 0.000000e+00 -1.000000e+00
    outer loop
      vertex 27.000000 4.000000 3.300000
      vertex 15.000000 0.000000 3.300000
      vertex 15.000000 4.000000 3.300000
    endloop
  endfacet
  facet normal -9.238890e-01 0.000000e+00 -3.826607e-01
    outer loop
      vertex 30.300000 4.000000 0.000000
      vertex 29.333500 0.000000 2.333500
      vertex 29.333500 4.000000 2.333500
    endloop
  endfacet
  facet normal -9.238890e-01 0.000000e+00 3.826607e-01
    outer loop
      vertex 29.333500 4.000000 -2.333500
      vertex 30.300000 0.000000 0.000000
      vertex 30.300000 4.000000 0.000000
    endloop
  endfacet
  facet normal -3.826607e-01 0.000000e+00 9.238890e-01
    outer loop
      vertex 27.000000 4.000000 -3.300000
      vertex 29.333500 0.000000 -2.333500
      vertex 29.333500 4.000000 -2.333500
    endloop
  endfacet
  facet normal -3.826607e-01 0.000000e+00 9.238890e-01
    outer loop
      vertex 29.333500 0.000000 -2.333500
      vertex 27.000000 4.000000 -3.300000
      vertex 27.000000 0.000000 -3.300000
    endloop
  endfacet
  facet normal -9.238890e-01 0.000000e+00 3.826607e-01
    outer loop
      vertex 30.300000 0.000000 0.000000
      vertex 29.333500 4.000000 -2.333500
      vertex 29.333500 0.000000 -2.333500
    endloop
  endfacet
  facet normal -9.238890e-01 0.000000e+00 -3.826607e-01
    outer loop
      vertex 29.333500 0.000000 2.333500
      vertex 30.300000 4.000000 0.000000
      vertex 30.300000 0.000000 0.000000
    endloop
  endfacet
  facet normal -3.826607e-01 0.000000e+00 -9.238890e-01
    outer loop
      vertex 27.000000 0.000000 3.300000
      vertex 29.333500 4.000000 2.333500
      vertex 29.333500 0.000000 2.333500
    endloop
  endfacet
  facet normal -3.826607e-01 0.000000e+00 -9.238890e-01
    outer loop
      vertex 29.333500 4.000000 2.333500
      vertex 27.000000 0.000000 3.300000
      vertex 27.000000 4.000000 3.300000
    endloop
  endfacet
  facet normal 0.000000e+00 0.000000e+00 1.000000e+00
    outer loop
      vertex 27.000000 4.000000 -3.300000
      vertex 15.000000 0.000000 -3.300000
      vertex 27.000000 0.000000 -3.300000
    endloop
  endfacet
  facet normal 0.000000e+00 0.000000e+00 1.000000e+00
    outer loop
      vertex 15.000000 0.000000 -3.300000
      vertex 27.000000 4.000000 -3.300000
      vertex 15.000000 4.000000 -3.300000
    endloop
  endfacet
endsolid 1.46.110
