solid 7.11.706.89/01
  facet normal -1.000000e+00 -0.000000e+00 0.000000e+00
    outer loop
      vertex 0.000000 27.500000 -9.500000
      vertex 0.000000 6.000000 -15.000000
      vertex 0.000000 23.602900 -7.250000
    endloop
  endfacet
  facet normal -1.000000e+00 -0.000000e+00 0.000000e+00
    outer loop
      vertex 0.000000 42.500000 13.660300
      vertex 0.000000 35.000000 -0.500000
      vertex 0.000000 37.500000 15.000000
    endloop
  endfacet
  facet normal -1.000000e+00 0.000000e+00 0.000000e+00
    outer loop
      vertex 0.000000 38.897100 -7.250000
      vertex 0.000000 37.500000 -15.000000
      vertex 0.000000 35.000000 -9.500000
    endloop
  endfacet
  facet normal -1.000000e+00 -0.000000e+00 0.000000e+00
    outer loop
      vertex 0.000000 23.602900 -2.750000
      vertex 0.000000 6.000000 -15.000000
      vertex 0.000000 6.000000 15.000000
    endloop
  endfacet
  facet normal -1.000000e+00 0.000000e+00 0.000000e+00
    outer loop
      vertex 0.000000 35.000000 -0.500000
      vertex 0.000000 47.500000 5.000000
      vertex 0.000000 38.897100 -2.750000
    endloop
  endfacet
  facet normal -1.000000e+00 0.000000e+00 0.000000e+00
    outer loop
      vertex 0.000000 6.000000 -15.000000
      vertex 0.000000 23.602900 -2.750000
      vertex 0.000000 23.602900 -7.250000
    endloop
  endfacet
  facet normal -1.000000e+00 -0.000000e+00 0.000000e+00
    outer loop
      vertex 0.000000 47.500000 -5.000000
      vertex 0.000000 38.897100 -7.250000
      vertex 0.000000 38.897100 -2.750000
    endloop
  endfacet
  facet normal -1.000000e+00 0.000000e+00 0.000000e+00
    outer loop
      vertex 0.000000 6.000000 15.000000
      vertex 0.000000 27.500000 -0.500000
      vertex 0.000000 23.602900 -2.750000
    endloop
  endfacet
  facet normal -1.000000e+00 0.000000e+00 0.000000e+00
    outer loop
      vertex 0.000000 37.500000 -15.000000
      vertex 0.000000 27.500000 -9.500000
      vertex 0.000000 35.000000 -9.500000
    endloop
  endfacet
  facet normal -1.000000e+00 0.000000e+00 0.000000e+00
    outer loop
      vertex 0.000000 47.500000 -5.000000
      vertex 0.000000 38.897100 -2.750000
      vertex 0.000000 47.500000 5.000000
    endloop
  endfacet
  facet normal -1.000000e+00 -0.000000e+00 0.000000e+00
    outer loop
      vertex 0.000000 46.160300 10.000000
      vertex 0.000000 35.000000 -0.500000
      vertex 0.000000 42.500000 13.660300
    endloop
  endfacet
  facet normal -1.000000e+00 0.000000e+00 0.000000e+00
    outer loop
      vertex 0.000000 27.500000 -0.500000
      vertex 0.000000 37.500000 15.000000
      vertex 0.000000 35.000000 -0.500000
    endloop
  endfacet
  facet normal -1.000000e+00 -0.000000e+00 0.000000e+00
    outer loop
      vertex 0.000000 37.500000 15.000000
      vertex 0.000000 27.500000 -0.500000
      vertex 0.000000 6.000000 15.000000
    endloop
  endfacet
  facet normal -1.000000e+00 0.000000e+00 0.000000e+00
    outer loop
      vertex 0.000000 37.500000 -15.000000
      vertex 0.000000 38.897100 -7.250000
      vertex 0.000000 42.500000 -13.660300
    endloop
  endfacet
  facet normal -1.000000e+00 0.000000e+00 -0.000000e+00
    outer loop
      vertex 0.000000 27.500000 -9.500000
      vertex 0.000000 37.500000 -15.000000
      vertex 0.000000 6.000000 -15.000000
    endloop
  endfacet
  facet normal -1.000000e+00 -0.000000e+00 0.000000e+00
    outer loop
      vertex 0.000000 47.500000 5.000000
      vertex 0.000000 35.000000 -0.500000
      vertex 0.000000 46.160300 10.000000
    endloop
  endfacet
  facet normal -1.000000e+00 0.000000e+00 0.000000e+00
    outer loop
      vertex 0.000000 38.897100 -7.250000
      vertex 0.000000 47.500000 -5.000000
      vertex 0.000000 46.160300 -10.000000
    endloop
  endfacet
  facet normal -1.000000e+00 0.000000e+00 0.000000e+00
    outer loop
      vertex 0.000000 42.500000 -13.660300
      vertex 0.000000 38.897100 -7.250000
      vertex 0.000000 46.160300 -10.000000
    endloop
  endfacet
  facet normal 0.000000e+00 -1.000000e+00 0.000000e+00
    outer loop
      vertex 6.000000 0.000000 -15.000000
      vertex 23.602900 0.000000 -2.750000
      vertex 6.000000 0.000000 15.000000
    endloop
  endfacet
  facet normal 0.000000e+00 -1.000000e+00 0.000000e+00
    outer loop
      vertex 35.000000 0.000000 -0.500000
      vertex 42.500000 0.000000 13.660300
      vertex 37.500000 0.000000 15.000000
    endloop
  endfacet
  facet normal 0.000000e+00 -1.000000e+00 0.000000e+00
    outer loop
      vertex 38.897100 0.000000 -2.750000
      vertex 47.500000 0.000000 -5.000000
      vertex 47.500000 0.000000 5.000000
    endloop
  endfacet
  facet normal -0.000000e+00 -1.000000e+00 0.000000e+00
    outer loop
      vertex 27.500000 0.000000 -0.500000
      vertex 6.000000 0.000000 15.000000
      vertex 23.602900 0.000000 -2.750000
    endloop
  endfacet
  facet normal 0.000000e+00 -1.000000e+00 0.000000e+00
    outer loop
      vertex 47.500000 0.000000 -5.000000
      vertex 38.897100 0.000000 -7.250000
      vertex 46.160300 0.000000 -10.000000
    endloop
  endfacet
  facet normal 0.000000e+00 -1.000000e+00 0.000000e+00
    outer loop
      vertex 6.000000 0.000000 -15.000000
      vertex 27.500000 0.000000 -9.500000
      vertex 23.602900 0.000000 -7.250000
    endloop
  endfacet
  facet normal 0.000000e+00 -1.000000e+00 0.000000e+00
    outer loop
      vertex 37.500000 0.000000 15.000000
      vertex 27.500000 0.000000 -0.500000
      vertex 35.000000 0.000000 -0.500000
    endloop
  endfacet
  facet normal 0.000000e+00 -1.000000e+00 0.000000e+00
    outer loop
      vertex 47.500000 0.000000 5.000000
      vertex 35.000000 0.000000 -0.500000
      vertex 38.897100 0.000000 -2.750000
    endloop
  endfacet
  facet normal 0.000000e+00 -1.000000e+00 0.000000e+00
    outer loop
      vertex 27.500000 0.000000 -9.500000
      vertex 37.500000 0.000000 -15.000000
      vertex 35.000000 0.000000 -9.500000
    endloop
  endfacet
  facet normal 0.000000e+00 -1.000000e+00 0.000000e+00
    outer loop
      vertex 37.500000 0.000000 -15.000000
      vertex 38.897100 0.000000 -7.250000
      vertex 35.000000 0.000000 -9.500000
    endloop
  endfacet
  facet normal 0.000000e+00 -1.000000e+00 0.000000e+00
    outer loop
      vertex 35.000000 0.000000 -0.500000
      vertex 47.500000 0.000000 5.000000
      vertex 46.160300 0.000000 10.000000
    endloop
  endfacet
  facet normal 0.000000e+00 -1.000000e+00 0.000000e+00
    outer loop
      vertex 37.500000 0.000000 -15.000000
      vertex 27.500000 0.000000 -9.500000
      vertex 6.000000 0.000000 -15.000000
    endloop
  endfacet
  facet normal 0.000000e+00 -1.000000e+00 -0.000000e+00
    outer loop
      vertex 38.897100 0.000000 -7.250000
      vertex 37.500000 0.000000 -15.000000
      vertex 42.500000 0.000000 -13.660300
    endloop
  endfacet
  facet normal 0.000000e+00 -1.000000e+00 0.000000e+00
    outer loop
      vertex 38.897100 0.000000 -7.250000
      vertex 47.500000 0.000000 -5.000000
      vertex 38.897100 0.000000 -2.750000
    endloop
  endfacet
  facet normal 0.000000e+00 -1.000000e+00 -0.000000e+00
    outer loop
      vertex 23.602900 0.000000 -2.750000
      vertex 6.000000 0.000000 -15.000000
      vertex 23.602900 0.000000 -7.250000
    endloop
  endfacet
  facet normal 0.000000e+00 -1.000000e+00 0.000000e+00
    outer loop
      vertex 27.500000 0.000000 -0.500000
      vertex 37.500000 0.000000 15.000000
      vertex 6.000000 0.000000 15.000000
    endloop
  endfacet
  facet normal 0.000000e+00 -1.000000e+00 0.000000e+00
    outer loop
      vertex 35.000000 0.000000 -0.500000
      vertex 46.160300 0.000000 10.000000
      vertex 42.500000 0.000000 13.660300
    endloop
  endfacet
  facet normal 0.000000e+00 -1.000000e+00 0.000000e+00
    outer loop
      vertex 38.897100 0.000000 -7.250000
      vertex 42.500000 0.000000 -13.660300
      vertex 46.160300 0.000000 -10.000000
    endloop
  endfacet
  facet normal 1.000000e+00 -0.000000e+00 0.000000e+00
    outer loop
      vertex 47.500000 0.000000 5.000000
      vertex 47.500000 4.000000 -5.000000
      vertex 47.500000 4.000000 5.000000
    endloop
  endfacet
  facet normal 1.000000e+00 0.000000e+00 0.000000e+00
    outer loop
      vertex 47.500000 4.000000 -5.000000
      vertex 47.500000 0.000000 5.000000
      vertex 47.500000 0.000000 -5.000000
    endloop
  endfacet
  facet normal 0.000000e+00 1.000000e+00 -0.000000e+00
    outer loop
      vertex 4.000000 47.500000 -5.000000
      vertex 0.000000 47.500000 5.000000
      vertex 4.000000 47.500000 5.000000
    endloop
  endfacet
  facet normal 0.000000e+00 1.000000e+00 0.000000e+00
    outer loop
      vertex 0.000000 47.500000 5.000000
      vertex 4.000000 47.500000 -5.000000
      vertex 0.000000 47.500000 -5.000000
    endloop
  endfacet
  facet normal 0.000000e+00 0.000000e+00 1.000000e+00
    outer loop
      vertex 6.000000 0.000000 15.000000
      vertex 4.585800 4.585800 15.000000
      vertex 1.757400 1.757400 15.000000
    endloop
  endfacet
  facet normal 0.000000e+00 0.000000e+00 1.000000e+00
    outer loop
      vertex 4.000000 37.500000 15.000000
      vertex 0.000000 6.000000 15.000000
      vertex 4.000000 6.000000 15.000000
    endloop
  endfacet
  facet normal 0.000000e+00 0.000000e+00 1.000000e+00
    outer loop
      vertex 4.585800 4.585800 15.000000
      vertex 0.000000 6.000000 15.000000
      vertex 1.757400 1.757400 15.000000
    endloop
  endfacet
  facet normal 0.000000e+00 0.000000e+00 1.000000e+00
    outer loop
      vertex 4.585800 4.585800 15.000000
      vertex 6.000000 0.000000 15.000000
      vertex 6.000000 4.000000 15.000000
    endloop
  endfacet
  facet normal 0.000000e+00 0.000000e+00 1.000000e+00
    outer loop
      vertex 37.500000 4.000000 15.000000
      vertex 6.000000 0.000000 15.000000
      vertex 37.500000 0.000000 15.000000
    endloop
  endfacet
  facet normal 0.000000e+00 0.000000e+00 1.000000e+00
    outer loop
      vertex 6.000000 0.000000 15.000000
      vertex 37.500000 4.000000 15.000000
      vertex 6.000000 4.000000 15.000000
    endloop
  endfacet
  facet normal -0.000000e+00 0.000000e+00 1.000000e+00
    outer loop
      vertex 0.000000 6.000000 15.000000
      vertex 4.585800 4.585800 15.000000
      vertex 4.000000 6.000000 15.000000
    endloop
  endfacet
  facet normal 0.000000e+00 0.000000e+00 1.000000e+00
    outer loop
      vertex 0.000000 6.000000 15.000000
      vertex 4.000000 37.500000 15.000000
      vertex 0.000000 37.500000 15.000000
    endloop
  endfacet
  facet normal -0.000000e+00 0.000000e+00 -1.000000e+00
    outer loop
      vertex 37.500000 4.000000 -15.000000
      vertex 6.000000 0.000000 -15.000000
      vertex 6.000000 4.000000 -15.000000
    endloop
  endfacet
  facet normal 0.000000e+00 -0.000000e+00 -1.000000e+00
    outer loop
      vertex 4.585800 4.585800 -15.000000
      vertex 6.000000 0.000000 -15.000000
      vertex 1.757400 1.757400 -15.000000
    endloop
  endfacet
  facet normal 0.000000e+00 0.000000e+00 -1.000000e+00
    outer loop
      vertex 4.585800 4.585800 -15.000000
      vertex 0.000000 6.000000 -15.000000
      vertex 4.000000 6.000000 -15.000000
    endloop
  endfacet
  facet normal 0.000000e+00 0.000000e+00 -1.000000e+00
    outer loop
      vertex 0.000000 6.000000 -15.000000
      vertex 4.585800 4.585800 -15.000000
      vertex 1.757400 1.757400 -15.000000
    endloop
  endfacet
  facet normal -0.000000e+00 0.000000e+00 -1.000000e+00
    outer loop
      vertex 4.000000 37.500000 -15.000000
      vertex 0.000000 6.000000 -15.000000
      vertex 0.000000 37.500000 -15.000000
    endloop
  endfacet
  facet normal 0.000000e+00 0.000000e+00 -1.000000e+00
    outer loop
      vertex 6.000000 0.000000 -15.000000
      vertex 4.585800 4.585800 -15.000000
      vertex 6.000000 4.000000 -15.000000
    endloop
  endfacet
  facet normal 0.000000e+00 0.000000e+00 -1.000000e+00
    outer loop
      vertex 0.000000 6.000000 -15.000000
      vertex 4.000000 37.500000 -15.000000
      vertex 4.000000 6.000000 -15.000000
    endloop
  endfacet
  facet normal 0.000000e+00 0.000000e+00 -1.000000e+00
    outer loop
      vertex 6.000000 0.000000 -15.000000
      vertex 37.500000 4.000000 -15.000000
      vertex 37.500000 0.000000 -15.000000
    endloop
  endfacet
  facet normal 0.000000e+00 1.000000e+00 -0.000000e+00
    outer loop
      vertex 47.500000 4.000000 -5.000000
      vertex 38.897100 4.000000 -2.750000
      vertex 47.500000 4.000000 5.000000
    endloop
  endfacet
  facet normal 0.000000e+00 1.000000e+00 0.000000e+00
    outer loop
      vertex 37.500000 4.000000 15.000000
      vertex 27.500000 4.000000 -0.500000
      vertex 6.000000 4.000000 15.000000
    endloop
  endfacet
  facet normal 0.000000e+00 1.000000e+00 0.000000e+00
    outer loop
      vertex 37.500000 4.000000 -15.000000
      vertex 27.500000 4.000000 -9.500000
      vertex 35.000000 4.000000 -9.500000
    endloop
  endfacet
  facet normal -0.000000e+00 1.000000e+00 0.000000e+00
    outer loop
      vertex 38.897100 4.000000 -7.250000
      vertex 47.500000 4.000000 -5.000000
      vertex 46.160300 4.000000 -10.000000
    endloop
  endfacet
  facet normal 0.000000e+00 1.000000e+00 0.000000e+00
    outer loop
      vertex 27.500000 4.000000 -9.500000
      vertex 37.500000 4.000000 -15.000000
      vertex 6.000000 4.000000 -15.000000
    endloop
  endfacet
  facet normal 0.000000e+00 1.000000e+00 0.000000e+00
    outer loop
      vertex 27.500000 4.000000 -9.500000
      vertex 6.000000 4.000000 -15.000000
      vertex 23.602900 4.000000 -7.250000
    endloop
  endfacet
  facet normal 0.000000e+00 1.000000e+00 0.000000e+00
    outer loop
      vertex 42.500000 4.000000 13.660300
      vertex 35.000000 4.000000 -0.500000
      vertex 37.500000 4.000000 15.000000
    endloop
  endfacet
  facet normal 0.000000e+00 1.000000e+00 0.000000e+00
    outer loop
      vertex 27.500000 4.000000 -0.500000
      vertex 37.500000 4.000000 15.000000
      vertex 35.000000 4.000000 -0.500000
    endloop
  endfacet
  facet normal 0.000000e+00 1.000000e+00 0.000000e+00
    outer loop
      vertex 37.500000 4.000000 -15.000000
      vertex 38.897100 4.000000 -7.250000
      vertex 42.500000 4.000000 -13.660300
    endloop
  endfacet
  facet normal 0.000000e+00 1.000000e+00 0.000000e+00
    outer loop
      vertex 46.160300 4.000000 10.000000
      vertex 35.000000 4.000000 -0.500000
      vertex 42.500000 4.000000 13.660300
    endloop
  endfacet
  facet normal 0.000000e+00 1.000000e+00 0.000000e+00
    outer loop
      vertex 47.500000 4.000000 5.000000
      vertex 35.000000 4.000000 -0.500000
      vertex 46.160300 4.000000 10.000000
    endloop
  endfacet
  facet normal 0.000000e+00 1.000000e+00 0.000000e+00
    outer loop
      vertex 23.602900 4.000000 -2.750000
      vertex 6.000000 4.000000 -15.000000
      vertex 6.000000 4.000000 15.000000
    endloop
  endfacet
  facet normal 0.000000e+00 1.000000e+00 0.000000e+00
    outer loop
      vertex 47.500000 4.000000 -5.000000
      vertex 38.897100 4.000000 -7.250000
      vertex 38.897100 4.000000 -2.750000
    endloop
  endfacet
  facet normal 0.000000e+00 1.000000e+00 0.000000e+00
    outer loop
      vertex 6.000000 4.000000 -15.000000
      vertex 23.602900 4.000000 -2.750000
      vertex 23.602900 4.000000 -7.250000
    endloop
  endfacet
  facet normal 0.000000e+00 1.000000e+00 0.000000e+00
    outer loop
      vertex 38.897100 4.000000 -7.250000
      vertex 37.500000 4.000000 -15.000000
      vertex 35.000000 4.000000 -9.500000
    endloop
  endfacet
  facet normal 0.000000e+00 1.000000e+00 -0.000000e+00
    outer loop
      vertex 42.500000 4.000000 -13.660300
      vertex 38.897100 4.000000 -7.250000
      vertex 46.160300 4.000000 -10.000000
    endloop
  endfacet
  facet normal 0.000000e+00 1.000000e+00 0.000000e+00
    outer loop
      vertex 6.000000 4.000000 15.000000
      vertex 27.500000 4.000000 -0.500000
      vertex 23.602900 4.000000 -2.750000
    endloop
  endfacet
  facet normal -0.000000e+00 1.000000e+00 0.000000e+00
    outer loop
      vertex 35.000000 4.000000 -0.500000
      vertex 47.500000 4.000000 5.000000
      vertex 38.897100 4.000000 -2.750000
    endloop
  endfacet
  facet normal 1.000000e+00 0.000000e+00 -0.000000e+00
    outer loop
      vertex 4.000000 27.500000 -0.500000
      vertex 4.000000 37.500000 15.000000
      vertex 4.000000 6.000000 15.000000
    endloop
  endfacet
  facet normal 1.000000e+00 0.000000e+00 0.000000e+00
    outer loop
      vertex 4.000000 23.602900 -2.750000
      vertex 4.000000 6.000000 -15.000000
      vertex 4.000000 23.602900 -7.250000
    endloop
  endfacet
  facet normal 1.000000e+00 0.000000e+00 0.000000e+00
    outer loop
      vertex 4.000000 37.500000 -15.000000
      vertex 4.000000 27.500000 -9.500000
      vertex 4.000000 6.000000 -15.000000
    endloop
  endfacet
  facet normal 1.000000e+00 0.000000e+00 0.000000e+00
    outer loop
      vertex 4.000000 38.897100 -7.250000
      vertex 4.000000 47.500000 -5.000000
      vertex 4.000000 38.897100 -2.750000
    endloop
  endfacet
  facet normal 1.000000e+00 0.000000e+00 0.000000e+00
    outer loop
      vertex 4.000000 37.500000 15.000000
      vertex 4.000000 27.500000 -0.500000
      vertex 4.000000 35.000000 -0.500000
    endloop
  endfacet
  facet normal 1.000000e+00 0.000000e+00 0.000000e+00
    outer loop
      vertex 4.000000 6.000000 -15.000000
      vertex 4.000000 27.500000 -9.500000
      vertex 4.000000 23.602900 -7.250000
    endloop
  endfacet
  facet normal 1.000000e+00 0.000000e+00 0.000000e+00
    outer loop
      vertex 4.000000 46.160300 10.000000
      vertex 4.000000 35.000000 -0.500000
      vertex 4.000000 38.897100 -2.750000
    endloop
  endfacet
  facet normal 1.000000e+00 0.000000e+00 0.000000e+00
    outer loop
      vertex 4.000000 38.897100 -7.250000
      vertex 4.000000 37.500000 -15.000000
      vertex 4.000000 42.500000 -13.660300
    endloop
  endfacet
  facet normal 1.000000e+00 -0.000000e+00 0.000000e+00
    outer loop
      vertex 4.000000 27.500000 -9.500000
      vertex 4.000000 37.500000 -15.000000
      vertex 4.000000 35.000000 -9.500000
    endloop
  endfacet
  facet normal 1.000000e+00 0.000000e+00 -0.000000e+00
    outer loop
      vertex 4.000000 37.500000 -15.000000
      vertex 4.000000 38.897100 -7.250000
      vertex 4.000000 35.000000 -9.500000
    endloop
  endfacet
  facet normal 1.000000e+00 0.000000e+00 0.000000e+00
    outer loop
      vertex 4.000000 27.500000 -0.500000
      vertex 4.000000 6.000000 15.000000
      vertex 4.000000 23.602900 -2.750000
    endloop
  endfacet
  facet normal 1.000000e+00 -0.000000e+00 0.000000e+00
    outer loop
      vertex 4.000000 38.897100 -2.750000
      vertex 4.000000 47.500000 -5.000000
      vertex 4.000000 47.500000 5.000000
    endloop
  endfacet
  facet normal 1.000000e+00 0.000000e+00 0.000000e+00
    outer loop
      vertex 4.000000 6.000000 -15.000000
      vertex 4.000000 23.602900 -2.750000
      vertex 4.000000 6.000000 15.000000
    endloop
  endfacet
  facet normal 1.000000e+00 0.000000e+00 0.000000e+00
    outer loop
      vertex 4.000000 35.000000 -0.500000
      vertex 4.000000 42.500000 13.660300
      vertex 4.000000 37.500000 15.000000
    endloop
  endfacet
  facet normal 1.000000e+00 0.000000e+00 0.000000e+00
    outer loop
      vertex 4.000000 46.160300 10.000000
      vertex 4.000000 38.897100 -2.750000
      vertex 4.000000 47.500000 5.000000
    endloop
  endfacet
  facet normal 1.000000e+00 0.000000e+00 0.000000e+00
    outer loop
      vertex 4.000000 35.000000 -0.500000
      vertex 4.000000 46.160300 10.000000
      vertex 4.000000 42.500000 13.660300
    endloop
  endfacet
  facet normal 1.000000e+00 0.000000e+00 0.000000e+00
    outer loop
      vertex 4.000000 38.897100 -7.250000
      vertex 4.000000 42.500000 -13.660300
      vertex 4.000000 46.160300 -10.000000
    endloop
  endfacet
  facet normal 1.000000e+00 0.000000e+00 0.000000e+00
    outer loop
      vertex 4.000000 47.500000 -5.000000
      vertex 4.000000 38.897100 -7.250000
      vertex 4.000000 46.160300 -10.000000
    endloop
  endfacet
  facet normal 0.000000e+00 5.000014e-01 8.660246e-01
    outer loop
      vertex 0.000000 23.602900 -7.250000
      vertex 4.000000 27.500000 -9.500000
      vertex 0.000000 27.500000 -9.500000
    endloop
  endfacet
  facet normal 0.000000e+00 5.000014e-01 -8.660246e-01
    outer loop
      vertex 4.000000 27.500000 -0.500000
      vertex 0.000000 23.602900 -2.750000
      vertex 0.000000 27.500000 -0.500000
    endloop
  endfacet
  facet normal 0.000000e+00 5.000014e-01 -8.660246e-01
    outer loop
      vertex 0.000000 23.602900 -2.750000
      vertex 4.000000 27.500000 -0.500000
      vertex 4.000000 23.602900 -2.750000
    endloop
  endfacet
  facet normal 0.000000e+00 1.000000e+00 -0.000000e+00
    outer loop
      vertex 4.000000 23.602900 -7.250000
      vertex 0.000000 23.602900 -2.750000
      vertex 4.000000 23.602900 -2.750000
    endloop
  endfacet
  facet normal 0.000000e+00 5.000014e-01 8.660246e-01
    outer loop
      vertex 4.000000 27.500000 -9.500000
      vertex 0.000000 23.602900 -7.250000
      vertex 4.000000 23.602900 -7.250000
    endloop
  endfacet
  facet normal 0.000000e+00 1.000000e+00 0.000000e+00
    outer loop
      vertex 0.000000 23.602900 -2.750000
      vertex 4.000000 23.602900 -7.250000
      vertex 0.000000 23.602900 -7.250000
    endloop
  endfacet
  facet normal 0.000000e+00 0.000000e+00 -1.000000e+00
    outer loop
      vertex 0.000000 35.000000 -0.500000
      vertex 4.000000 27.500000 -0.500000
      vertex 0.000000 27.500000 -0.500000
    endloop
  endfacet
  facet normal 0.000000e+00 0.000000e+00 -1.000000e+00
    outer loop
      vertex 4.000000 27.500000 -0.500000
      vertex 0.000000 35.000000 -0.500000
      vertex 4.000000 35.000000 -0.500000
    endloop
  endfacet
  facet normal -0.000000e+00 -5.000014e-01 -8.660246e-01
    outer loop
      vertex 4.000000 38.897100 -2.750000
      vertex 0.000000 35.000000 -0.500000
      vertex 0.000000 38.897100 -2.750000
    endloop
  endfacet
  facet normal 0.000000e+00 -5.000014e-01 8.660246e-01
    outer loop
      vertex 4.000000 38.897100 -7.250000
      vertex 0.000000 35.000000 -9.500000
      vertex 4.000000 35.000000 -9.500000
    endloop
  endfacet
  facet normal 0.000000e+00 -1.000000e+00 -0.000000e+00
    outer loop
      vertex 4.000000 38.897100 -2.750000
      vertex 0.000000 38.897100 -7.250000
      vertex 4.000000 38.897100 -7.250000
    endloop
  endfacet
  facet normal 0.000000e+00 -5.000014e-01 -8.660246e-01
    outer loop
      vertex 0.000000 35.000000 -0.500000
      vertex 4.000000 38.897100 -2.750000
      vertex 4.000000 35.000000 -0.500000
    endloop
  endfacet
  facet normal 0.000000e+00 -5.000014e-01 8.660246e-01
    outer loop
      vertex 0.000000 35.000000 -9.500000
      vertex 4.000000 38.897100 -7.250000
      vertex 0.000000 38.897100 -7.250000
    endloop
  endfacet
  facet normal 0.000000e+00 -1.000000e+00 0.000000e+00
    outer loop
      vertex 0.000000 38.897100 -7.250000
      vertex 4.000000 38.897100 -2.750000
      vertex 0.000000 38.897100 -2.750000
    endloop
  endfacet
  facet normal -0.000000e+00 0.000000e+00 1.000000e+00
    outer loop
      vertex 0.000000 35.000000 -9.500000
      vertex 4.000000 27.500000 -9.500000
      vertex 4.000000 35.000000 -9.500000
    endloop
  endfacet
  facet normal 0.000000e+00 0.000000e+00 1.000000e+00
    outer loop
      vertex 4.000000 27.500000 -9.500000
      vertex 0.000000 35.000000 -9.500000
      vertex 0.000000 27.500000 -9.500000
    endloop
  endfacet
  facet normal 5.000014e-01 0.000000e+00 -8.660246e-01
    outer loop
      vertex 23.602900 0.000000 -2.750000
      vertex 27.500000 4.000000 -0.500000
      vertex 27.500000 0.000000 -0.500000
    endloop
  endfacet
  facet normal 1.000000e+00 0.000000e+00 0.000000e+00
    outer loop
      vertex 23.602900 0.000000 -7.250000
      vertex 23.602900 4.000000 -2.750000
      vertex 23.602900 0.000000 -2.750000
    endloop
  endfacet
  facet normal 5.000014e-01 0.000000e+00 8.660246e-01
    outer loop
      vertex 27.500000 0.000000 -9.500000
      vertex 23.602900 4.000000 -7.250000
      vertex 23.602900 0.000000 -7.250000
    endloop
  endfacet
  facet normal 5.000014e-01 0.000000e+00 8.660246e-01
    outer loop
      vertex 23.602900 4.000000 -7.250000
      vertex 27.500000 0.000000 -9.500000
      vertex 27.500000 4.000000 -9.500000
    endloop
  endfacet
  facet normal 1.000000e+00 0.000000e+00 0.000000e+00
    outer loop
      vertex 23.602900 4.000000 -2.750000
      vertex 23.602900 0.000000 -7.250000
      vertex 23.602900 4.000000 -7.250000
    endloop
  endfacet
  facet normal 5.000014e-01 0.000000e+00 -8.660246e-01
    outer loop
      vertex 27.500000 4.000000 -0.500000
      vertex 23.602900 0.000000 -2.750000
      vertex 23.602900 4.000000 -2.750000
    endloop
  endfacet
  facet normal -0.000000e+00 0.000000e+00 1.000000e+00
    outer loop
      vertex 27.500000 4.000000 -9.500000
      vertex 35.000000 0.000000 -9.500000
      vertex 35.000000 4.000000 -9.500000
    endloop
  endfacet
  facet normal 0.000000e+00 0.000000e+00 1.000000e+00
    outer loop
      vertex 35.000000 0.000000 -9.500000
      vertex 27.500000 4.000000 -9.500000
      vertex 27.500000 0.000000 -9.500000
    endloop
  endfacet
  facet normal -5.000014e-01 0.000000e+00 8.660246e-01
    outer loop
      vertex 35.000000 4.000000 -9.500000
      vertex 38.897100 0.000000 -7.250000
      vertex 38.897100 4.000000 -7.250000
    endloop
  endfacet
  facet normal -5.000014e-01 0.000000e+00 -8.660246e-01
    outer loop
      vertex 38.897100 4.000000 -2.750000
      vertex 35.000000 0.000000 -0.500000
      vertex 35.000000 4.000000 -0.500000
    endloop
  endfacet
  facet normal -5.000014e-01 0.000000e+00 -8.660246e-01
    outer loop
      vertex 35.000000 0.000000 -0.500000
      vertex 38.897100 4.000000 -2.750000
      vertex 38.897100 0.000000 -2.750000
    endloop
  endfacet
  facet normal -1.000000e+00 0.000000e+00 0.000000e+00
    outer loop
      vertex 38.897100 0.000000 -2.750000
      vertex 38.897100 4.000000 -7.250000
      vertex 38.897100 0.000000 -7.250000
    endloop
  endfacet
  facet normal -5.000014e-01 0.000000e+00 8.660246e-01
    outer loop
      vertex 38.897100 0.000000 -7.250000
      vertex 35.000000 4.000000 -9.500000
      vertex 35.000000 0.000000 -9.500000
    endloop
  endfacet
  facet normal -1.000000e+00 0.000000e+00 0.000000e+00
    outer loop
      vertex 38.897100 4.000000 -7.250000
      vertex 38.897100 0.000000 -2.750000
      vertex 38.897100 4.000000 -2.750000
    endloop
  endfacet
  facet normal 0.000000e+00 0.000000e+00 -1.000000e+00
    outer loop
      vertex 27.500000 4.000000 -0.500000
      vertex 35.000000 0.000000 -0.500000
      vertex 27.500000 0.000000 -0.500000
    endloop
  endfacet
  facet normal 0.000000e+00 0.000000e+00 -1.000000e+00
    outer loop
      vertex 35.000000 0.000000 -0.500000
      vertex 27.500000 4.000000 -0.500000
      vertex 35.000000 4.000000 -0.500000
    endloop
  endfacet
  facet normal 9.238751e-01 3.826941e-01 0.000000e+00
    outer loop
      vertex 4.585800 4.585800 15.000000
      vertex 4.000000 6.000000 -15.000000
      vertex 4.000000 6.000000 15.000000
    endloop
  endfacet
  facet normal 3.826941e-01 9.238751e-01 0.000000e+00
    outer loop
      vertex 6.000000 4.000000 15.000000
      vertex 4.585800 4.585800 -15.000000
      vertex 4.585800 4.585800 15.000000
    endloop
  endfacet
  facet normal 3.826941e-01 9.238751e-01 0.000000e+00
    outer loop
      vertex 4.585800 4.585800 -15.000000
      vertex 6.000000 4.000000 15.000000
      vertex 6.000000 4.000000 -15.000000
    endloop
  endfacet
  facet normal 9.238751e-01 3.826941e-01 0.000000e+00
    outer loop
      vertex 4.000000 6.000000 -15.000000
      vertex 4.585800 4.585800 15.000000
      vertex 4.585800 4.585800 -15.000000
    endloop
  endfacet
  facet normal -9.238751e-01 -3.826941e-01 0.000000e+00
    outer loop
      vertex 0.000000 6.000000 15.000000
      vertex 1.757400 1.757400 -15.000000
      vertex 1.757400 1.757400 15.000000
    endloop
  endfacet
  facet normal -3.826941e-01 -9.238751e-01 0.000000e+00
    outer loop
      vertex 1.757400 1.757400 15.000000
      vertex 6.000000 0.000000 -15.000000
      vertex 6.000000 0.000000 15.000000
    endloop
  endfacet
  facet normal -3.826941e-01 -9.238751e-01 0.000000e+00
    outer loop
      vertex 6.000000 0.000000 -15.000000
      vertex 1.757400 1.757400 15.000000
      vertex 1.757400 1.757400 -15.000000
    endloop
  endfacet
  facet normal -9.238751e-01 -3.826941e-01 0.000000e+00
    outer loop
      vertex 1.757400 1.757400 -15.000000
      vertex 0.000000 6.000000 15.000000
      vertex 0.000000 6.000000 -15.000000
    endloop
  endfacet
  facet normal 0.000000e+00 2.588108e-01 -9.659280e-01
    outer loop
      vertex 0.000000 42.500000 -13.660300
      vertex 4.000000 37.500000 -15.000000
      vertex 0.000000 37.500000 -15.000000
    endloop
  endfacet
  facet normal 0.000000e+00 7.071068e-01 -7.071068e-01
    outer loop
      vertex 0.000000 42.500000 -13.660300
      vertex 4.000000 46.160300 -10.000000
      vertex 4.000000 42.500000 -13.660300
    endloop
  endfacet
  facet normal 0.000000e+00 9.659280e-01 -2.588108e-01
    outer loop
      vertex 0.000000 46.160300 -10.000000
      vertex 4.000000 47.500000 -5.000000
      vertex 4.000000 46.160300 -10.000000
    endloop
  endfacet
  facet normal 0.000000e+00 9.659280e-01 -2.588108e-01
    outer loop
      vertex 4.000000 47.500000 -5.000000
      vertex 0.000000 46.160300 -10.000000
      vertex 0.000000 47.500000 -5.000000
    endloop
  endfacet
  facet normal 0.000000e+00 7.071068e-01 -7.071068e-01
    outer loop
      vertex 4.000000 46.160300 -10.000000
      vertex 0.000000 42.500000 -13.660300
      vertex 0.000000 46.160300 -10.000000
    endloop
  endfacet
  facet normal 0.000000e+00 2.588108e-01 -9.659280e-01
    outer loop
      vertex 4.000000 37.500000 -15.000000
      vertex 0.000000 42.500000 -13.660300
      vertex 4.000000 42.500000 -13.660300
    endloop
  endfacet
  facet normal 0.000000e+00 7.071068e-01 7.071068e-01
    outer loop
      vertex 4.000000 46.160300 10.000000
      vertex 0.000000 42.500000 13.660300
      vertex 4.000000 42.500000 13.660300
    endloop
  endfacet
  facet normal -0.000000e+00 9.659280e-01 2.588108e-01
    outer loop
      vertex 0.000000 47.500000 5.000000
      vertex 4.000000 46.160300 10.000000
      vertex 4.000000 47.500000 5.000000
    endloop
  endfacet
  facet normal 0.000000e+00 2.588108e-01 9.659280e-01
    outer loop
      vertex 0.000000 37.500000 15.000000
      vertex 4.000000 42.500000 13.660300
      vertex 0.000000 42.500000 13.660300
    endloop
  endfacet
  facet normal 0.000000e+00 7.071068e-01 7.071068e-01
    outer loop
      vertex 0.000000 42.500000 13.660300
      vertex 4.000000 46.160300 10.000000
      vertex 0.000000 46.160300 10.000000
    endloop
  endfacet
  facet normal 0.000000e+00 9.659280e-01 2.588108e-01
    outer loop
      vertex 4.000000 46.160300 10.000000
      vertex 0.000000 47.500000 5.000000
      vertex 0.000000 46.160300 10.000000
    endloop
  endfacet
  facet normal 0.000000e+00 2.588108e-01 9.659280e-01
    outer loop
      vertex 4.000000 42.500000 13.660300
      vertex 0.000000 37.500000 15.000000
      vertex 4.000000 37.500000 15.000000
    endloop
  endfacet
  facet normal 2.588108e-01 0.000000e+00 -9.659280e-01
    outer loop
      vertex 42.500000 4.000000 -13.660300
      vertex 37.500000 0.000000 -15.000000
      vertex 37.500000 4.000000 -15.000000
    endloop
  endfacet
  facet normal 9.659280e-01 0.000000e+00 -2.588108e-01
    outer loop
      vertex 46.160300 0.000000 -10.000000
      vertex 47.500000 4.000000 -5.000000
      vertex 47.500000 0.000000 -5.000000
    endloop
  endfacet
  facet normal 7.071068e-01 0.000000e+00 -7.071068e-01
    outer loop
      vertex 42.500000 4.000000 -13.660300
      vertex 46.160300 0.000000 -10.000000
      vertex 42.500000 0.000000 -13.660300
    endloop
  endfacet
  facet normal 2.588108e-01 0.000000e+00 -9.659280e-01
    outer loop
      vertex 37.500000 0.000000 -15.000000
      vertex 42.500000 4.000000 -13.660300
      vertex 42.500000 0.000000 -13.660300
    endloop
  endfacet
  facet normal 7.071068e-01 0.000000e+00 -7.071068e-01
    outer loop
      vertex 46.160300 0.000000 -10.000000
      vertex 42.500000 4.000000 -13.660300
      vertex 46.160300 4.000000 -10.000000
    endloop
  endfacet
  facet normal 9.659280e-01 0.000000e+00 -2.588108e-01
    outer loop
      vertex 47.500000 4.000000 -5.000000
      vertex 46.160300 0.000000 -10.000000
      vertex 46.160300 4.000000 -10.000000
    endloop
  endfacet
  facet normal 2.588108e-01 0.000000e+00 9.659280e-01
    outer loop
      vertex 42.500000 0.000000 13.660300
      vertex 37.500000 4.000000 15.000000
      vertex 37.500000 0.000000 15.000000
    endloop
  endfacet
  facet normal 7.071068e-01 0.000000e+00 7.071068e-01
    outer loop
      vertex 46.160300 0.000000 10.000000
      vertex 42.500000 4.000000 13.660300
      vertex 42.500000 0.000000 13.660300
    endloop
  endfacet
  facet normal 9.659280e-01 0.000000e+00 2.588108e-01
    outer loop
      vertex 47.500000 4.000000 5.000000
      vertex 46.160300 0.000000 10.000000
      vertex 47.500000 0.000000 5.000000
    endloop
  endfacet
  facet normal 7.071068e-01 0.000000e+00 7.071068e-01
    outer loop
      vertex 42.500000 4.000000 13.660300
      vertex 46.160300 0.000000 10.000000
      vertex 46.160300 4.000000 10.000000
    endloop
  endfacet
  facet normal 2.588108e-01 0.000000e+00 9.659280e-01
    outer loop
      vertex 37.500000 4.000000 15.000000
      vertex 42.500000 0.000000 13.660300
      vertex 42.500000 4.000000 13.660300
    endloop
  endfacet
  facet normal 9.659280e-01 -0.000000e+00 2.588108e-01
    outer loop
      vertex 46.160300 0.000000 10.000000
      vertex 47.500000 4.000000 5.000000
      vertex 46.160300 4.000000 10.000000
    endloop
  endfacet
endsolid 7.11.706.89/01
