solid maytec_profile
  facet normal 0.000000e+00 0.000000e+00 1.000000e+00
    outer loop
      vertex -5.220000e+00 3.680000e+00 1.000000e+03
      vertex -1.185000e+00 2.860000e+00 1.000000e+03
      vertex 0.000000e+00 3.100000e+00 1.000000e+03
    endloop
  endfacet
  facet normal 0.000000e+00 0.000000e+00 -1.000000e+00
    outer loop
      vertex -5.220000e+00 3.680000e+00 0.000000e+00
      vertex 0.000000e+00 3.100000e+00 0.000000e+00
      vertex -1.185000e+00 2.860000e+00 0.000000e+00
    endloop
  endfacet
  facet normal 0.000000e+00 0.000000e+00 1.000000e+00
    outer loop
      vertex 5.220000e+00 3.680000e+00 1.000000e+03
      vertex 2.865000e+00 1.185000e+00 1.000000e+03
      vertex 5.220000e+00 -3.680000e+00 1.000000e+03
    endloop
  endfacet
  facet normal 0.000000e+00 -0.000000e+00 -1.000000e+00
    outer loop
      vertex 5.220000e+00 3.680000e+00 0.000000e+00
      vertex 5.220000e+00 -3.680000e+00 0.000000e+00
      vertex 2.865000e+00 1.185000e+00 0.000000e+00
    endloop
  endfacet
  facet normal 0.000000e+00 0.000000e+00 1.000000e+00
    outer loop
      vertex -5.220000e+00 3.680000e+00 1.000000e+03
      vertex -5.220000e+00 -3.680000e+00 1.000000e+03
      vertex -2.865000e+00 1.185000e+00 1.000000e+03
    endloop
  endfacet
  facet normal 0.000000e+00 0.000000e+00 -1.000000e+00
    outer loop
      vertex -5.220000e+00 3.680000e+00 0.000000e+00
      vertex -2.865000e+00 1.185000e+00 0.000000e+00
      vertex -5.220000e+00 -3.680000e+00 0.000000e+00
    endloop
  endfacet
  facet normal 0.000000e+00 0.000000e+00 1.000000e+00
    outer loop
      vertex 0.000000e+00 -3.100000e+00 1.000000e+03
      vertex -3.680000e+00 -5.220000e+00 1.000000e+03
      vertex 5.220000e+00 -3.680000e+00 1.000000e+03
    endloop
  endfacet
  facet normal 0.000000e+00 -0.000000e+00 -1.000000e+00
    outer loop
      vertex 0.000000e+00 -3.100000e+00 0.000000e+00
      vertex 5.220000e+00 -3.680000e+00 0.000000e+00
      vertex -3.680000e+00 -5.220000e+00 0.000000e+00
    endloop
  endfacet
  facet normal 0.000000e+00 0.000000e+00 1.000000e+00
    outer loop
      vertex -1.185000e+00 -2.860000e+00 1.000000e+03
      vertex -5.220000e+00 -3.680000e+00 1.000000e+03
      vertex 0.000000e+00 -3.100000e+00 1.000000e+03
    endloop
  endfacet
  facet normal 0.000000e+00 -0.000000e+00 -1.000000e+00
    outer loop
      vertex -1.185000e+00 -2.860000e+00 0.000000e+00
      vertex 0.000000e+00 -3.100000e+00 0.000000e+00
      vertex -5.220000e+00 -3.680000e+00 0.000000e+00
    endloop
  endfacet
  facet normal 0.000000e+00 0.000000e+00 1.000000e+00
    outer loop
      vertex -1.000000e+01 8.400000e+00 1.000000e+03
      vertex -8.200000e+00 5.100000e+00 1.000000e+03
      vertex -5.100000e+00 8.200000e+00 1.000000e+03
    endloop
  endfacet
  facet normal 0.000000e+00 0.000000e+00 -1.000000e+00
    outer loop
      vertex -1.000000e+01 8.400000e+00 0.000000e+00
      vertex -5.100000e+00 8.200000e+00 0.000000e+00
      vertex -8.200000e+00 5.100000e+00 0.000000e+00
    endloop
  endfacet
  facet normal -0.000000e+00 0.000000e+00 1.000000e+00
    outer loop
      vertex -3.680000e+00 5.220000e+00 1.000000e+03
      vertex -8.200000e+00 5.100000e+00 1.000000e+03
      vertex 3.680000e+00 5.220000e+00 1.000000e+03
    endloop
  endfacet
  facet normal 0.000000e+00 -0.000000e+00 -1.000000e+00
    outer loop
      vertex -3.680000e+00 5.220000e+00 0.000000e+00
      vertex 3.680000e+00 5.220000e+00 0.000000e+00
      vertex -8.200000e+00 5.100000e+00 0.000000e+00
    endloop
  endfacet
  facet normal 0.000000e+00 0.000000e+00 1.000000e+00
    outer loop
      vertex 8.200000e+00 -5.100000e+00 1.000000e+03
      vertex -3.680000e+00 -5.220000e+00 1.000000e+03
      vertex 3.680000e+00 -5.220000e+00 1.000000e+03
    endloop
  endfacet
  facet normal 0.000000e+00 0.000000e+00 -1.000000e+00
    outer loop
      vertex 8.200000e+00 -5.100000e+00 0.000000e+00
      vertex 3.680000e+00 -5.220000e+00 0.000000e+00
      vertex -3.680000e+00 -5.220000e+00 0.000000e+00
    endloop
  endfacet
  facet normal 0.000000e+00 0.000000e+00 1.000000e+00
    outer loop
      vertex 8.200000e+00 -5.100000e+00 1.000000e+03
      vertex 4.040000e+00 -5.370000e+00 1.000000e+03
      vertex 1.000000e+01 -8.400000e+00 1.000000e+03
    endloop
  endfacet
  facet normal 0.000000e+00 -0.000000e+00 -1.000000e+00
    outer loop
      vertex 8.200000e+00 -5.100000e+00 0.000000e+00
      vertex 1.000000e+01 -8.400000e+00 0.000000e+00
      vertex 4.040000e+00 -5.370000e+00 0.000000e+00
    endloop
  endfacet
  facet normal 0.000000e+00 0.000000e+00 1.000000e+00
    outer loop
      vertex -6.400000e+00 -5.100000e+00 1.000000e+03
      vertex -1.000000e+01 -8.400000e+00 1.000000e+03
      vertex -4.040000e+00 -5.370000e+00 1.000000e+03
    endloop
  endfacet
  facet normal 0.000000e+00 -0.000000e+00 -1.000000e+00
    outer loop
      vertex -6.400000e+00 -5.100000e+00 0.000000e+00
      vertex -4.040000e+00 -5.370000e+00 0.000000e+00
      vertex -1.000000e+01 -8.400000e+00 0.000000e+00
    endloop
  endfacet
  facet normal 0.000000e+00 0.000000e+00 1.000000e+00
    outer loop
      vertex 1.000000e+01 8.400000e+00 1.000000e+03
      vertex 5.100000e+00 8.200000e+00 1.000000e+03
      vertex 8.200000e+00 5.100000e+00 1.000000e+03
    endloop
  endfacet
  facet normal 0.000000e+00 0.000000e+00 -1.000000e+00
    outer loop
      vertex 1.000000e+01 8.400000e+00 0.000000e+00
      vertex 8.200000e+00 5.100000e+00 0.000000e+00
      vertex 5.100000e+00 8.200000e+00 0.000000e+00
    endloop
  endfacet
  facet normal 0.000000e+00 0.000000e+00 1.000000e+00
    outer loop
      vertex 5.100000e+00 6.400000e+00 1.000000e+03
      vertex 4.040000e+00 5.370000e+00 1.000000e+03
      vertex 8.200000e+00 5.100000e+00 1.000000e+03
    endloop
  endfacet
  facet normal 0.000000e+00 -0.000000e+00 -1.000000e+00
    outer loop
      vertex 5.100000e+00 6.400000e+00 0.000000e+00
      vertex 8.200000e+00 5.100000e+00 0.000000e+00
      vertex 4.040000e+00 5.370000e+00 0.000000e+00
    endloop
  endfacet
  facet normal 0.000000e+00 0.000000e+00 1.000000e+00
    outer loop
      vertex -4.040000e+00 -5.370000e+00 1.000000e+03
      vertex -1.000000e+01 -8.400000e+00 1.000000e+03
      vertex -5.100000e+00 -6.400000e+00 1.000000e+03
    endloop
  endfacet
  facet normal 0.000000e+00 0.000000e+00 -1.000000e+00
    outer loop
      vertex -4.040000e+00 -5.370000e+00 0.000000e+00
      vertex -5.100000e+00 -6.400000e+00 0.000000e+00
      vertex -1.000000e+01 -8.400000e+00 0.000000e+00
    endloop
  endfacet
  facet normal 0.000000e+00 0.000000e+00 1.000000e+00
    outer loop
      vertex 2.865000e+00 1.185000e+00 1.000000e+03
      vertex 3.100000e+00 -0.000000e+00 1.000000e+03
      vertex 5.220000e+00 -3.680000e+00 1.000000e+03
    endloop
  endfacet
  facet normal 0.000000e+00 0.000000e+00 -1.000000e+00
    outer loop
      vertex 2.865000e+00 1.185000e+00 0.000000e+00
      vertex 5.220000e+00 -3.680000e+00 0.000000e+00
      vertex 3.100000e+00 -0.000000e+00 0.000000e+00
    endloop
  endfacet
  facet normal 0.000000e+00 0.000000e+00 1.000000e+00
    outer loop
      vertex -2.865000e+00 1.185000e+00 1.000000e+03
      vertex -5.220000e+00 -3.680000e+00 1.000000e+03
      vertex -3.100000e+00 -0.000000e+00 1.000000e+03
    endloop
  endfacet
  facet normal 0.000000e+00 0.000000e+00 -1.000000e+00
    outer loop
      vertex -2.865000e+00 1.185000e+00 0.000000e+00
      vertex -3.100000e+00 -0.000000e+00 0.000000e+00
      vertex -5.220000e+00 -3.680000e+00 0.000000e+00
    endloop
  endfacet
  facet normal 0.000000e+00 0.000000e+00 1.000000e+00
    outer loop
      vertex -6.400000e+00 5.100000e+00 1.000000e+03
      vertex -5.370000e+00 4.040000e+00 1.000000e+03
      vertex 0.000000e+00 3.100000e+00 1.000000e+03
    endloop
  endfacet
  facet normal 0.000000e+00 0.000000e+00 -1.000000e+00
    outer loop
      vertex -6.400000e+00 5.100000e+00 0.000000e+00
      vertex 0.000000e+00 3.100000e+00 0.000000e+00
      vertex -5.370000e+00 4.040000e+00 0.000000e+00
    endloop
  endfacet
  facet normal 0.000000e+00 0.000000e+00 1.000000e+00
    outer loop
      vertex 5.370000e+00 -4.040000e+00 1.000000e+03
      vertex -3.680000e+00 -5.220000e+00 1.000000e+03
      vertex 6.400000e+00 -5.100000e+00 1.000000e+03
    endloop
  endfacet
  facet normal 0.000000e+00 -0.000000e+00 -1.000000e+00
    outer loop
      vertex 5.370000e+00 -4.040000e+00 0.000000e+00
      vertex 6.400000e+00 -5.100000e+00 0.000000e+00
      vertex -3.680000e+00 -5.220000e+00 0.000000e+00
    endloop
  endfacet
  facet normal 0.000000e+00 0.000000e+00 1.000000e+00
    outer loop
      vertex 3.680000e+00 5.220000e+00 1.000000e+03
      vertex -6.400000e+00 5.100000e+00 1.000000e+03
      vertex 0.000000e+00 3.100000e+00 1.000000e+03
    endloop
  endfacet
  facet normal 0.000000e+00 0.000000e+00 -1.000000e+00
    outer loop
      vertex 3.680000e+00 5.220000e+00 0.000000e+00
      vertex 0.000000e+00 3.100000e+00 0.000000e+00
      vertex -6.400000e+00 5.100000e+00 0.000000e+00
    endloop
  endfacet
  facet normal 0.000000e+00 0.000000e+00 1.000000e+00
    outer loop
      vertex 3.680000e+00 5.220000e+00 1.000000e+03
      vertex 0.000000e+00 3.100000e+00 1.000000e+03
      vertex 6.400000e+00 5.100000e+00 1.000000e+03
    endloop
  endfacet
  facet normal 0.000000e+00 -0.000000e+00 -1.000000e+00
    outer loop
      vertex 3.680000e+00 5.220000e+00 0.000000e+00
      vertex 6.400000e+00 5.100000e+00 0.000000e+00
      vertex 0.000000e+00 3.100000e+00 0.000000e+00
    endloop
  endfacet
  facet normal 0.000000e+00 0.000000e+00 1.000000e+00
    outer loop
      vertex -5.100000e+00 8.200000e+00 1.000000e+03
      vertex -8.200000e+00 5.100000e+00 1.000000e+03
      vertex -5.100000e+00 6.400000e+00 1.000000e+03
    endloop
  endfacet
  facet normal 0.000000e+00 -0.000000e+00 -1.000000e+00
    outer loop
      vertex -5.100000e+00 8.200000e+00 0.000000e+00
      vertex -5.100000e+00 6.400000e+00 0.000000e+00
      vertex -8.200000e+00 5.100000e+00 0.000000e+00
    endloop
  endfacet
  facet normal 0.000000e+00 0.000000e+00 1.000000e+00
    outer loop
      vertex 5.100000e+00 -6.400000e+00 1.000000e+03
      vertex 5.100000e+00 -8.200000e+00 1.000000e+03
      vertex 1.000000e+01 -8.400000e+00 1.000000e+03
    endloop
  endfacet
  facet normal 0.000000e+00 0.000000e+00 -1.000000e+00
    outer loop
      vertex 5.100000e+00 -6.400000e+00 0.000000e+00
      vertex 1.000000e+01 -8.400000e+00 0.000000e+00
      vertex 5.100000e+00 -8.200000e+00 0.000000e+00
    endloop
  endfacet
  facet normal 0.000000e+00 0.000000e+00 1.000000e+00
    outer loop
      vertex -5.370000e+00 -4.040000e+00 1.000000e+03
      vertex -6.400000e+00 -5.100000e+00 1.000000e+03
      vertex -3.680000e+00 -5.220000e+00 1.000000e+03
    endloop
  endfacet
  facet normal 0.000000e+00 -0.000000e+00 -1.000000e+00
    outer loop
      vertex -5.370000e+00 -4.040000e+00 0.000000e+00
      vertex -3.680000e+00 -5.220000e+00 0.000000e+00
      vertex -6.400000e+00 -5.100000e+00 0.000000e+00
    endloop
  endfacet
  facet normal 0.000000e+00 0.000000e+00 1.000000e+00
    outer loop
      vertex 0.000000e+00 -3.100000e+00 1.000000e+03
      vertex -5.220000e+00 -3.680000e+00 1.000000e+03
      vertex -3.680000e+00 -5.220000e+00 1.000000e+03
    endloop
  endfacet
  facet normal 0.000000e+00 0.000000e+00 -1.000000e+00
    outer loop
      vertex 0.000000e+00 -3.100000e+00 0.000000e+00
      vertex -3.680000e+00 -5.220000e+00 0.000000e+00
      vertex -5.220000e+00 -3.680000e+00 0.000000e+00
    endloop
  endfacet
  facet normal 0.000000e+00 0.000000e+00 1.000000e+00
    outer loop
      vertex -8.200000e+00 -3.100000e+00 1.000000e+03
      vertex -1.000000e+01 -8.400000e+00 1.000000e+03
      vertex -8.200000e+00 -5.100000e+00 1.000000e+03
    endloop
  endfacet
  facet normal 0.000000e+00 -0.000000e+00 -1.000000e+00
    outer loop
      vertex -8.200000e+00 -3.100000e+00 0.000000e+00
      vertex -8.200000e+00 -5.100000e+00 0.000000e+00
      vertex -1.000000e+01 -8.400000e+00 0.000000e+00
    endloop
  endfacet
  facet normal -0.000000e+00 0.000000e+00 1.000000e+00
    outer loop
      vertex -5.100000e+00 -8.200000e+00 1.000000e+03
      vertex -1.000000e+01 -8.400000e+00 1.000000e+03
      vertex -3.100000e+00 -8.200000e+00 1.000000e+03
    endloop
  endfacet
  facet normal 0.000000e+00 -0.000000e+00 -1.000000e+00
    outer loop
      vertex -5.100000e+00 -8.200000e+00 0.000000e+00
      vertex -3.100000e+00 -8.200000e+00 0.000000e+00
      vertex -1.000000e+01 -8.400000e+00 0.000000e+00
    endloop
  endfacet
  facet normal 0.000000e+00 0.000000e+00 1.000000e+00
    outer loop
      vertex 1.000000e+01 -3.100000e+00 1.000000e+03
      vertex 8.200000e+00 -5.100000e+00 1.000000e+03
      vertex 1.000000e+01 -8.400000e+00 1.000000e+03
    endloop
  endfacet
  facet normal 0.000000e+00 -0.000000e+00 -1.000000e+00
    outer loop
      vertex 1.000000e+01 -3.100000e+00 0.000000e+00
      vertex 1.000000e+01 -8.400000e+00 0.000000e+00
      vertex 8.200000e+00 -5.100000e+00 0.000000e+00
    endloop
  endfacet
  facet normal 0.000000e+00 0.000000e+00 1.000000e+00
    outer loop
      vertex 1.000000e+01 8.400000e+00 1.000000e+03
      vertex 8.200000e+00 5.100000e+00 1.000000e+03
      vertex 1.000000e+01 3.100000e+00 1.000000e+03
    endloop
  endfacet
  facet normal 0.000000e+00 -0.000000e+00 -1.000000e+00
    outer loop
      vertex 1.000000e+01 8.400000e+00 0.000000e+00
      vertex 1.000000e+01 3.100000e+00 0.000000e+00
      vertex 8.200000e+00 5.100000e+00 0.000000e+00
    endloop
  endfacet
  facet normal 0.000000e+00 0.000000e+00 1.000000e+00
    outer loop
      vertex 1.000000e+01 8.400000e+00 1.000000e+03
      vertex 3.100000e+00 8.200000e+00 1.000000e+03
      vertex 5.100000e+00 8.200000e+00 1.000000e+03
    endloop
  endfacet
  facet normal 0.000000e+00 0.000000e+00 -1.000000e+00
    outer loop
      vertex 1.000000e+01 8.400000e+00 0.000000e+00
      vertex 5.100000e+00 8.200000e+00 0.000000e+00
      vertex 3.100000e+00 8.200000e+00 0.000000e+00
    endloop
  endfacet
  facet normal 0.000000e+00 0.000000e+00 1.000000e+00
    outer loop
      vertex -1.000000e+01 8.400000e+00 1.000000e+03
      vertex -1.000000e+01 3.100000e+00 1.000000e+03
      vertex -8.200000e+00 5.100000e+00 1.000000e+03
    endloop
  endfacet
  facet normal 0.000000e+00 0.000000e+00 -1.000000e+00
    outer loop
      vertex -1.000000e+01 8.400000e+00 0.000000e+00
      vertex -8.200000e+00 5.100000e+00 0.000000e+00
      vertex -1.000000e+01 3.100000e+00 0.000000e+00
    endloop
  endfacet
  facet normal 0.000000e+00 0.000000e+00 1.000000e+00
    outer loop
      vertex 5.100000e+00 -8.200000e+00 1.000000e+03
      vertex 3.100000e+00 -1.000000e+01 1.000000e+03
      vertex 1.000000e+01 -8.400000e+00 1.000000e+03
    endloop
  endfacet
  facet normal 0.000000e+00 -0.000000e+00 -1.000000e+00
    outer loop
      vertex 5.100000e+00 -8.200000e+00 0.000000e+00
      vertex 1.000000e+01 -8.400000e+00 0.000000e+00
      vertex 3.100000e+00 -1.000000e+01 0.000000e+00
    endloop
  endfacet
  facet normal 0.000000e+00 0.000000e+00 1.000000e+00
    outer loop
      vertex -1.000000e+01 8.400000e+00 1.000000e+03
      vertex -5.100000e+00 8.200000e+00 1.000000e+03
      vertex -3.100000e+00 8.200000e+00 1.000000e+03
    endloop
  endfacet
  facet normal 0.000000e+00 0.000000e+00 -1.000000e+00
    outer loop
      vertex -1.000000e+01 8.400000e+00 0.000000e+00
      vertex -3.100000e+00 8.200000e+00 0.000000e+00
      vertex -5.100000e+00 8.200000e+00 0.000000e+00
    endloop
  endfacet
  facet normal 0.000000e+00 0.000000e+00 1.000000e+00
    outer loop
      vertex 2.195000e+00 -2.195000e+00 1.000000e+03
      vertex 1.185000e+00 -2.860000e+00 1.000000e+03
      vertex 5.220000e+00 -3.680000e+00 1.000000e+03
    endloop
  endfacet
  facet normal 0.000000e+00 -0.000000e+00 -1.000000e+00
    outer loop
      vertex 2.195000e+00 -2.195000e+00 0.000000e+00
      vertex 5.220000e+00 -3.680000e+00 0.000000e+00
      vertex 1.185000e+00 -2.860000e+00 0.000000e+00
    endloop
  endfacet
  facet normal -0.000000e+00 0.000000e+00 1.000000e+00
    outer loop
      vertex -1.000000e+01 -3.100000e+00 1.000000e+03
      vertex -1.000000e+01 -8.400000e+00 1.000000e+03
      vertex -8.200000e+00 -3.100000e+00 1.000000e+03
    endloop
  endfacet
  facet normal 0.000000e+00 0.000000e+00 -1.000000e+00
    outer loop
      vertex -1.000000e+01 -3.100000e+00 0.000000e+00
      vertex -8.200000e+00 -3.100000e+00 0.000000e+00
      vertex -1.000000e+01 -8.400000e+00 0.000000e+00
    endloop
  endfacet
  facet normal -0.000000e+00 0.000000e+00 1.000000e+00
    outer loop
      vertex 3.100000e+00 -8.200000e+00 1.000000e+03
      vertex 3.100000e+00 -1.000000e+01 1.000000e+03
      vertex 5.100000e+00 -8.200000e+00 1.000000e+03
    endloop
  endfacet
  facet normal 0.000000e+00 0.000000e+00 -1.000000e+00
    outer loop
      vertex 3.100000e+00 -8.200000e+00 0.000000e+00
      vertex 5.100000e+00 -8.200000e+00 0.000000e+00
      vertex 3.100000e+00 -1.000000e+01 0.000000e+00
    endloop
  endfacet
  facet normal 0.000000e+00 0.000000e+00 1.000000e+00
    outer loop
      vertex -3.100000e+00 -8.200000e+00 1.000000e+03
      vertex -1.000000e+01 -8.400000e+00 1.000000e+03
      vertex -3.100000e+00 -1.000000e+01 1.000000e+03
    endloop
  endfacet
  facet normal 0.000000e+00 -0.000000e+00 -1.000000e+00
    outer loop
      vertex -3.100000e+00 -8.200000e+00 0.000000e+00
      vertex -3.100000e+00 -1.000000e+01 0.000000e+00
      vertex -1.000000e+01 -8.400000e+00 0.000000e+00
    endloop
  endfacet
  facet normal 0.000000e+00 0.000000e+00 1.000000e+00
    outer loop
      vertex 8.200000e+00 5.100000e+00 1.000000e+03
      vertex 8.200000e+00 3.100000e+00 1.000000e+03
      vertex 1.000000e+01 3.100000e+00 1.000000e+03
    endloop
  endfacet
  facet normal 0.000000e+00 0.000000e+00 -1.000000e+00
    outer loop
      vertex 8.200000e+00 5.100000e+00 0.000000e+00
      vertex 1.000000e+01 3.100000e+00 0.000000e+00
      vertex 8.200000e+00 3.100000e+00 0.000000e+00
    endloop
  endfacet
  facet normal -0.000000e+00 0.000000e+00 1.000000e+00
    outer loop
      vertex 8.200000e+00 -3.100000e+00 1.000000e+03
      vertex 8.200000e+00 -5.100000e+00 1.000000e+03
      vertex 1.000000e+01 -3.100000e+00 1.000000e+03
    endloop
  endfacet
  facet normal 0.000000e+00 0.000000e+00 -1.000000e+00
    outer loop
      vertex 8.200000e+00 -3.100000e+00 0.000000e+00
      vertex 1.000000e+01 -3.100000e+00 0.000000e+00
      vertex 8.200000e+00 -5.100000e+00 0.000000e+00
    endloop
  endfacet
  facet normal 0.000000e+00 0.000000e+00 1.000000e+00
    outer loop
      vertex -8.200000e+00 5.100000e+00 1.000000e+03
      vertex -1.000000e+01 3.100000e+00 1.000000e+03
      vertex -8.200000e+00 3.100000e+00 1.000000e+03
    endloop
  endfacet
  facet normal 0.000000e+00 -0.000000e+00 -1.000000e+00
    outer loop
      vertex -8.200000e+00 5.100000e+00 0.000000e+00
      vertex -8.200000e+00 3.100000e+00 0.000000e+00
      vertex -1.000000e+01 3.100000e+00 0.000000e+00
    endloop
  endfacet
  facet normal 0.000000e+00 0.000000e+00 1.000000e+00
    outer loop
      vertex -3.100000e+00 1.000000e+01 1.000000e+03
      vertex -9.010000e+00 9.880000e+00 1.000000e+03
      vertex -3.100000e+00 8.200000e+00 1.000000e+03
    endloop
  endfacet
  facet normal 0.000000e+00 -0.000000e+00 -1.000000e+00
    outer loop
      vertex -3.100000e+00 1.000000e+01 0.000000e+00
      vertex -3.100000e+00 8.200000e+00 0.000000e+00
      vertex -9.010000e+00 9.880000e+00 0.000000e+00
    endloop
  endfacet
  facet normal -0.000000e+00 0.000000e+00 1.000000e+00
    outer loop
      vertex 3.100000e+00 1.000000e+01 1.000000e+03
      vertex 3.100000e+00 8.200000e+00 1.000000e+03
      vertex 8.400000e+00 1.000000e+01 1.000000e+03
    endloop
  endfacet
  facet normal 0.000000e+00 0.000000e+00 -1.000000e+00
    outer loop
      vertex 3.100000e+00 1.000000e+01 0.000000e+00
      vertex 8.400000e+00 1.000000e+01 0.000000e+00
      vertex 3.100000e+00 8.200000e+00 0.000000e+00
    endloop
  endfacet
  facet normal 0.000000e+00 0.000000e+00 1.000000e+00
    outer loop
      vertex 6.400000e+00 5.100000e+00 1.000000e+03
      vertex 0.000000e+00 3.100000e+00 1.000000e+03
      vertex 5.370000e+00 4.040000e+00 1.000000e+03
    endloop
  endfacet
  facet normal 0.000000e+00 0.000000e+00 -1.000000e+00
    outer loop
      vertex 6.400000e+00 5.100000e+00 0.000000e+00
      vertex 5.370000e+00 4.040000e+00 0.000000e+00
      vertex 0.000000e+00 3.100000e+00 0.000000e+00
    endloop
  endfacet
  facet normal 0.000000e+00 0.000000e+00 1.000000e+00
    outer loop
      vertex 5.220000e+00 3.680000e+00 1.000000e+03
      vertex 0.000000e+00 3.100000e+00 1.000000e+03
      vertex 1.185000e+00 2.860000e+00 1.000000e+03
    endloop
  endfacet
  facet normal 0.000000e+00 0.000000e+00 -1.000000e+00
    outer loop
      vertex 5.220000e+00 3.680000e+00 0.000000e+00
      vertex 1.185000e+00 2.860000e+00 0.000000e+00
      vertex 0.000000e+00 3.100000e+00 0.000000e+00
    endloop
  endfacet
  facet normal 0.000000e+00 0.000000e+00 1.000000e+00
    outer loop
      vertex -2.865000e+00 -1.185000e+00 1.000000e+03
      vertex -5.220000e+00 -3.680000e+00 1.000000e+03
      vertex -2.195000e+00 -2.195000e+00 1.000000e+03
    endloop
  endfacet
  facet normal 0.000000e+00 -0.000000e+00 -1.000000e+00
    outer loop
      vertex -2.865000e+00 -1.185000e+00 0.000000e+00
      vertex -2.195000e+00 -2.195000e+00 0.000000e+00
      vertex -5.220000e+00 -3.680000e+00 0.000000e+00
    endloop
  endfacet
  facet normal 0.000000e+00 0.000000e+00 1.000000e+00
    outer loop
      vertex 2.865000e+00 -1.185000e+00 1.000000e+03
      vertex 2.195000e+00 -2.195000e+00 1.000000e+03
      vertex 5.220000e+00 -3.680000e+00 1.000000e+03
    endloop
  endfacet
  facet normal 0.000000e+00 -0.000000e+00 -1.000000e+00
    outer loop
      vertex 2.865000e+00 -1.185000e+00 0.000000e+00
      vertex 5.220000e+00 -3.680000e+00 0.000000e+00
      vertex 2.195000e+00 -2.195000e+00 0.000000e+00
    endloop
  endfacet
  facet normal 0.000000e+00 0.000000e+00 1.000000e+00
    outer loop
      vertex -9.530000e+00 9.530000e+00 1.000000e+03
      vertex -9.880000e+00 9.010000e+00 1.000000e+03
      vertex -3.100000e+00 8.200000e+00 1.000000e+03
    endloop
  endfacet
  facet normal 0.000000e+00 -0.000000e+00 -1.000000e+00
    outer loop
      vertex -9.530000e+00 9.530000e+00 0.000000e+00
      vertex -3.100000e+00 8.200000e+00 0.000000e+00
      vertex -9.880000e+00 9.010000e+00 0.000000e+00
    endloop
  endfacet
  facet normal 0.000000e+00 0.000000e+00 1.000000e+00
    outer loop
      vertex 9.530000e+00 -9.530000e+00 1.000000e+03
      vertex 3.100000e+00 -1.000000e+01 1.000000e+03
      vertex 9.010000e+00 -9.880000e+00 1.000000e+03
    endloop
  endfacet
  facet normal 0.000000e+00 0.000000e+00 -1.000000e+00
    outer loop
      vertex 9.530000e+00 -9.530000e+00 0.000000e+00
      vertex 9.010000e+00 -9.880000e+00 0.000000e+00
      vertex 3.100000e+00 -1.000000e+01 0.000000e+00
    endloop
  endfacet
  facet normal 0.000000e+00 0.000000e+00 1.000000e+00
    outer loop
      vertex -9.880000e+00 -9.010000e+00 1.000000e+03
      vertex -9.530000e+00 -9.530000e+00 1.000000e+03
      vertex -3.100000e+00 -1.000000e+01 1.000000e+03
    endloop
  endfacet
  facet normal 0.000000e+00 0.000000e+00 -1.000000e+00
    outer loop
      vertex -9.880000e+00 -9.010000e+00 0.000000e+00
      vertex -3.100000e+00 -1.000000e+01 0.000000e+00
      vertex -9.530000e+00 -9.530000e+00 0.000000e+00
    endloop
  endfacet
  facet normal 0.000000e+00 0.000000e+00 1.000000e+00
    outer loop
      vertex 9.010000e+00 9.880000e+00 1.000000e+03
      vertex 3.100000e+00 8.200000e+00 1.000000e+03
      vertex 9.530000e+00 9.530000e+00 1.000000e+03
    endloop
  endfacet
  facet normal 0.000000e+00 -0.000000e+00 -1.000000e+00
    outer loop
      vertex 9.010000e+00 9.880000e+00 0.000000e+00
      vertex 9.530000e+00 9.530000e+00 0.000000e+00
      vertex 3.100000e+00 8.200000e+00 0.000000e+00
    endloop
  endfacet
  facet normal -0.000000e+00 0.000000e+00 1.000000e+00
    outer loop
      vertex -8.200000e+00 -5.100000e+00 1.000000e+03
      vertex -1.000000e+01 -8.400000e+00 1.000000e+03
      vertex -6.400000e+00 -5.100000e+00 1.000000e+03
    endloop
  endfacet
  facet normal 0.000000e+00 -0.000000e+00 -1.000000e+00
    outer loop
      vertex -8.200000e+00 -5.100000e+00 0.000000e+00
      vertex -6.400000e+00 -5.100000e+00 0.000000e+00
      vertex -1.000000e+01 -8.400000e+00 0.000000e+00
    endloop
  endfacet
  facet normal 0.000000e+00 0.000000e+00 1.000000e+00
    outer loop
      vertex 3.680000e+00 5.220000e+00 1.000000e+03
      vertex -8.200000e+00 5.100000e+00 1.000000e+03
      vertex -6.400000e+00 5.100000e+00 1.000000e+03
    endloop
  endfacet
  facet normal 0.000000e+00 0.000000e+00 -1.000000e+00
    outer loop
      vertex 3.680000e+00 5.220000e+00 0.000000e+00
      vertex -6.400000e+00 5.100000e+00 0.000000e+00
      vertex -8.200000e+00 5.100000e+00 0.000000e+00
    endloop
  endfacet
  facet normal 0.000000e+00 0.000000e+00 1.000000e+00
    outer loop
      vertex 3.680000e+00 5.220000e+00 1.000000e+03
      vertex 6.400000e+00 5.100000e+00 1.000000e+03
      vertex 8.200000e+00 5.100000e+00 1.000000e+03
    endloop
  endfacet
  facet normal 0.000000e+00 0.000000e+00 -1.000000e+00
    outer loop
      vertex 3.680000e+00 5.220000e+00 0.000000e+00
      vertex 8.200000e+00 5.100000e+00 0.000000e+00
      vertex 6.400000e+00 5.100000e+00 0.000000e+00
    endloop
  endfacet
  facet normal -0.000000e+00 0.000000e+00 1.000000e+00
    outer loop
      vertex 6.400000e+00 -5.100000e+00 1.000000e+03
      vertex -3.680000e+00 -5.220000e+00 1.000000e+03
      vertex 8.200000e+00 -5.100000e+00 1.000000e+03
    endloop
  endfacet
  facet normal 0.000000e+00 -0.000000e+00 -1.000000e+00
    outer loop
      vertex 6.400000e+00 -5.100000e+00 0.000000e+00
      vertex 8.200000e+00 -5.100000e+00 0.000000e+00
      vertex -3.680000e+00 -5.220000e+00 0.000000e+00
    endloop
  endfacet
  facet normal 0.000000e+00 0.000000e+00 1.000000e+00
    outer loop
      vertex -5.100000e+00 -6.400000e+00 1.000000e+03
      vertex -1.000000e+01 -8.400000e+00 1.000000e+03
      vertex -5.100000e+00 -8.200000e+00 1.000000e+03
    endloop
  endfacet
  facet normal 0.000000e+00 -0.000000e+00 -1.000000e+00
    outer loop
      vertex -5.100000e+00 -6.400000e+00 0.000000e+00
      vertex -5.100000e+00 -8.200000e+00 0.000000e+00
      vertex -1.000000e+01 -8.400000e+00 0.000000e+00
    endloop
  endfacet
  facet normal 0.000000e+00 0.000000e+00 1.000000e+00
    outer loop
      vertex 5.100000e+00 8.200000e+00 1.000000e+03
      vertex 5.100000e+00 6.400000e+00 1.000000e+03
      vertex 8.200000e+00 5.100000e+00 1.000000e+03
    endloop
  endfacet
  facet normal 0.000000e+00 0.000000e+00 -1.000000e+00
    outer loop
      vertex 5.100000e+00 8.200000e+00 0.000000e+00
      vertex 8.200000e+00 5.100000e+00 0.000000e+00
      vertex 5.100000e+00 6.400000e+00 0.000000e+00
    endloop
  endfacet
  facet normal 0.000000e+00 0.000000e+00 1.000000e+00
    outer loop
      vertex -5.100000e+00 6.400000e+00 1.000000e+03
      vertex -8.200000e+00 5.100000e+00 1.000000e+03
      vertex -4.040000e+00 5.370000e+00 1.000000e+03
    endloop
  endfacet
  facet normal 0.000000e+00 -0.000000e+00 -1.000000e+00
    outer loop
      vertex -5.100000e+00 6.400000e+00 0.000000e+00
      vertex -4.040000e+00 5.370000e+00 0.000000e+00
      vertex -8.200000e+00 5.100000e+00 0.000000e+00
    endloop
  endfacet
  facet normal 0.000000e+00 0.000000e+00 1.000000e+00
    outer loop
      vertex 4.040000e+00 -5.370000e+00 1.000000e+03
      vertex 5.100000e+00 -6.400000e+00 1.000000e+03
      vertex 1.000000e+01 -8.400000e+00 1.000000e+03
    endloop
  endfacet
  facet normal 0.000000e+00 0.000000e+00 -1.000000e+00
    outer loop
      vertex 4.040000e+00 -5.370000e+00 0.000000e+00
      vertex 1.000000e+01 -8.400000e+00 0.000000e+00
      vertex 5.100000e+00 -6.400000e+00 0.000000e+00
    endloop
  endfacet
  facet normal 0.000000e+00 0.000000e+00 1.000000e+00
    outer loop
      vertex -5.220000e+00 3.680000e+00 1.000000e+03
      vertex -2.865000e+00 1.185000e+00 1.000000e+03
      vertex -2.195000e+00 2.195000e+00 1.000000e+03
    endloop
  endfacet
  facet normal 0.000000e+00 0.000000e+00 -1.000000e+00
    outer loop
      vertex -5.220000e+00 3.680000e+00 0.000000e+00
      vertex -2.195000e+00 2.195000e+00 0.000000e+00
      vertex -2.865000e+00 1.185000e+00 0.000000e+00
    endloop
  endfacet
  facet normal 0.000000e+00 0.000000e+00 1.000000e+00
    outer loop
      vertex 5.220000e+00 3.680000e+00 1.000000e+03
      vertex 2.195000e+00 2.195000e+00 1.000000e+03
      vertex 2.865000e+00 1.185000e+00 1.000000e+03
    endloop
  endfacet
  facet normal 0.000000e+00 0.000000e+00 -1.000000e+00
    outer loop
      vertex 5.220000e+00 3.680000e+00 0.000000e+00
      vertex 2.865000e+00 1.185000e+00 0.000000e+00
      vertex 2.195000e+00 2.195000e+00 0.000000e+00
    endloop
  endfacet
  facet normal 0.000000e+00 0.000000e+00 1.000000e+00
    outer loop
      vertex -3.100000e+00 -0.000000e+00 1.000000e+03
      vertex -5.220000e+00 -3.680000e+00 1.000000e+03
      vertex -2.865000e+00 -1.185000e+00 1.000000e+03
    endloop
  endfacet
  facet normal 0.000000e+00 -0.000000e+00 -1.000000e+00
    outer loop
      vertex -3.100000e+00 -0.000000e+00 0.000000e+00
      vertex -2.865000e+00 -1.185000e+00 0.000000e+00
      vertex -5.220000e+00 -3.680000e+00 0.000000e+00
    endloop
  endfacet
  facet normal 0.000000e+00 0.000000e+00 1.000000e+00
    outer loop
      vertex 3.100000e+00 -0.000000e+00 1.000000e+03
      vertex 2.865000e+00 -1.185000e+00 1.000000e+03
      vertex 5.220000e+00 -3.680000e+00 1.000000e+03
    endloop
  endfacet
  facet normal 0.000000e+00 -0.000000e+00 -1.000000e+00
    outer loop
      vertex 3.100000e+00 -0.000000e+00 0.000000e+00
      vertex 5.220000e+00 -3.680000e+00 0.000000e+00
      vertex 2.865000e+00 -1.185000e+00 0.000000e+00
    endloop
  endfacet
  facet normal 0.000000e+00 0.000000e+00 1.000000e+00
    outer loop
      vertex -2.195000e+00 -2.195000e+00 1.000000e+03
      vertex -5.220000e+00 -3.680000e+00 1.000000e+03
      vertex -1.185000e+00 -2.860000e+00 1.000000e+03
    endloop
  endfacet
  facet normal 0.000000e+00 -0.000000e+00 -1.000000e+00
    outer loop
      vertex -2.195000e+00 -2.195000e+00 0.000000e+00
      vertex -1.185000e+00 -2.860000e+00 0.000000e+00
      vertex -5.220000e+00 -3.680000e+00 0.000000e+00
    endloop
  endfacet
  facet normal 0.000000e+00 0.000000e+00 1.000000e+00
    outer loop
      vertex 5.220000e+00 3.680000e+00 1.000000e+03
      vertex 1.185000e+00 2.860000e+00 1.000000e+03
      vertex 2.195000e+00 2.195000e+00 1.000000e+03
    endloop
  endfacet
  facet normal 0.000000e+00 0.000000e+00 -1.000000e+00
    outer loop
      vertex 5.220000e+00 3.680000e+00 0.000000e+00
      vertex 2.195000e+00 2.195000e+00 0.000000e+00
      vertex 1.185000e+00 2.860000e+00 0.000000e+00
    endloop
  endfacet
  facet normal 0.000000e+00 0.000000e+00 1.000000e+00
    outer loop
      vertex -5.220000e+00 3.680000e+00 1.000000e+03
      vertex -2.195000e+00 2.195000e+00 1.000000e+03
      vertex -1.185000e+00 2.860000e+00 1.000000e+03
    endloop
  endfacet
  facet normal 0.000000e+00 0.000000e+00 -1.000000e+00
    outer loop
      vertex -5.220000e+00 3.680000e+00 0.000000e+00
      vertex -1.185000e+00 2.860000e+00 0.000000e+00
      vertex -2.195000e+00 2.195000e+00 0.000000e+00
    endloop
  endfacet
  facet normal 0.000000e+00 0.000000e+00 1.000000e+00
    outer loop
      vertex 1.185000e+00 -2.860000e+00 1.000000e+03
      vertex 0.000000e+00 -3.100000e+00 1.000000e+03
      vertex 5.220000e+00 -3.680000e+00 1.000000e+03
    endloop
  endfacet
  facet normal 0.000000e+00 -0.000000e+00 -1.000000e+00
    outer loop
      vertex 1.185000e+00 -2.860000e+00 0.000000e+00
      vertex 5.220000e+00 -3.680000e+00 0.000000e+00
      vertex 0.000000e+00 -3.100000e+00 0.000000e+00
    endloop
  endfacet
  facet normal 0.000000e+00 0.000000e+00 1.000000e+00
    outer loop
      vertex 9.880000e+00 -9.010000e+00 1.000000e+03
      vertex 3.100000e+00 -1.000000e+01 1.000000e+03
      vertex 9.530000e+00 -9.530000e+00 1.000000e+03
    endloop
  endfacet
  facet normal 0.000000e+00 0.000000e+00 -1.000000e+00
    outer loop
      vertex 9.880000e+00 -9.010000e+00 0.000000e+00
      vertex 9.530000e+00 -9.530000e+00 0.000000e+00
      vertex 3.100000e+00 -1.000000e+01 0.000000e+00
    endloop
  endfacet
  facet normal 0.000000e+00 0.000000e+00 1.000000e+00
    outer loop
      vertex 9.530000e+00 9.530000e+00 1.000000e+03
      vertex 3.100000e+00 8.200000e+00 1.000000e+03
      vertex 9.880000e+00 9.010000e+00 1.000000e+03
    endloop
  endfacet
  facet normal 0.000000e+00 -0.000000e+00 -1.000000e+00
    outer loop
      vertex 9.530000e+00 9.530000e+00 0.000000e+00
      vertex 9.880000e+00 9.010000e+00 0.000000e+00
      vertex 3.100000e+00 8.200000e+00 0.000000e+00
    endloop
  endfacet
  facet normal 0.000000e+00 0.000000e+00 1.000000e+00
    outer loop
      vertex -9.530000e+00 -9.530000e+00 1.000000e+03
      vertex -9.010000e+00 -9.880000e+00 1.000000e+03
      vertex -3.100000e+00 -1.000000e+01 1.000000e+03
    endloop
  endfacet
  facet normal 0.000000e+00 0.000000e+00 -1.000000e+00
    outer loop
      vertex -9.530000e+00 -9.530000e+00 0.000000e+00
      vertex -3.100000e+00 -1.000000e+01 0.000000e+00
      vertex -9.010000e+00 -9.880000e+00 0.000000e+00
    endloop
  endfacet
  facet normal 0.000000e+00 0.000000e+00 1.000000e+00
    outer loop
      vertex -9.010000e+00 9.880000e+00 1.000000e+03
      vertex -9.530000e+00 9.530000e+00 1.000000e+03
      vertex -3.100000e+00 8.200000e+00 1.000000e+03
    endloop
  endfacet
  facet normal 0.000000e+00 -0.000000e+00 -1.000000e+00
    outer loop
      vertex -9.010000e+00 9.880000e+00 0.000000e+00
      vertex -3.100000e+00 8.200000e+00 0.000000e+00
      vertex -9.530000e+00 9.530000e+00 0.000000e+00
    endloop
  endfacet
  facet normal 0.000000e+00 0.000000e+00 1.000000e+00
    outer loop
      vertex -6.400000e+00 -5.100000e+00 1.000000e+03
      vertex -4.040000e+00 -5.370000e+00 1.000000e+03
      vertex -3.680000e+00 -5.220000e+00 1.000000e+03
    endloop
  endfacet
  facet normal 0.000000e+00 0.000000e+00 -1.000000e+00
    outer loop
      vertex -6.400000e+00 -5.100000e+00 0.000000e+00
      vertex -3.680000e+00 -5.220000e+00 0.000000e+00
      vertex -4.040000e+00 -5.370000e+00 0.000000e+00
    endloop
  endfacet
  facet normal 0.000000e+00 0.000000e+00 1.000000e+00
    outer loop
      vertex 4.040000e+00 5.370000e+00 1.000000e+03
      vertex 3.680000e+00 5.220000e+00 1.000000e+03
      vertex 8.200000e+00 5.100000e+00 1.000000e+03
    endloop
  endfacet
  facet normal 0.000000e+00 -0.000000e+00 -1.000000e+00
    outer loop
      vertex 4.040000e+00 5.370000e+00 0.000000e+00
      vertex 8.200000e+00 5.100000e+00 0.000000e+00
      vertex 3.680000e+00 5.220000e+00 0.000000e+00
    endloop
  endfacet
  facet normal 0.000000e+00 0.000000e+00 1.000000e+00
    outer loop
      vertex -4.040000e+00 5.370000e+00 1.000000e+03
      vertex -8.200000e+00 5.100000e+00 1.000000e+03
      vertex -3.680000e+00 5.220000e+00 1.000000e+03
    endloop
  endfacet
  facet normal 0.000000e+00 -0.000000e+00 -1.000000e+00
    outer loop
      vertex -4.040000e+00 5.370000e+00 0.000000e+00
      vertex -3.680000e+00 5.220000e+00 0.000000e+00
      vertex -8.200000e+00 5.100000e+00 0.000000e+00
    endloop
  endfacet
  facet normal 0.000000e+00 0.000000e+00 1.000000e+00
    outer loop
      vertex -5.220000e+00 -3.680000e+00 1.000000e+03
      vertex -5.370000e+00 -4.040000e+00 1.000000e+03
      vertex -3.680000e+00 -5.220000e+00 1.000000e+03
    endloop
  endfacet
  facet normal 0.000000e+00 -0.000000e+00 -1.000000e+00
    outer loop
      vertex -5.220000e+00 -3.680000e+00 0.000000e+00
      vertex -3.680000e+00 -5.220000e+00 0.000000e+00
      vertex -5.370000e+00 -4.040000e+00 0.000000e+00
    endloop
  endfacet
  facet normal 0.000000e+00 0.000000e+00 1.000000e+00
    outer loop
      vertex -5.370000e+00 4.040000e+00 1.000000e+03
      vertex -5.220000e+00 3.680000e+00 1.000000e+03
      vertex 0.000000e+00 3.100000e+00 1.000000e+03
    endloop
  endfacet
  facet normal 0.000000e+00 0.000000e+00 -1.000000e+00
    outer loop
      vertex -5.370000e+00 4.040000e+00 0.000000e+00
      vertex 0.000000e+00 3.100000e+00 0.000000e+00
      vertex -5.220000e+00 3.680000e+00 0.000000e+00
    endloop
  endfacet
  facet normal 0.000000e+00 0.000000e+00 1.000000e+00
    outer loop
      vertex 5.220000e+00 -3.680000e+00 1.000000e+03
      vertex -3.680000e+00 -5.220000e+00 1.000000e+03
      vertex 5.370000e+00 -4.040000e+00 1.000000e+03
    endloop
  endfacet
  facet normal 0.000000e+00 -0.000000e+00 -1.000000e+00
    outer loop
      vertex 5.220000e+00 -3.680000e+00 0.000000e+00
      vertex 5.370000e+00 -4.040000e+00 0.000000e+00
      vertex -3.680000e+00 -5.220000e+00 0.000000e+00
    endloop
  endfacet
  facet normal 0.000000e+00 0.000000e+00 1.000000e+00
    outer loop
      vertex 5.370000e+00 4.040000e+00 1.000000e+03
      vertex 0.000000e+00 3.100000e+00 1.000000e+03
      vertex 5.220000e+00 3.680000e+00 1.000000e+03
    endloop
  endfacet
  facet normal 0.000000e+00 0.000000e+00 -1.000000e+00
    outer loop
      vertex 5.370000e+00 4.040000e+00 0.000000e+00
      vertex 5.220000e+00 3.680000e+00 0.000000e+00
      vertex 0.000000e+00 3.100000e+00 0.000000e+00
    endloop
  endfacet
  facet normal 0.000000e+00 0.000000e+00 1.000000e+00
    outer loop
      vertex 8.200000e+00 -5.100000e+00 1.000000e+03
      vertex 3.680000e+00 -5.220000e+00 1.000000e+03
      vertex 4.040000e+00 -5.370000e+00 1.000000e+03
    endloop
  endfacet
  facet normal 0.000000e+00 0.000000e+00 -1.000000e+00
    outer loop
      vertex 8.200000e+00 -5.100000e+00 0.000000e+00
      vertex 4.040000e+00 -5.370000e+00 0.000000e+00
      vertex 3.680000e+00 -5.220000e+00 0.000000e+00
    endloop
  endfacet
  facet normal 0.000000e+00 0.000000e+00 1.000000e+00
    outer loop
      vertex -9.880000e+00 9.010000e+00 1.000000e+03
      vertex -1.000000e+01 8.400000e+00 1.000000e+03
      vertex -3.100000e+00 8.200000e+00 1.000000e+03
    endloop
  endfacet
  facet normal 0.000000e+00 -0.000000e+00 -1.000000e+00
    outer loop
      vertex -9.880000e+00 9.010000e+00 0.000000e+00
      vertex -3.100000e+00 8.200000e+00 0.000000e+00
      vertex -1.000000e+01 8.400000e+00 0.000000e+00
    endloop
  endfacet
  facet normal 0.000000e+00 0.000000e+00 1.000000e+00
    outer loop
      vertex 1.000000e+01 -8.400000e+00 1.000000e+03
      vertex 3.100000e+00 -1.000000e+01 1.000000e+03
      vertex 9.880000e+00 -9.010000e+00 1.000000e+03
    endloop
  endfacet
  facet normal 0.000000e+00 0.000000e+00 -1.000000e+00
    outer loop
      vertex 1.000000e+01 -8.400000e+00 0.000000e+00
      vertex 9.880000e+00 -9.010000e+00 0.000000e+00
      vertex 3.100000e+00 -1.000000e+01 0.000000e+00
    endloop
  endfacet
  facet normal 0.000000e+00 0.000000e+00 1.000000e+00
    outer loop
      vertex 9.010000e+00 -9.880000e+00 1.000000e+03
      vertex 3.100000e+00 -1.000000e+01 1.000000e+03
      vertex 8.400000e+00 -1.000000e+01 1.000000e+03
    endloop
  endfacet
  facet normal 0.000000e+00 0.000000e+00 -1.000000e+00
    outer loop
      vertex 9.010000e+00 -9.880000e+00 0.000000e+00
      vertex 8.400000e+00 -1.000000e+01 0.000000e+00
      vertex 3.100000e+00 -1.000000e+01 0.000000e+00
    endloop
  endfacet
  facet normal -0.000000e+00 0.000000e+00 1.000000e+00
    outer loop
      vertex -8.400000e+00 1.000000e+01 1.000000e+03
      vertex -9.010000e+00 9.880000e+00 1.000000e+03
      vertex -3.100000e+00 1.000000e+01 1.000000e+03
    endloop
  endfacet
  facet normal 0.000000e+00 -0.000000e+00 -1.000000e+00
    outer loop
      vertex -8.400000e+00 1.000000e+01 0.000000e+00
      vertex -3.100000e+00 1.000000e+01 0.000000e+00
      vertex -9.010000e+00 9.880000e+00 0.000000e+00
    endloop
  endfacet
  facet normal 0.000000e+00 0.000000e+00 1.000000e+00
    outer loop
      vertex -9.010000e+00 -9.880000e+00 1.000000e+03
      vertex -8.400000e+00 -1.000000e+01 1.000000e+03
      vertex -3.100000e+00 -1.000000e+01 1.000000e+03
    endloop
  endfacet
  facet normal 0.000000e+00 0.000000e+00 -1.000000e+00
    outer loop
      vertex -9.010000e+00 -9.880000e+00 0.000000e+00
      vertex -3.100000e+00 -1.000000e+01 0.000000e+00
      vertex -8.400000e+00 -1.000000e+01 0.000000e+00
    endloop
  endfacet
  facet normal 0.000000e+00 0.000000e+00 1.000000e+00
    outer loop
      vertex 8.400000e+00 1.000000e+01 1.000000e+03
      vertex 3.100000e+00 8.200000e+00 1.000000e+03
      vertex 9.010000e+00 9.880000e+00 1.000000e+03
    endloop
  endfacet
  facet normal 0.000000e+00 -0.000000e+00 -1.000000e+00
    outer loop
      vertex 8.400000e+00 1.000000e+01 0.000000e+00
      vertex 9.010000e+00 9.880000e+00 0.000000e+00
      vertex 3.100000e+00 8.200000e+00 0.000000e+00
    endloop
  endfacet
  facet normal 0.000000e+00 0.000000e+00 1.000000e+00
    outer loop
      vertex 9.880000e+00 9.010000e+00 1.000000e+03
      vertex 3.100000e+00 8.200000e+00 1.000000e+03
      vertex 1.000000e+01 8.400000e+00 1.000000e+03
    endloop
  endfacet
  facet normal 0.000000e+00 -0.000000e+00 -1.000000e+00
    outer loop
      vertex 9.880000e+00 9.010000e+00 0.000000e+00
      vertex 1.000000e+01 8.400000e+00 0.000000e+00
      vertex 3.100000e+00 8.200000e+00 0.000000e+00
    endloop
  endfacet
  facet normal 0.000000e+00 0.000000e+00 1.000000e+00
    outer loop
      vertex -1.000000e+01 -8.400000e+00 1.000000e+03
      vertex -9.880000e+00 -9.010000e+00 1.000000e+03
      vertex -3.100000e+00 -1.000000e+01 1.000000e+03
    endloop
  endfacet
  facet normal 0.000000e+00 0.000000e+00 -1.000000e+00
    outer loop
      vertex -1.000000e+01 -8.400000e+00 0.000000e+00
      vertex -3.100000e+00 -1.000000e+01 0.000000e+00
      vertex -9.880000e+00 -9.010000e+00 0.000000e+00
    endloop
  endfacet
  facet normal 1.985014e-01 -9.801006e-01 0.000000e+00
    outer loop
      vertex -1.185000e+00 2.860000e+00 1.000000e+03
      vertex -1.185000e+00 2.860000e+00 0.000000e+00
      vertex 0.000000e+00 3.100000e+00 0.000000e+00
    endloop
  endfacet
  facet normal 1.985014e-01 -9.801006e-01 0.000000e+00
    outer loop
      vertex -1.185000e+00 2.860000e+00 1.000000e+03
      vertex 0.000000e+00 3.100000e+00 0.000000e+00
      vertex 0.000000e+00 3.100000e+00 1.000000e+03
    endloop
  endfacet
  facet normal 1.000000e+00 0.000000e+00 0.000000e+00
    outer loop
      vertex 5.220000e+00 -3.680000e+00 1.000000e+03
      vertex 5.220000e+00 -3.680000e+00 0.000000e+00
      vertex 5.220000e+00 3.680000e+00 0.000000e+00
    endloop
  endfacet
  facet normal 1.000000e+00 -0.000000e+00 0.000000e+00
    outer loop
      vertex 5.220000e+00 -3.680000e+00 1.000000e+03
      vertex 5.220000e+00 3.680000e+00 0.000000e+00
      vertex 5.220000e+00 3.680000e+00 1.000000e+03
    endloop
  endfacet
  facet normal -1.000000e+00 0.000000e+00 -0.000000e+00
    outer loop
      vertex -5.220000e+00 3.680000e+00 1.000000e+03
      vertex -5.220000e+00 3.680000e+00 0.000000e+00
      vertex -5.220000e+00 -3.680000e+00 0.000000e+00
    endloop
  endfacet
  facet normal -1.000000e+00 -0.000000e+00 0.000000e+00
    outer loop
      vertex -5.220000e+00 3.680000e+00 1.000000e+03
      vertex -5.220000e+00 -3.680000e+00 0.000000e+00
      vertex -5.220000e+00 -3.680000e+00 1.000000e+03
    endloop
  endfacet
  facet normal 1.985014e-01 9.801006e-01 0.000000e+00
    outer loop
      vertex 0.000000e+00 -3.100000e+00 1.000000e+03
      vertex 0.000000e+00 -3.100000e+00 0.000000e+00
      vertex -1.185000e+00 -2.860000e+00 0.000000e+00
    endloop
  endfacet
  facet normal 1.985014e-01 9.801006e-01 0.000000e+00
    outer loop
      vertex 0.000000e+00 -3.100000e+00 1.000000e+03
      vertex -1.185000e+00 -2.860000e+00 0.000000e+00
      vertex -1.185000e+00 -2.860000e+00 1.000000e+03
    endloop
  endfacet
  facet normal 0.000000e+00 1.000000e+00 0.000000e+00
    outer loop
      vertex 3.680000e+00 5.220000e+00 1.000000e+03
      vertex 3.680000e+00 5.220000e+00 0.000000e+00
      vertex -3.680000e+00 5.220000e+00 0.000000e+00
    endloop
  endfacet
  facet normal 0.000000e+00 1.000000e+00 0.000000e+00
    outer loop
      vertex 3.680000e+00 5.220000e+00 1.000000e+03
      vertex -3.680000e+00 5.220000e+00 0.000000e+00
      vertex -3.680000e+00 5.220000e+00 1.000000e+03
    endloop
  endfacet
  facet normal 0.000000e+00 -1.000000e+00 0.000000e+00
    outer loop
      vertex -3.680000e+00 -5.220000e+00 1.000000e+03
      vertex -3.680000e+00 -5.220000e+00 0.000000e+00
      vertex 3.680000e+00 -5.220000e+00 0.000000e+00
    endloop
  endfacet
  facet normal 0.000000e+00 -1.000000e+00 0.000000e+00
    outer loop
      vertex -3.680000e+00 -5.220000e+00 1.000000e+03
      vertex 3.680000e+00 -5.220000e+00 0.000000e+00
      vertex 3.680000e+00 -5.220000e+00 1.000000e+03
    endloop
  endfacet
  facet normal -6.968851e-01 7.171828e-01 0.000000e+00
    outer loop
      vertex 5.100000e+00 6.400000e+00 1.000000e+03
      vertex 5.100000e+00 6.400000e+00 0.000000e+00
      vertex 4.040000e+00 5.370000e+00 0.000000e+00
    endloop
  endfacet
  facet normal -6.968851e-01 7.171828e-01 0.000000e+00
    outer loop
      vertex 5.100000e+00 6.400000e+00 1.000000e+03
      vertex 4.040000e+00 5.370000e+00 0.000000e+00
      vertex 4.040000e+00 5.370000e+00 1.000000e+03
    endloop
  endfacet
  facet normal 6.968851e-01 -7.171828e-01 0.000000e+00
    outer loop
      vertex -5.100000e+00 -6.400000e+00 1.000000e+03
      vertex -5.100000e+00 -6.400000e+00 0.000000e+00
      vertex -4.040000e+00 -5.370000e+00 0.000000e+00
    endloop
  endfacet
  facet normal 6.968851e-01 -7.171828e-01 0.000000e+00
    outer loop
      vertex -5.100000e+00 -6.400000e+00 1.000000e+03
      vertex -4.040000e+00 -5.370000e+00 0.000000e+00
      vertex -4.040000e+00 -5.370000e+00 1.000000e+03
    endloop
  endfacet
  facet normal -9.808978e-01 -1.945240e-01 -0.000000e+00
    outer loop
      vertex 2.865000e+00 1.185000e+00 1.000000e+03
      vertex 2.865000e+00 1.185000e+00 0.000000e+00
      vertex 3.100000e+00 -0.000000e+00 0.000000e+00
    endloop
  endfacet
  facet normal -9.808978e-01 -1.945240e-01 0.000000e+00
    outer loop
      vertex 2.865000e+00 1.185000e+00 1.000000e+03
      vertex 3.100000e+00 -0.000000e+00 0.000000e+00
      vertex 3.100000e+00 -0.000000e+00 1.000000e+03
    endloop
  endfacet
  facet normal 9.808978e-01 -1.945240e-01 0.000000e+00
    outer loop
      vertex -3.100000e+00 -0.000000e+00 1.000000e+03
      vertex -3.100000e+00 -0.000000e+00 0.000000e+00
      vertex -2.865000e+00 1.185000e+00 0.000000e+00
    endloop
  endfacet
  facet normal 9.808978e-01 -1.945240e-01 0.000000e+00
    outer loop
      vertex -3.100000e+00 -0.000000e+00 1.000000e+03
      vertex -2.865000e+00 1.185000e+00 0.000000e+00
      vertex -2.865000e+00 1.185000e+00 1.000000e+03
    endloop
  endfacet
  facet normal -7.171828e-01 -6.968851e-01 -0.000000e+00
    outer loop
      vertex -6.400000e+00 5.100000e+00 1.000000e+03
      vertex -6.400000e+00 5.100000e+00 0.000000e+00
      vertex -5.370000e+00 4.040000e+00 0.000000e+00
    endloop
  endfacet
  facet normal -7.171828e-01 -6.968851e-01 0.000000e+00
    outer loop
      vertex -6.400000e+00 5.100000e+00 1.000000e+03
      vertex -5.370000e+00 4.040000e+00 0.000000e+00
      vertex -5.370000e+00 4.040000e+00 1.000000e+03
    endloop
  endfacet
  facet normal 7.171828e-01 6.968851e-01 0.000000e+00
    outer loop
      vertex 6.400000e+00 -5.100000e+00 1.000000e+03
      vertex 6.400000e+00 -5.100000e+00 0.000000e+00
      vertex 5.370000e+00 -4.040000e+00 0.000000e+00
    endloop
  endfacet
  facet normal 7.171828e-01 6.968851e-01 0.000000e+00
    outer loop
      vertex 6.400000e+00 -5.100000e+00 1.000000e+03
      vertex 5.370000e+00 -4.040000e+00 0.000000e+00
      vertex 5.370000e+00 -4.040000e+00 1.000000e+03
    endloop
  endfacet
  facet normal 1.000000e+00 0.000000e+00 0.000000e+00
    outer loop
      vertex -5.100000e+00 6.400000e+00 1.000000e+03
      vertex -5.100000e+00 6.400000e+00 0.000000e+00
      vertex -5.100000e+00 8.200000e+00 0.000000e+00
    endloop
  endfacet
  facet normal 1.000000e+00 -0.000000e+00 0.000000e+00
    outer loop
      vertex -5.100000e+00 6.400000e+00 1.000000e+03
      vertex -5.100000e+00 8.200000e+00 0.000000e+00
      vertex -5.100000e+00 8.200000e+00 1.000000e+03
    endloop
  endfacet
  facet normal -1.000000e+00 0.000000e+00 -0.000000e+00
    outer loop
      vertex 5.100000e+00 -6.400000e+00 1.000000e+03
      vertex 5.100000e+00 -6.400000e+00 0.000000e+00
      vertex 5.100000e+00 -8.200000e+00 0.000000e+00
    endloop
  endfacet
  facet normal -1.000000e+00 -0.000000e+00 0.000000e+00
    outer loop
      vertex 5.100000e+00 -6.400000e+00 1.000000e+03
      vertex 5.100000e+00 -8.200000e+00 0.000000e+00
      vertex 5.100000e+00 -8.200000e+00 1.000000e+03
    endloop
  endfacet
  facet normal -7.171828e-01 6.968851e-01 0.000000e+00
    outer loop
      vertex -5.370000e+00 -4.040000e+00 1.000000e+03
      vertex -5.370000e+00 -4.040000e+00 0.000000e+00
      vertex -6.400000e+00 -5.100000e+00 0.000000e+00
    endloop
  endfacet
  facet normal -7.171828e-01 6.968851e-01 0.000000e+00
    outer loop
      vertex -5.370000e+00 -4.040000e+00 1.000000e+03
      vertex -6.400000e+00 -5.100000e+00 0.000000e+00
      vertex -6.400000e+00 -5.100000e+00 1.000000e+03
    endloop
  endfacet
  facet normal 1.000000e+00 0.000000e+00 0.000000e+00
    outer loop
      vertex -8.200000e+00 -5.100000e+00 1.000000e+03
      vertex -8.200000e+00 -5.100000e+00 0.000000e+00
      vertex -8.200000e+00 -3.100000e+00 0.000000e+00
    endloop
  endfacet
  facet normal 1.000000e+00 -0.000000e+00 0.000000e+00
    outer loop
      vertex -8.200000e+00 -5.100000e+00 1.000000e+03
      vertex -8.200000e+00 -3.100000e+00 0.000000e+00
      vertex -8.200000e+00 -3.100000e+00 1.000000e+03
    endloop
  endfacet
  facet normal 0.000000e+00 1.000000e+00 0.000000e+00
    outer loop
      vertex -3.100000e+00 -8.200000e+00 1.000000e+03
      vertex -3.100000e+00 -8.200000e+00 0.000000e+00
      vertex -5.100000e+00 -8.200000e+00 0.000000e+00
    endloop
  endfacet
  facet normal 0.000000e+00 1.000000e+00 0.000000e+00
    outer loop
      vertex -3.100000e+00 -8.200000e+00 1.000000e+03
      vertex -5.100000e+00 -8.200000e+00 0.000000e+00
      vertex -5.100000e+00 -8.200000e+00 1.000000e+03
    endloop
  endfacet
  facet normal 1.000000e+00 0.000000e+00 0.000000e+00
    outer loop
      vertex 1.000000e+01 -8.400000e+00 1.000000e+03
      vertex 1.000000e+01 -8.400000e+00 0.000000e+00
      vertex 1.000000e+01 -3.100000e+00 0.000000e+00
    endloop
  endfacet
  facet normal 1.000000e+00 -0.000000e+00 0.000000e+00
    outer loop
      vertex 1.000000e+01 -8.400000e+00 1.000000e+03
      vertex 1.000000e+01 -3.100000e+00 0.000000e+00
      vertex 1.000000e+01 -3.100000e+00 1.000000e+03
    endloop
  endfacet
  facet normal 1.000000e+00 0.000000e+00 0.000000e+00
    outer loop
      vertex 1.000000e+01 3.100000e+00 1.000000e+03
      vertex 1.000000e+01 3.100000e+00 0.000000e+00
      vertex 1.000000e+01 8.400000e+00 0.000000e+00
    endloop
  endfacet
  facet normal 1.000000e+00 -0.000000e+00 0.000000e+00
    outer loop
      vertex 1.000000e+01 3.100000e+00 1.000000e+03
      vertex 1.000000e+01 8.400000e+00 0.000000e+00
      vertex 1.000000e+01 8.400000e+00 1.000000e+03
    endloop
  endfacet
  facet normal 0.000000e+00 -1.000000e+00 0.000000e+00
    outer loop
      vertex 3.100000e+00 8.200000e+00 1.000000e+03
      vertex 3.100000e+00 8.200000e+00 0.000000e+00
      vertex 5.100000e+00 8.200000e+00 0.000000e+00
    endloop
  endfacet
  facet normal 0.000000e+00 -1.000000e+00 0.000000e+00
    outer loop
      vertex 3.100000e+00 8.200000e+00 1.000000e+03
      vertex 5.100000e+00 8.200000e+00 0.000000e+00
      vertex 5.100000e+00 8.200000e+00 1.000000e+03
    endloop
  endfacet
  facet normal -1.000000e+00 0.000000e+00 -0.000000e+00
    outer loop
      vertex -1.000000e+01 8.400000e+00 1.000000e+03
      vertex -1.000000e+01 8.400000e+00 0.000000e+00
      vertex -1.000000e+01 3.100000e+00 0.000000e+00
    endloop
  endfacet
  facet normal -1.000000e+00 -0.000000e+00 0.000000e+00
    outer loop
      vertex -1.000000e+01 8.400000e+00 1.000000e+03
      vertex -1.000000e+01 3.100000e+00 0.000000e+00
      vertex -1.000000e+01 3.100000e+00 1.000000e+03
    endloop
  endfacet
  facet normal 0.000000e+00 -1.000000e+00 0.000000e+00
    outer loop
      vertex -5.100000e+00 8.200000e+00 1.000000e+03
      vertex -5.100000e+00 8.200000e+00 0.000000e+00
      vertex -3.100000e+00 8.200000e+00 0.000000e+00
    endloop
  endfacet
  facet normal 0.000000e+00 -1.000000e+00 0.000000e+00
    outer loop
      vertex -5.100000e+00 8.200000e+00 1.000000e+03
      vertex -3.100000e+00 8.200000e+00 0.000000e+00
      vertex -3.100000e+00 8.200000e+00 1.000000e+03
    endloop
  endfacet
  facet normal -5.499202e-01 8.352172e-01 0.000000e+00
    outer loop
      vertex 2.195000e+00 -2.195000e+00 1.000000e+03
      vertex 2.195000e+00 -2.195000e+00 0.000000e+00
      vertex 1.185000e+00 -2.860000e+00 0.000000e+00
    endloop
  endfacet
  facet normal -5.499202e-01 8.352172e-01 0.000000e+00
    outer loop
      vertex 2.195000e+00 -2.195000e+00 1.000000e+03
      vertex 1.185000e+00 -2.860000e+00 0.000000e+00
      vertex 1.185000e+00 -2.860000e+00 1.000000e+03
    endloop
  endfacet
  facet normal -1.000000e+00 0.000000e+00 -0.000000e+00
    outer loop
      vertex -1.000000e+01 -3.100000e+00 1.000000e+03
      vertex -1.000000e+01 -3.100000e+00 0.000000e+00
      vertex -1.000000e+01 -8.400000e+00 0.000000e+00
    endloop
  endfacet
  facet normal -1.000000e+00 -0.000000e+00 0.000000e+00
    outer loop
      vertex -1.000000e+01 -3.100000e+00 1.000000e+03
      vertex -1.000000e+01 -8.400000e+00 0.000000e+00
      vertex -1.000000e+01 -8.400000e+00 1.000000e+03
    endloop
  endfacet
  facet normal 0.000000e+00 1.000000e+00 0.000000e+00
    outer loop
      vertex -8.200000e+00 -3.100000e+00 1.000000e+03
      vertex -8.200000e+00 -3.100000e+00 0.000000e+00
      vertex -1.000000e+01 -3.100000e+00 0.000000e+00
    endloop
  endfacet
  facet normal 0.000000e+00 1.000000e+00 0.000000e+00
    outer loop
      vertex -8.200000e+00 -3.100000e+00 1.000000e+03
      vertex -1.000000e+01 -3.100000e+00 0.000000e+00
      vertex -1.000000e+01 -3.100000e+00 1.000000e+03
    endloop
  endfacet
  facet normal -1.000000e+00 0.000000e+00 -0.000000e+00
    outer loop
      vertex 3.100000e+00 -8.200000e+00 1.000000e+03
      vertex 3.100000e+00 -8.200000e+00 0.000000e+00
      vertex 3.100000e+00 -1.000000e+01 0.000000e+00
    endloop
  endfacet
  facet normal -1.000000e+00 -0.000000e+00 0.000000e+00
    outer loop
      vertex 3.100000e+00 -8.200000e+00 1.000000e+03
      vertex 3.100000e+00 -1.000000e+01 0.000000e+00
      vertex 3.100000e+00 -1.000000e+01 1.000000e+03
    endloop
  endfacet
  facet normal 0.000000e+00 1.000000e+00 0.000000e+00
    outer loop
      vertex 5.100000e+00 -8.200000e+00 1.000000e+03
      vertex 5.100000e+00 -8.200000e+00 0.000000e+00
      vertex 3.100000e+00 -8.200000e+00 0.000000e+00
    endloop
  endfacet
  facet normal 0.000000e+00 1.000000e+00 0.000000e+00
    outer loop
      vertex 5.100000e+00 -8.200000e+00 1.000000e+03
      vertex 3.100000e+00 -8.200000e+00 0.000000e+00
      vertex 3.100000e+00 -8.200000e+00 1.000000e+03
    endloop
  endfacet
  facet normal 1.000000e+00 0.000000e+00 0.000000e+00
    outer loop
      vertex -3.100000e+00 -1.000000e+01 1.000000e+03
      vertex -3.100000e+00 -1.000000e+01 0.000000e+00
      vertex -3.100000e+00 -8.200000e+00 0.000000e+00
    endloop
  endfacet
  facet normal 1.000000e+00 -0.000000e+00 0.000000e+00
    outer loop
      vertex -3.100000e+00 -1.000000e+01 1.000000e+03
      vertex -3.100000e+00 -8.200000e+00 0.000000e+00
      vertex -3.100000e+00 -8.200000e+00 1.000000e+03
    endloop
  endfacet
  facet normal -1.000000e+00 0.000000e+00 -0.000000e+00
    outer loop
      vertex 8.200000e+00 5.100000e+00 1.000000e+03
      vertex 8.200000e+00 5.100000e+00 0.000000e+00
      vertex 8.200000e+00 3.100000e+00 0.000000e+00
    endloop
  endfacet
  facet normal -1.000000e+00 -0.000000e+00 0.000000e+00
    outer loop
      vertex 8.200000e+00 5.100000e+00 1.000000e+03
      vertex 8.200000e+00 3.100000e+00 0.000000e+00
      vertex 8.200000e+00 3.100000e+00 1.000000e+03
    endloop
  endfacet
  facet normal 0.000000e+00 -1.000000e+00 0.000000e+00
    outer loop
      vertex 8.200000e+00 3.100000e+00 1.000000e+03
      vertex 8.200000e+00 3.100000e+00 0.000000e+00
      vertex 1.000000e+01 3.100000e+00 0.000000e+00
    endloop
  endfacet
  facet normal 0.000000e+00 -1.000000e+00 0.000000e+00
    outer loop
      vertex 8.200000e+00 3.100000e+00 1.000000e+03
      vertex 1.000000e+01 3.100000e+00 0.000000e+00
      vertex 1.000000e+01 3.100000e+00 1.000000e+03
    endloop
  endfacet
  facet normal -1.000000e+00 0.000000e+00 -0.000000e+00
    outer loop
      vertex 8.200000e+00 -3.100000e+00 1.000000e+03
      vertex 8.200000e+00 -3.100000e+00 0.000000e+00
      vertex 8.200000e+00 -5.100000e+00 0.000000e+00
    endloop
  endfacet
  facet normal -1.000000e+00 -0.000000e+00 0.000000e+00
    outer loop
      vertex 8.200000e+00 -3.100000e+00 1.000000e+03
      vertex 8.200000e+00 -5.100000e+00 0.000000e+00
      vertex 8.200000e+00 -5.100000e+00 1.000000e+03
    endloop
  endfacet
  facet normal 0.000000e+00 1.000000e+00 0.000000e+00
    outer loop
      vertex 1.000000e+01 -3.100000e+00 1.000000e+03
      vertex 1.000000e+01 -3.100000e+00 0.000000e+00
      vertex 8.200000e+00 -3.100000e+00 0.000000e+00
    endloop
  endfacet
  facet normal 0.000000e+00 1.000000e+00 0.000000e+00
    outer loop
      vertex 1.000000e+01 -3.100000e+00 1.000000e+03
      vertex 8.200000e+00 -3.100000e+00 0.000000e+00
      vertex 8.200000e+00 -3.100000e+00 1.000000e+03
    endloop
  endfacet
  facet normal 0.000000e+00 -1.000000e+00 0.000000e+00
    outer loop
      vertex -1.000000e+01 3.100000e+00 1.000000e+03
      vertex -1.000000e+01 3.100000e+00 0.000000e+00
      vertex -8.200000e+00 3.100000e+00 0.000000e+00
    endloop
  endfacet
  facet normal 0.000000e+00 -1.000000e+00 0.000000e+00
    outer loop
      vertex -1.000000e+01 3.100000e+00 1.000000e+03
      vertex -8.200000e+00 3.100000e+00 0.000000e+00
      vertex -8.200000e+00 3.100000e+00 1.000000e+03
    endloop
  endfacet
  facet normal 1.000000e+00 0.000000e+00 0.000000e+00
    outer loop
      vertex -8.200000e+00 3.100000e+00 1.000000e+03
      vertex -8.200000e+00 3.100000e+00 0.000000e+00
      vertex -8.200000e+00 5.100000e+00 0.000000e+00
    endloop
  endfacet
  facet normal 1.000000e+00 -0.000000e+00 0.000000e+00
    outer loop
      vertex -8.200000e+00 3.100000e+00 1.000000e+03
      vertex -8.200000e+00 5.100000e+00 0.000000e+00
      vertex -8.200000e+00 5.100000e+00 1.000000e+03
    endloop
  endfacet
  facet normal 1.000000e+00 0.000000e+00 0.000000e+00
    outer loop
      vertex -3.100000e+00 8.200000e+00 1.000000e+03
      vertex -3.100000e+00 8.200000e+00 0.000000e+00
      vertex -3.100000e+00 1.000000e+01 0.000000e+00
    endloop
  endfacet
  facet normal 1.000000e+00 -0.000000e+00 0.000000e+00
    outer loop
      vertex -3.100000e+00 8.200000e+00 1.000000e+03
      vertex -3.100000e+00 1.000000e+01 0.000000e+00
      vertex -3.100000e+00 1.000000e+01 1.000000e+03
    endloop
  endfacet
  facet normal -1.000000e+00 0.000000e+00 -0.000000e+00
    outer loop
      vertex 3.100000e+00 1.000000e+01 1.000000e+03
      vertex 3.100000e+00 1.000000e+01 0.000000e+00
      vertex 3.100000e+00 8.200000e+00 0.000000e+00
    endloop
  endfacet
  facet normal -1.000000e+00 -0.000000e+00 0.000000e+00
    outer loop
      vertex 3.100000e+00 1.000000e+01 1.000000e+03
      vertex 3.100000e+00 8.200000e+00 0.000000e+00
      vertex 3.100000e+00 8.200000e+00 1.000000e+03
    endloop
  endfacet
  facet normal 0.000000e+00 1.000000e+00 0.000000e+00
    outer loop
      vertex 8.400000e+00 1.000000e+01 1.000000e+03
      vertex 8.400000e+00 1.000000e+01 0.000000e+00
      vertex 3.100000e+00 1.000000e+01 0.000000e+00
    endloop
  endfacet
  facet normal 0.000000e+00 1.000000e+00 0.000000e+00
    outer loop
      vertex 8.400000e+00 1.000000e+01 1.000000e+03
      vertex 3.100000e+00 1.000000e+01 0.000000e+00
      vertex 3.100000e+00 1.000000e+01 1.000000e+03
    endloop
  endfacet
  facet normal 7.171828e-01 -6.968851e-01 0.000000e+00
    outer loop
      vertex 5.370000e+00 4.040000e+00 1.000000e+03
      vertex 5.370000e+00 4.040000e+00 0.000000e+00
      vertex 6.400000e+00 5.100000e+00 0.000000e+00
    endloop
  endfacet
  facet normal 7.171828e-01 -6.968851e-01 0.000000e+00
    outer loop
      vertex 5.370000e+00 4.040000e+00 1.000000e+03
      vertex 6.400000e+00 5.100000e+00 0.000000e+00
      vertex 6.400000e+00 5.100000e+00 1.000000e+03
    endloop
  endfacet
  facet normal -1.985014e-01 -9.801006e-01 -0.000000e+00
    outer loop
      vertex 0.000000e+00 3.100000e+00 1.000000e+03
      vertex 0.000000e+00 3.100000e+00 0.000000e+00
      vertex 1.185000e+00 2.860000e+00 0.000000e+00
    endloop
  endfacet
  facet normal -1.985014e-01 -9.801006e-01 0.000000e+00
    outer loop
      vertex 0.000000e+00 3.100000e+00 1.000000e+03
      vertex 1.185000e+00 2.860000e+00 0.000000e+00
      vertex 1.185000e+00 2.860000e+00 1.000000e+03
    endloop
  endfacet
  facet normal 8.333174e-01 5.527947e-01 0.000000e+00
    outer loop
      vertex -2.195000e+00 -2.195000e+00 1.000000e+03
      vertex -2.195000e+00 -2.195000e+00 0.000000e+00
      vertex -2.865000e+00 -1.185000e+00 0.000000e+00
    endloop
  endfacet
  facet normal 8.333174e-01 5.527947e-01 0.000000e+00
    outer loop
      vertex -2.195000e+00 -2.195000e+00 1.000000e+03
      vertex -2.865000e+00 -1.185000e+00 0.000000e+00
      vertex -2.865000e+00 -1.185000e+00 1.000000e+03
    endloop
  endfacet
  facet normal -8.333174e-01 5.527947e-01 0.000000e+00
    outer loop
      vertex 2.865000e+00 -1.185000e+00 1.000000e+03
      vertex 2.865000e+00 -1.185000e+00 0.000000e+00
      vertex 2.195000e+00 -2.195000e+00 0.000000e+00
    endloop
  endfacet
  facet normal -8.333174e-01 5.527947e-01 0.000000e+00
    outer loop
      vertex 2.865000e+00 -1.185000e+00 1.000000e+03
      vertex 2.195000e+00 -2.195000e+00 0.000000e+00
      vertex 2.195000e+00 -2.195000e+00 1.000000e+03
    endloop
  endfacet
  facet normal -8.295877e-01 5.583764e-01 0.000000e+00
    outer loop
      vertex -9.530000e+00 9.530000e+00 1.000000e+03
      vertex -9.530000e+00 9.530000e+00 0.000000e+00
      vertex -9.880000e+00 9.010000e+00 0.000000e+00
    endloop
  endfacet
  facet normal -8.295877e-01 5.583764e-01 0.000000e+00
    outer loop
      vertex -9.530000e+00 9.530000e+00 1.000000e+03
      vertex -9.880000e+00 9.010000e+00 0.000000e+00
      vertex -9.880000e+00 9.010000e+00 1.000000e+03
    endloop
  endfacet
  facet normal 5.583764e-01 -8.295877e-01 0.000000e+00
    outer loop
      vertex 9.010000e+00 -9.880000e+00 1.000000e+03
      vertex 9.010000e+00 -9.880000e+00 0.000000e+00
      vertex 9.530000e+00 -9.530000e+00 0.000000e+00
    endloop
  endfacet
  facet normal 5.583764e-01 -8.295877e-01 0.000000e+00
    outer loop
      vertex 9.010000e+00 -9.880000e+00 1.000000e+03
      vertex 9.530000e+00 -9.530000e+00 0.000000e+00
      vertex 9.530000e+00 -9.530000e+00 1.000000e+03
    endloop
  endfacet
  facet normal -8.295877e-01 -5.583764e-01 -0.000000e+00
    outer loop
      vertex -9.880000e+00 -9.010000e+00 1.000000e+03
      vertex -9.880000e+00 -9.010000e+00 0.000000e+00
      vertex -9.530000e+00 -9.530000e+00 0.000000e+00
    endloop
  endfacet
  facet normal -8.295877e-01 -5.583764e-01 0.000000e+00
    outer loop
      vertex -9.880000e+00 -9.010000e+00 1.000000e+03
      vertex -9.530000e+00 -9.530000e+00 0.000000e+00
      vertex -9.530000e+00 -9.530000e+00 1.000000e+03
    endloop
  endfacet
  facet normal 5.583764e-01 8.295877e-01 0.000000e+00
    outer loop
      vertex 9.530000e+00 9.530000e+00 1.000000e+03
      vertex 9.530000e+00 9.530000e+00 0.000000e+00
      vertex 9.010000e+00 9.880000e+00 0.000000e+00
    endloop
  endfacet
  facet normal 5.583764e-01 8.295877e-01 0.000000e+00
    outer loop
      vertex 9.530000e+00 9.530000e+00 1.000000e+03
      vertex 9.010000e+00 9.880000e+00 0.000000e+00
      vertex 9.010000e+00 9.880000e+00 1.000000e+03
    endloop
  endfacet
  facet normal 0.000000e+00 1.000000e+00 0.000000e+00
    outer loop
      vertex -6.400000e+00 -5.100000e+00 1.000000e+03
      vertex -6.400000e+00 -5.100000e+00 0.000000e+00
      vertex -8.200000e+00 -5.100000e+00 0.000000e+00
    endloop
  endfacet
  facet normal 0.000000e+00 1.000000e+00 0.000000e+00
    outer loop
      vertex -6.400000e+00 -5.100000e+00 1.000000e+03
      vertex -8.200000e+00 -5.100000e+00 0.000000e+00
      vertex -8.200000e+00 -5.100000e+00 1.000000e+03
    endloop
  endfacet
  facet normal 0.000000e+00 -1.000000e+00 0.000000e+00
    outer loop
      vertex -8.200000e+00 5.100000e+00 1.000000e+03
      vertex -8.200000e+00 5.100000e+00 0.000000e+00
      vertex -6.400000e+00 5.100000e+00 0.000000e+00
    endloop
  endfacet
  facet normal 0.000000e+00 -1.000000e+00 0.000000e+00
    outer loop
      vertex -8.200000e+00 5.100000e+00 1.000000e+03
      vertex -6.400000e+00 5.100000e+00 0.000000e+00
      vertex -6.400000e+00 5.100000e+00 1.000000e+03
    endloop
  endfacet
  facet normal 0.000000e+00 -1.000000e+00 0.000000e+00
    outer loop
      vertex 6.400000e+00 5.100000e+00 1.000000e+03
      vertex 6.400000e+00 5.100000e+00 0.000000e+00
      vertex 8.200000e+00 5.100000e+00 0.000000e+00
    endloop
  endfacet
  facet normal 0.000000e+00 -1.000000e+00 0.000000e+00
    outer loop
      vertex 6.400000e+00 5.100000e+00 1.000000e+03
      vertex 8.200000e+00 5.100000e+00 0.000000e+00
      vertex 8.200000e+00 5.100000e+00 1.000000e+03
    endloop
  endfacet
  facet normal 0.000000e+00 1.000000e+00 0.000000e+00
    outer loop
      vertex 8.200000e+00 -5.100000e+00 1.000000e+03
      vertex 8.200000e+00 -5.100000e+00 0.000000e+00
      vertex 6.400000e+00 -5.100000e+00 0.000000e+00
    endloop
  endfacet
  facet normal 0.000000e+00 1.000000e+00 0.000000e+00
    outer loop
      vertex 8.200000e+00 -5.100000e+00 1.000000e+03
      vertex 6.400000e+00 -5.100000e+00 0.000000e+00
      vertex 6.400000e+00 -5.100000e+00 1.000000e+03
    endloop
  endfacet
  facet normal 1.000000e+00 0.000000e+00 0.000000e+00
    outer loop
      vertex -5.100000e+00 -8.200000e+00 1.000000e+03
      vertex -5.100000e+00 -8.200000e+00 0.000000e+00
      vertex -5.100000e+00 -6.400000e+00 0.000000e+00
    endloop
  endfacet
  facet normal 1.000000e+00 -0.000000e+00 0.000000e+00
    outer loop
      vertex -5.100000e+00 -8.200000e+00 1.000000e+03
      vertex -5.100000e+00 -6.400000e+00 0.000000e+00
      vertex -5.100000e+00 -6.400000e+00 1.000000e+03
    endloop
  endfacet
  facet normal -1.000000e+00 0.000000e+00 -0.000000e+00
    outer loop
      vertex 5.100000e+00 8.200000e+00 1.000000e+03
      vertex 5.100000e+00 8.200000e+00 0.000000e+00
      vertex 5.100000e+00 6.400000e+00 0.000000e+00
    endloop
  endfacet
  facet normal -1.000000e+00 -0.000000e+00 0.000000e+00
    outer loop
      vertex 5.100000e+00 8.200000e+00 1.000000e+03
      vertex 5.100000e+00 6.400000e+00 0.000000e+00
      vertex 5.100000e+00 6.400000e+00 1.000000e+03
    endloop
  endfacet
  facet normal 6.968851e-01 7.171828e-01 0.000000e+00
    outer loop
      vertex -4.040000e+00 5.370000e+00 1.000000e+03
      vertex -4.040000e+00 5.370000e+00 0.000000e+00
      vertex -5.100000e+00 6.400000e+00 0.000000e+00
    endloop
  endfacet
  facet normal 6.968851e-01 7.171828e-01 0.000000e+00
    outer loop
      vertex -4.040000e+00 5.370000e+00 1.000000e+03
      vertex -5.100000e+00 6.400000e+00 0.000000e+00
      vertex -5.100000e+00 6.400000e+00 1.000000e+03
    endloop
  endfacet
  facet normal -6.968851e-01 -7.171828e-01 -0.000000e+00
    outer loop
      vertex 4.040000e+00 -5.370000e+00 1.000000e+03
      vertex 4.040000e+00 -5.370000e+00 0.000000e+00
      vertex 5.100000e+00 -6.400000e+00 0.000000e+00
    endloop
  endfacet
  facet normal -6.968851e-01 -7.171828e-01 0.000000e+00
    outer loop
      vertex 4.040000e+00 -5.370000e+00 1.000000e+03
      vertex 5.100000e+00 -6.400000e+00 0.000000e+00
      vertex 5.100000e+00 -6.400000e+00 1.000000e+03
    endloop
  endfacet
  facet normal 8.333174e-01 -5.527947e-01 0.000000e+00
    outer loop
      vertex -2.865000e+00 1.185000e+00 1.000000e+03
      vertex -2.865000e+00 1.185000e+00 0.000000e+00
      vertex -2.195000e+00 2.195000e+00 0.000000e+00
    endloop
  endfacet
  facet normal 8.333174e-01 -5.527947e-01 0.000000e+00
    outer loop
      vertex -2.865000e+00 1.185000e+00 1.000000e+03
      vertex -2.195000e+00 2.195000e+00 0.000000e+00
      vertex -2.195000e+00 2.195000e+00 1.000000e+03
    endloop
  endfacet
  facet normal -8.333174e-01 -5.527947e-01 -0.000000e+00
    outer loop
      vertex 2.195000e+00 2.195000e+00 1.000000e+03
      vertex 2.195000e+00 2.195000e+00 0.000000e+00
      vertex 2.865000e+00 1.185000e+00 0.000000e+00
    endloop
  endfacet
  facet normal -8.333174e-01 -5.527947e-01 0.000000e+00
    outer loop
      vertex 2.195000e+00 2.195000e+00 1.000000e+03
      vertex 2.865000e+00 1.185000e+00 0.000000e+00
      vertex 2.865000e+00 1.185000e+00 1.000000e+03
    endloop
  endfacet
  facet normal 9.808978e-01 1.945240e-01 0.000000e+00
    outer loop
      vertex -2.865000e+00 -1.185000e+00 1.000000e+03
      vertex -2.865000e+00 -1.185000e+00 0.000000e+00
      vertex -3.100000e+00 -0.000000e+00 0.000000e+00
    endloop
  endfacet
  facet normal 9.808978e-01 1.945240e-01 0.000000e+00
    outer loop
      vertex -2.865000e+00 -1.185000e+00 1.000000e+03
      vertex -3.100000e+00 -0.000000e+00 0.000000e+00
      vertex -3.100000e+00 -0.000000e+00 1.000000e+03
    endloop
  endfacet
  facet normal -9.808978e-01 1.945240e-01 0.000000e+00
    outer loop
      vertex 3.100000e+00 -0.000000e+00 1.000000e+03
      vertex 3.100000e+00 -0.000000e+00 0.000000e+00
      vertex 2.865000e+00 -1.185000e+00 0.000000e+00
    endloop
  endfacet
  facet normal -9.808978e-01 1.945240e-01 0.000000e+00
    outer loop
      vertex 3.100000e+00 -0.000000e+00 1.000000e+03
      vertex 2.865000e+00 -1.185000e+00 0.000000e+00
      vertex 2.865000e+00 -1.185000e+00 1.000000e+03
    endloop
  endfacet
  facet normal 5.499202e-01 8.352172e-01 0.000000e+00
    outer loop
      vertex -1.185000e+00 -2.860000e+00 1.000000e+03
      vertex -1.185000e+00 -2.860000e+00 0.000000e+00
      vertex -2.195000e+00 -2.195000e+00 0.000000e+00
    endloop
  endfacet
  facet normal 5.499202e-01 8.352172e-01 0.000000e+00
    outer loop
      vertex -1.185000e+00 -2.860000e+00 1.000000e+03
      vertex -2.195000e+00 -2.195000e+00 0.000000e+00
      vertex -2.195000e+00 -2.195000e+00 1.000000e+03
    endloop
  endfacet
  facet normal -5.499202e-01 -8.352172e-01 -0.000000e+00
    outer loop
      vertex 1.185000e+00 2.860000e+00 1.000000e+03
      vertex 1.185000e+00 2.860000e+00 0.000000e+00
      vertex 2.195000e+00 2.195000e+00 0.000000e+00
    endloop
  endfacet
  facet normal -5.499202e-01 -8.352172e-01 0.000000e+00
    outer loop
      vertex 1.185000e+00 2.860000e+00 1.000000e+03
      vertex 2.195000e+00 2.195000e+00 0.000000e+00
      vertex 2.195000e+00 2.195000e+00 1.000000e+03
    endloop
  endfacet
  facet normal 5.499202e-01 -8.352172e-01 0.000000e+00
    outer loop
      vertex -2.195000e+00 2.195000e+00 1.000000e+03
      vertex -2.195000e+00 2.195000e+00 0.000000e+00
      vertex -1.185000e+00 2.860000e+00 0.000000e+00
    endloop
  endfacet
  facet normal 5.499202e-01 -8.352172e-01 0.000000e+00
    outer loop
      vertex -2.195000e+00 2.195000e+00 1.000000e+03
      vertex -1.185000e+00 2.860000e+00 0.000000e+00
      vertex -1.185000e+00 2.860000e+00 1.000000e+03
    endloop
  endfacet
  facet normal -1.985014e-01 9.801006e-01 0.000000e+00
    outer loop
      vertex 1.185000e+00 -2.860000e+00 1.000000e+03
      vertex 1.185000e+00 -2.860000e+00 0.000000e+00
      vertex 0.000000e+00 -3.100000e+00 0.000000e+00
    endloop
  endfacet
  facet normal -1.985014e-01 9.801006e-01 0.000000e+00
    outer loop
      vertex 1.185000e+00 -2.860000e+00 1.000000e+03
      vertex 0.000000e+00 -3.100000e+00 0.000000e+00
      vertex 0.000000e+00 -3.100000e+00 1.000000e+03
    endloop
  endfacet
  facet normal 8.295877e-01 -5.583764e-01 0.000000e+00
    outer loop
      vertex 9.530000e+00 -9.530000e+00 1.000000e+03
      vertex 9.530000e+00 -9.530000e+00 0.000000e+00
      vertex 9.880000e+00 -9.010000e+00 0.000000e+00
    endloop
  endfacet
  facet normal 8.295877e-01 -5.583764e-01 0.000000e+00
    outer loop
      vertex 9.530000e+00 -9.530000e+00 1.000000e+03
      vertex 9.880000e+00 -9.010000e+00 0.000000e+00
      vertex 9.880000e+00 -9.010000e+00 1.000000e+03
    endloop
  endfacet
  facet normal 8.295877e-01 5.583764e-01 0.000000e+00
    outer loop
      vertex 9.880000e+00 9.010000e+00 1.000000e+03
      vertex 9.880000e+00 9.010000e+00 0.000000e+00
      vertex 9.530000e+00 9.530000e+00 0.000000e+00
    endloop
  endfacet
  facet normal 8.295877e-01 5.583764e-01 0.000000e+00
    outer loop
      vertex 9.880000e+00 9.010000e+00 1.000000e+03
      vertex 9.530000e+00 9.530000e+00 0.000000e+00
      vertex 9.530000e+00 9.530000e+00 1.000000e+03
    endloop
  endfacet
  facet normal -5.583764e-01 -8.295877e-01 -0.000000e+00
    outer loop
      vertex -9.530000e+00 -9.530000e+00 1.000000e+03
      vertex -9.530000e+00 -9.530000e+00 0.000000e+00
      vertex -9.010000e+00 -9.880000e+00 0.000000e+00
    endloop
  endfacet
  facet normal -5.583764e-01 -8.295877e-01 0.000000e+00
    outer loop
      vertex -9.530000e+00 -9.530000e+00 1.000000e+03
      vertex -9.010000e+00 -9.880000e+00 0.000000e+00
      vertex -9.010000e+00 -9.880000e+00 1.000000e+03
    endloop
  endfacet
  facet normal -5.583764e-01 8.295877e-01 0.000000e+00
    outer loop
      vertex -9.010000e+00 9.880000e+00 1.000000e+03
      vertex -9.010000e+00 9.880000e+00 0.000000e+00
      vertex -9.530000e+00 9.530000e+00 0.000000e+00
    endloop
  endfacet
  facet normal -5.583764e-01 8.295877e-01 0.000000e+00
    outer loop
      vertex -9.010000e+00 9.880000e+00 1.000000e+03
      vertex -9.530000e+00 9.530000e+00 0.000000e+00
      vertex -9.530000e+00 9.530000e+00 1.000000e+03
    endloop
  endfacet
  facet normal 3.846154e-01 -9.230769e-01 0.000000e+00
    outer loop
      vertex -4.040000e+00 -5.370000e+00 1.000000e+03
      vertex -4.040000e+00 -5.370000e+00 0.000000e+00
      vertex -3.680000e+00 -5.220000e+00 0.000000e+00
    endloop
  endfacet
  facet normal 3.846154e-01 -9.230769e-01 0.000000e+00
    outer loop
      vertex -4.040000e+00 -5.370000e+00 1.000000e+03
      vertex -3.680000e+00 -5.220000e+00 0.000000e+00
      vertex -3.680000e+00 -5.220000e+00 1.000000e+03
    endloop
  endfacet
  facet normal -3.846154e-01 9.230769e-01 0.000000e+00
    outer loop
      vertex 4.040000e+00 5.370000e+00 1.000000e+03
      vertex 4.040000e+00 5.370000e+00 0.000000e+00
      vertex 3.680000e+00 5.220000e+00 0.000000e+00
    endloop
  endfacet
  facet normal -3.846154e-01 9.230769e-01 0.000000e+00
    outer loop
      vertex 4.040000e+00 5.370000e+00 1.000000e+03
      vertex 3.680000e+00 5.220000e+00 0.000000e+00
      vertex 3.680000e+00 5.220000e+00 1.000000e+03
    endloop
  endfacet
  facet normal 3.846154e-01 9.230769e-01 0.000000e+00
    outer loop
      vertex -3.680000e+00 5.220000e+00 1.000000e+03
      vertex -3.680000e+00 5.220000e+00 0.000000e+00
      vertex -4.040000e+00 5.370000e+00 0.000000e+00
    endloop
  endfacet
  facet normal 3.846154e-01 9.230769e-01 0.000000e+00
    outer loop
      vertex -3.680000e+00 5.220000e+00 1.000000e+03
      vertex -4.040000e+00 5.370000e+00 0.000000e+00
      vertex -4.040000e+00 5.370000e+00 1.000000e+03
    endloop
  endfacet
  facet normal -9.230769e-01 3.846154e-01 0.000000e+00
    outer loop
      vertex -5.220000e+00 -3.680000e+00 1.000000e+03
      vertex -5.220000e+00 -3.680000e+00 0.000000e+00
      vertex -5.370000e+00 -4.040000e+00 0.000000e+00
    endloop
  endfacet
  facet normal -9.230769e-01 3.846154e-01 0.000000e+00
    outer loop
      vertex -5.220000e+00 -3.680000e+00 1.000000e+03
      vertex -5.370000e+00 -4.040000e+00 0.000000e+00
      vertex -5.370000e+00 -4.040000e+00 1.000000e+03
    endloop
  endfacet
  facet normal -9.230769e-01 -3.846154e-01 -0.000000e+00
    outer loop
      vertex -5.370000e+00 4.040000e+00 1.000000e+03
      vertex -5.370000e+00 4.040000e+00 0.000000e+00
      vertex -5.220000e+00 3.680000e+00 0.000000e+00
    endloop
  endfacet
  facet normal -9.230769e-01 -3.846154e-01 0.000000e+00
    outer loop
      vertex -5.370000e+00 4.040000e+00 1.000000e+03
      vertex -5.220000e+00 3.680000e+00 0.000000e+00
      vertex -5.220000e+00 3.680000e+00 1.000000e+03
    endloop
  endfacet
  facet normal 9.230769e-01 3.846154e-01 0.000000e+00
    outer loop
      vertex 5.370000e+00 -4.040000e+00 1.000000e+03
      vertex 5.370000e+00 -4.040000e+00 0.000000e+00
      vertex 5.220000e+00 -3.680000e+00 0.000000e+00
    endloop
  endfacet
  facet normal 9.230769e-01 3.846154e-01 0.000000e+00
    outer loop
      vertex 5.370000e+00 -4.040000e+00 1.000000e+03
      vertex 5.220000e+00 -3.680000e+00 0.000000e+00
      vertex 5.220000e+00 -3.680000e+00 1.000000e+03
    endloop
  endfacet
  facet normal 9.230769e-01 -3.846154e-01 0.000000e+00
    outer loop
      vertex 5.220000e+00 3.680000e+00 1.000000e+03
      vertex 5.220000e+00 3.680000e+00 0.000000e+00
      vertex 5.370000e+00 4.040000e+00 0.000000e+00
    endloop
  endfacet
  facet normal 9.230769e-01 -3.846154e-01 0.000000e+00
    outer loop
      vertex 5.220000e+00 3.680000e+00 1.000000e+03
      vertex 5.370000e+00 4.040000e+00 0.000000e+00
      vertex 5.370000e+00 4.040000e+00 1.000000e+03
    endloop
  endfacet
  facet normal -3.846154e-01 -9.230769e-01 -0.000000e+00
    outer loop
      vertex 3.680000e+00 -5.220000e+00 1.000000e+03
      vertex 3.680000e+00 -5.220000e+00 0.000000e+00
      vertex 4.040000e+00 -5.370000e+00 0.000000e+00
    endloop
  endfacet
  facet normal -3.846154e-01 -9.230769e-01 0.000000e+00
    outer loop
      vertex 3.680000e+00 -5.220000e+00 1.000000e+03
      vertex 4.040000e+00 -5.370000e+00 0.000000e+00
      vertex 4.040000e+00 -5.370000e+00 1.000000e+03
    endloop
  endfacet
  facet normal -9.811945e-01 1.930219e-01 0.000000e+00
    outer loop
      vertex -9.880000e+00 9.010000e+00 1.000000e+03
      vertex -9.880000e+00 9.010000e+00 0.000000e+00
      vertex -1.000000e+01 8.400000e+00 0.000000e+00
    endloop
  endfacet
  facet normal -9.811945e-01 1.930219e-01 0.000000e+00
    outer loop
      vertex -9.880000e+00 9.010000e+00 1.000000e+03
      vertex -1.000000e+01 8.400000e+00 0.000000e+00
      vertex -1.000000e+01 8.400000e+00 1.000000e+03
    endloop
  endfacet
  facet normal 9.811945e-01 -1.930219e-01 0.000000e+00
    outer loop
      vertex 9.880000e+00 -9.010000e+00 1.000000e+03
      vertex 9.880000e+00 -9.010000e+00 0.000000e+00
      vertex 1.000000e+01 -8.400000e+00 0.000000e+00
    endloop
  endfacet
  facet normal 9.811945e-01 -1.930219e-01 0.000000e+00
    outer loop
      vertex 9.880000e+00 -9.010000e+00 1.000000e+03
      vertex 1.000000e+01 -8.400000e+00 0.000000e+00
      vertex 1.000000e+01 -8.400000e+00 1.000000e+03
    endloop
  endfacet
  facet normal 0.000000e+00 -1.000000e+00 0.000000e+00
    outer loop
      vertex 3.100000e+00 -1.000000e+01 1.000000e+03
      vertex 3.100000e+00 -1.000000e+01 0.000000e+00
      vertex 8.400000e+00 -1.000000e+01 0.000000e+00
    endloop
  endfacet
  facet normal 0.000000e+00 -1.000000e+00 0.000000e+00
    outer loop
      vertex 3.100000e+00 -1.000000e+01 1.000000e+03
      vertex 8.400000e+00 -1.000000e+01 0.000000e+00
      vertex 8.400000e+00 -1.000000e+01 1.000000e+03
    endloop
  endfacet
  facet normal 1.930219e-01 -9.811945e-01 0.000000e+00
    outer loop
      vertex 8.400000e+00 -1.000000e+01 1.000000e+03
      vertex 8.400000e+00 -1.000000e+01 0.000000e+00
      vertex 9.010000e+00 -9.880000e+00 0.000000e+00
    endloop
  endfacet
  facet normal 1.930219e-01 -9.811945e-01 0.000000e+00
    outer loop
      vertex 8.400000e+00 -1.000000e+01 1.000000e+03
      vertex 9.010000e+00 -9.880000e+00 0.000000e+00
      vertex 9.010000e+00 -9.880000e+00 1.000000e+03
    endloop
  endfacet
  facet normal -1.930219e-01 9.811945e-01 0.000000e+00
    outer loop
      vertex -8.400000e+00 1.000000e+01 1.000000e+03
      vertex -8.400000e+00 1.000000e+01 0.000000e+00
      vertex -9.010000e+00 9.880000e+00 0.000000e+00
    endloop
  endfacet
  facet normal -1.930219e-01 9.811945e-01 0.000000e+00
    outer loop
      vertex -8.400000e+00 1.000000e+01 1.000000e+03
      vertex -9.010000e+00 9.880000e+00 0.000000e+00
      vertex -9.010000e+00 9.880000e+00 1.000000e+03
    endloop
  endfacet
  facet normal 0.000000e+00 1.000000e+00 0.000000e+00
    outer loop
      vertex -3.100000e+00 1.000000e+01 1.000000e+03
      vertex -3.100000e+00 1.000000e+01 0.000000e+00
      vertex -8.400000e+00 1.000000e+01 0.000000e+00
    endloop
  endfacet
  facet normal 0.000000e+00 1.000000e+00 0.000000e+00
    outer loop
      vertex -3.100000e+00 1.000000e+01 1.000000e+03
      vertex -8.400000e+00 1.000000e+01 0.000000e+00
      vertex -8.400000e+00 1.000000e+01 1.000000e+03
    endloop
  endfacet
  facet normal -1.930219e-01 -9.811945e-01 -0.000000e+00
    outer loop
      vertex -9.010000e+00 -9.880000e+00 1.000000e+03
      vertex -9.010000e+00 -9.880000e+00 0.000000e+00
      vertex -8.400000e+00 -1.000000e+01 0.000000e+00
    endloop
  endfacet
  facet normal -1.930219e-01 -9.811945e-01 0.000000e+00
    outer loop
      vertex -9.010000e+00 -9.880000e+00 1.000000e+03
      vertex -8.400000e+00 -1.000000e+01 0.000000e+00
      vertex -8.400000e+00 -1.000000e+01 1.000000e+03
    endloop
  endfacet
  facet normal 0.000000e+00 -1.000000e+00 0.000000e+00
    outer loop
      vertex -8.400000e+00 -1.000000e+01 1.000000e+03
      vertex -8.400000e+00 -1.000000e+01 0.000000e+00
      vertex -3.100000e+00 -1.000000e+01 0.000000e+00
    endloop
  endfacet
  facet normal 0.000000e+00 -1.000000e+00 0.000000e+00
    outer loop
      vertex -8.400000e+00 -1.000000e+01 1.000000e+03
      vertex -3.100000e+00 -1.000000e+01 0.000000e+00
      vertex -3.100000e+00 -1.000000e+01 1.000000e+03
    endloop
  endfacet
  facet normal 1.930219e-01 9.811945e-01 0.000000e+00
    outer loop
      vertex 9.010000e+00 9.880000e+00 1.000000e+03
      vertex 9.010000e+00 9.880000e+00 0.000000e+00
      vertex 8.400000e+00 1.000000e+01 0.000000e+00
    endloop
  endfacet
  facet normal 1.930219e-01 9.811945e-01 0.000000e+00
    outer loop
      vertex 9.010000e+00 9.880000e+00 1.000000e+03
      vertex 8.400000e+00 1.000000e+01 0.000000e+00
      vertex 8.400000e+00 1.000000e+01 1.000000e+03
    endloop
  endfacet
  facet normal 9.811945e-01 1.930219e-01 0.000000e+00
    outer loop
      vertex 1.000000e+01 8.400000e+00 1.000000e+03
      vertex 1.000000e+01 8.400000e+00 0.000000e+00
      vertex 9.880000e+00 9.010000e+00 0.000000e+00
    endloop
  endfacet
  facet normal 9.811945e-01 1.930219e-01 0.000000e+00
    outer loop
      vertex 1.000000e+01 8.400000e+00 1.000000e+03
      vertex 9.880000e+00 9.010000e+00 0.000000e+00
      vertex 9.880000e+00 9.010000e+00 1.000000e+03
    endloop
  endfacet
  facet normal -9.811945e-01 -1.930219e-01 -0.000000e+00
    outer loop
      vertex -1.000000e+01 -8.400000e+00 1.000000e+03
      vertex -1.000000e+01 -8.400000e+00 0.000000e+00
      vertex -9.880000e+00 -9.010000e+00 0.000000e+00
    endloop
  endfacet
  facet normal -9.811945e-01 -1.930219e-01 0.000000e+00
    outer loop
      vertex -1.000000e+01 -8.400000e+00 1.000000e+03
      vertex -9.880000e+00 -9.010000e+00 0.000000e+00
      vertex -9.880000e+00 -9.010000e+00 1.000000e+03
    endloop
  endfacet
endsolid maytec_profile
